G75*
%MOIN*%
%OFA0B0*%
%FSLAX25Y25*%
%IPPOS*%
%LPD*%
%AMOC8*
5,1,8,0,0,1.08239X$1,22.5*
%
%ADD10C,0.00000*%
%ADD11C,0.00600*%
%ADD12C,0.00400*%
%ADD13C,0.00800*%
%ADD14C,0.00300*%
%ADD15C,0.02000*%
%ADD16C,0.00500*%
%ADD17R,0.42000X0.03000*%
%ADD18R,0.07500X0.02000*%
%ADD19R,0.03000X0.02000*%
%ADD20C,0.01575*%
%ADD21R,0.07087X0.01969*%
%ADD22C,0.02362*%
%ADD23C,0.00100*%
D10*
X0005000Y0005000D02*
X0005000Y0215000D01*
X0330921Y0214701D01*
X0370000Y0215000D01*
X0377000Y0209000D01*
X0377000Y0163000D01*
X0387000Y0154000D01*
X0387000Y0025000D01*
X0377000Y0015000D01*
X0377000Y0005000D01*
X0005000Y0005000D01*
D11*
X0041300Y0013368D02*
X0042368Y0012300D01*
X0044503Y0012300D01*
X0045570Y0013368D01*
X0045570Y0017638D01*
X0044503Y0018705D01*
X0042368Y0018705D01*
X0041300Y0017638D01*
X0041300Y0013368D01*
X0047745Y0012300D02*
X0050948Y0012300D01*
X0052016Y0013368D01*
X0052016Y0015503D01*
X0050948Y0016570D01*
X0047745Y0016570D01*
X0047745Y0010165D01*
X0054191Y0013368D02*
X0054191Y0015503D01*
X0055259Y0016570D01*
X0057394Y0016570D01*
X0058461Y0015503D01*
X0058461Y0014435D01*
X0054191Y0014435D01*
X0054191Y0013368D02*
X0055259Y0012300D01*
X0057394Y0012300D01*
X0060636Y0012300D02*
X0060636Y0016570D01*
X0063839Y0016570D01*
X0064907Y0015503D01*
X0064907Y0012300D01*
X0073527Y0012300D02*
X0076730Y0012300D01*
X0077798Y0013368D01*
X0077798Y0014435D01*
X0076730Y0015503D01*
X0073527Y0015503D01*
X0073527Y0018705D02*
X0076730Y0018705D01*
X0077798Y0017638D01*
X0077798Y0016570D01*
X0076730Y0015503D01*
X0073527Y0012300D02*
X0073527Y0018705D01*
X0079973Y0018705D02*
X0079973Y0012300D01*
X0084243Y0012300D01*
X0086418Y0012300D02*
X0089621Y0012300D01*
X0090689Y0013368D01*
X0090689Y0017638D01*
X0089621Y0018705D01*
X0086418Y0018705D01*
X0086418Y0012300D01*
X0092864Y0013368D02*
X0093932Y0012300D01*
X0096067Y0012300D01*
X0097134Y0013368D01*
X0092864Y0013368D02*
X0092864Y0017638D01*
X0093932Y0018705D01*
X0096067Y0018705D01*
X0097134Y0017638D01*
X0105755Y0017638D02*
X0105755Y0013368D01*
X0110025Y0017638D01*
X0110025Y0013368D01*
X0108958Y0012300D01*
X0106823Y0012300D01*
X0105755Y0013368D01*
X0112200Y0013368D02*
X0112200Y0012300D01*
X0113268Y0012300D01*
X0113268Y0013368D01*
X0112200Y0013368D01*
X0115423Y0013368D02*
X0115423Y0012300D01*
X0115423Y0013368D02*
X0119694Y0017638D01*
X0119694Y0018705D01*
X0115423Y0018705D01*
X0110025Y0017638D02*
X0108958Y0018705D01*
X0106823Y0018705D01*
X0105755Y0017638D01*
X0121869Y0017638D02*
X0121869Y0013368D01*
X0126139Y0017638D01*
X0126139Y0013368D01*
X0125071Y0012300D01*
X0122936Y0012300D01*
X0121869Y0013368D01*
X0121869Y0017638D02*
X0122936Y0018705D01*
X0125071Y0018705D01*
X0126139Y0017638D01*
X0139000Y0042500D02*
X0138500Y0054000D01*
X0137500Y0055000D01*
X0100500Y0055000D01*
X0099500Y0054000D01*
X0099000Y0042500D01*
X0094000Y0042500D02*
X0093500Y0054000D01*
X0092500Y0055000D01*
X0055500Y0055000D01*
X0054500Y0054000D01*
X0054000Y0042500D01*
X0049000Y0042500D02*
X0048500Y0054000D01*
X0047500Y0055000D01*
X0010500Y0055000D01*
X0009500Y0054000D01*
X0009000Y0042500D01*
X0144000Y0042500D02*
X0144500Y0054000D01*
X0145500Y0055000D01*
X0182500Y0055000D01*
X0183500Y0054000D01*
X0184000Y0042500D01*
X0190000Y0043500D02*
X0190500Y0055000D01*
X0191500Y0056000D01*
X0228500Y0056000D01*
X0229500Y0055000D01*
X0230000Y0043500D01*
X0235000Y0043500D02*
X0235500Y0055000D01*
X0236500Y0056000D01*
X0273500Y0056000D01*
X0274500Y0055000D01*
X0275000Y0043500D01*
X0324457Y0094685D02*
X0324535Y0094685D01*
X0324457Y0094685D02*
X0324457Y0105315D01*
X0324535Y0105315D01*
X0331465Y0105315D02*
X0331543Y0105315D01*
X0331543Y0094685D01*
X0331465Y0094685D01*
X0339929Y0143043D02*
X0343106Y0143043D01*
X0344165Y0144102D01*
X0344165Y0148338D01*
X0343106Y0149397D01*
X0339929Y0149397D01*
X0339929Y0143043D01*
X0346327Y0146220D02*
X0350563Y0146220D01*
X0349504Y0149397D02*
X0346327Y0146220D01*
X0349504Y0143043D02*
X0349504Y0149397D01*
D12*
X0350566Y0157514D02*
X0352104Y0157514D01*
X0352873Y0158283D01*
X0352873Y0162127D01*
X0354410Y0160589D02*
X0355947Y0162127D01*
X0355947Y0157514D01*
X0354410Y0157514D02*
X0357485Y0157514D01*
X0350566Y0157514D02*
X0349798Y0158283D01*
X0349798Y0162127D01*
X0305300Y0145477D02*
X0305300Y0142408D01*
X0305300Y0143942D02*
X0300696Y0143942D01*
X0302231Y0142408D01*
X0305300Y0140873D02*
X0305300Y0137804D01*
X0305300Y0139339D02*
X0300696Y0139339D01*
X0302231Y0137804D01*
X0301463Y0136269D02*
X0300696Y0135502D01*
X0300696Y0133967D01*
X0301463Y0133200D01*
X0304533Y0133200D01*
X0305300Y0133967D01*
X0305300Y0135502D01*
X0304533Y0136269D01*
X0292300Y0135502D02*
X0292300Y0133967D01*
X0291533Y0133200D01*
X0288463Y0133200D01*
X0287696Y0133967D01*
X0287696Y0135502D01*
X0288463Y0136269D01*
X0289231Y0137804D02*
X0287696Y0139339D01*
X0292300Y0139339D01*
X0292300Y0140873D02*
X0292300Y0137804D01*
X0291533Y0136269D02*
X0292300Y0135502D01*
X0291533Y0142408D02*
X0288463Y0142408D01*
X0287696Y0143175D01*
X0287696Y0144710D01*
X0288463Y0145477D01*
X0291533Y0142408D01*
X0292300Y0143175D01*
X0292300Y0144710D01*
X0291533Y0145477D01*
X0288463Y0145477D01*
X0318200Y0126537D02*
X0318200Y0123467D01*
X0318967Y0122700D01*
X0320502Y0122700D01*
X0321269Y0123467D01*
X0322804Y0122700D02*
X0325873Y0125769D01*
X0325873Y0126537D01*
X0325106Y0127304D01*
X0323571Y0127304D01*
X0322804Y0126537D01*
X0321269Y0126537D02*
X0320502Y0127304D01*
X0318967Y0127304D01*
X0318200Y0126537D01*
X0322804Y0122700D02*
X0325873Y0122700D01*
X0327408Y0123467D02*
X0328175Y0122700D01*
X0329710Y0122700D01*
X0330477Y0123467D01*
X0330477Y0125002D01*
X0329710Y0125769D01*
X0328942Y0125769D01*
X0327408Y0125002D01*
X0327408Y0127304D01*
X0330477Y0127304D01*
X0333314Y0103783D02*
X0333314Y0100714D01*
X0335616Y0100714D01*
X0334849Y0102249D01*
X0334849Y0103016D01*
X0335616Y0103783D01*
X0337151Y0103783D01*
X0337918Y0103016D01*
X0337918Y0101481D01*
X0337151Y0100714D01*
X0337151Y0099180D02*
X0334082Y0099180D01*
X0333314Y0098412D01*
X0333314Y0096110D01*
X0337918Y0096110D01*
X0337918Y0098412D01*
X0337151Y0099180D01*
X0347700Y0074465D02*
X0346932Y0073698D01*
X0346932Y0070629D01*
X0347700Y0069861D01*
X0349234Y0069861D01*
X0350002Y0070629D01*
X0350002Y0072163D01*
X0348467Y0072163D01*
X0350002Y0073698D02*
X0349234Y0074465D01*
X0347700Y0074465D01*
X0351536Y0074465D02*
X0354605Y0069861D01*
X0354605Y0074465D01*
X0356140Y0074465D02*
X0358442Y0074465D01*
X0359209Y0073698D01*
X0359209Y0070629D01*
X0358442Y0069861D01*
X0356140Y0069861D01*
X0356140Y0074465D01*
X0351536Y0074465D02*
X0351536Y0069861D01*
X0352304Y0044465D02*
X0351536Y0043698D01*
X0351536Y0040629D01*
X0352304Y0039861D01*
X0353838Y0039861D01*
X0354605Y0040629D01*
X0356140Y0040629D02*
X0356907Y0039861D01*
X0358442Y0039861D01*
X0359209Y0040629D01*
X0356140Y0040629D02*
X0356140Y0043698D01*
X0356907Y0044465D01*
X0358442Y0044465D01*
X0359209Y0043698D01*
X0354605Y0043698D02*
X0353838Y0044465D01*
X0352304Y0044465D01*
X0350002Y0044465D02*
X0350002Y0041396D01*
X0348467Y0039861D01*
X0346932Y0041396D01*
X0346932Y0044465D01*
X0245417Y0081629D02*
X0244650Y0080861D01*
X0243115Y0080861D01*
X0242348Y0081629D01*
X0240813Y0081629D02*
X0240046Y0080861D01*
X0238511Y0080861D01*
X0237744Y0081629D01*
X0237744Y0084698D01*
X0238511Y0085465D01*
X0240046Y0085465D01*
X0240813Y0084698D01*
X0242348Y0084698D02*
X0243115Y0085465D01*
X0244650Y0085465D01*
X0245417Y0084698D01*
X0245417Y0083931D01*
X0244650Y0083163D01*
X0245417Y0082396D01*
X0245417Y0081629D01*
X0244650Y0083163D02*
X0243883Y0083163D01*
X0236209Y0081629D02*
X0236209Y0084698D01*
X0235442Y0085465D01*
X0233140Y0085465D01*
X0233140Y0080861D01*
X0235442Y0080861D01*
X0236209Y0081629D01*
X0231605Y0080861D02*
X0228536Y0080861D01*
X0228536Y0085465D01*
X0227002Y0084698D02*
X0227002Y0083931D01*
X0226234Y0083163D01*
X0223932Y0083163D01*
X0223932Y0080861D02*
X0226234Y0080861D01*
X0227002Y0081629D01*
X0227002Y0082396D01*
X0226234Y0083163D01*
X0227002Y0084698D02*
X0226234Y0085465D01*
X0223932Y0085465D01*
X0223932Y0080861D01*
X0190544Y0116527D02*
X0185940Y0116527D01*
X0185940Y0118829D01*
X0186707Y0119596D01*
X0188242Y0119596D01*
X0189009Y0118829D01*
X0189009Y0116527D01*
X0189009Y0118061D02*
X0190544Y0119596D01*
X0190544Y0121131D02*
X0190544Y0124200D01*
X0190544Y0122665D02*
X0185940Y0122665D01*
X0187475Y0121131D01*
X0187475Y0125735D02*
X0186707Y0125735D01*
X0185940Y0126502D01*
X0185940Y0128037D01*
X0186707Y0128804D01*
X0189777Y0128804D01*
X0190544Y0128037D01*
X0190544Y0126502D01*
X0189777Y0125735D01*
X0188242Y0126502D02*
X0187475Y0125735D01*
X0188242Y0126502D02*
X0188242Y0128804D01*
X0175190Y0128646D02*
X0175190Y0125577D01*
X0172120Y0128646D01*
X0171353Y0128646D01*
X0170586Y0127879D01*
X0170586Y0126344D01*
X0171353Y0125577D01*
X0171353Y0124042D02*
X0170586Y0123275D01*
X0170586Y0121741D01*
X0171353Y0120973D01*
X0171353Y0119439D02*
X0172888Y0119439D01*
X0173655Y0118671D01*
X0173655Y0116369D01*
X0175190Y0116369D02*
X0170586Y0116369D01*
X0170586Y0118671D01*
X0171353Y0119439D01*
X0173655Y0117904D02*
X0175190Y0119439D01*
X0175190Y0120973D02*
X0172120Y0124042D01*
X0171353Y0124042D01*
X0175190Y0124042D02*
X0175190Y0120973D01*
X0138662Y0121508D02*
X0134058Y0121508D01*
X0135593Y0119973D01*
X0136360Y0118439D02*
X0137128Y0117671D01*
X0137128Y0115369D01*
X0138662Y0115369D02*
X0134058Y0115369D01*
X0134058Y0117671D01*
X0134826Y0118439D01*
X0136360Y0118439D01*
X0137128Y0116904D02*
X0138662Y0118439D01*
X0138662Y0119973D02*
X0138662Y0123042D01*
X0138662Y0124577D02*
X0138662Y0127646D01*
X0138662Y0126112D02*
X0134058Y0126112D01*
X0135593Y0124577D01*
X0122914Y0123279D02*
X0122914Y0120209D01*
X0122914Y0118675D02*
X0121380Y0117140D01*
X0121380Y0117907D02*
X0121380Y0115606D01*
X0122914Y0115606D02*
X0118310Y0115606D01*
X0118310Y0117907D01*
X0119078Y0118675D01*
X0120612Y0118675D01*
X0121380Y0117907D01*
X0119845Y0120209D02*
X0118310Y0121744D01*
X0122914Y0121744D01*
X0120612Y0124813D02*
X0120612Y0127883D01*
X0122914Y0127115D02*
X0118310Y0127115D01*
X0120612Y0124813D01*
X0112470Y0147315D02*
X0109400Y0147315D01*
X0108633Y0148082D01*
X0108633Y0149617D01*
X0109400Y0150384D01*
X0110168Y0151919D02*
X0108633Y0153454D01*
X0113237Y0153454D01*
X0113237Y0154988D02*
X0113237Y0151919D01*
X0112470Y0150384D02*
X0113237Y0149617D01*
X0113237Y0148082D01*
X0112470Y0147315D01*
X0082977Y0121039D02*
X0082210Y0121806D01*
X0081443Y0121806D01*
X0080675Y0121039D01*
X0080675Y0120272D01*
X0080675Y0121039D02*
X0079908Y0121806D01*
X0079141Y0121806D01*
X0078373Y0121039D01*
X0078373Y0119504D01*
X0079141Y0118737D01*
X0079141Y0117202D02*
X0080675Y0117202D01*
X0081443Y0116435D01*
X0081443Y0114133D01*
X0082977Y0114133D02*
X0078373Y0114133D01*
X0078373Y0116435D01*
X0079141Y0117202D01*
X0081443Y0115668D02*
X0082977Y0117202D01*
X0082210Y0118737D02*
X0082977Y0119504D01*
X0082977Y0121039D01*
X0067229Y0121275D02*
X0066462Y0122042D01*
X0065695Y0122042D01*
X0064927Y0121275D01*
X0064927Y0118973D01*
X0066462Y0118973D01*
X0067229Y0119741D01*
X0067229Y0121275D01*
X0064927Y0118973D02*
X0063393Y0120508D01*
X0062625Y0122042D01*
X0063393Y0117439D02*
X0064927Y0117439D01*
X0065695Y0116671D01*
X0065695Y0114369D01*
X0067229Y0114369D02*
X0062625Y0114369D01*
X0062625Y0116671D01*
X0063393Y0117439D01*
X0065695Y0115904D02*
X0067229Y0117439D01*
X0062883Y0085465D02*
X0062883Y0080861D01*
X0064417Y0080861D02*
X0061348Y0080861D01*
X0059813Y0081629D02*
X0059046Y0080861D01*
X0057511Y0080861D01*
X0056744Y0081629D01*
X0056744Y0084698D01*
X0057511Y0085465D01*
X0059046Y0085465D01*
X0059813Y0084698D01*
X0061348Y0083931D02*
X0062883Y0085465D01*
X0055209Y0084698D02*
X0055209Y0081629D01*
X0054442Y0080861D01*
X0052140Y0080861D01*
X0052140Y0085465D01*
X0054442Y0085465D01*
X0055209Y0084698D01*
X0050605Y0080861D02*
X0047536Y0080861D01*
X0047536Y0085465D01*
X0046002Y0084698D02*
X0046002Y0083931D01*
X0045234Y0083163D01*
X0042932Y0083163D01*
X0042932Y0080861D02*
X0045234Y0080861D01*
X0046002Y0081629D01*
X0046002Y0082396D01*
X0045234Y0083163D01*
X0046002Y0084698D02*
X0045234Y0085465D01*
X0042932Y0085465D01*
X0042932Y0080861D01*
X0132932Y0080861D02*
X0135234Y0080861D01*
X0136002Y0081629D01*
X0136002Y0082396D01*
X0135234Y0083163D01*
X0132932Y0083163D01*
X0132932Y0080861D02*
X0132932Y0085465D01*
X0135234Y0085465D01*
X0136002Y0084698D01*
X0136002Y0083931D01*
X0135234Y0083163D01*
X0137536Y0080861D02*
X0140605Y0080861D01*
X0142140Y0080861D02*
X0144442Y0080861D01*
X0145209Y0081629D01*
X0145209Y0084698D01*
X0144442Y0085465D01*
X0142140Y0085465D01*
X0142140Y0080861D01*
X0137536Y0080861D02*
X0137536Y0085465D01*
X0146744Y0084698D02*
X0146744Y0081629D01*
X0147511Y0080861D01*
X0149046Y0080861D01*
X0149813Y0081629D01*
X0151348Y0080861D02*
X0154417Y0083931D01*
X0154417Y0084698D01*
X0153650Y0085465D01*
X0152115Y0085465D01*
X0151348Y0084698D01*
X0149813Y0084698D02*
X0149046Y0085465D01*
X0147511Y0085465D01*
X0146744Y0084698D01*
X0151348Y0080861D02*
X0154417Y0080861D01*
X0199361Y0032811D02*
X0198594Y0032044D01*
X0198594Y0030509D01*
X0199361Y0029742D01*
X0199798Y0029776D02*
X0204402Y0029776D01*
X0203198Y0029742D02*
X0200128Y0032811D01*
X0199361Y0032811D01*
X0203198Y0032811D02*
X0203198Y0029742D01*
X0203198Y0028207D02*
X0201663Y0026672D01*
X0202100Y0026706D02*
X0202868Y0025939D01*
X0202868Y0023637D01*
X0204402Y0023637D02*
X0199798Y0023637D01*
X0199798Y0025939D01*
X0200566Y0026706D01*
X0202100Y0026706D01*
X0201663Y0027440D02*
X0201663Y0025138D01*
X0202868Y0025172D02*
X0204402Y0026706D01*
X0204402Y0028241D02*
X0204402Y0031310D01*
X0201333Y0028241D02*
X0199798Y0029776D01*
X0199361Y0028207D02*
X0200896Y0028207D01*
X0201663Y0027440D01*
X0199361Y0028207D02*
X0198594Y0027440D01*
X0198594Y0025138D01*
X0203198Y0025138D01*
X0179857Y0027850D02*
X0176788Y0027850D01*
X0179857Y0030919D01*
X0179857Y0031686D01*
X0179090Y0032454D01*
X0177555Y0032454D01*
X0176788Y0031686D01*
X0175254Y0031686D02*
X0174486Y0032454D01*
X0172952Y0032454D01*
X0172184Y0031686D01*
X0172184Y0028617D01*
X0172952Y0027850D01*
X0174486Y0027850D01*
X0175254Y0028617D01*
X0167919Y0148276D02*
X0164849Y0148276D01*
X0164082Y0149043D01*
X0164082Y0150578D01*
X0164849Y0151345D01*
X0166384Y0152880D02*
X0166384Y0155949D01*
X0168686Y0155181D02*
X0164082Y0155181D01*
X0166384Y0152880D01*
X0167919Y0151345D02*
X0168686Y0150578D01*
X0168686Y0149043D01*
X0167919Y0148276D01*
X0199723Y0172487D02*
X0203994Y0172487D01*
X0204848Y0173341D01*
X0204848Y0175049D01*
X0203994Y0175903D01*
X0199723Y0175903D01*
X0202286Y0177570D02*
X0202286Y0180986D01*
X0203322Y0181397D02*
X0204089Y0182165D01*
X0204857Y0182165D01*
X0205624Y0181397D01*
X0206391Y0182165D01*
X0207159Y0182165D01*
X0207926Y0181397D01*
X0207926Y0179863D01*
X0207159Y0179095D01*
X0207159Y0177561D02*
X0204089Y0177561D01*
X0203322Y0176793D01*
X0203322Y0174491D01*
X0207926Y0174491D01*
X0207926Y0176793D01*
X0207159Y0177561D01*
X0204089Y0179095D02*
X0203322Y0179863D01*
X0203322Y0181397D01*
X0204848Y0180132D02*
X0199723Y0180132D01*
X0202286Y0177570D01*
X0205624Y0180630D02*
X0205624Y0181397D01*
X0235696Y0181096D02*
X0235696Y0184165D01*
X0236463Y0184165D01*
X0239533Y0181096D01*
X0240300Y0181096D01*
X0240300Y0179561D02*
X0238765Y0178027D01*
X0238765Y0178794D02*
X0238765Y0176492D01*
X0240300Y0176492D02*
X0235696Y0176492D01*
X0235696Y0178794D01*
X0236463Y0179561D01*
X0237998Y0179561D01*
X0238765Y0178794D01*
X0249696Y0178794D02*
X0249696Y0176492D01*
X0254300Y0176492D01*
X0252765Y0176492D02*
X0252765Y0178794D01*
X0251998Y0179561D01*
X0250463Y0179561D01*
X0249696Y0178794D01*
X0249696Y0181096D02*
X0251998Y0181096D01*
X0251231Y0182631D01*
X0251231Y0183398D01*
X0251998Y0184165D01*
X0253533Y0184165D01*
X0254300Y0183398D01*
X0254300Y0181863D01*
X0253533Y0181096D01*
X0254300Y0179561D02*
X0252765Y0178027D01*
X0249696Y0181096D02*
X0249696Y0184165D01*
X0263696Y0183398D02*
X0265998Y0181096D01*
X0265998Y0184165D01*
X0268300Y0183398D02*
X0263696Y0183398D01*
X0264463Y0179561D02*
X0265998Y0179561D01*
X0266765Y0178794D01*
X0266765Y0176492D01*
X0266765Y0178027D02*
X0268300Y0179561D01*
X0268300Y0176492D02*
X0263696Y0176492D01*
X0263696Y0178794D01*
X0264463Y0179561D01*
X0220568Y0154622D02*
X0219800Y0155390D01*
X0218266Y0155390D01*
X0217498Y0154622D01*
X0217498Y0153855D01*
X0218266Y0152320D01*
X0215964Y0152320D01*
X0215964Y0155390D01*
X0219800Y0152320D02*
X0220568Y0153088D01*
X0220568Y0154622D01*
X0219800Y0150786D02*
X0220568Y0150019D01*
X0220568Y0148484D01*
X0219800Y0147717D01*
X0216731Y0147717D01*
X0215964Y0148484D01*
X0215964Y0150019D01*
X0216731Y0150786D01*
X0155863Y0176554D02*
X0155863Y0178856D01*
X0155096Y0179624D01*
X0152026Y0179624D01*
X0151259Y0178856D01*
X0151259Y0176554D01*
X0155863Y0176554D01*
X0152848Y0176049D02*
X0152848Y0174341D01*
X0151994Y0173487D01*
X0147723Y0173487D01*
X0147723Y0176903D02*
X0151994Y0176903D01*
X0152848Y0176049D01*
X0151994Y0178570D02*
X0152848Y0179424D01*
X0152848Y0181132D01*
X0151994Y0181986D01*
X0151140Y0181986D01*
X0150286Y0181132D01*
X0150286Y0180278D01*
X0150286Y0181132D02*
X0149432Y0181986D01*
X0148577Y0181986D01*
X0147723Y0181132D01*
X0147723Y0179424D01*
X0148577Y0178570D01*
X0151259Y0181926D02*
X0152026Y0181158D01*
X0151259Y0181926D02*
X0151259Y0183460D01*
X0152026Y0184228D01*
X0152794Y0184228D01*
X0155863Y0181158D01*
X0155863Y0184228D01*
X0101863Y0181354D02*
X0101863Y0178284D01*
X0101863Y0179819D02*
X0097259Y0179819D01*
X0098794Y0178284D01*
X0098026Y0176750D02*
X0097259Y0175982D01*
X0097259Y0173680D01*
X0101863Y0173680D01*
X0101863Y0175982D01*
X0101096Y0176750D01*
X0098026Y0176750D01*
X0096848Y0176049D02*
X0095994Y0176903D01*
X0091723Y0176903D01*
X0092577Y0178570D02*
X0091723Y0179424D01*
X0091723Y0181132D01*
X0092577Y0181986D01*
X0093432Y0181986D01*
X0096848Y0178570D01*
X0096848Y0181986D01*
X0096848Y0176049D02*
X0096848Y0174341D01*
X0095994Y0173487D01*
X0091723Y0173487D01*
D13*
X0260000Y0202500D02*
X0260000Y0207500D01*
X0262500Y0210000D01*
X0267500Y0210000D01*
X0270000Y0207500D01*
X0272500Y0210000D01*
X0277500Y0210000D01*
X0280000Y0207500D01*
X0280000Y0202500D01*
X0277500Y0200000D01*
X0272500Y0200000D01*
X0270000Y0202500D01*
X0267500Y0200000D01*
X0262500Y0200000D01*
X0260000Y0202500D01*
X0284205Y0186000D02*
X0284209Y0186314D01*
X0284220Y0186628D01*
X0284240Y0186941D01*
X0284267Y0187254D01*
X0284301Y0187566D01*
X0284343Y0187877D01*
X0284393Y0188187D01*
X0284451Y0188496D01*
X0284516Y0188803D01*
X0284588Y0189109D01*
X0284668Y0189413D01*
X0284756Y0189714D01*
X0284851Y0190014D01*
X0284953Y0190311D01*
X0285062Y0190605D01*
X0285179Y0190896D01*
X0285303Y0191185D01*
X0285433Y0191471D01*
X0285571Y0191753D01*
X0285716Y0192032D01*
X0285867Y0192307D01*
X0286025Y0192578D01*
X0286190Y0192845D01*
X0286361Y0193109D01*
X0286539Y0193367D01*
X0286723Y0193622D01*
X0286913Y0193872D01*
X0287109Y0194117D01*
X0287312Y0194357D01*
X0287520Y0194593D01*
X0287733Y0194823D01*
X0287953Y0195047D01*
X0288177Y0195267D01*
X0288407Y0195480D01*
X0288643Y0195688D01*
X0288883Y0195891D01*
X0289128Y0196087D01*
X0289378Y0196277D01*
X0289633Y0196461D01*
X0289891Y0196639D01*
X0290155Y0196810D01*
X0290422Y0196975D01*
X0290693Y0197133D01*
X0290968Y0197284D01*
X0291247Y0197429D01*
X0291529Y0197567D01*
X0291815Y0197697D01*
X0292104Y0197821D01*
X0292395Y0197938D01*
X0292689Y0198047D01*
X0292986Y0198149D01*
X0293286Y0198244D01*
X0293587Y0198332D01*
X0293891Y0198412D01*
X0294197Y0198484D01*
X0294504Y0198549D01*
X0294813Y0198607D01*
X0295123Y0198657D01*
X0295434Y0198699D01*
X0295746Y0198733D01*
X0296059Y0198760D01*
X0296372Y0198780D01*
X0296686Y0198791D01*
X0297000Y0198795D01*
X0297314Y0198791D01*
X0297628Y0198780D01*
X0297941Y0198760D01*
X0298254Y0198733D01*
X0298566Y0198699D01*
X0298877Y0198657D01*
X0299187Y0198607D01*
X0299496Y0198549D01*
X0299803Y0198484D01*
X0300109Y0198412D01*
X0300413Y0198332D01*
X0300714Y0198244D01*
X0301014Y0198149D01*
X0301311Y0198047D01*
X0301605Y0197938D01*
X0301896Y0197821D01*
X0302185Y0197697D01*
X0302471Y0197567D01*
X0302753Y0197429D01*
X0303032Y0197284D01*
X0303307Y0197133D01*
X0303578Y0196975D01*
X0303845Y0196810D01*
X0304109Y0196639D01*
X0304367Y0196461D01*
X0304622Y0196277D01*
X0304872Y0196087D01*
X0305117Y0195891D01*
X0305357Y0195688D01*
X0305593Y0195480D01*
X0305823Y0195267D01*
X0306047Y0195047D01*
X0306267Y0194823D01*
X0306480Y0194593D01*
X0306688Y0194357D01*
X0306891Y0194117D01*
X0307087Y0193872D01*
X0307277Y0193622D01*
X0307461Y0193367D01*
X0307639Y0193109D01*
X0307810Y0192845D01*
X0307975Y0192578D01*
X0308133Y0192307D01*
X0308284Y0192032D01*
X0308429Y0191753D01*
X0308567Y0191471D01*
X0308697Y0191185D01*
X0308821Y0190896D01*
X0308938Y0190605D01*
X0309047Y0190311D01*
X0309149Y0190014D01*
X0309244Y0189714D01*
X0309332Y0189413D01*
X0309412Y0189109D01*
X0309484Y0188803D01*
X0309549Y0188496D01*
X0309607Y0188187D01*
X0309657Y0187877D01*
X0309699Y0187566D01*
X0309733Y0187254D01*
X0309760Y0186941D01*
X0309780Y0186628D01*
X0309791Y0186314D01*
X0309795Y0186000D01*
X0309791Y0185686D01*
X0309780Y0185372D01*
X0309760Y0185059D01*
X0309733Y0184746D01*
X0309699Y0184434D01*
X0309657Y0184123D01*
X0309607Y0183813D01*
X0309549Y0183504D01*
X0309484Y0183197D01*
X0309412Y0182891D01*
X0309332Y0182587D01*
X0309244Y0182286D01*
X0309149Y0181986D01*
X0309047Y0181689D01*
X0308938Y0181395D01*
X0308821Y0181104D01*
X0308697Y0180815D01*
X0308567Y0180529D01*
X0308429Y0180247D01*
X0308284Y0179968D01*
X0308133Y0179693D01*
X0307975Y0179422D01*
X0307810Y0179155D01*
X0307639Y0178891D01*
X0307461Y0178633D01*
X0307277Y0178378D01*
X0307087Y0178128D01*
X0306891Y0177883D01*
X0306688Y0177643D01*
X0306480Y0177407D01*
X0306267Y0177177D01*
X0306047Y0176953D01*
X0305823Y0176733D01*
X0305593Y0176520D01*
X0305357Y0176312D01*
X0305117Y0176109D01*
X0304872Y0175913D01*
X0304622Y0175723D01*
X0304367Y0175539D01*
X0304109Y0175361D01*
X0303845Y0175190D01*
X0303578Y0175025D01*
X0303307Y0174867D01*
X0303032Y0174716D01*
X0302753Y0174571D01*
X0302471Y0174433D01*
X0302185Y0174303D01*
X0301896Y0174179D01*
X0301605Y0174062D01*
X0301311Y0173953D01*
X0301014Y0173851D01*
X0300714Y0173756D01*
X0300413Y0173668D01*
X0300109Y0173588D01*
X0299803Y0173516D01*
X0299496Y0173451D01*
X0299187Y0173393D01*
X0298877Y0173343D01*
X0298566Y0173301D01*
X0298254Y0173267D01*
X0297941Y0173240D01*
X0297628Y0173220D01*
X0297314Y0173209D01*
X0297000Y0173205D01*
X0296686Y0173209D01*
X0296372Y0173220D01*
X0296059Y0173240D01*
X0295746Y0173267D01*
X0295434Y0173301D01*
X0295123Y0173343D01*
X0294813Y0173393D01*
X0294504Y0173451D01*
X0294197Y0173516D01*
X0293891Y0173588D01*
X0293587Y0173668D01*
X0293286Y0173756D01*
X0292986Y0173851D01*
X0292689Y0173953D01*
X0292395Y0174062D01*
X0292104Y0174179D01*
X0291815Y0174303D01*
X0291529Y0174433D01*
X0291247Y0174571D01*
X0290968Y0174716D01*
X0290693Y0174867D01*
X0290422Y0175025D01*
X0290155Y0175190D01*
X0289891Y0175361D01*
X0289633Y0175539D01*
X0289378Y0175723D01*
X0289128Y0175913D01*
X0288883Y0176109D01*
X0288643Y0176312D01*
X0288407Y0176520D01*
X0288177Y0176733D01*
X0287953Y0176953D01*
X0287733Y0177177D01*
X0287520Y0177407D01*
X0287312Y0177643D01*
X0287109Y0177883D01*
X0286913Y0178128D01*
X0286723Y0178378D01*
X0286539Y0178633D01*
X0286361Y0178891D01*
X0286190Y0179155D01*
X0286025Y0179422D01*
X0285867Y0179693D01*
X0285716Y0179968D01*
X0285571Y0180247D01*
X0285433Y0180529D01*
X0285303Y0180815D01*
X0285179Y0181104D01*
X0285062Y0181395D01*
X0284953Y0181689D01*
X0284851Y0181986D01*
X0284756Y0182286D01*
X0284668Y0182587D01*
X0284588Y0182891D01*
X0284516Y0183197D01*
X0284451Y0183504D01*
X0284393Y0183813D01*
X0284343Y0184123D01*
X0284301Y0184434D01*
X0284267Y0184746D01*
X0284240Y0185059D01*
X0284220Y0185372D01*
X0284209Y0185686D01*
X0284205Y0186000D01*
X0302000Y0188500D02*
X0302000Y0193500D01*
X0318500Y0063500D02*
X0318500Y0058500D01*
X0279500Y0046000D02*
X0279509Y0046773D01*
X0279538Y0047546D01*
X0279585Y0048317D01*
X0279652Y0049088D01*
X0279737Y0049856D01*
X0279841Y0050622D01*
X0279964Y0051385D01*
X0280105Y0052145D01*
X0280265Y0052902D01*
X0280444Y0053654D01*
X0280641Y0054401D01*
X0280856Y0055144D01*
X0281090Y0055881D01*
X0281341Y0056612D01*
X0281611Y0057337D01*
X0281898Y0058055D01*
X0282202Y0058765D01*
X0282524Y0059468D01*
X0282863Y0060163D01*
X0283219Y0060849D01*
X0283592Y0061526D01*
X0283982Y0062194D01*
X0284387Y0062852D01*
X0284809Y0063500D01*
X0285246Y0064138D01*
X0285699Y0064765D01*
X0286167Y0065380D01*
X0286650Y0065983D01*
X0287148Y0066575D01*
X0287660Y0067154D01*
X0288186Y0067721D01*
X0288726Y0068274D01*
X0289279Y0068814D01*
X0289846Y0069340D01*
X0290425Y0069852D01*
X0291017Y0070350D01*
X0291620Y0070833D01*
X0292235Y0071301D01*
X0292862Y0071754D01*
X0293500Y0072191D01*
X0294148Y0072613D01*
X0294806Y0073018D01*
X0295474Y0073408D01*
X0296151Y0073781D01*
X0296837Y0074137D01*
X0297532Y0074476D01*
X0298235Y0074798D01*
X0298945Y0075102D01*
X0299663Y0075389D01*
X0300388Y0075659D01*
X0301119Y0075910D01*
X0301856Y0076144D01*
X0302599Y0076359D01*
X0303346Y0076556D01*
X0304098Y0076735D01*
X0304855Y0076895D01*
X0305615Y0077036D01*
X0306378Y0077159D01*
X0307144Y0077263D01*
X0307912Y0077348D01*
X0308683Y0077415D01*
X0309454Y0077462D01*
X0310227Y0077491D01*
X0311000Y0077500D01*
X0311773Y0077491D01*
X0312546Y0077462D01*
X0313317Y0077415D01*
X0314088Y0077348D01*
X0314856Y0077263D01*
X0315622Y0077159D01*
X0316385Y0077036D01*
X0317145Y0076895D01*
X0317902Y0076735D01*
X0318654Y0076556D01*
X0319401Y0076359D01*
X0320144Y0076144D01*
X0320881Y0075910D01*
X0321612Y0075659D01*
X0322337Y0075389D01*
X0323055Y0075102D01*
X0323765Y0074798D01*
X0324468Y0074476D01*
X0325163Y0074137D01*
X0325849Y0073781D01*
X0326526Y0073408D01*
X0327194Y0073018D01*
X0327852Y0072613D01*
X0328500Y0072191D01*
X0329138Y0071754D01*
X0329765Y0071301D01*
X0330380Y0070833D01*
X0330983Y0070350D01*
X0331575Y0069852D01*
X0332154Y0069340D01*
X0332721Y0068814D01*
X0333274Y0068274D01*
X0333814Y0067721D01*
X0334340Y0067154D01*
X0334852Y0066575D01*
X0335350Y0065983D01*
X0335833Y0065380D01*
X0336301Y0064765D01*
X0336754Y0064138D01*
X0337191Y0063500D01*
X0337613Y0062852D01*
X0338018Y0062194D01*
X0338408Y0061526D01*
X0338781Y0060849D01*
X0339137Y0060163D01*
X0339476Y0059468D01*
X0339798Y0058765D01*
X0340102Y0058055D01*
X0340389Y0057337D01*
X0340659Y0056612D01*
X0340910Y0055881D01*
X0341144Y0055144D01*
X0341359Y0054401D01*
X0341556Y0053654D01*
X0341735Y0052902D01*
X0341895Y0052145D01*
X0342036Y0051385D01*
X0342159Y0050622D01*
X0342263Y0049856D01*
X0342348Y0049088D01*
X0342415Y0048317D01*
X0342462Y0047546D01*
X0342491Y0046773D01*
X0342500Y0046000D01*
X0342491Y0045227D01*
X0342462Y0044454D01*
X0342415Y0043683D01*
X0342348Y0042912D01*
X0342263Y0042144D01*
X0342159Y0041378D01*
X0342036Y0040615D01*
X0341895Y0039855D01*
X0341735Y0039098D01*
X0341556Y0038346D01*
X0341359Y0037599D01*
X0341144Y0036856D01*
X0340910Y0036119D01*
X0340659Y0035388D01*
X0340389Y0034663D01*
X0340102Y0033945D01*
X0339798Y0033235D01*
X0339476Y0032532D01*
X0339137Y0031837D01*
X0338781Y0031151D01*
X0338408Y0030474D01*
X0338018Y0029806D01*
X0337613Y0029148D01*
X0337191Y0028500D01*
X0336754Y0027862D01*
X0336301Y0027235D01*
X0335833Y0026620D01*
X0335350Y0026017D01*
X0334852Y0025425D01*
X0334340Y0024846D01*
X0333814Y0024279D01*
X0333274Y0023726D01*
X0332721Y0023186D01*
X0332154Y0022660D01*
X0331575Y0022148D01*
X0330983Y0021650D01*
X0330380Y0021167D01*
X0329765Y0020699D01*
X0329138Y0020246D01*
X0328500Y0019809D01*
X0327852Y0019387D01*
X0327194Y0018982D01*
X0326526Y0018592D01*
X0325849Y0018219D01*
X0325163Y0017863D01*
X0324468Y0017524D01*
X0323765Y0017202D01*
X0323055Y0016898D01*
X0322337Y0016611D01*
X0321612Y0016341D01*
X0320881Y0016090D01*
X0320144Y0015856D01*
X0319401Y0015641D01*
X0318654Y0015444D01*
X0317902Y0015265D01*
X0317145Y0015105D01*
X0316385Y0014964D01*
X0315622Y0014841D01*
X0314856Y0014737D01*
X0314088Y0014652D01*
X0313317Y0014585D01*
X0312546Y0014538D01*
X0311773Y0014509D01*
X0311000Y0014500D01*
X0310227Y0014509D01*
X0309454Y0014538D01*
X0308683Y0014585D01*
X0307912Y0014652D01*
X0307144Y0014737D01*
X0306378Y0014841D01*
X0305615Y0014964D01*
X0304855Y0015105D01*
X0304098Y0015265D01*
X0303346Y0015444D01*
X0302599Y0015641D01*
X0301856Y0015856D01*
X0301119Y0016090D01*
X0300388Y0016341D01*
X0299663Y0016611D01*
X0298945Y0016898D01*
X0298235Y0017202D01*
X0297532Y0017524D01*
X0296837Y0017863D01*
X0296151Y0018219D01*
X0295474Y0018592D01*
X0294806Y0018982D01*
X0294148Y0019387D01*
X0293500Y0019809D01*
X0292862Y0020246D01*
X0292235Y0020699D01*
X0291620Y0021167D01*
X0291017Y0021650D01*
X0290425Y0022148D01*
X0289846Y0022660D01*
X0289279Y0023186D01*
X0288726Y0023726D01*
X0288186Y0024279D01*
X0287660Y0024846D01*
X0287148Y0025425D01*
X0286650Y0026017D01*
X0286167Y0026620D01*
X0285699Y0027235D01*
X0285246Y0027862D01*
X0284809Y0028500D01*
X0284387Y0029148D01*
X0283982Y0029806D01*
X0283592Y0030474D01*
X0283219Y0031151D01*
X0282863Y0031837D01*
X0282524Y0032532D01*
X0282202Y0033235D01*
X0281898Y0033945D01*
X0281611Y0034663D01*
X0281341Y0035388D01*
X0281090Y0036119D01*
X0280856Y0036856D01*
X0280641Y0037599D01*
X0280444Y0038346D01*
X0280265Y0039098D01*
X0280105Y0039855D01*
X0279964Y0040615D01*
X0279841Y0041378D01*
X0279737Y0042144D01*
X0279652Y0042912D01*
X0279585Y0043683D01*
X0279538Y0044454D01*
X0279509Y0045227D01*
X0279500Y0046000D01*
D14*
X0351148Y0050741D02*
X0351631Y0050257D01*
X0353566Y0050257D01*
X0354050Y0050741D01*
X0354050Y0051708D01*
X0353566Y0052192D01*
X0353566Y0053203D02*
X0354050Y0053687D01*
X0354050Y0054655D01*
X0353566Y0055138D01*
X0353083Y0055138D01*
X0352599Y0054655D01*
X0352599Y0054171D01*
X0352599Y0054655D02*
X0352115Y0055138D01*
X0351631Y0055138D01*
X0351148Y0054655D01*
X0351148Y0053687D01*
X0351631Y0053203D01*
X0351631Y0052192D02*
X0351148Y0051708D01*
X0351148Y0050741D01*
D15*
X0272700Y0053600D03*
X0227700Y0053600D03*
X0181700Y0052600D03*
X0136700Y0052600D03*
X0091700Y0052600D03*
X0046700Y0052600D03*
D16*
X0047649Y0057050D02*
X0044646Y0057050D01*
X0047649Y0060053D01*
X0047649Y0060803D01*
X0046898Y0061554D01*
X0045397Y0061554D01*
X0044646Y0060803D01*
X0043045Y0060803D02*
X0043045Y0057801D01*
X0042294Y0057050D01*
X0040793Y0057050D01*
X0040042Y0057801D01*
X0040042Y0060803D01*
X0040793Y0061554D01*
X0042294Y0061554D01*
X0043045Y0060803D01*
X0041543Y0058551D02*
X0043045Y0057050D01*
X0085042Y0057801D02*
X0085793Y0057050D01*
X0087294Y0057050D01*
X0088045Y0057801D01*
X0088045Y0060803D01*
X0087294Y0061554D01*
X0085793Y0061554D01*
X0085042Y0060803D01*
X0085042Y0057801D01*
X0086543Y0058551D02*
X0088045Y0057050D01*
X0089646Y0057050D02*
X0092649Y0057050D01*
X0091147Y0057050D02*
X0091147Y0061554D01*
X0089646Y0060053D01*
X0130042Y0060803D02*
X0130042Y0057801D01*
X0130793Y0057050D01*
X0132294Y0057050D01*
X0133045Y0057801D01*
X0133045Y0060803D01*
X0132294Y0061554D01*
X0130793Y0061554D01*
X0130042Y0060803D01*
X0131543Y0058551D02*
X0133045Y0057050D01*
X0134646Y0059302D02*
X0137649Y0059302D01*
X0136898Y0057050D02*
X0136898Y0061554D01*
X0134646Y0059302D01*
X0175042Y0057801D02*
X0175793Y0057050D01*
X0177294Y0057050D01*
X0178045Y0057801D01*
X0178045Y0060803D01*
X0177294Y0061554D01*
X0175793Y0061554D01*
X0175042Y0060803D01*
X0175042Y0057801D01*
X0176543Y0058551D02*
X0178045Y0057050D01*
X0179646Y0057801D02*
X0180397Y0057050D01*
X0181898Y0057050D01*
X0182649Y0057801D01*
X0182649Y0058551D01*
X0181898Y0059302D01*
X0181147Y0059302D01*
X0181898Y0059302D02*
X0182649Y0060053D01*
X0182649Y0060803D01*
X0181898Y0061554D01*
X0180397Y0061554D01*
X0179646Y0060803D01*
X0221042Y0061803D02*
X0221042Y0058801D01*
X0221793Y0058050D01*
X0223294Y0058050D01*
X0224045Y0058801D01*
X0224045Y0061803D01*
X0223294Y0062554D01*
X0221793Y0062554D01*
X0221042Y0061803D01*
X0222543Y0059551D02*
X0224045Y0058050D01*
X0225646Y0058801D02*
X0226397Y0058050D01*
X0227898Y0058050D01*
X0228649Y0058801D01*
X0228649Y0059551D01*
X0227898Y0060302D01*
X0225646Y0060302D01*
X0225646Y0058801D01*
X0225646Y0060302D02*
X0227147Y0061803D01*
X0228649Y0062554D01*
X0266042Y0061803D02*
X0266042Y0058801D01*
X0266793Y0058050D01*
X0268294Y0058050D01*
X0269045Y0058801D01*
X0269045Y0061803D01*
X0268294Y0062554D01*
X0266793Y0062554D01*
X0266042Y0061803D01*
X0267543Y0059551D02*
X0269045Y0058050D01*
X0270646Y0058801D02*
X0271397Y0058050D01*
X0272898Y0058050D01*
X0273649Y0058801D01*
X0273649Y0060302D01*
X0272898Y0061053D01*
X0272147Y0061053D01*
X0270646Y0060302D01*
X0270646Y0062554D01*
X0273649Y0062554D01*
X0343732Y0099622D02*
X0343732Y0124114D01*
X0345189Y0124114D01*
X0368811Y0124114D02*
X0370268Y0124114D01*
X0370268Y0099622D01*
X0343732Y0099622D01*
X0357638Y0163138D02*
X0312362Y0163138D01*
X0312362Y0192862D01*
X0357638Y0192862D01*
X0357638Y0163138D01*
X0278949Y0193050D02*
X0275946Y0193050D01*
X0277447Y0193050D02*
X0277447Y0197554D01*
X0275946Y0196053D01*
X0274345Y0197554D02*
X0272843Y0197554D01*
X0273594Y0197554D02*
X0273594Y0193801D01*
X0272843Y0193050D01*
X0272093Y0193050D01*
X0271342Y0193801D01*
X0197646Y0174677D02*
X0197646Y0159323D01*
X0178354Y0159323D02*
X0178354Y0174677D01*
X0145646Y0175677D02*
X0145646Y0160323D01*
X0126354Y0160323D02*
X0126354Y0175677D01*
X0089646Y0175677D02*
X0089646Y0160323D01*
X0070354Y0160323D02*
X0070354Y0175677D01*
D17*
X0074000Y0039500D03*
X0029000Y0039500D03*
X0119000Y0039500D03*
X0164000Y0039500D03*
X0210000Y0040500D03*
X0255000Y0040500D03*
D18*
X0237750Y0043000D03*
X0227250Y0043000D03*
X0192750Y0043000D03*
X0181250Y0042000D03*
X0146750Y0042000D03*
X0136250Y0042000D03*
X0101750Y0042000D03*
X0091250Y0042000D03*
X0056750Y0042000D03*
X0046250Y0042000D03*
X0011750Y0042000D03*
X0272250Y0043000D03*
D19*
X0260000Y0043000D03*
X0250000Y0043000D03*
X0215000Y0043000D03*
X0205000Y0043000D03*
X0169000Y0042000D03*
X0159000Y0042000D03*
X0124000Y0042000D03*
X0114000Y0042000D03*
X0079000Y0042000D03*
X0069000Y0042000D03*
X0034000Y0042000D03*
X0024000Y0042000D03*
D20*
X0197823Y0183555D03*
X0145823Y0184555D03*
X0089823Y0184555D03*
D21*
X0328000Y0102362D03*
D22*
X0345394Y0195224D03*
D23*
X0305050Y0188327D02*
X0304800Y0188578D01*
X0304550Y0188578D01*
X0304299Y0188327D01*
X0304299Y0187577D01*
X0304800Y0187577D01*
X0305050Y0187827D01*
X0305050Y0188327D01*
X0304299Y0187577D02*
X0303799Y0188077D01*
X0303549Y0188578D01*
X0303799Y0187104D02*
X0303549Y0186854D01*
X0303549Y0186354D01*
X0303799Y0186103D01*
X0304800Y0186103D01*
X0305050Y0186354D01*
X0305050Y0186854D01*
X0304800Y0187104D01*
M02*
