G75*
%MOIN*%
%OFA0B0*%
%FSLAX25Y25*%
%IPPOS*%
%LPD*%
%AMOC8*
5,1,8,0,0,1.08239X$1,22.5*
%
%ADD10C,0.00000*%
%ADD11C,0.01600*%
%ADD12R,0.06699X0.07498*%
%ADD13R,0.06699X0.07487*%
%ADD14R,0.07487X0.12998*%
%ADD15OC8,0.07000*%
%ADD16C,0.07000*%
%ADD17R,0.06900X0.06900*%
%ADD18C,0.06400*%
%ADD19C,0.07800*%
%ADD20OC8,0.16800*%
%ADD21R,0.06337X0.06337*%
%ADD22C,0.06337*%
%ADD23C,0.06900*%
%ADD24C,0.04534*%
D10*
X0005000Y0005000D02*
X0005000Y0215000D01*
X0330921Y0214701D01*
X0370000Y0215000D01*
X0377000Y0209000D01*
X0377000Y0163000D01*
X0387000Y0154000D01*
X0387000Y0025000D01*
X0377000Y0015000D01*
X0377000Y0005000D01*
X0005000Y0005000D01*
D11*
X0071000Y0021000D02*
X0072000Y0022000D01*
X0364000Y0022000D01*
X0364000Y0039000D01*
X0259000Y0039000D01*
X0259000Y0055000D01*
X0248000Y0055000D01*
X0248000Y0069000D01*
X0235000Y0080000D01*
X0235000Y0084000D01*
X0273000Y0084000D01*
X0273000Y0099000D01*
X0016000Y0099000D01*
X0016000Y0088000D01*
X0015000Y0043000D01*
X0071000Y0043000D01*
X0071000Y0021000D01*
X0071000Y0021487D02*
X0071487Y0021487D01*
X0071000Y0023085D02*
X0364000Y0023085D01*
X0364000Y0024684D02*
X0071000Y0024684D01*
X0071000Y0026282D02*
X0364000Y0026282D01*
X0364000Y0027881D02*
X0071000Y0027881D01*
X0071000Y0029479D02*
X0364000Y0029479D01*
X0364000Y0031078D02*
X0071000Y0031078D01*
X0071000Y0032676D02*
X0364000Y0032676D01*
X0364000Y0034275D02*
X0071000Y0034275D01*
X0071000Y0035873D02*
X0364000Y0035873D01*
X0364000Y0037472D02*
X0071000Y0037472D01*
X0071000Y0039070D02*
X0259000Y0039070D01*
X0259000Y0040669D02*
X0071000Y0040669D01*
X0071000Y0042268D02*
X0259000Y0042268D01*
X0259000Y0043866D02*
X0015019Y0043866D01*
X0015055Y0045465D02*
X0259000Y0045465D01*
X0259000Y0047063D02*
X0015090Y0047063D01*
X0015126Y0048662D02*
X0259000Y0048662D01*
X0259000Y0050260D02*
X0015161Y0050260D01*
X0015197Y0051859D02*
X0259000Y0051859D01*
X0259000Y0053457D02*
X0015232Y0053457D01*
X0015268Y0055056D02*
X0248000Y0055056D01*
X0248000Y0056654D02*
X0015303Y0056654D01*
X0015339Y0058253D02*
X0248000Y0058253D01*
X0248000Y0059851D02*
X0015374Y0059851D01*
X0015410Y0061450D02*
X0248000Y0061450D01*
X0248000Y0063048D02*
X0015446Y0063048D01*
X0015481Y0064647D02*
X0248000Y0064647D01*
X0248000Y0066245D02*
X0015517Y0066245D01*
X0015552Y0067844D02*
X0248000Y0067844D01*
X0247477Y0069442D02*
X0015588Y0069442D01*
X0015623Y0071041D02*
X0245588Y0071041D01*
X0243699Y0072639D02*
X0015659Y0072639D01*
X0015694Y0074238D02*
X0241810Y0074238D01*
X0239921Y0075836D02*
X0015730Y0075836D01*
X0015765Y0077435D02*
X0238032Y0077435D01*
X0236143Y0079033D02*
X0015801Y0079033D01*
X0015836Y0080632D02*
X0235000Y0080632D01*
X0235000Y0082230D02*
X0015872Y0082230D01*
X0015907Y0083829D02*
X0235000Y0083829D01*
X0273000Y0085427D02*
X0015943Y0085427D01*
X0015978Y0087026D02*
X0273000Y0087026D01*
X0273000Y0088624D02*
X0016000Y0088624D01*
X0016000Y0090223D02*
X0273000Y0090223D01*
X0273000Y0091821D02*
X0016000Y0091821D01*
X0016000Y0093420D02*
X0273000Y0093420D01*
X0273000Y0095018D02*
X0016000Y0095018D01*
X0016000Y0096617D02*
X0273000Y0096617D01*
X0273000Y0098215D02*
X0016000Y0098215D01*
D12*
X0279732Y0108520D03*
X0290929Y0108520D03*
D13*
X0290701Y0128071D03*
X0279677Y0128071D03*
D14*
X0275843Y0092189D03*
X0297890Y0092189D03*
D15*
X0255000Y0015000D03*
X0245000Y0015000D03*
X0235000Y0015000D03*
X0225000Y0015000D03*
X0215000Y0015000D03*
X0205000Y0015000D03*
X0185000Y0015000D03*
X0175000Y0015000D03*
X0165000Y0015000D03*
X0155000Y0015000D03*
X0145000Y0015000D03*
X0135000Y0015000D03*
X0139000Y0205000D03*
X0129000Y0205000D03*
X0119000Y0205000D03*
X0109000Y0205000D03*
X0099000Y0205000D03*
X0089000Y0205000D03*
X0079000Y0205000D03*
X0149000Y0205000D03*
X0159000Y0205000D03*
X0169000Y0205000D03*
X0185000Y0205000D03*
X0195000Y0205000D03*
X0205000Y0205000D03*
X0215000Y0205000D03*
X0225000Y0205000D03*
X0235000Y0205000D03*
X0245000Y0205000D03*
X0255000Y0205000D03*
D16*
X0311000Y0061000D03*
D17*
X0311000Y0031000D03*
X0297000Y0181000D03*
D18*
X0265000Y0052000D02*
X0265000Y0046000D01*
X0255000Y0046000D02*
X0255000Y0052000D01*
X0245000Y0052000D02*
X0245000Y0046000D01*
X0220000Y0046000D02*
X0220000Y0052000D01*
X0210000Y0052000D02*
X0210000Y0046000D01*
X0200000Y0046000D02*
X0200000Y0052000D01*
X0174000Y0051000D02*
X0174000Y0045000D01*
X0164000Y0045000D02*
X0164000Y0051000D01*
X0154000Y0051000D02*
X0154000Y0045000D01*
X0129000Y0045000D02*
X0129000Y0051000D01*
X0119000Y0051000D02*
X0119000Y0045000D01*
X0109000Y0045000D02*
X0109000Y0051000D01*
X0084000Y0051000D02*
X0084000Y0045000D01*
X0074000Y0045000D02*
X0074000Y0051000D01*
X0064000Y0051000D02*
X0064000Y0045000D01*
X0039000Y0045000D02*
X0039000Y0051000D01*
X0029000Y0051000D02*
X0029000Y0045000D01*
X0019000Y0045000D02*
X0019000Y0051000D01*
D19*
X0265000Y0205000D03*
X0275000Y0205000D03*
D20*
X0232000Y0072000D03*
X0141000Y0072000D03*
X0051000Y0072000D03*
X0355000Y0061000D03*
X0355000Y0031000D03*
D21*
X0345000Y0184988D03*
D22*
X0335000Y0184988D03*
X0325000Y0184988D03*
D23*
X0297000Y0191000D03*
D24*
X0294000Y0162000D03*
X0249000Y0159000D03*
X0233000Y0139000D03*
X0232000Y0113000D03*
X0187000Y0103000D03*
X0187000Y0138000D03*
X0179000Y0187000D03*
X0185500Y0188500D03*
X0133000Y0193000D03*
X0091000Y0193000D03*
X0076000Y0197000D03*
X0057000Y0114000D03*
X0039000Y0114000D03*
M02*
