G75*
%MOIN*%
%OFA0B0*%
%FSLAX25Y25*%
%IPPOS*%
%LPD*%
%AMOC8*
5,1,8,0,0,1.08239X$1,22.5*
%
%ADD10C,0.00000*%
%ADD11C,0.00600*%
%ADD12C,0.00400*%
%ADD13C,0.00800*%
%ADD14C,0.00300*%
%ADD15C,0.02000*%
%ADD16C,0.00500*%
%ADD17R,0.42000X0.03000*%
%ADD18R,0.07500X0.02000*%
%ADD19R,0.03000X0.02000*%
%ADD20C,0.00100*%
%ADD21C,0.01575*%
%ADD22R,0.07087X0.01969*%
D10*
X0005000Y0005000D02*
X0005000Y0215000D01*
X0330921Y0214701D01*
X0370000Y0215000D01*
X0377000Y0209000D01*
X0377000Y0163000D01*
X0387000Y0154000D01*
X0387000Y0025000D01*
X0377000Y0015000D01*
X0377000Y0005000D01*
X0005000Y0005000D01*
D11*
X0041300Y0013368D02*
X0042368Y0012300D01*
X0044503Y0012300D01*
X0045570Y0013368D01*
X0045570Y0017638D01*
X0044503Y0018705D01*
X0042368Y0018705D01*
X0041300Y0017638D01*
X0041300Y0013368D01*
X0047745Y0012300D02*
X0050948Y0012300D01*
X0052016Y0013368D01*
X0052016Y0015503D01*
X0050948Y0016570D01*
X0047745Y0016570D01*
X0047745Y0010165D01*
X0054191Y0013368D02*
X0054191Y0015503D01*
X0055259Y0016570D01*
X0057394Y0016570D01*
X0058461Y0015503D01*
X0058461Y0014435D01*
X0054191Y0014435D01*
X0054191Y0013368D02*
X0055259Y0012300D01*
X0057394Y0012300D01*
X0060636Y0012300D02*
X0060636Y0016570D01*
X0063839Y0016570D01*
X0064907Y0015503D01*
X0064907Y0012300D01*
X0073527Y0012300D02*
X0076730Y0012300D01*
X0077798Y0013368D01*
X0077798Y0014435D01*
X0076730Y0015503D01*
X0073527Y0015503D01*
X0073527Y0018705D02*
X0076730Y0018705D01*
X0077798Y0017638D01*
X0077798Y0016570D01*
X0076730Y0015503D01*
X0073527Y0012300D02*
X0073527Y0018705D01*
X0079973Y0018705D02*
X0079973Y0012300D01*
X0084243Y0012300D01*
X0086418Y0012300D02*
X0089621Y0012300D01*
X0090689Y0013368D01*
X0090689Y0017638D01*
X0089621Y0018705D01*
X0086418Y0018705D01*
X0086418Y0012300D01*
X0092864Y0013368D02*
X0093932Y0012300D01*
X0096067Y0012300D01*
X0097134Y0013368D01*
X0092864Y0013368D02*
X0092864Y0017638D01*
X0093932Y0018705D01*
X0096067Y0018705D01*
X0097134Y0017638D01*
X0105755Y0017638D02*
X0105755Y0013368D01*
X0110025Y0017638D01*
X0110025Y0013368D01*
X0108958Y0012300D01*
X0106823Y0012300D01*
X0105755Y0013368D01*
X0112200Y0013368D02*
X0112200Y0012300D01*
X0113268Y0012300D01*
X0113268Y0013368D01*
X0112200Y0013368D01*
X0115423Y0013368D02*
X0116491Y0012300D01*
X0118626Y0012300D01*
X0119694Y0013368D01*
X0119694Y0015503D01*
X0118626Y0016570D01*
X0117558Y0016570D01*
X0115423Y0015503D01*
X0115423Y0018705D01*
X0119694Y0018705D01*
X0121869Y0017638D02*
X0122936Y0018705D01*
X0125071Y0018705D01*
X0126139Y0017638D01*
X0126139Y0016570D01*
X0125071Y0015503D01*
X0126139Y0014435D01*
X0126139Y0013368D01*
X0125071Y0012300D01*
X0122936Y0012300D01*
X0121869Y0013368D01*
X0124004Y0015503D02*
X0125071Y0015503D01*
X0110025Y0017638D02*
X0108958Y0018705D01*
X0106823Y0018705D01*
X0105755Y0017638D01*
X0099000Y0042500D02*
X0099500Y0054000D01*
X0100500Y0055000D01*
X0137500Y0055000D01*
X0138500Y0054000D01*
X0139000Y0042500D01*
X0144000Y0042500D02*
X0144500Y0054000D01*
X0145500Y0055000D01*
X0182500Y0055000D01*
X0183500Y0054000D01*
X0184000Y0042500D01*
X0190000Y0043500D02*
X0190500Y0055000D01*
X0191500Y0056000D01*
X0228500Y0056000D01*
X0229500Y0055000D01*
X0230000Y0043500D01*
X0235000Y0043500D02*
X0235500Y0055000D01*
X0236500Y0056000D01*
X0273500Y0056000D01*
X0274500Y0055000D01*
X0275000Y0043500D01*
X0324457Y0094685D02*
X0324535Y0094685D01*
X0324457Y0094685D02*
X0324457Y0105315D01*
X0324535Y0105315D01*
X0331465Y0105315D02*
X0331543Y0105315D01*
X0331543Y0094685D01*
X0331465Y0094685D01*
X0339929Y0143043D02*
X0343106Y0143043D01*
X0344165Y0144102D01*
X0344165Y0148338D01*
X0343106Y0149397D01*
X0339929Y0149397D01*
X0339929Y0143043D01*
X0346327Y0146220D02*
X0350563Y0146220D01*
X0349504Y0149397D02*
X0346327Y0146220D01*
X0349504Y0143043D02*
X0349504Y0149397D01*
X0093500Y0054000D02*
X0094000Y0042500D01*
X0093500Y0054000D02*
X0092500Y0055000D01*
X0055500Y0055000D01*
X0054500Y0054000D01*
X0054000Y0042500D01*
X0049000Y0042500D02*
X0048500Y0054000D01*
X0047500Y0055000D01*
X0010500Y0055000D01*
X0009500Y0054000D01*
X0009000Y0042500D01*
D12*
X0042932Y0080861D02*
X0045234Y0080861D01*
X0046002Y0081629D01*
X0046002Y0082396D01*
X0045234Y0083163D01*
X0042932Y0083163D01*
X0042932Y0080861D02*
X0042932Y0085465D01*
X0045234Y0085465D01*
X0046002Y0084698D01*
X0046002Y0083931D01*
X0045234Y0083163D01*
X0047536Y0080861D02*
X0050605Y0080861D01*
X0052140Y0080861D02*
X0054442Y0080861D01*
X0055209Y0081629D01*
X0055209Y0084698D01*
X0054442Y0085465D01*
X0052140Y0085465D01*
X0052140Y0080861D01*
X0047536Y0080861D02*
X0047536Y0085465D01*
X0056744Y0084698D02*
X0056744Y0081629D01*
X0057511Y0080861D01*
X0059046Y0080861D01*
X0059813Y0081629D01*
X0061348Y0080861D02*
X0064417Y0080861D01*
X0062883Y0080861D02*
X0062883Y0085465D01*
X0061348Y0083931D01*
X0059813Y0084698D02*
X0059046Y0085465D01*
X0057511Y0085465D01*
X0056744Y0084698D01*
X0062625Y0114369D02*
X0062625Y0116671D01*
X0063393Y0117439D01*
X0064927Y0117439D01*
X0065695Y0116671D01*
X0065695Y0114369D01*
X0067229Y0114369D02*
X0062625Y0114369D01*
X0065695Y0115904D02*
X0067229Y0117439D01*
X0066462Y0118973D02*
X0067229Y0119741D01*
X0067229Y0121275D01*
X0066462Y0122042D01*
X0065695Y0122042D01*
X0064927Y0121275D01*
X0064927Y0118973D01*
X0066462Y0118973D01*
X0064927Y0118973D02*
X0063393Y0120508D01*
X0062625Y0122042D01*
X0078373Y0121039D02*
X0079141Y0121806D01*
X0079908Y0121806D01*
X0080675Y0121039D01*
X0081443Y0121806D01*
X0082210Y0121806D01*
X0082977Y0121039D01*
X0082977Y0119504D01*
X0082210Y0118737D01*
X0082977Y0117202D02*
X0081443Y0115668D01*
X0081443Y0116435D02*
X0081443Y0114133D01*
X0082977Y0114133D02*
X0078373Y0114133D01*
X0078373Y0116435D01*
X0079141Y0117202D01*
X0080675Y0117202D01*
X0081443Y0116435D01*
X0079141Y0118737D02*
X0078373Y0119504D01*
X0078373Y0121039D01*
X0080675Y0121039D02*
X0080675Y0120272D01*
X0118310Y0121744D02*
X0119845Y0120209D01*
X0119078Y0118675D02*
X0120612Y0118675D01*
X0121380Y0117907D01*
X0121380Y0115606D01*
X0121380Y0117140D02*
X0122914Y0118675D01*
X0122914Y0120209D02*
X0122914Y0123279D01*
X0122914Y0121744D02*
X0118310Y0121744D01*
X0120612Y0124813D02*
X0120612Y0127883D01*
X0122914Y0127115D02*
X0118310Y0127115D01*
X0120612Y0124813D01*
X0119078Y0118675D02*
X0118310Y0117907D01*
X0118310Y0115606D01*
X0122914Y0115606D01*
X0134058Y0115369D02*
X0134058Y0117671D01*
X0134826Y0118439D01*
X0136360Y0118439D01*
X0137128Y0117671D01*
X0137128Y0115369D01*
X0138662Y0115369D02*
X0134058Y0115369D01*
X0137128Y0116904D02*
X0138662Y0118439D01*
X0138662Y0119973D02*
X0138662Y0123042D01*
X0138662Y0121508D02*
X0134058Y0121508D01*
X0135593Y0119973D01*
X0135593Y0124577D02*
X0134058Y0126112D01*
X0138662Y0126112D01*
X0138662Y0127646D02*
X0138662Y0124577D01*
X0170586Y0123275D02*
X0170586Y0121741D01*
X0171353Y0120973D01*
X0171353Y0119439D02*
X0172888Y0119439D01*
X0173655Y0118671D01*
X0173655Y0116369D01*
X0175190Y0116369D02*
X0170586Y0116369D01*
X0170586Y0118671D01*
X0171353Y0119439D01*
X0173655Y0117904D02*
X0175190Y0119439D01*
X0175190Y0120973D02*
X0172120Y0124042D01*
X0171353Y0124042D01*
X0170586Y0123275D01*
X0171353Y0125577D02*
X0170586Y0126344D01*
X0170586Y0127879D01*
X0171353Y0128646D01*
X0172120Y0128646D01*
X0175190Y0125577D01*
X0175190Y0128646D01*
X0175190Y0124042D02*
X0175190Y0120973D01*
X0185940Y0122665D02*
X0190544Y0122665D01*
X0190544Y0121131D02*
X0190544Y0124200D01*
X0189777Y0125735D02*
X0190544Y0126502D01*
X0190544Y0128037D01*
X0189777Y0128804D01*
X0186707Y0128804D01*
X0185940Y0128037D01*
X0185940Y0126502D01*
X0186707Y0125735D01*
X0187475Y0125735D01*
X0188242Y0126502D01*
X0188242Y0128804D01*
X0185940Y0122665D02*
X0187475Y0121131D01*
X0188242Y0119596D02*
X0189009Y0118829D01*
X0189009Y0116527D01*
X0189009Y0118061D02*
X0190544Y0119596D01*
X0188242Y0119596D02*
X0186707Y0119596D01*
X0185940Y0118829D01*
X0185940Y0116527D01*
X0190544Y0116527D01*
X0223932Y0085465D02*
X0226234Y0085465D01*
X0227002Y0084698D01*
X0227002Y0083931D01*
X0226234Y0083163D01*
X0223932Y0083163D01*
X0223932Y0080861D02*
X0226234Y0080861D01*
X0227002Y0081629D01*
X0227002Y0082396D01*
X0226234Y0083163D01*
X0223932Y0080861D02*
X0223932Y0085465D01*
X0228536Y0085465D02*
X0228536Y0080861D01*
X0231605Y0080861D01*
X0233140Y0080861D02*
X0235442Y0080861D01*
X0236209Y0081629D01*
X0236209Y0084698D01*
X0235442Y0085465D01*
X0233140Y0085465D01*
X0233140Y0080861D01*
X0237744Y0081629D02*
X0238511Y0080861D01*
X0240046Y0080861D01*
X0240813Y0081629D01*
X0242348Y0081629D02*
X0243115Y0080861D01*
X0244650Y0080861D01*
X0245417Y0081629D01*
X0245417Y0082396D01*
X0244650Y0083163D01*
X0243883Y0083163D01*
X0244650Y0083163D02*
X0245417Y0083931D01*
X0245417Y0084698D01*
X0244650Y0085465D01*
X0243115Y0085465D01*
X0242348Y0084698D01*
X0240813Y0084698D02*
X0240046Y0085465D01*
X0238511Y0085465D01*
X0237744Y0084698D01*
X0237744Y0081629D01*
X0318200Y0123467D02*
X0318967Y0122700D01*
X0320502Y0122700D01*
X0321269Y0123467D01*
X0322804Y0122700D02*
X0325873Y0125769D01*
X0325873Y0126537D01*
X0325106Y0127304D01*
X0323571Y0127304D01*
X0322804Y0126537D01*
X0321269Y0126537D02*
X0320502Y0127304D01*
X0318967Y0127304D01*
X0318200Y0126537D01*
X0318200Y0123467D01*
X0322804Y0122700D02*
X0325873Y0122700D01*
X0327408Y0123467D02*
X0328175Y0122700D01*
X0329710Y0122700D01*
X0330477Y0123467D01*
X0330477Y0125002D01*
X0329710Y0125769D01*
X0328942Y0125769D01*
X0327408Y0125002D01*
X0327408Y0127304D01*
X0330477Y0127304D01*
X0333492Y0140700D02*
X0333492Y0145304D01*
X0335794Y0145304D01*
X0336561Y0144537D01*
X0336561Y0143002D01*
X0335794Y0142235D01*
X0333492Y0142235D01*
X0335027Y0142235D02*
X0336561Y0140700D01*
X0338096Y0141467D02*
X0338096Y0142235D01*
X0338863Y0143002D01*
X0340398Y0143002D01*
X0341165Y0142235D01*
X0341165Y0141467D01*
X0340398Y0140700D01*
X0338863Y0140700D01*
X0338096Y0141467D01*
X0338863Y0143002D02*
X0338096Y0143769D01*
X0338096Y0144537D01*
X0338863Y0145304D01*
X0340398Y0145304D01*
X0341165Y0144537D01*
X0341165Y0143769D01*
X0340398Y0143002D01*
X0316165Y0153700D02*
X0313096Y0153700D01*
X0316165Y0156769D01*
X0316165Y0157537D01*
X0315398Y0158304D01*
X0313863Y0158304D01*
X0313096Y0157537D01*
X0311561Y0157537D02*
X0310794Y0158304D01*
X0309259Y0158304D01*
X0308492Y0157537D01*
X0306957Y0157537D02*
X0306957Y0156002D01*
X0306190Y0155235D01*
X0303888Y0155235D01*
X0305423Y0155235D02*
X0306957Y0153700D01*
X0308492Y0154467D02*
X0309259Y0153700D01*
X0310794Y0153700D01*
X0311561Y0154467D01*
X0311561Y0155235D01*
X0310794Y0156002D01*
X0310027Y0156002D01*
X0310794Y0156002D02*
X0311561Y0156769D01*
X0311561Y0157537D01*
X0306957Y0157537D02*
X0306190Y0158304D01*
X0303888Y0158304D01*
X0303888Y0153700D01*
X0305300Y0145477D02*
X0305300Y0142408D01*
X0305300Y0143942D02*
X0300696Y0143942D01*
X0302231Y0142408D01*
X0305300Y0140873D02*
X0305300Y0137804D01*
X0305300Y0139339D02*
X0300696Y0139339D01*
X0302231Y0137804D01*
X0301463Y0136269D02*
X0300696Y0135502D01*
X0300696Y0133967D01*
X0301463Y0133200D01*
X0304533Y0133200D01*
X0305300Y0133967D01*
X0305300Y0135502D01*
X0304533Y0136269D01*
X0292300Y0135502D02*
X0292300Y0133967D01*
X0291533Y0133200D01*
X0288463Y0133200D01*
X0287696Y0133967D01*
X0287696Y0135502D01*
X0288463Y0136269D01*
X0289231Y0137804D02*
X0287696Y0139339D01*
X0292300Y0139339D01*
X0292300Y0140873D02*
X0292300Y0137804D01*
X0291533Y0136269D02*
X0292300Y0135502D01*
X0291533Y0142408D02*
X0288463Y0142408D01*
X0287696Y0143175D01*
X0287696Y0144710D01*
X0288463Y0145477D01*
X0291533Y0142408D01*
X0292300Y0143175D01*
X0292300Y0144710D01*
X0291533Y0145477D01*
X0288463Y0145477D01*
X0253300Y0146873D02*
X0253300Y0143804D01*
X0250231Y0146873D01*
X0249463Y0146873D01*
X0248696Y0146106D01*
X0248696Y0144571D01*
X0249463Y0143804D01*
X0249463Y0142269D02*
X0248696Y0141502D01*
X0248696Y0139967D01*
X0249463Y0139200D01*
X0252533Y0139200D01*
X0253300Y0139967D01*
X0253300Y0141502D01*
X0252533Y0142269D01*
X0250998Y0148408D02*
X0250998Y0151477D01*
X0253300Y0150710D02*
X0248696Y0150710D01*
X0250998Y0148408D01*
X0220568Y0148484D02*
X0220568Y0150019D01*
X0219800Y0150786D01*
X0219800Y0152320D02*
X0220568Y0153088D01*
X0220568Y0154622D01*
X0219800Y0155390D01*
X0218266Y0155390D01*
X0217498Y0154622D01*
X0217498Y0153855D01*
X0218266Y0152320D01*
X0215964Y0152320D01*
X0215964Y0155390D01*
X0216731Y0150786D02*
X0215964Y0150019D01*
X0215964Y0148484D01*
X0216731Y0147717D01*
X0219800Y0147717D01*
X0220568Y0148484D01*
X0203994Y0172487D02*
X0199723Y0172487D01*
X0203322Y0174491D02*
X0203322Y0176793D01*
X0204089Y0177561D01*
X0207159Y0177561D01*
X0207926Y0176793D01*
X0207926Y0174491D01*
X0203322Y0174491D01*
X0203994Y0175903D02*
X0199723Y0175903D01*
X0202286Y0177570D02*
X0202286Y0180986D01*
X0203322Y0181397D02*
X0204089Y0182165D01*
X0204857Y0182165D01*
X0205624Y0181397D01*
X0206391Y0182165D01*
X0207159Y0182165D01*
X0207926Y0181397D01*
X0207926Y0179863D01*
X0207159Y0179095D01*
X0205624Y0180630D02*
X0205624Y0181397D01*
X0204848Y0180132D02*
X0199723Y0180132D01*
X0202286Y0177570D01*
X0204089Y0179095D02*
X0203322Y0179863D01*
X0203322Y0181397D01*
X0203994Y0175903D02*
X0204848Y0175049D01*
X0204848Y0173341D01*
X0203994Y0172487D01*
X0235696Y0176492D02*
X0235696Y0178794D01*
X0236463Y0179561D01*
X0237998Y0179561D01*
X0238765Y0178794D01*
X0238765Y0176492D01*
X0238765Y0178027D02*
X0240300Y0179561D01*
X0240300Y0181096D02*
X0239533Y0181096D01*
X0236463Y0184165D01*
X0235696Y0184165D01*
X0235696Y0181096D01*
X0235696Y0176492D02*
X0240300Y0176492D01*
X0249696Y0176492D02*
X0249696Y0178794D01*
X0250463Y0179561D01*
X0251998Y0179561D01*
X0252765Y0178794D01*
X0252765Y0176492D01*
X0252765Y0178027D02*
X0254300Y0179561D01*
X0253533Y0181096D02*
X0254300Y0181863D01*
X0254300Y0183398D01*
X0253533Y0184165D01*
X0251998Y0184165D01*
X0251231Y0183398D01*
X0251231Y0182631D01*
X0251998Y0181096D01*
X0249696Y0181096D01*
X0249696Y0184165D01*
X0249696Y0176492D02*
X0254300Y0176492D01*
X0263696Y0176492D02*
X0263696Y0178794D01*
X0264463Y0179561D01*
X0265998Y0179561D01*
X0266765Y0178794D01*
X0266765Y0176492D01*
X0266765Y0178027D02*
X0268300Y0179561D01*
X0265998Y0181096D02*
X0265998Y0184165D01*
X0263696Y0183398D02*
X0265998Y0181096D01*
X0268300Y0183398D02*
X0263696Y0183398D01*
X0263696Y0176492D02*
X0268300Y0176492D01*
X0296696Y0177363D02*
X0297463Y0176596D01*
X0298231Y0176596D01*
X0298998Y0177363D01*
X0298998Y0179665D01*
X0297463Y0179665D02*
X0296696Y0178898D01*
X0296696Y0177363D01*
X0297463Y0175061D02*
X0296696Y0174294D01*
X0296696Y0172759D01*
X0297463Y0171992D01*
X0300533Y0171992D01*
X0301300Y0172759D01*
X0301300Y0174294D01*
X0300533Y0175061D01*
X0300533Y0176596D02*
X0301300Y0177363D01*
X0301300Y0178898D01*
X0300533Y0179665D01*
X0297463Y0179665D01*
X0328869Y0196137D02*
X0331171Y0196137D01*
X0331939Y0196904D01*
X0331939Y0199974D01*
X0331171Y0200741D01*
X0328869Y0200741D01*
X0328869Y0196137D01*
X0333473Y0196904D02*
X0333473Y0198439D01*
X0335775Y0198439D01*
X0336542Y0197672D01*
X0336542Y0196904D01*
X0335775Y0196137D01*
X0334241Y0196137D01*
X0333473Y0196904D01*
X0333473Y0198439D02*
X0335008Y0199974D01*
X0336542Y0200741D01*
X0358696Y0189665D02*
X0358696Y0186596D01*
X0359463Y0185061D02*
X0358696Y0184294D01*
X0358696Y0182759D01*
X0359463Y0181992D01*
X0362533Y0181992D01*
X0363300Y0182759D01*
X0363300Y0184294D01*
X0362533Y0185061D01*
X0362533Y0186596D02*
X0363300Y0186596D01*
X0362533Y0186596D02*
X0359463Y0189665D01*
X0358696Y0189665D01*
X0358700Y0179304D02*
X0361002Y0179304D01*
X0361769Y0178537D01*
X0361769Y0177002D01*
X0361002Y0176235D01*
X0358700Y0176235D01*
X0360235Y0176235D02*
X0361769Y0174700D01*
X0363304Y0175467D02*
X0364071Y0174700D01*
X0365606Y0174700D01*
X0366373Y0175467D01*
X0366373Y0176235D01*
X0365606Y0177002D01*
X0364839Y0177002D01*
X0365606Y0177002D02*
X0366373Y0177769D01*
X0366373Y0178537D01*
X0365606Y0179304D01*
X0364071Y0179304D01*
X0363304Y0178537D01*
X0367908Y0178537D02*
X0368675Y0179304D01*
X0370210Y0179304D01*
X0370977Y0178537D01*
X0370977Y0177769D01*
X0370210Y0177002D01*
X0370977Y0176235D01*
X0370977Y0175467D01*
X0370210Y0174700D01*
X0368675Y0174700D01*
X0367908Y0175467D01*
X0369442Y0177002D02*
X0370210Y0177002D01*
X0358700Y0174700D02*
X0358700Y0179304D01*
X0339373Y0167537D02*
X0338606Y0168304D01*
X0337071Y0168304D01*
X0336304Y0167537D01*
X0336304Y0166769D01*
X0337071Y0166002D01*
X0339373Y0166002D01*
X0339373Y0164467D02*
X0339373Y0167537D01*
X0334769Y0167537D02*
X0334769Y0166002D01*
X0334002Y0165235D01*
X0331700Y0165235D01*
X0333235Y0165235D02*
X0334769Y0163700D01*
X0336304Y0164467D02*
X0337071Y0163700D01*
X0338606Y0163700D01*
X0339373Y0164467D01*
X0334769Y0167537D02*
X0334002Y0168304D01*
X0331700Y0168304D01*
X0331700Y0163700D01*
X0333314Y0103783D02*
X0333314Y0100714D01*
X0335616Y0100714D01*
X0334849Y0102249D01*
X0334849Y0103016D01*
X0335616Y0103783D01*
X0337151Y0103783D01*
X0337918Y0103016D01*
X0337918Y0101481D01*
X0337151Y0100714D01*
X0337151Y0099180D02*
X0334082Y0099180D01*
X0333314Y0098412D01*
X0333314Y0096110D01*
X0337918Y0096110D01*
X0337918Y0098412D01*
X0337151Y0099180D01*
X0347700Y0074465D02*
X0346932Y0073698D01*
X0346932Y0070629D01*
X0347700Y0069861D01*
X0349234Y0069861D01*
X0350002Y0070629D01*
X0350002Y0072163D01*
X0348467Y0072163D01*
X0350002Y0073698D02*
X0349234Y0074465D01*
X0347700Y0074465D01*
X0351536Y0074465D02*
X0354605Y0069861D01*
X0354605Y0074465D01*
X0356140Y0074465D02*
X0358442Y0074465D01*
X0359209Y0073698D01*
X0359209Y0070629D01*
X0358442Y0069861D01*
X0356140Y0069861D01*
X0356140Y0074465D01*
X0351536Y0074465D02*
X0351536Y0069861D01*
X0352304Y0044465D02*
X0351536Y0043698D01*
X0351536Y0040629D01*
X0352304Y0039861D01*
X0353838Y0039861D01*
X0354605Y0040629D01*
X0356140Y0040629D02*
X0356907Y0039861D01*
X0358442Y0039861D01*
X0359209Y0040629D01*
X0356140Y0040629D02*
X0356140Y0043698D01*
X0356907Y0044465D01*
X0358442Y0044465D01*
X0359209Y0043698D01*
X0354605Y0043698D02*
X0353838Y0044465D01*
X0352304Y0044465D01*
X0350002Y0044465D02*
X0350002Y0041396D01*
X0348467Y0039861D01*
X0346932Y0041396D01*
X0346932Y0044465D01*
X0204402Y0031310D02*
X0204402Y0028241D01*
X0203198Y0028207D02*
X0201663Y0026672D01*
X0202100Y0026706D02*
X0202868Y0025939D01*
X0202868Y0023637D01*
X0204402Y0023637D02*
X0199798Y0023637D01*
X0199798Y0025939D01*
X0200566Y0026706D01*
X0202100Y0026706D01*
X0201663Y0027440D02*
X0201663Y0025138D01*
X0202868Y0025172D02*
X0204402Y0026706D01*
X0203198Y0025138D02*
X0198594Y0025138D01*
X0198594Y0027440D01*
X0199361Y0028207D01*
X0200896Y0028207D01*
X0201663Y0027440D01*
X0201333Y0028241D02*
X0199798Y0029776D01*
X0204402Y0029776D01*
X0203198Y0029742D02*
X0200128Y0032811D01*
X0199361Y0032811D01*
X0198594Y0032044D01*
X0198594Y0030509D01*
X0199361Y0029742D01*
X0203198Y0029742D02*
X0203198Y0032811D01*
X0179857Y0031686D02*
X0179090Y0032454D01*
X0177555Y0032454D01*
X0176788Y0031686D01*
X0175254Y0031686D02*
X0174486Y0032454D01*
X0172952Y0032454D01*
X0172184Y0031686D01*
X0172184Y0028617D01*
X0172952Y0027850D01*
X0174486Y0027850D01*
X0175254Y0028617D01*
X0176788Y0027850D02*
X0179857Y0030919D01*
X0179857Y0031686D01*
X0179857Y0027850D02*
X0176788Y0027850D01*
X0154417Y0080861D02*
X0151348Y0080861D01*
X0154417Y0083931D01*
X0154417Y0084698D01*
X0153650Y0085465D01*
X0152115Y0085465D01*
X0151348Y0084698D01*
X0149813Y0084698D02*
X0149046Y0085465D01*
X0147511Y0085465D01*
X0146744Y0084698D01*
X0146744Y0081629D01*
X0147511Y0080861D01*
X0149046Y0080861D01*
X0149813Y0081629D01*
X0145209Y0081629D02*
X0145209Y0084698D01*
X0144442Y0085465D01*
X0142140Y0085465D01*
X0142140Y0080861D01*
X0144442Y0080861D01*
X0145209Y0081629D01*
X0140605Y0080861D02*
X0137536Y0080861D01*
X0137536Y0085465D01*
X0136002Y0084698D02*
X0136002Y0083931D01*
X0135234Y0083163D01*
X0132932Y0083163D01*
X0132932Y0080861D02*
X0135234Y0080861D01*
X0136002Y0081629D01*
X0136002Y0082396D01*
X0135234Y0083163D01*
X0136002Y0084698D02*
X0135234Y0085465D01*
X0132932Y0085465D01*
X0132932Y0080861D01*
X0112470Y0147315D02*
X0109400Y0147315D01*
X0108633Y0148082D01*
X0108633Y0149617D01*
X0109400Y0150384D01*
X0110168Y0151919D02*
X0108633Y0153454D01*
X0113237Y0153454D01*
X0113237Y0154988D02*
X0113237Y0151919D01*
X0112470Y0150384D02*
X0113237Y0149617D01*
X0113237Y0148082D01*
X0112470Y0147315D01*
X0164082Y0149043D02*
X0164849Y0148276D01*
X0167919Y0148276D01*
X0168686Y0149043D01*
X0168686Y0150578D01*
X0167919Y0151345D01*
X0166384Y0152880D02*
X0166384Y0155949D01*
X0168686Y0155181D02*
X0164082Y0155181D01*
X0166384Y0152880D01*
X0164849Y0151345D02*
X0164082Y0150578D01*
X0164082Y0149043D01*
X0151994Y0173487D02*
X0147723Y0173487D01*
X0147723Y0176903D02*
X0151994Y0176903D01*
X0152848Y0176049D01*
X0152848Y0174341D01*
X0151994Y0173487D01*
X0151259Y0176554D02*
X0151259Y0178856D01*
X0152026Y0179624D01*
X0155096Y0179624D01*
X0155863Y0178856D01*
X0155863Y0176554D01*
X0151259Y0176554D01*
X0151994Y0178570D02*
X0152848Y0179424D01*
X0152848Y0181132D01*
X0151994Y0181986D01*
X0151140Y0181986D01*
X0150286Y0181132D01*
X0150286Y0180278D01*
X0150286Y0181132D02*
X0149432Y0181986D01*
X0148577Y0181986D01*
X0147723Y0181132D01*
X0147723Y0179424D01*
X0148577Y0178570D01*
X0151259Y0181926D02*
X0152026Y0181158D01*
X0151259Y0181926D02*
X0151259Y0183460D01*
X0152026Y0184228D01*
X0152794Y0184228D01*
X0155863Y0181158D01*
X0155863Y0184228D01*
X0101863Y0181354D02*
X0101863Y0178284D01*
X0101863Y0179819D02*
X0097259Y0179819D01*
X0098794Y0178284D01*
X0098026Y0176750D02*
X0097259Y0175982D01*
X0097259Y0173680D01*
X0101863Y0173680D01*
X0101863Y0175982D01*
X0101096Y0176750D01*
X0098026Y0176750D01*
X0096848Y0176049D02*
X0095994Y0176903D01*
X0091723Y0176903D01*
X0092577Y0178570D02*
X0091723Y0179424D01*
X0091723Y0181132D01*
X0092577Y0181986D01*
X0093432Y0181986D01*
X0096848Y0178570D01*
X0096848Y0181986D01*
X0096848Y0176049D02*
X0096848Y0174341D01*
X0095994Y0173487D01*
X0091723Y0173487D01*
D13*
X0260000Y0202500D02*
X0260000Y0207500D01*
X0262500Y0210000D01*
X0267500Y0210000D01*
X0270000Y0207500D01*
X0272500Y0210000D01*
X0277500Y0210000D01*
X0280000Y0207500D01*
X0280000Y0202500D01*
X0277500Y0200000D01*
X0272500Y0200000D01*
X0270000Y0202500D01*
X0267500Y0200000D01*
X0262500Y0200000D01*
X0260000Y0202500D01*
X0328173Y0182194D02*
X0328175Y0182241D01*
X0328181Y0182288D01*
X0328191Y0182335D01*
X0328204Y0182380D01*
X0328222Y0182424D01*
X0328243Y0182466D01*
X0328267Y0182507D01*
X0328295Y0182545D01*
X0328326Y0182581D01*
X0328360Y0182614D01*
X0328396Y0182644D01*
X0328435Y0182671D01*
X0328476Y0182695D01*
X0328519Y0182715D01*
X0328563Y0182731D01*
X0328609Y0182744D01*
X0328655Y0182753D01*
X0328703Y0182758D01*
X0328750Y0182759D01*
X0328797Y0182756D01*
X0328844Y0182749D01*
X0328890Y0182738D01*
X0328935Y0182724D01*
X0328979Y0182705D01*
X0329020Y0182683D01*
X0329060Y0182658D01*
X0329098Y0182629D01*
X0329133Y0182598D01*
X0329166Y0182563D01*
X0329195Y0182526D01*
X0329221Y0182487D01*
X0329244Y0182445D01*
X0329263Y0182402D01*
X0329279Y0182357D01*
X0329291Y0182311D01*
X0329299Y0182265D01*
X0329303Y0182218D01*
X0329303Y0182170D01*
X0329299Y0182123D01*
X0329291Y0182077D01*
X0329279Y0182031D01*
X0329263Y0181986D01*
X0329244Y0181943D01*
X0329221Y0181901D01*
X0329195Y0181862D01*
X0329166Y0181825D01*
X0329133Y0181790D01*
X0329098Y0181759D01*
X0329060Y0181730D01*
X0329021Y0181705D01*
X0328979Y0181683D01*
X0328935Y0181664D01*
X0328890Y0181650D01*
X0328844Y0181639D01*
X0328797Y0181632D01*
X0328750Y0181629D01*
X0328703Y0181630D01*
X0328655Y0181635D01*
X0328609Y0181644D01*
X0328563Y0181657D01*
X0328519Y0181673D01*
X0328476Y0181693D01*
X0328435Y0181717D01*
X0328396Y0181744D01*
X0328360Y0181774D01*
X0328326Y0181807D01*
X0328295Y0181843D01*
X0328267Y0181881D01*
X0328243Y0181922D01*
X0328222Y0181964D01*
X0328204Y0182008D01*
X0328191Y0182053D01*
X0328181Y0182100D01*
X0328175Y0182147D01*
X0328173Y0182194D01*
X0329094Y0181906D02*
X0340906Y0181906D01*
X0340906Y0170094D02*
X0329094Y0170094D01*
X0288220Y0145299D02*
X0288220Y0128764D01*
X0279953Y0128764D01*
X0275622Y0128764D02*
X0267354Y0128764D01*
X0267354Y0145299D01*
X0271685Y0149630D01*
X0275622Y0149630D01*
X0279756Y0149630D02*
X0283890Y0149630D01*
X0288220Y0145299D01*
X0279756Y0148843D02*
X0279990Y0148789D01*
X0280224Y0148731D01*
X0280455Y0148666D01*
X0280685Y0148596D01*
X0280913Y0148520D01*
X0281140Y0148439D01*
X0281364Y0148353D01*
X0281586Y0148260D01*
X0281806Y0148163D01*
X0282023Y0148060D01*
X0282238Y0147952D01*
X0282450Y0147839D01*
X0282660Y0147720D01*
X0282866Y0147597D01*
X0283069Y0147469D01*
X0283269Y0147335D01*
X0283466Y0147197D01*
X0283660Y0147054D01*
X0283850Y0146907D01*
X0284036Y0146755D01*
X0284218Y0146598D01*
X0284397Y0146437D01*
X0284571Y0146272D01*
X0284742Y0146102D01*
X0284908Y0145929D01*
X0285071Y0145751D01*
X0285228Y0145570D01*
X0285382Y0145384D01*
X0285530Y0145195D01*
X0285674Y0145003D01*
X0285814Y0144807D01*
X0285948Y0144608D01*
X0286078Y0144405D01*
X0286203Y0144200D01*
X0286323Y0143991D01*
X0286437Y0143780D01*
X0286547Y0143566D01*
X0286651Y0143349D01*
X0286750Y0143130D01*
X0286843Y0142908D01*
X0286931Y0142684D01*
X0287014Y0142459D01*
X0287091Y0142231D01*
X0287162Y0142001D01*
X0287228Y0141770D01*
X0287289Y0141537D01*
X0287343Y0141303D01*
X0287392Y0141068D01*
X0287435Y0140831D01*
X0287473Y0140594D01*
X0287504Y0140355D01*
X0287530Y0140116D01*
X0287550Y0139876D01*
X0287564Y0139636D01*
X0287573Y0139396D01*
X0287575Y0139156D01*
X0287572Y0138915D01*
X0287562Y0138675D01*
X0287547Y0138435D01*
X0287526Y0138195D01*
X0287500Y0137956D01*
X0287467Y0137718D01*
X0287429Y0137481D01*
X0287385Y0137244D01*
X0287335Y0137009D01*
X0287279Y0136775D01*
X0287218Y0136543D01*
X0287151Y0136312D01*
X0287079Y0136082D01*
X0287001Y0135855D01*
X0286917Y0135629D01*
X0286828Y0135406D01*
X0286734Y0135185D01*
X0286634Y0134966D01*
X0286529Y0134750D01*
X0286419Y0134536D01*
X0286304Y0134325D01*
X0286183Y0134117D01*
X0286058Y0133912D01*
X0285927Y0133710D01*
X0285792Y0133511D01*
X0285652Y0133316D01*
X0285507Y0133124D01*
X0285357Y0132936D01*
X0285203Y0132751D01*
X0285045Y0132570D01*
X0284882Y0132393D01*
X0284715Y0132220D01*
X0284544Y0132051D01*
X0284368Y0131887D01*
X0284189Y0131726D01*
X0284006Y0131571D01*
X0283819Y0131419D01*
X0283629Y0131272D01*
X0283435Y0131130D01*
X0283237Y0130993D01*
X0283037Y0130860D01*
X0282833Y0130733D01*
X0282626Y0130610D01*
X0282416Y0130493D01*
X0282204Y0130380D01*
X0281989Y0130273D01*
X0281771Y0130171D01*
X0281551Y0130074D01*
X0281328Y0129983D01*
X0281103Y0129897D01*
X0280877Y0129817D01*
X0280648Y0129742D01*
X0280418Y0129673D01*
X0280186Y0129610D01*
X0279953Y0129552D01*
X0275622Y0129551D02*
X0275390Y0129604D01*
X0275159Y0129663D01*
X0274930Y0129727D01*
X0274703Y0129798D01*
X0274477Y0129873D01*
X0274253Y0129954D01*
X0274031Y0130041D01*
X0273812Y0130133D01*
X0273595Y0130230D01*
X0273380Y0130333D01*
X0273168Y0130441D01*
X0272958Y0130554D01*
X0272751Y0130672D01*
X0272548Y0130795D01*
X0272347Y0130923D01*
X0272149Y0131056D01*
X0271955Y0131193D01*
X0271764Y0131336D01*
X0271577Y0131483D01*
X0271393Y0131634D01*
X0271214Y0131790D01*
X0271038Y0131950D01*
X0270866Y0132115D01*
X0270698Y0132284D01*
X0270534Y0132456D01*
X0270374Y0132633D01*
X0270219Y0132814D01*
X0270068Y0132998D01*
X0269922Y0133186D01*
X0269781Y0133377D01*
X0269644Y0133572D01*
X0269512Y0133770D01*
X0269385Y0133971D01*
X0269262Y0134176D01*
X0269145Y0134383D01*
X0269033Y0134593D01*
X0268926Y0134806D01*
X0268824Y0135021D01*
X0268728Y0135238D01*
X0268637Y0135458D01*
X0268551Y0135680D01*
X0268471Y0135905D01*
X0268396Y0136131D01*
X0268327Y0136358D01*
X0268263Y0136588D01*
X0268205Y0136819D01*
X0268153Y0137051D01*
X0268106Y0137284D01*
X0268065Y0137519D01*
X0268030Y0137754D01*
X0268001Y0137990D01*
X0267977Y0138227D01*
X0267959Y0138465D01*
X0267947Y0138702D01*
X0267941Y0138940D01*
X0267941Y0139178D01*
X0267946Y0139416D01*
X0267957Y0139654D01*
X0267974Y0139892D01*
X0267997Y0140129D01*
X0268025Y0140365D01*
X0268060Y0140601D01*
X0268100Y0140835D01*
X0268145Y0141069D01*
X0268197Y0141301D01*
X0268254Y0141532D01*
X0268317Y0141762D01*
X0268385Y0141990D01*
X0268459Y0142216D01*
X0268538Y0142441D01*
X0268623Y0142663D01*
X0268713Y0142884D01*
X0268809Y0143102D01*
X0268910Y0143317D01*
X0269016Y0143530D01*
X0269127Y0143741D01*
X0269244Y0143948D01*
X0269365Y0144153D01*
X0269492Y0144355D01*
X0269623Y0144553D01*
X0269759Y0144749D01*
X0269900Y0144941D01*
X0270045Y0145129D01*
X0270195Y0145314D01*
X0270350Y0145495D01*
X0270509Y0145672D01*
X0270672Y0145846D01*
X0270839Y0146015D01*
X0271011Y0146180D01*
X0271186Y0146341D01*
X0271365Y0146498D01*
X0271548Y0146650D01*
X0271735Y0146798D01*
X0271925Y0146941D01*
X0272119Y0147079D01*
X0272316Y0147213D01*
X0272516Y0147341D01*
X0272719Y0147465D01*
X0272926Y0147584D01*
X0273135Y0147698D01*
X0273347Y0147807D01*
X0273561Y0147910D01*
X0273778Y0148008D01*
X0273997Y0148101D01*
X0274219Y0148188D01*
X0274442Y0148270D01*
X0274667Y0148347D01*
X0274895Y0148418D01*
X0275124Y0148483D01*
X0275354Y0148543D01*
X0275586Y0148597D01*
X0275819Y0148646D01*
X0304685Y0110630D02*
X0308622Y0110630D01*
X0304685Y0110630D02*
X0300354Y0106299D01*
X0300354Y0089764D01*
X0308622Y0089764D01*
X0312953Y0089764D02*
X0321220Y0089764D01*
X0321220Y0106299D01*
X0316890Y0110630D01*
X0312756Y0110630D01*
X0312756Y0109843D02*
X0312990Y0109789D01*
X0313224Y0109731D01*
X0313455Y0109666D01*
X0313685Y0109596D01*
X0313913Y0109520D01*
X0314140Y0109439D01*
X0314364Y0109353D01*
X0314586Y0109260D01*
X0314806Y0109163D01*
X0315023Y0109060D01*
X0315238Y0108952D01*
X0315450Y0108839D01*
X0315660Y0108720D01*
X0315866Y0108597D01*
X0316069Y0108469D01*
X0316269Y0108335D01*
X0316466Y0108197D01*
X0316660Y0108054D01*
X0316850Y0107907D01*
X0317036Y0107755D01*
X0317218Y0107598D01*
X0317397Y0107437D01*
X0317571Y0107272D01*
X0317742Y0107102D01*
X0317908Y0106929D01*
X0318071Y0106751D01*
X0318228Y0106570D01*
X0318382Y0106384D01*
X0318530Y0106195D01*
X0318674Y0106003D01*
X0318814Y0105807D01*
X0318948Y0105608D01*
X0319078Y0105405D01*
X0319203Y0105200D01*
X0319323Y0104991D01*
X0319437Y0104780D01*
X0319547Y0104566D01*
X0319651Y0104349D01*
X0319750Y0104130D01*
X0319843Y0103908D01*
X0319931Y0103684D01*
X0320014Y0103459D01*
X0320091Y0103231D01*
X0320162Y0103001D01*
X0320228Y0102770D01*
X0320289Y0102537D01*
X0320343Y0102303D01*
X0320392Y0102068D01*
X0320435Y0101831D01*
X0320473Y0101594D01*
X0320504Y0101355D01*
X0320530Y0101116D01*
X0320550Y0100876D01*
X0320564Y0100636D01*
X0320573Y0100396D01*
X0320575Y0100156D01*
X0320572Y0099915D01*
X0320562Y0099675D01*
X0320547Y0099435D01*
X0320526Y0099195D01*
X0320500Y0098956D01*
X0320467Y0098718D01*
X0320429Y0098481D01*
X0320385Y0098244D01*
X0320335Y0098009D01*
X0320279Y0097775D01*
X0320218Y0097543D01*
X0320151Y0097312D01*
X0320079Y0097082D01*
X0320001Y0096855D01*
X0319917Y0096629D01*
X0319828Y0096406D01*
X0319734Y0096185D01*
X0319634Y0095966D01*
X0319529Y0095750D01*
X0319419Y0095536D01*
X0319304Y0095325D01*
X0319183Y0095117D01*
X0319058Y0094912D01*
X0318927Y0094710D01*
X0318792Y0094511D01*
X0318652Y0094316D01*
X0318507Y0094124D01*
X0318357Y0093936D01*
X0318203Y0093751D01*
X0318045Y0093570D01*
X0317882Y0093393D01*
X0317715Y0093220D01*
X0317544Y0093051D01*
X0317368Y0092887D01*
X0317189Y0092726D01*
X0317006Y0092571D01*
X0316819Y0092419D01*
X0316629Y0092272D01*
X0316435Y0092130D01*
X0316237Y0091993D01*
X0316037Y0091860D01*
X0315833Y0091733D01*
X0315626Y0091610D01*
X0315416Y0091493D01*
X0315204Y0091380D01*
X0314989Y0091273D01*
X0314771Y0091171D01*
X0314551Y0091074D01*
X0314328Y0090983D01*
X0314103Y0090897D01*
X0313877Y0090817D01*
X0313648Y0090742D01*
X0313418Y0090673D01*
X0313186Y0090610D01*
X0312953Y0090552D01*
X0308622Y0090551D02*
X0308390Y0090604D01*
X0308159Y0090663D01*
X0307930Y0090727D01*
X0307703Y0090798D01*
X0307477Y0090873D01*
X0307253Y0090954D01*
X0307031Y0091041D01*
X0306812Y0091133D01*
X0306595Y0091230D01*
X0306380Y0091333D01*
X0306168Y0091441D01*
X0305958Y0091554D01*
X0305751Y0091672D01*
X0305548Y0091795D01*
X0305347Y0091923D01*
X0305149Y0092056D01*
X0304955Y0092193D01*
X0304764Y0092336D01*
X0304577Y0092483D01*
X0304393Y0092634D01*
X0304214Y0092790D01*
X0304038Y0092950D01*
X0303866Y0093115D01*
X0303698Y0093284D01*
X0303534Y0093456D01*
X0303374Y0093633D01*
X0303219Y0093814D01*
X0303068Y0093998D01*
X0302922Y0094186D01*
X0302781Y0094377D01*
X0302644Y0094572D01*
X0302512Y0094770D01*
X0302385Y0094971D01*
X0302262Y0095176D01*
X0302145Y0095383D01*
X0302033Y0095593D01*
X0301926Y0095806D01*
X0301824Y0096021D01*
X0301728Y0096238D01*
X0301637Y0096458D01*
X0301551Y0096680D01*
X0301471Y0096905D01*
X0301396Y0097131D01*
X0301327Y0097358D01*
X0301263Y0097588D01*
X0301205Y0097819D01*
X0301153Y0098051D01*
X0301106Y0098284D01*
X0301065Y0098519D01*
X0301030Y0098754D01*
X0301001Y0098990D01*
X0300977Y0099227D01*
X0300959Y0099465D01*
X0300947Y0099702D01*
X0300941Y0099940D01*
X0300941Y0100178D01*
X0300946Y0100416D01*
X0300957Y0100654D01*
X0300974Y0100892D01*
X0300997Y0101129D01*
X0301025Y0101365D01*
X0301060Y0101601D01*
X0301100Y0101835D01*
X0301145Y0102069D01*
X0301197Y0102301D01*
X0301254Y0102532D01*
X0301317Y0102762D01*
X0301385Y0102990D01*
X0301459Y0103216D01*
X0301538Y0103441D01*
X0301623Y0103663D01*
X0301713Y0103884D01*
X0301809Y0104102D01*
X0301910Y0104317D01*
X0302016Y0104530D01*
X0302127Y0104741D01*
X0302244Y0104948D01*
X0302365Y0105153D01*
X0302492Y0105355D01*
X0302623Y0105553D01*
X0302759Y0105749D01*
X0302900Y0105941D01*
X0303045Y0106129D01*
X0303195Y0106314D01*
X0303350Y0106495D01*
X0303509Y0106672D01*
X0303672Y0106846D01*
X0303839Y0107015D01*
X0304011Y0107180D01*
X0304186Y0107341D01*
X0304365Y0107498D01*
X0304548Y0107650D01*
X0304735Y0107798D01*
X0304925Y0107941D01*
X0305119Y0108079D01*
X0305316Y0108213D01*
X0305516Y0108341D01*
X0305719Y0108465D01*
X0305926Y0108584D01*
X0306135Y0108698D01*
X0306347Y0108807D01*
X0306561Y0108910D01*
X0306778Y0109008D01*
X0306997Y0109101D01*
X0307219Y0109188D01*
X0307442Y0109270D01*
X0307667Y0109347D01*
X0307895Y0109418D01*
X0308124Y0109483D01*
X0308354Y0109543D01*
X0308586Y0109597D01*
X0308819Y0109646D01*
X0318500Y0063500D02*
X0318500Y0058500D01*
X0279500Y0046000D02*
X0279509Y0046773D01*
X0279538Y0047546D01*
X0279585Y0048317D01*
X0279652Y0049088D01*
X0279737Y0049856D01*
X0279841Y0050622D01*
X0279964Y0051385D01*
X0280105Y0052145D01*
X0280265Y0052902D01*
X0280444Y0053654D01*
X0280641Y0054401D01*
X0280856Y0055144D01*
X0281090Y0055881D01*
X0281341Y0056612D01*
X0281611Y0057337D01*
X0281898Y0058055D01*
X0282202Y0058765D01*
X0282524Y0059468D01*
X0282863Y0060163D01*
X0283219Y0060849D01*
X0283592Y0061526D01*
X0283982Y0062194D01*
X0284387Y0062852D01*
X0284809Y0063500D01*
X0285246Y0064138D01*
X0285699Y0064765D01*
X0286167Y0065380D01*
X0286650Y0065983D01*
X0287148Y0066575D01*
X0287660Y0067154D01*
X0288186Y0067721D01*
X0288726Y0068274D01*
X0289279Y0068814D01*
X0289846Y0069340D01*
X0290425Y0069852D01*
X0291017Y0070350D01*
X0291620Y0070833D01*
X0292235Y0071301D01*
X0292862Y0071754D01*
X0293500Y0072191D01*
X0294148Y0072613D01*
X0294806Y0073018D01*
X0295474Y0073408D01*
X0296151Y0073781D01*
X0296837Y0074137D01*
X0297532Y0074476D01*
X0298235Y0074798D01*
X0298945Y0075102D01*
X0299663Y0075389D01*
X0300388Y0075659D01*
X0301119Y0075910D01*
X0301856Y0076144D01*
X0302599Y0076359D01*
X0303346Y0076556D01*
X0304098Y0076735D01*
X0304855Y0076895D01*
X0305615Y0077036D01*
X0306378Y0077159D01*
X0307144Y0077263D01*
X0307912Y0077348D01*
X0308683Y0077415D01*
X0309454Y0077462D01*
X0310227Y0077491D01*
X0311000Y0077500D01*
X0311773Y0077491D01*
X0312546Y0077462D01*
X0313317Y0077415D01*
X0314088Y0077348D01*
X0314856Y0077263D01*
X0315622Y0077159D01*
X0316385Y0077036D01*
X0317145Y0076895D01*
X0317902Y0076735D01*
X0318654Y0076556D01*
X0319401Y0076359D01*
X0320144Y0076144D01*
X0320881Y0075910D01*
X0321612Y0075659D01*
X0322337Y0075389D01*
X0323055Y0075102D01*
X0323765Y0074798D01*
X0324468Y0074476D01*
X0325163Y0074137D01*
X0325849Y0073781D01*
X0326526Y0073408D01*
X0327194Y0073018D01*
X0327852Y0072613D01*
X0328500Y0072191D01*
X0329138Y0071754D01*
X0329765Y0071301D01*
X0330380Y0070833D01*
X0330983Y0070350D01*
X0331575Y0069852D01*
X0332154Y0069340D01*
X0332721Y0068814D01*
X0333274Y0068274D01*
X0333814Y0067721D01*
X0334340Y0067154D01*
X0334852Y0066575D01*
X0335350Y0065983D01*
X0335833Y0065380D01*
X0336301Y0064765D01*
X0336754Y0064138D01*
X0337191Y0063500D01*
X0337613Y0062852D01*
X0338018Y0062194D01*
X0338408Y0061526D01*
X0338781Y0060849D01*
X0339137Y0060163D01*
X0339476Y0059468D01*
X0339798Y0058765D01*
X0340102Y0058055D01*
X0340389Y0057337D01*
X0340659Y0056612D01*
X0340910Y0055881D01*
X0341144Y0055144D01*
X0341359Y0054401D01*
X0341556Y0053654D01*
X0341735Y0052902D01*
X0341895Y0052145D01*
X0342036Y0051385D01*
X0342159Y0050622D01*
X0342263Y0049856D01*
X0342348Y0049088D01*
X0342415Y0048317D01*
X0342462Y0047546D01*
X0342491Y0046773D01*
X0342500Y0046000D01*
X0342491Y0045227D01*
X0342462Y0044454D01*
X0342415Y0043683D01*
X0342348Y0042912D01*
X0342263Y0042144D01*
X0342159Y0041378D01*
X0342036Y0040615D01*
X0341895Y0039855D01*
X0341735Y0039098D01*
X0341556Y0038346D01*
X0341359Y0037599D01*
X0341144Y0036856D01*
X0340910Y0036119D01*
X0340659Y0035388D01*
X0340389Y0034663D01*
X0340102Y0033945D01*
X0339798Y0033235D01*
X0339476Y0032532D01*
X0339137Y0031837D01*
X0338781Y0031151D01*
X0338408Y0030474D01*
X0338018Y0029806D01*
X0337613Y0029148D01*
X0337191Y0028500D01*
X0336754Y0027862D01*
X0336301Y0027235D01*
X0335833Y0026620D01*
X0335350Y0026017D01*
X0334852Y0025425D01*
X0334340Y0024846D01*
X0333814Y0024279D01*
X0333274Y0023726D01*
X0332721Y0023186D01*
X0332154Y0022660D01*
X0331575Y0022148D01*
X0330983Y0021650D01*
X0330380Y0021167D01*
X0329765Y0020699D01*
X0329138Y0020246D01*
X0328500Y0019809D01*
X0327852Y0019387D01*
X0327194Y0018982D01*
X0326526Y0018592D01*
X0325849Y0018219D01*
X0325163Y0017863D01*
X0324468Y0017524D01*
X0323765Y0017202D01*
X0323055Y0016898D01*
X0322337Y0016611D01*
X0321612Y0016341D01*
X0320881Y0016090D01*
X0320144Y0015856D01*
X0319401Y0015641D01*
X0318654Y0015444D01*
X0317902Y0015265D01*
X0317145Y0015105D01*
X0316385Y0014964D01*
X0315622Y0014841D01*
X0314856Y0014737D01*
X0314088Y0014652D01*
X0313317Y0014585D01*
X0312546Y0014538D01*
X0311773Y0014509D01*
X0311000Y0014500D01*
X0310227Y0014509D01*
X0309454Y0014538D01*
X0308683Y0014585D01*
X0307912Y0014652D01*
X0307144Y0014737D01*
X0306378Y0014841D01*
X0305615Y0014964D01*
X0304855Y0015105D01*
X0304098Y0015265D01*
X0303346Y0015444D01*
X0302599Y0015641D01*
X0301856Y0015856D01*
X0301119Y0016090D01*
X0300388Y0016341D01*
X0299663Y0016611D01*
X0298945Y0016898D01*
X0298235Y0017202D01*
X0297532Y0017524D01*
X0296837Y0017863D01*
X0296151Y0018219D01*
X0295474Y0018592D01*
X0294806Y0018982D01*
X0294148Y0019387D01*
X0293500Y0019809D01*
X0292862Y0020246D01*
X0292235Y0020699D01*
X0291620Y0021167D01*
X0291017Y0021650D01*
X0290425Y0022148D01*
X0289846Y0022660D01*
X0289279Y0023186D01*
X0288726Y0023726D01*
X0288186Y0024279D01*
X0287660Y0024846D01*
X0287148Y0025425D01*
X0286650Y0026017D01*
X0286167Y0026620D01*
X0285699Y0027235D01*
X0285246Y0027862D01*
X0284809Y0028500D01*
X0284387Y0029148D01*
X0283982Y0029806D01*
X0283592Y0030474D01*
X0283219Y0031151D01*
X0282863Y0031837D01*
X0282524Y0032532D01*
X0282202Y0033235D01*
X0281898Y0033945D01*
X0281611Y0034663D01*
X0281341Y0035388D01*
X0281090Y0036119D01*
X0280856Y0036856D01*
X0280641Y0037599D01*
X0280444Y0038346D01*
X0280265Y0039098D01*
X0280105Y0039855D01*
X0279964Y0040615D01*
X0279841Y0041378D01*
X0279737Y0042144D01*
X0279652Y0042912D01*
X0279585Y0043683D01*
X0279538Y0044454D01*
X0279509Y0045227D01*
X0279500Y0046000D01*
D14*
X0351148Y0050741D02*
X0351631Y0050257D01*
X0353566Y0050257D01*
X0354050Y0050741D01*
X0354050Y0051708D01*
X0353566Y0052192D01*
X0353566Y0053203D02*
X0354050Y0053687D01*
X0354050Y0054655D01*
X0353566Y0055138D01*
X0353083Y0055138D01*
X0352599Y0054655D01*
X0352599Y0054171D01*
X0352599Y0054655D02*
X0352115Y0055138D01*
X0351631Y0055138D01*
X0351148Y0054655D01*
X0351148Y0053687D01*
X0351631Y0053203D01*
X0351631Y0052192D02*
X0351148Y0051708D01*
X0351148Y0050741D01*
D15*
X0272700Y0053600D03*
X0227700Y0053600D03*
X0181700Y0052600D03*
X0136700Y0052600D03*
X0091700Y0052600D03*
X0046700Y0052600D03*
D16*
X0047649Y0057050D02*
X0044646Y0057050D01*
X0047649Y0060053D01*
X0047649Y0060803D01*
X0046898Y0061554D01*
X0045397Y0061554D01*
X0044646Y0060803D01*
X0043045Y0060803D02*
X0043045Y0057801D01*
X0042294Y0057050D01*
X0040793Y0057050D01*
X0040042Y0057801D01*
X0040042Y0060803D01*
X0040793Y0061554D01*
X0042294Y0061554D01*
X0043045Y0060803D01*
X0041543Y0058551D02*
X0043045Y0057050D01*
X0085042Y0057801D02*
X0085793Y0057050D01*
X0087294Y0057050D01*
X0088045Y0057801D01*
X0088045Y0060803D01*
X0087294Y0061554D01*
X0085793Y0061554D01*
X0085042Y0060803D01*
X0085042Y0057801D01*
X0086543Y0058551D02*
X0088045Y0057050D01*
X0089646Y0057050D02*
X0092649Y0057050D01*
X0091147Y0057050D02*
X0091147Y0061554D01*
X0089646Y0060053D01*
X0130042Y0060803D02*
X0130042Y0057801D01*
X0130793Y0057050D01*
X0132294Y0057050D01*
X0133045Y0057801D01*
X0133045Y0060803D01*
X0132294Y0061554D01*
X0130793Y0061554D01*
X0130042Y0060803D01*
X0131543Y0058551D02*
X0133045Y0057050D01*
X0134646Y0059302D02*
X0137649Y0059302D01*
X0136898Y0057050D02*
X0136898Y0061554D01*
X0134646Y0059302D01*
X0175042Y0057801D02*
X0175793Y0057050D01*
X0177294Y0057050D01*
X0178045Y0057801D01*
X0178045Y0060803D01*
X0177294Y0061554D01*
X0175793Y0061554D01*
X0175042Y0060803D01*
X0175042Y0057801D01*
X0176543Y0058551D02*
X0178045Y0057050D01*
X0179646Y0057801D02*
X0180397Y0057050D01*
X0181898Y0057050D01*
X0182649Y0057801D01*
X0182649Y0058551D01*
X0181898Y0059302D01*
X0181147Y0059302D01*
X0181898Y0059302D02*
X0182649Y0060053D01*
X0182649Y0060803D01*
X0181898Y0061554D01*
X0180397Y0061554D01*
X0179646Y0060803D01*
X0221042Y0061803D02*
X0221042Y0058801D01*
X0221793Y0058050D01*
X0223294Y0058050D01*
X0224045Y0058801D01*
X0224045Y0061803D01*
X0223294Y0062554D01*
X0221793Y0062554D01*
X0221042Y0061803D01*
X0222543Y0059551D02*
X0224045Y0058050D01*
X0225646Y0058801D02*
X0226397Y0058050D01*
X0227898Y0058050D01*
X0228649Y0058801D01*
X0228649Y0059551D01*
X0227898Y0060302D01*
X0225646Y0060302D01*
X0225646Y0058801D01*
X0225646Y0060302D02*
X0227147Y0061803D01*
X0228649Y0062554D01*
X0266042Y0061803D02*
X0266042Y0058801D01*
X0266793Y0058050D01*
X0268294Y0058050D01*
X0269045Y0058801D01*
X0269045Y0061803D01*
X0268294Y0062554D01*
X0266793Y0062554D01*
X0266042Y0061803D01*
X0267543Y0059551D02*
X0269045Y0058050D01*
X0270646Y0058801D02*
X0271397Y0058050D01*
X0272898Y0058050D01*
X0273649Y0058801D01*
X0273649Y0060302D01*
X0272898Y0061053D01*
X0272147Y0061053D01*
X0270646Y0060302D01*
X0270646Y0062554D01*
X0273649Y0062554D01*
X0297665Y0098040D02*
X0298933Y0098040D01*
X0299250Y0098357D01*
X0299250Y0098991D01*
X0298933Y0099308D01*
X0298933Y0100250D02*
X0299250Y0100567D01*
X0299250Y0101201D01*
X0298933Y0101518D01*
X0298616Y0101518D01*
X0298299Y0101201D01*
X0298299Y0100250D01*
X0298933Y0100250D01*
X0298299Y0100250D02*
X0297665Y0100884D01*
X0297348Y0101518D01*
X0297665Y0099308D02*
X0297348Y0098991D01*
X0297348Y0098357D01*
X0297665Y0098040D01*
X0343732Y0099622D02*
X0343732Y0124114D01*
X0345189Y0124114D01*
X0368811Y0124114D02*
X0370268Y0124114D01*
X0370268Y0099622D01*
X0343732Y0099622D01*
X0266250Y0136252D02*
X0266250Y0136886D01*
X0265933Y0137203D01*
X0266250Y0138145D02*
X0266250Y0139413D01*
X0266250Y0138779D02*
X0264348Y0138779D01*
X0264982Y0138145D01*
X0264665Y0137203D02*
X0264348Y0136886D01*
X0264348Y0136252D01*
X0264665Y0135935D01*
X0265933Y0135935D01*
X0266250Y0136252D01*
X0266250Y0140355D02*
X0264982Y0141623D01*
X0264665Y0141623D01*
X0264348Y0141306D01*
X0264348Y0140672D01*
X0264665Y0140355D01*
X0266250Y0140355D02*
X0266250Y0141623D01*
X0197646Y0159323D02*
X0197646Y0174677D01*
X0178354Y0174677D02*
X0178354Y0159323D01*
X0145646Y0160323D02*
X0145646Y0175677D01*
X0126354Y0175677D02*
X0126354Y0160323D01*
X0089646Y0160323D02*
X0089646Y0175677D01*
X0070354Y0175677D02*
X0070354Y0160323D01*
X0271342Y0193801D02*
X0272093Y0193050D01*
X0272843Y0193050D01*
X0273594Y0193801D01*
X0273594Y0197554D01*
X0272843Y0197554D02*
X0274345Y0197554D01*
X0275946Y0196053D02*
X0277447Y0197554D01*
X0277447Y0193050D01*
X0275946Y0193050D02*
X0278949Y0193050D01*
X0292126Y0191094D02*
X0292126Y0189126D01*
X0307874Y0189126D01*
X0307874Y0191094D01*
X0306204Y0187752D02*
X0306204Y0185050D01*
X0305303Y0185050D02*
X0307105Y0185050D01*
X0305303Y0186852D02*
X0306204Y0187752D01*
X0304159Y0185050D02*
X0302357Y0185050D01*
X0302357Y0187752D01*
X0307874Y0202906D02*
X0307874Y0204874D01*
X0292126Y0204874D01*
X0292126Y0202906D01*
X0293517Y0206050D02*
X0295319Y0206050D01*
X0294418Y0206050D02*
X0294418Y0208752D01*
X0293517Y0207852D01*
X0296464Y0208302D02*
X0296914Y0208752D01*
X0297815Y0208752D01*
X0298265Y0208302D01*
X0296464Y0206500D01*
X0296914Y0206050D01*
X0297815Y0206050D01*
X0298265Y0206500D01*
X0298265Y0208302D01*
X0299410Y0208302D02*
X0299410Y0206500D01*
X0301212Y0208302D01*
X0301212Y0206500D01*
X0300762Y0206050D01*
X0299861Y0206050D01*
X0299410Y0206500D01*
X0299410Y0208302D02*
X0299861Y0208752D01*
X0300762Y0208752D01*
X0301212Y0208302D01*
X0302357Y0207852D02*
X0302357Y0206500D01*
X0302807Y0206050D01*
X0304159Y0206050D01*
X0304159Y0207852D01*
X0305303Y0207401D02*
X0307105Y0207401D01*
X0307105Y0208752D02*
X0307105Y0206050D01*
X0305303Y0206050D02*
X0305303Y0208752D01*
X0296464Y0208302D02*
X0296464Y0206500D01*
D17*
X0255000Y0040500D03*
X0210000Y0040500D03*
X0164000Y0039500D03*
X0119000Y0039500D03*
X0074000Y0039500D03*
X0029000Y0039500D03*
D18*
X0011750Y0042000D03*
X0046250Y0042000D03*
X0056750Y0042000D03*
X0091250Y0042000D03*
X0101750Y0042000D03*
X0136250Y0042000D03*
X0146750Y0042000D03*
X0181250Y0042000D03*
X0192750Y0043000D03*
X0227250Y0043000D03*
X0237750Y0043000D03*
X0272250Y0043000D03*
D19*
X0260000Y0043000D03*
X0250000Y0043000D03*
X0215000Y0043000D03*
X0205000Y0043000D03*
X0169000Y0042000D03*
X0159000Y0042000D03*
X0124000Y0042000D03*
X0114000Y0042000D03*
X0079000Y0042000D03*
X0069000Y0042000D03*
X0034000Y0042000D03*
X0024000Y0042000D03*
D20*
X0331074Y0182993D02*
X0331324Y0182743D01*
X0331824Y0182743D01*
X0332074Y0182993D01*
X0332074Y0184244D01*
X0332547Y0183744D02*
X0333047Y0184244D01*
X0333047Y0182743D01*
X0332547Y0182743D02*
X0333548Y0182743D01*
X0331074Y0182993D02*
X0331074Y0184244D01*
D21*
X0197823Y0183555D03*
X0145823Y0184555D03*
X0089823Y0184555D03*
D22*
X0328000Y0102362D03*
M02*
