G75*
%MOIN*%
%OFA0B0*%
%FSLAX25Y25*%
%IPPOS*%
%LPD*%
%AMOC8*
5,1,8,0,0,1.08239X$1,22.5*
%
%ADD10R,0.02762X0.09061*%
%ADD11R,0.07498X0.06699*%
%ADD12R,0.07487X0.06699*%
%ADD13R,0.05912X0.05912*%
%ADD14R,0.06699X0.07487*%
%ADD15OC8,0.07000*%
%ADD16C,0.07000*%
%ADD17R,0.06900X0.06900*%
%ADD18R,0.06699X0.07498*%
%ADD19R,0.07800X0.07800*%
%ADD20C,0.07800*%
%ADD21OC8,0.15400*%
%ADD22C,0.06400*%
%ADD23C,0.04534*%
D10*
X0072185Y0154748D03*
X0077185Y0154748D03*
X0082185Y0154748D03*
X0087185Y0154748D03*
X0087185Y0175220D03*
X0082185Y0175220D03*
X0077185Y0175220D03*
X0072185Y0175220D03*
X0128500Y0176299D03*
X0133500Y0176299D03*
X0138500Y0176299D03*
X0143500Y0176299D03*
X0143500Y0155827D03*
X0138500Y0155827D03*
X0133500Y0155827D03*
X0128500Y0155827D03*
X0180106Y0156787D03*
X0185106Y0156787D03*
X0190106Y0156787D03*
X0195106Y0156787D03*
X0195106Y0177260D03*
X0190106Y0177260D03*
X0185106Y0177260D03*
X0180106Y0177260D03*
D11*
X0231000Y0174402D03*
X0245000Y0174402D03*
X0259000Y0174402D03*
X0259000Y0185598D03*
X0245000Y0185598D03*
X0231000Y0185598D03*
X0195244Y0127425D03*
X0179890Y0127268D03*
X0179890Y0116071D03*
X0195244Y0116228D03*
X0143362Y0115071D03*
X0127614Y0115307D03*
X0127614Y0126504D03*
X0143362Y0126268D03*
X0087677Y0125031D03*
X0071929Y0125268D03*
X0071929Y0114071D03*
X0087677Y0113835D03*
X0193898Y0034244D03*
X0209102Y0034535D03*
X0209102Y0023339D03*
X0193898Y0023047D03*
D12*
X0211268Y0146213D03*
X0211268Y0157236D03*
X0159386Y0157795D03*
X0159386Y0146772D03*
X0103937Y0145811D03*
X0103937Y0156835D03*
X0058000Y0175488D03*
X0058000Y0186512D03*
D13*
X0106000Y0185291D03*
X0106000Y0170331D03*
X0160000Y0173205D03*
X0160000Y0188165D03*
X0212063Y0186102D03*
X0212063Y0171142D03*
D14*
X0028512Y0114000D03*
X0017488Y0114000D03*
X0171472Y0023150D03*
X0182496Y0023150D03*
D15*
X0185000Y0015000D03*
X0175000Y0015000D03*
X0165000Y0015000D03*
X0155000Y0015000D03*
X0145000Y0015000D03*
X0135000Y0015000D03*
X0205000Y0015000D03*
X0215000Y0015000D03*
X0225000Y0015000D03*
X0235000Y0015000D03*
X0245000Y0015000D03*
X0255000Y0015000D03*
X0255000Y0205000D03*
X0245000Y0205000D03*
X0235000Y0205000D03*
X0225000Y0205000D03*
X0215000Y0205000D03*
X0205000Y0205000D03*
X0195000Y0205000D03*
X0185000Y0205000D03*
X0169000Y0205000D03*
X0159000Y0205000D03*
X0149000Y0205000D03*
X0139000Y0205000D03*
X0129000Y0205000D03*
X0119000Y0205000D03*
X0109000Y0205000D03*
X0099000Y0205000D03*
X0089000Y0205000D03*
X0079000Y0205000D03*
D16*
X0311000Y0061000D03*
D17*
X0311000Y0031000D03*
D18*
X0036598Y0182000D03*
X0025402Y0182000D03*
X0023402Y0168000D03*
X0034598Y0168000D03*
D19*
X0029000Y0150000D03*
D20*
X0029000Y0140000D03*
X0029000Y0130000D03*
D21*
X0050000Y0065000D03*
X0142000Y0065000D03*
X0233000Y0065000D03*
X0354000Y0062000D03*
X0355000Y0031000D03*
D22*
X0018000Y0044000D02*
X0018000Y0050000D01*
X0028000Y0050000D02*
X0028000Y0044000D01*
X0038000Y0044000D02*
X0038000Y0050000D01*
X0062000Y0050000D02*
X0062000Y0044000D01*
X0072000Y0044000D02*
X0072000Y0050000D01*
X0082000Y0050000D02*
X0082000Y0044000D01*
X0110000Y0044000D02*
X0110000Y0050000D01*
X0120000Y0050000D02*
X0120000Y0044000D01*
X0130000Y0044000D02*
X0130000Y0050000D01*
X0154000Y0050000D02*
X0154000Y0044000D01*
X0164000Y0044000D02*
X0164000Y0050000D01*
X0174000Y0050000D02*
X0174000Y0044000D01*
X0201000Y0044000D02*
X0201000Y0050000D01*
X0211000Y0050000D02*
X0211000Y0044000D01*
X0221000Y0044000D02*
X0221000Y0050000D01*
X0245000Y0050000D02*
X0245000Y0044000D01*
X0255000Y0044000D02*
X0255000Y0050000D01*
X0265000Y0050000D02*
X0265000Y0044000D01*
D23*
X0187000Y0103000D03*
X0154000Y0105000D03*
X0144000Y0100000D03*
X0127000Y0105000D03*
X0110000Y0100000D03*
X0083000Y0101000D03*
X0187000Y0138000D03*
X0232000Y0113000D03*
X0249000Y0116000D03*
X0182000Y0190000D03*
X0138000Y0195000D03*
X0084500Y0187500D03*
M02*
