G75*
%MOIN*%
%OFA0B0*%
%FSLAX24Y24*%
%IPPOS*%
%LPD*%
%AMOC8*
5,1,8,0,0,1.08239X$1,22.5*
%
%ADD10C,0.0000*%
%ADD11C,0.0600*%
%ADD12C,0.0787*%
%ADD13OC8,0.0660*%
%ADD14C,0.0400*%
%ADD15C,0.0160*%
%ADD16C,0.0413*%
D10*
X000500Y000500D02*
X000500Y021500D01*
X030392Y021470D01*
X034400Y021500D01*
X035000Y020900D01*
X035000Y016400D01*
X036000Y015400D01*
X036000Y002500D01*
X035000Y001500D01*
X035000Y000500D01*
X000500Y000500D01*
D11*
X015511Y004854D02*
X016111Y004854D01*
X016111Y005854D02*
X015511Y005854D01*
X015511Y006854D02*
X016111Y006854D01*
X018810Y006854D02*
X019410Y006854D01*
X019410Y005854D02*
X018810Y005854D01*
X018810Y004854D02*
X019410Y004854D01*
X019530Y010575D02*
X018930Y010575D01*
X018930Y011575D02*
X019530Y011575D01*
X019530Y012575D02*
X018930Y012575D01*
X016211Y012579D02*
X015611Y012579D01*
X015611Y011579D02*
X016211Y011579D01*
X016211Y010579D02*
X015611Y010579D01*
X015603Y016236D02*
X016203Y016236D01*
X016203Y017236D02*
X015603Y017236D01*
X015603Y018236D02*
X016203Y018236D01*
X018902Y018228D02*
X019502Y018228D01*
X019502Y017228D02*
X018902Y017228D01*
X018902Y016228D02*
X019502Y016228D01*
D12*
X032364Y016890D03*
X032364Y018890D03*
X032364Y009823D03*
X032364Y007823D03*
X032364Y005823D03*
D13*
X025500Y001500D03*
X024500Y001500D03*
X023500Y001500D03*
X022500Y001500D03*
X021500Y001500D03*
X020500Y001500D03*
X018500Y001500D03*
X017500Y001500D03*
X016500Y001500D03*
X015500Y001500D03*
X014500Y001500D03*
X013500Y001500D03*
X013900Y020500D03*
X012900Y020500D03*
X011900Y020500D03*
X010900Y020500D03*
X009900Y020500D03*
X008900Y020500D03*
X007900Y020500D03*
X014900Y020500D03*
X015900Y020500D03*
X016900Y020500D03*
X018500Y020500D03*
X019500Y020500D03*
X020500Y020500D03*
X021500Y020500D03*
X022500Y020500D03*
X023500Y020500D03*
X024500Y020500D03*
X025500Y020500D03*
D14*
X023600Y018200D02*
X019202Y018200D01*
X019202Y018228D01*
X019202Y017228D02*
X017400Y017228D01*
X017400Y016200D01*
X015803Y016200D01*
X015903Y016236D01*
X015903Y017236D02*
X016800Y017236D01*
X016900Y017336D02*
X016900Y019200D01*
X017100Y019400D01*
X017700Y019400D01*
X031900Y019400D01*
X032364Y018936D01*
X023600Y018200D02*
X023600Y011600D01*
X031700Y011600D01*
X032364Y009823D02*
X032364Y009700D01*
X022200Y009700D01*
X022200Y017228D01*
X019202Y017228D01*
X019230Y011600D02*
X017600Y011600D01*
X017600Y010600D01*
X017500Y010600D01*
X017500Y010579D01*
X015911Y010579D01*
X019230Y011575D02*
X020900Y011575D01*
X020900Y007800D01*
X032364Y007800D01*
X032364Y007823D01*
X032364Y005854D02*
X032364Y005823D01*
X032364Y005854D02*
X019110Y005854D01*
X017500Y005854D01*
X017500Y004800D01*
X015811Y004800D01*
X015811Y004854D01*
X019230Y011575D02*
X019230Y011600D01*
D15*
X019230Y010575D02*
X019230Y010330D01*
X018800Y009900D01*
X015500Y009900D01*
X015300Y009700D01*
X019110Y004854D02*
X019110Y004710D01*
X018700Y004300D01*
X015200Y004300D01*
X015000Y004100D01*
X016800Y003800D02*
X027100Y003800D01*
X019700Y003200D02*
X019000Y003200D01*
X017500Y001700D01*
X017500Y001500D01*
X016500Y001500D01*
X016500Y001600D01*
X015900Y002200D01*
X003600Y002200D01*
X003300Y002500D01*
X004900Y005100D02*
X004900Y007600D01*
X006400Y009100D01*
X006400Y013400D01*
X007500Y014500D01*
X007500Y016200D01*
X012400Y016200D01*
X016700Y020500D01*
X016900Y020500D01*
X015900Y020500D02*
X015800Y020500D01*
X012100Y016800D01*
X007100Y016800D01*
X007000Y016700D01*
X007000Y015000D01*
X005600Y013600D01*
X005600Y008900D01*
X004400Y007700D01*
X005000Y010600D02*
X005000Y013800D01*
X006500Y015300D01*
X006500Y017500D01*
X011700Y017500D01*
X014700Y020500D01*
X014900Y020500D01*
X013900Y020500D02*
X013900Y020400D01*
X011500Y018000D01*
X006000Y018000D01*
X006000Y015500D01*
X004500Y014000D01*
X004500Y013100D01*
X004600Y013000D01*
X005000Y016200D02*
X005400Y016600D01*
X005400Y018600D01*
X005600Y018800D01*
X011300Y018800D01*
X012900Y020400D01*
X012900Y020500D01*
X011900Y020500D02*
X011900Y020200D01*
X011000Y019300D01*
X005200Y019300D01*
X004800Y018900D01*
X004800Y018600D01*
X003000Y018700D02*
X003000Y019800D01*
X010500Y019800D01*
X010900Y020200D01*
X010900Y020500D01*
X009900Y020500D02*
X009900Y021000D01*
X010100Y021200D01*
X017500Y021200D01*
X017600Y021100D01*
X017600Y019500D01*
X017700Y019400D01*
X016900Y017336D02*
X016800Y017236D01*
X015600Y015600D02*
X015200Y015200D01*
X015600Y015600D02*
X018800Y015600D01*
X019202Y016002D01*
X019202Y016228D01*
X025000Y014800D02*
X025000Y013700D01*
X023400Y008700D02*
X030200Y008700D01*
X032364Y018890D02*
X032364Y018936D01*
D16*
X025000Y014800D03*
X025000Y013700D03*
X031700Y011600D03*
X030200Y008700D03*
X023400Y008700D03*
X015300Y009700D03*
X015200Y015200D03*
X005000Y016200D03*
X004800Y018600D03*
X003000Y018700D03*
X004600Y013000D03*
X005000Y010600D03*
X004400Y007700D03*
X004900Y005100D03*
X003300Y002500D03*
X015000Y004100D03*
X016800Y003800D03*
X019700Y003200D03*
X027100Y003800D03*
M02*
