G75*
%MOIN*%
%OFA0B0*%
%FSLAX24Y24*%
%IPPOS*%
%LPD*%
%AMOC8*
5,1,8,0,0,1.08239X$1,22.5*
%
%ADD10C,0.0000*%
%ADD11C,0.0060*%
%ADD12C,0.0080*%
%ADD13C,0.0050*%
%ADD14R,0.0400X0.4000*%
%ADD15C,0.0040*%
D10*
X000500Y000500D02*
X000500Y021500D01*
X030392Y021470D01*
X034400Y021500D01*
X035000Y020900D01*
X035000Y016400D01*
X036000Y015400D01*
X036000Y002500D01*
X035000Y001500D01*
X035000Y000500D01*
X000500Y000500D01*
D11*
X003830Y001237D02*
X003937Y001130D01*
X004150Y001130D01*
X004257Y001237D01*
X004257Y001664D01*
X004150Y001771D01*
X003937Y001771D01*
X003830Y001664D01*
X003830Y001237D01*
X004475Y001130D02*
X004795Y001130D01*
X004902Y001237D01*
X004902Y001450D01*
X004795Y001557D01*
X004475Y001557D01*
X004475Y000916D01*
X005119Y001237D02*
X005119Y001450D01*
X005226Y001557D01*
X005439Y001557D01*
X005546Y001450D01*
X005546Y001344D01*
X005119Y001344D01*
X005119Y001237D02*
X005226Y001130D01*
X005439Y001130D01*
X005764Y001130D02*
X005764Y001557D01*
X006084Y001557D01*
X006191Y001450D01*
X006191Y001130D01*
X007053Y001130D02*
X007373Y001130D01*
X007480Y001237D01*
X007480Y001344D01*
X007373Y001450D01*
X007053Y001450D01*
X007053Y001130D02*
X007053Y001771D01*
X007373Y001771D01*
X007480Y001664D01*
X007480Y001557D01*
X007373Y001450D01*
X007697Y001130D02*
X008124Y001130D01*
X008342Y001130D02*
X008662Y001130D01*
X008769Y001237D01*
X008769Y001664D01*
X008662Y001771D01*
X008342Y001771D01*
X008342Y001130D01*
X008986Y001237D02*
X009093Y001130D01*
X009307Y001130D01*
X009413Y001237D01*
X008986Y001237D02*
X008986Y001664D01*
X009093Y001771D01*
X009307Y001771D01*
X009413Y001664D01*
X010275Y001664D02*
X010275Y001237D01*
X010703Y001664D01*
X010703Y001237D01*
X010596Y001130D01*
X010382Y001130D01*
X010275Y001237D01*
X010275Y001664D02*
X010382Y001771D01*
X010596Y001771D01*
X010703Y001664D01*
X010920Y001237D02*
X011027Y001237D01*
X011027Y001130D01*
X010920Y001130D01*
X010920Y001237D01*
X011242Y001130D02*
X011669Y001130D01*
X011456Y001130D02*
X011456Y001771D01*
X011242Y001557D01*
X007697Y001771D02*
X007697Y001130D01*
X031101Y012997D02*
X031101Y014167D01*
X032261Y014167D02*
X032261Y012997D01*
D12*
X031267Y011048D02*
X030985Y011048D01*
X030985Y010944D01*
X031044Y010874D01*
X031044Y010823D01*
X030878Y010823D01*
X030760Y010823D01*
X030760Y004823D01*
X030878Y004823D01*
X030878Y010823D01*
X031044Y010823D02*
X031123Y010823D01*
X031123Y004823D01*
X030878Y004823D01*
X031123Y004823D02*
X031391Y004823D01*
X031584Y004823D01*
X033158Y004823D01*
X033348Y004823D01*
X033949Y004823D01*
X033949Y010823D01*
X033348Y010823D01*
X033158Y010823D01*
X031584Y010823D01*
X031391Y010823D01*
X031391Y004823D01*
X031610Y005823D02*
X031612Y005877D01*
X031618Y005932D01*
X031628Y005985D01*
X031641Y006038D01*
X031659Y006089D01*
X031680Y006140D01*
X031704Y006188D01*
X031732Y006235D01*
X031764Y006279D01*
X031798Y006321D01*
X031836Y006361D01*
X031876Y006398D01*
X031919Y006431D01*
X031964Y006462D01*
X032011Y006489D01*
X032060Y006513D01*
X032110Y006533D01*
X032162Y006550D01*
X032215Y006562D01*
X032269Y006571D01*
X032323Y006576D01*
X032378Y006577D01*
X032432Y006574D01*
X032486Y006567D01*
X032539Y006556D01*
X032592Y006542D01*
X032643Y006523D01*
X032693Y006501D01*
X032741Y006476D01*
X032787Y006447D01*
X032831Y006415D01*
X032873Y006380D01*
X032911Y006342D01*
X032947Y006301D01*
X032980Y006257D01*
X033010Y006212D01*
X033036Y006164D01*
X033059Y006115D01*
X033079Y006064D01*
X033094Y006012D01*
X033106Y005958D01*
X033114Y005905D01*
X033118Y005850D01*
X033118Y005796D01*
X033114Y005741D01*
X033106Y005688D01*
X033094Y005634D01*
X033079Y005582D01*
X033059Y005531D01*
X033036Y005482D01*
X033010Y005434D01*
X032980Y005389D01*
X032947Y005345D01*
X032911Y005304D01*
X032873Y005266D01*
X032831Y005231D01*
X032787Y005199D01*
X032741Y005170D01*
X032693Y005145D01*
X032643Y005123D01*
X032592Y005104D01*
X032539Y005090D01*
X032486Y005079D01*
X032432Y005072D01*
X032378Y005069D01*
X032323Y005070D01*
X032269Y005075D01*
X032215Y005084D01*
X032162Y005096D01*
X032110Y005113D01*
X032060Y005133D01*
X032011Y005157D01*
X031964Y005184D01*
X031919Y005215D01*
X031876Y005248D01*
X031836Y005285D01*
X031798Y005325D01*
X031764Y005367D01*
X031732Y005411D01*
X031704Y005458D01*
X031680Y005506D01*
X031659Y005557D01*
X031641Y005608D01*
X031628Y005661D01*
X031618Y005714D01*
X031612Y005769D01*
X031610Y005823D01*
X033348Y004823D02*
X033348Y010823D01*
X031610Y009823D02*
X031612Y009877D01*
X031618Y009932D01*
X031628Y009985D01*
X031641Y010038D01*
X031659Y010089D01*
X031680Y010140D01*
X031704Y010188D01*
X031732Y010235D01*
X031764Y010279D01*
X031798Y010321D01*
X031836Y010361D01*
X031876Y010398D01*
X031919Y010431D01*
X031964Y010462D01*
X032011Y010489D01*
X032060Y010513D01*
X032110Y010533D01*
X032162Y010550D01*
X032215Y010562D01*
X032269Y010571D01*
X032323Y010576D01*
X032378Y010577D01*
X032432Y010574D01*
X032486Y010567D01*
X032539Y010556D01*
X032592Y010542D01*
X032643Y010523D01*
X032693Y010501D01*
X032741Y010476D01*
X032787Y010447D01*
X032831Y010415D01*
X032873Y010380D01*
X032911Y010342D01*
X032947Y010301D01*
X032980Y010257D01*
X033010Y010212D01*
X033036Y010164D01*
X033059Y010115D01*
X033079Y010064D01*
X033094Y010012D01*
X033106Y009958D01*
X033114Y009905D01*
X033118Y009850D01*
X033118Y009796D01*
X033114Y009741D01*
X033106Y009688D01*
X033094Y009634D01*
X033079Y009582D01*
X033059Y009531D01*
X033036Y009482D01*
X033010Y009434D01*
X032980Y009389D01*
X032947Y009345D01*
X032911Y009304D01*
X032873Y009266D01*
X032831Y009231D01*
X032787Y009199D01*
X032741Y009170D01*
X032693Y009145D01*
X032643Y009123D01*
X032592Y009104D01*
X032539Y009090D01*
X032486Y009079D01*
X032432Y009072D01*
X032378Y009069D01*
X032323Y009070D01*
X032269Y009075D01*
X032215Y009084D01*
X032162Y009096D01*
X032110Y009113D01*
X032060Y009133D01*
X032011Y009157D01*
X031964Y009184D01*
X031919Y009215D01*
X031876Y009248D01*
X031836Y009285D01*
X031798Y009325D01*
X031764Y009367D01*
X031732Y009411D01*
X031704Y009458D01*
X031680Y009506D01*
X031659Y009557D01*
X031641Y009608D01*
X031628Y009661D01*
X031618Y009714D01*
X031612Y009769D01*
X031610Y009823D01*
X031391Y010823D02*
X031207Y010823D01*
X031123Y010823D01*
X031207Y010823D02*
X031207Y010874D01*
X031267Y010944D01*
X031267Y011048D01*
X031610Y007823D02*
X031612Y007877D01*
X031618Y007932D01*
X031628Y007985D01*
X031641Y008038D01*
X031659Y008089D01*
X031680Y008140D01*
X031704Y008188D01*
X031732Y008235D01*
X031764Y008279D01*
X031798Y008321D01*
X031836Y008361D01*
X031876Y008398D01*
X031919Y008431D01*
X031964Y008462D01*
X032011Y008489D01*
X032060Y008513D01*
X032110Y008533D01*
X032162Y008550D01*
X032215Y008562D01*
X032269Y008571D01*
X032323Y008576D01*
X032378Y008577D01*
X032432Y008574D01*
X032486Y008567D01*
X032539Y008556D01*
X032592Y008542D01*
X032643Y008523D01*
X032693Y008501D01*
X032741Y008476D01*
X032787Y008447D01*
X032831Y008415D01*
X032873Y008380D01*
X032911Y008342D01*
X032947Y008301D01*
X032980Y008257D01*
X033010Y008212D01*
X033036Y008164D01*
X033059Y008115D01*
X033079Y008064D01*
X033094Y008012D01*
X033106Y007958D01*
X033114Y007905D01*
X033118Y007850D01*
X033118Y007796D01*
X033114Y007741D01*
X033106Y007688D01*
X033094Y007634D01*
X033079Y007582D01*
X033059Y007531D01*
X033036Y007482D01*
X033010Y007434D01*
X032980Y007389D01*
X032947Y007345D01*
X032911Y007304D01*
X032873Y007266D01*
X032831Y007231D01*
X032787Y007199D01*
X032741Y007170D01*
X032693Y007145D01*
X032643Y007123D01*
X032592Y007104D01*
X032539Y007090D01*
X032486Y007079D01*
X032432Y007072D01*
X032378Y007069D01*
X032323Y007070D01*
X032269Y007075D01*
X032215Y007084D01*
X032162Y007096D01*
X032110Y007113D01*
X032060Y007133D01*
X032011Y007157D01*
X031964Y007184D01*
X031919Y007215D01*
X031876Y007248D01*
X031836Y007285D01*
X031798Y007325D01*
X031764Y007367D01*
X031732Y007411D01*
X031704Y007458D01*
X031680Y007506D01*
X031659Y007557D01*
X031641Y007608D01*
X031628Y007661D01*
X031618Y007714D01*
X031612Y007769D01*
X031610Y007823D01*
X019610Y007504D02*
X019610Y007354D01*
X019611Y007505D02*
X019610Y007539D01*
X019606Y007574D01*
X019598Y007607D01*
X019587Y007640D01*
X019572Y007671D01*
X019555Y007701D01*
X019534Y007729D01*
X019511Y007755D01*
X019485Y007778D01*
X019457Y007799D01*
X019427Y007816D01*
X019396Y007831D01*
X019363Y007842D01*
X019330Y007850D01*
X019295Y007854D01*
X019261Y007855D01*
X019260Y007854D02*
X018310Y007854D01*
X017910Y007854D01*
X017910Y003854D01*
X018310Y003854D01*
X018310Y007854D01*
X017011Y007854D02*
X017011Y003854D01*
X016611Y003854D01*
X016611Y007854D01*
X017011Y007854D01*
X016611Y007854D02*
X015661Y007854D01*
X015661Y007855D02*
X015627Y007854D01*
X015592Y007850D01*
X015559Y007842D01*
X015526Y007831D01*
X015495Y007816D01*
X015465Y007799D01*
X015437Y007778D01*
X015411Y007755D01*
X015388Y007729D01*
X015367Y007701D01*
X015350Y007671D01*
X015335Y007640D01*
X015324Y007607D01*
X015316Y007574D01*
X015312Y007539D01*
X015311Y007505D01*
X015311Y007504D02*
X015311Y007354D01*
X015761Y009579D02*
X016711Y009579D01*
X017111Y009579D01*
X017111Y013579D01*
X016711Y013579D01*
X016711Y009579D01*
X015761Y009578D02*
X015727Y009579D01*
X015692Y009583D01*
X015659Y009591D01*
X015626Y009602D01*
X015595Y009617D01*
X015565Y009634D01*
X015537Y009655D01*
X015511Y009678D01*
X015488Y009704D01*
X015467Y009732D01*
X015450Y009762D01*
X015435Y009793D01*
X015424Y009826D01*
X015416Y009859D01*
X015412Y009894D01*
X015411Y009928D01*
X015411Y009929D02*
X015411Y010079D01*
X018030Y009575D02*
X018030Y013575D01*
X018430Y013575D01*
X018430Y009575D01*
X018030Y009575D01*
X018430Y009575D02*
X019380Y009575D01*
X019380Y009574D02*
X019414Y009575D01*
X019449Y009579D01*
X019482Y009587D01*
X019515Y009598D01*
X019546Y009613D01*
X019576Y009630D01*
X019604Y009651D01*
X019630Y009674D01*
X019653Y009700D01*
X019674Y009728D01*
X019691Y009758D01*
X019706Y009789D01*
X019717Y009822D01*
X019725Y009855D01*
X019729Y009890D01*
X019730Y009924D01*
X019730Y009925D02*
X019730Y010075D01*
X019730Y013075D02*
X019730Y013225D01*
X019729Y013259D01*
X019725Y013294D01*
X019717Y013327D01*
X019706Y013360D01*
X019691Y013391D01*
X019674Y013421D01*
X019653Y013449D01*
X019630Y013475D01*
X019604Y013498D01*
X019576Y013519D01*
X019546Y013536D01*
X019515Y013551D01*
X019482Y013562D01*
X019449Y013570D01*
X019414Y013574D01*
X019380Y013575D01*
X018430Y013575D01*
X016711Y013579D02*
X015761Y013579D01*
X015727Y013578D01*
X015692Y013574D01*
X015659Y013566D01*
X015626Y013555D01*
X015595Y013540D01*
X015565Y013523D01*
X015537Y013502D01*
X015511Y013479D01*
X015488Y013453D01*
X015467Y013425D01*
X015450Y013395D01*
X015435Y013364D01*
X015424Y013331D01*
X015416Y013298D01*
X015412Y013263D01*
X015411Y013229D01*
X015411Y013079D01*
X015753Y015236D02*
X016703Y015236D01*
X017103Y015236D01*
X017103Y019236D01*
X016703Y019236D01*
X016703Y015236D01*
X015753Y015236D02*
X015719Y015237D01*
X015684Y015241D01*
X015651Y015249D01*
X015618Y015260D01*
X015587Y015275D01*
X015557Y015292D01*
X015529Y015313D01*
X015503Y015336D01*
X015480Y015362D01*
X015459Y015390D01*
X015442Y015420D01*
X015427Y015451D01*
X015416Y015484D01*
X015408Y015517D01*
X015404Y015552D01*
X015403Y015586D01*
X015403Y015736D01*
X018002Y015228D02*
X018002Y019228D01*
X018402Y019228D01*
X018402Y015228D01*
X018002Y015228D01*
X018402Y015228D02*
X019352Y015228D01*
X019353Y015228D02*
X019387Y015229D01*
X019422Y015233D01*
X019455Y015241D01*
X019488Y015252D01*
X019519Y015267D01*
X019549Y015284D01*
X019577Y015305D01*
X019603Y015328D01*
X019626Y015354D01*
X019647Y015382D01*
X019664Y015412D01*
X019679Y015443D01*
X019690Y015476D01*
X019698Y015509D01*
X019702Y015544D01*
X019703Y015578D01*
X019702Y015578D02*
X019702Y015728D01*
X019702Y018728D02*
X019702Y018878D01*
X019703Y018879D02*
X019702Y018913D01*
X019698Y018948D01*
X019690Y018981D01*
X019679Y019014D01*
X019664Y019045D01*
X019647Y019075D01*
X019626Y019103D01*
X019603Y019129D01*
X019577Y019152D01*
X019549Y019173D01*
X019519Y019190D01*
X019488Y019205D01*
X019455Y019216D01*
X019422Y019224D01*
X019387Y019228D01*
X019353Y019229D01*
X019352Y019228D02*
X018402Y019228D01*
X016703Y019236D02*
X015753Y019236D01*
X015753Y019237D02*
X015719Y019236D01*
X015684Y019232D01*
X015651Y019224D01*
X015618Y019213D01*
X015587Y019198D01*
X015557Y019181D01*
X015529Y019160D01*
X015503Y019137D01*
X015480Y019111D01*
X015459Y019083D01*
X015442Y019053D01*
X015427Y019022D01*
X015416Y018989D01*
X015408Y018956D01*
X015404Y018921D01*
X015403Y018887D01*
X015403Y018886D02*
X015403Y018736D01*
X030760Y019890D02*
X030760Y015890D01*
X030878Y015890D01*
X030878Y019890D01*
X030760Y019890D01*
X030878Y019890D02*
X031044Y019890D01*
X031123Y019890D01*
X031123Y015890D01*
X030878Y015890D01*
X031123Y015890D02*
X031391Y015890D01*
X031584Y015890D01*
X033158Y015890D01*
X033348Y015890D01*
X033949Y015890D01*
X033949Y019890D01*
X033348Y019890D01*
X033158Y019890D01*
X031584Y019890D01*
X031391Y019890D01*
X031391Y015890D01*
X031610Y016890D02*
X031612Y016944D01*
X031618Y016999D01*
X031628Y017052D01*
X031641Y017105D01*
X031659Y017156D01*
X031680Y017207D01*
X031704Y017255D01*
X031732Y017302D01*
X031764Y017346D01*
X031798Y017388D01*
X031836Y017428D01*
X031876Y017465D01*
X031919Y017498D01*
X031964Y017529D01*
X032011Y017556D01*
X032060Y017580D01*
X032110Y017600D01*
X032162Y017617D01*
X032215Y017629D01*
X032269Y017638D01*
X032323Y017643D01*
X032378Y017644D01*
X032432Y017641D01*
X032486Y017634D01*
X032539Y017623D01*
X032592Y017609D01*
X032643Y017590D01*
X032693Y017568D01*
X032741Y017543D01*
X032787Y017514D01*
X032831Y017482D01*
X032873Y017447D01*
X032911Y017409D01*
X032947Y017368D01*
X032980Y017324D01*
X033010Y017279D01*
X033036Y017231D01*
X033059Y017182D01*
X033079Y017131D01*
X033094Y017079D01*
X033106Y017025D01*
X033114Y016972D01*
X033118Y016917D01*
X033118Y016863D01*
X033114Y016808D01*
X033106Y016755D01*
X033094Y016701D01*
X033079Y016649D01*
X033059Y016598D01*
X033036Y016549D01*
X033010Y016501D01*
X032980Y016456D01*
X032947Y016412D01*
X032911Y016371D01*
X032873Y016333D01*
X032831Y016298D01*
X032787Y016266D01*
X032741Y016237D01*
X032693Y016212D01*
X032643Y016190D01*
X032592Y016171D01*
X032539Y016157D01*
X032486Y016146D01*
X032432Y016139D01*
X032378Y016136D01*
X032323Y016137D01*
X032269Y016142D01*
X032215Y016151D01*
X032162Y016163D01*
X032110Y016180D01*
X032060Y016200D01*
X032011Y016224D01*
X031964Y016251D01*
X031919Y016282D01*
X031876Y016315D01*
X031836Y016352D01*
X031798Y016392D01*
X031764Y016434D01*
X031732Y016478D01*
X031704Y016525D01*
X031680Y016573D01*
X031659Y016624D01*
X031641Y016675D01*
X031628Y016728D01*
X031618Y016781D01*
X031612Y016836D01*
X031610Y016890D01*
X033348Y015890D02*
X033348Y019890D01*
X031610Y018890D02*
X031612Y018944D01*
X031618Y018999D01*
X031628Y019052D01*
X031641Y019105D01*
X031659Y019156D01*
X031680Y019207D01*
X031704Y019255D01*
X031732Y019302D01*
X031764Y019346D01*
X031798Y019388D01*
X031836Y019428D01*
X031876Y019465D01*
X031919Y019498D01*
X031964Y019529D01*
X032011Y019556D01*
X032060Y019580D01*
X032110Y019600D01*
X032162Y019617D01*
X032215Y019629D01*
X032269Y019638D01*
X032323Y019643D01*
X032378Y019644D01*
X032432Y019641D01*
X032486Y019634D01*
X032539Y019623D01*
X032592Y019609D01*
X032643Y019590D01*
X032693Y019568D01*
X032741Y019543D01*
X032787Y019514D01*
X032831Y019482D01*
X032873Y019447D01*
X032911Y019409D01*
X032947Y019368D01*
X032980Y019324D01*
X033010Y019279D01*
X033036Y019231D01*
X033059Y019182D01*
X033079Y019131D01*
X033094Y019079D01*
X033106Y019025D01*
X033114Y018972D01*
X033118Y018917D01*
X033118Y018863D01*
X033114Y018808D01*
X033106Y018755D01*
X033094Y018701D01*
X033079Y018649D01*
X033059Y018598D01*
X033036Y018549D01*
X033010Y018501D01*
X032980Y018456D01*
X032947Y018412D01*
X032911Y018371D01*
X032873Y018333D01*
X032831Y018298D01*
X032787Y018266D01*
X032741Y018237D01*
X032693Y018212D01*
X032643Y018190D01*
X032592Y018171D01*
X032539Y018157D01*
X032486Y018146D01*
X032432Y018139D01*
X032378Y018136D01*
X032323Y018137D01*
X032269Y018142D01*
X032215Y018151D01*
X032162Y018163D01*
X032110Y018180D01*
X032060Y018200D01*
X032011Y018224D01*
X031964Y018251D01*
X031919Y018282D01*
X031876Y018315D01*
X031836Y018352D01*
X031798Y018392D01*
X031764Y018434D01*
X031732Y018478D01*
X031704Y018525D01*
X031680Y018573D01*
X031659Y018624D01*
X031641Y018675D01*
X031628Y018728D01*
X031618Y018781D01*
X031612Y018836D01*
X031610Y018890D01*
X031391Y019890D02*
X031207Y019890D01*
X031123Y019890D01*
X031044Y019890D02*
X031044Y019941D01*
X030985Y020011D01*
X030985Y020115D01*
X031267Y020115D01*
X031267Y020011D01*
X031207Y019941D01*
X031207Y019890D01*
X019610Y004354D02*
X019610Y004204D01*
X019611Y004204D02*
X019610Y004170D01*
X019606Y004135D01*
X019598Y004102D01*
X019587Y004069D01*
X019572Y004038D01*
X019555Y004008D01*
X019534Y003980D01*
X019511Y003954D01*
X019485Y003931D01*
X019457Y003910D01*
X019427Y003893D01*
X019396Y003878D01*
X019363Y003867D01*
X019330Y003859D01*
X019295Y003855D01*
X019261Y003854D01*
X019260Y003854D02*
X018310Y003854D01*
X016611Y003854D02*
X015661Y003854D01*
X015627Y003855D01*
X015592Y003859D01*
X015559Y003867D01*
X015526Y003878D01*
X015495Y003893D01*
X015465Y003910D01*
X015437Y003931D01*
X015411Y003954D01*
X015388Y003980D01*
X015367Y004008D01*
X015350Y004038D01*
X015335Y004069D01*
X015324Y004102D01*
X015316Y004135D01*
X015312Y004170D01*
X015311Y004204D01*
X015311Y004354D01*
D13*
X017285Y004854D02*
X017285Y005005D01*
X017360Y005080D01*
X017660Y005080D01*
X017735Y005005D01*
X017735Y004854D01*
X017660Y004779D01*
X017360Y004779D01*
X017285Y004854D01*
X017585Y004929D02*
X017735Y005080D01*
X017735Y005240D02*
X017660Y005240D01*
X017360Y005540D01*
X017285Y005540D01*
X017285Y005240D01*
X017261Y006059D02*
X017186Y006134D01*
X017186Y006284D01*
X017261Y006359D01*
X017561Y006359D01*
X017636Y006284D01*
X017636Y006134D01*
X017561Y006059D01*
X017261Y006059D01*
X017486Y006209D02*
X017636Y006359D01*
X017561Y006519D02*
X017636Y006594D01*
X017636Y006744D01*
X017561Y006819D01*
X017486Y006819D01*
X017411Y006744D01*
X017411Y006519D01*
X017561Y006519D01*
X017411Y006519D02*
X017261Y006669D01*
X017186Y006819D01*
X017480Y010500D02*
X017405Y010575D01*
X017405Y010725D01*
X017480Y010800D01*
X017780Y010800D01*
X017855Y010725D01*
X017855Y010575D01*
X017780Y010500D01*
X017480Y010500D01*
X017705Y010650D02*
X017855Y010800D01*
X017780Y010960D02*
X017855Y011035D01*
X017855Y011185D01*
X017780Y011260D01*
X017630Y011260D01*
X017555Y011185D01*
X017555Y011110D01*
X017630Y010960D01*
X017405Y010960D01*
X017405Y011260D01*
X017361Y011783D02*
X017286Y011858D01*
X017286Y012008D01*
X017361Y012083D01*
X017661Y012083D01*
X017736Y012008D01*
X017736Y011858D01*
X017661Y011783D01*
X017361Y011783D01*
X017586Y011933D02*
X017736Y012083D01*
X017511Y012243D02*
X017511Y012544D01*
X017736Y012469D02*
X017286Y012469D01*
X017511Y012243D01*
X017452Y016153D02*
X017377Y016228D01*
X017377Y016379D01*
X017452Y016454D01*
X017752Y016454D01*
X017827Y016379D01*
X017827Y016228D01*
X017752Y016153D01*
X017452Y016153D01*
X017677Y016303D02*
X017827Y016454D01*
X017827Y016614D02*
X017527Y016914D01*
X017452Y016914D01*
X017377Y016839D01*
X017377Y016689D01*
X017452Y016614D01*
X017827Y016614D02*
X017827Y016914D01*
X017653Y017440D02*
X017728Y017515D01*
X017728Y017666D01*
X017653Y017741D01*
X017353Y017741D01*
X017278Y017666D01*
X017278Y017515D01*
X017353Y017440D01*
X017653Y017440D01*
X017578Y017591D02*
X017728Y017741D01*
X017728Y017901D02*
X017728Y018201D01*
X017728Y018051D02*
X017278Y018051D01*
X017428Y017901D01*
D14*
X016903Y017236D03*
X018202Y017228D03*
X018230Y011575D03*
X016911Y011579D03*
X016811Y005854D03*
X018110Y005854D03*
D15*
X020869Y005477D02*
X020946Y005324D01*
X021099Y005170D01*
X021099Y005401D01*
X021176Y005477D01*
X021252Y005477D01*
X021329Y005401D01*
X021329Y005247D01*
X021252Y005170D01*
X021099Y005170D01*
X021022Y005017D02*
X020946Y005017D01*
X020869Y004940D01*
X020869Y004787D01*
X020946Y004710D01*
X020946Y004556D02*
X021099Y004556D01*
X021176Y004480D01*
X021176Y004250D01*
X021176Y004403D02*
X021329Y004556D01*
X021329Y004710D02*
X021022Y005017D01*
X021329Y005017D02*
X021329Y004710D01*
X020946Y004556D02*
X020869Y004480D01*
X020869Y004250D01*
X021329Y004250D01*
X022459Y004333D02*
X022536Y004256D01*
X022843Y004256D01*
X022920Y004333D01*
X022920Y004486D01*
X022843Y004563D01*
X022843Y004717D02*
X022920Y004717D01*
X022843Y004717D02*
X022536Y005024D01*
X022459Y005024D01*
X022459Y004717D01*
X022536Y004563D02*
X022459Y004486D01*
X022459Y004333D01*
X024058Y004425D02*
X024058Y004194D01*
X024518Y004194D01*
X024365Y004194D02*
X024365Y004425D01*
X024288Y004501D01*
X024135Y004501D01*
X024058Y004425D01*
X024135Y004655D02*
X024058Y004732D01*
X024058Y004885D01*
X024135Y004962D01*
X024211Y004962D01*
X024518Y004655D01*
X024518Y004962D01*
X024288Y005115D02*
X024288Y005422D01*
X024518Y005345D02*
X024058Y005345D01*
X024288Y005115D01*
X024518Y004501D02*
X024365Y004348D01*
X024382Y005995D02*
X024382Y006456D01*
X024612Y006456D01*
X024689Y006379D01*
X024689Y006225D01*
X024612Y006149D01*
X024382Y006149D01*
X024535Y006149D02*
X024689Y005995D01*
X024842Y005995D02*
X025149Y006302D01*
X025149Y006379D01*
X025072Y006456D01*
X024919Y006456D01*
X024842Y006379D01*
X024842Y005995D02*
X025149Y005995D01*
X025303Y006072D02*
X025379Y005995D01*
X025533Y005995D01*
X025609Y006072D01*
X025609Y006149D01*
X025533Y006225D01*
X025456Y006225D01*
X025533Y006225D02*
X025609Y006302D01*
X025609Y006379D01*
X025533Y006456D01*
X025379Y006456D01*
X025303Y006379D01*
X023080Y007460D02*
X023003Y007383D01*
X022849Y007383D01*
X022773Y007460D01*
X022773Y007614D02*
X022926Y007690D01*
X023003Y007690D01*
X023080Y007614D01*
X023080Y007460D01*
X022773Y007614D02*
X022773Y007844D01*
X023080Y007844D01*
X022619Y007767D02*
X022542Y007844D01*
X022389Y007844D01*
X022312Y007767D01*
X022159Y007767D02*
X022159Y007614D01*
X022082Y007537D01*
X021852Y007537D01*
X022005Y007537D02*
X022159Y007383D01*
X022312Y007383D02*
X022619Y007690D01*
X022619Y007767D01*
X022619Y007383D02*
X022312Y007383D01*
X022159Y007767D02*
X022082Y007844D01*
X021852Y007844D01*
X021852Y007383D01*
X021369Y010139D02*
X020908Y010139D01*
X020908Y010369D01*
X020985Y010446D01*
X021138Y010446D01*
X021215Y010369D01*
X021215Y010139D01*
X021215Y010293D02*
X021369Y010446D01*
X021369Y010600D02*
X021369Y010907D01*
X021369Y010753D02*
X020908Y010753D01*
X021062Y010600D01*
X021062Y011060D02*
X020985Y011060D01*
X020908Y011137D01*
X020908Y011290D01*
X020985Y011367D01*
X021062Y011367D01*
X021138Y011290D01*
X021138Y011137D01*
X021062Y011060D01*
X021138Y011137D02*
X021215Y011060D01*
X021292Y011060D01*
X021369Y011137D01*
X021369Y011290D01*
X021292Y011367D01*
X021215Y011367D01*
X021138Y011290D01*
X022459Y010976D02*
X022536Y010823D01*
X022690Y010669D01*
X022690Y010900D01*
X022766Y010976D01*
X022843Y010976D01*
X022920Y010900D01*
X022920Y010746D01*
X022843Y010669D01*
X022690Y010669D01*
X022843Y010516D02*
X022920Y010439D01*
X022920Y010286D01*
X022843Y010209D01*
X022536Y010209D01*
X022459Y010286D01*
X022459Y010439D01*
X022536Y010516D01*
X024018Y010393D02*
X024018Y010163D01*
X024479Y010163D01*
X024325Y010163D02*
X024325Y010393D01*
X024249Y010470D01*
X024095Y010470D01*
X024018Y010393D01*
X024325Y010316D02*
X024479Y010470D01*
X024479Y010623D02*
X024479Y010930D01*
X024479Y010777D02*
X024018Y010777D01*
X024172Y010623D01*
X024249Y011084D02*
X024095Y011237D01*
X024018Y011391D01*
X024249Y011314D02*
X024249Y011084D01*
X024402Y011084D01*
X024479Y011160D01*
X024479Y011314D01*
X024402Y011391D01*
X024325Y011391D01*
X024249Y011314D01*
X024323Y011901D02*
X024323Y012361D01*
X024553Y012361D01*
X024630Y012284D01*
X024630Y012131D01*
X024553Y012054D01*
X024323Y012054D01*
X024476Y012054D02*
X024630Y011901D01*
X024783Y011901D02*
X025090Y011901D01*
X024937Y011901D02*
X024937Y012361D01*
X024783Y012208D01*
X025243Y012131D02*
X025397Y012208D01*
X025474Y012208D01*
X025550Y012131D01*
X025550Y011977D01*
X025474Y011901D01*
X025320Y011901D01*
X025243Y011977D01*
X025243Y012131D02*
X025243Y012361D01*
X025550Y012361D01*
X023143Y013712D02*
X022836Y013405D01*
X022836Y013328D01*
X022682Y013328D02*
X022375Y013328D01*
X022222Y013328D02*
X022068Y013482D01*
X022145Y013482D02*
X021915Y013482D01*
X021915Y013328D02*
X021915Y013789D01*
X022145Y013789D01*
X022222Y013712D01*
X022222Y013558D01*
X022145Y013482D01*
X022375Y013635D02*
X022529Y013789D01*
X022529Y013328D01*
X022836Y013789D02*
X023143Y013789D01*
X023143Y013712D01*
X022804Y015689D02*
X022497Y015689D01*
X022420Y015766D01*
X022420Y015919D01*
X022497Y015996D01*
X022497Y016150D02*
X022420Y016226D01*
X022420Y016380D01*
X022497Y016457D01*
X022573Y016457D01*
X022650Y016380D01*
X022727Y016457D01*
X022804Y016457D01*
X022880Y016380D01*
X022880Y016226D01*
X022804Y016150D01*
X022804Y015996D02*
X022880Y015919D01*
X022880Y015766D01*
X022804Y015689D01*
X022650Y016303D02*
X022650Y016380D01*
X021329Y016403D02*
X021329Y016096D01*
X021329Y016249D02*
X020869Y016249D01*
X021022Y016096D01*
X020946Y015942D02*
X021099Y015942D01*
X021176Y015866D01*
X021176Y015635D01*
X021329Y015635D02*
X020869Y015635D01*
X020869Y015866D01*
X020946Y015942D01*
X021176Y015789D02*
X021329Y015942D01*
X021252Y016556D02*
X020946Y016556D01*
X020869Y016633D01*
X020869Y016786D01*
X020946Y016863D01*
X021252Y016556D01*
X021329Y016633D01*
X021329Y016786D01*
X021252Y016863D01*
X020946Y016863D01*
X021891Y018820D02*
X021891Y019281D01*
X022121Y019281D01*
X022198Y019204D01*
X022198Y019051D01*
X022121Y018974D01*
X021891Y018974D01*
X022045Y018974D02*
X022198Y018820D01*
X022352Y018897D02*
X022428Y018820D01*
X022582Y018820D01*
X022659Y018897D01*
X022659Y019204D01*
X022582Y019281D01*
X022428Y019281D01*
X022352Y019204D01*
X022352Y019127D01*
X022428Y019051D01*
X022659Y019051D01*
X024803Y017912D02*
X025033Y017912D01*
X025110Y017836D01*
X025110Y017682D01*
X025033Y017605D01*
X024803Y017605D01*
X024803Y017452D02*
X024803Y017912D01*
X024956Y017605D02*
X025110Y017452D01*
X025263Y017452D02*
X025263Y017529D01*
X025570Y017836D01*
X025570Y017912D01*
X025263Y017912D01*
X024422Y016418D02*
X024499Y016342D01*
X024499Y016188D01*
X024422Y016111D01*
X024345Y016111D01*
X024268Y016188D01*
X024268Y016342D01*
X024345Y016418D01*
X024422Y016418D01*
X024268Y016342D02*
X024192Y016418D01*
X024115Y016418D01*
X024038Y016342D01*
X024038Y016188D01*
X024115Y016111D01*
X024192Y016111D01*
X024268Y016188D01*
X024268Y015958D02*
X024115Y015958D01*
X024038Y015881D01*
X024038Y015651D01*
X024499Y015651D01*
X024345Y015651D02*
X024345Y015881D01*
X024268Y015958D01*
X024345Y015805D02*
X024499Y015958D01*
X029777Y014471D02*
X029853Y014548D01*
X029930Y014548D01*
X030007Y014471D01*
X030007Y014317D01*
X029930Y014241D01*
X029853Y014241D01*
X029777Y014317D01*
X029777Y014471D01*
X030007Y014471D02*
X030084Y014548D01*
X030160Y014548D01*
X030237Y014471D01*
X030237Y014317D01*
X030160Y014241D01*
X030084Y014241D01*
X030007Y014317D01*
X030160Y014087D02*
X030237Y014011D01*
X030237Y013857D01*
X030160Y013780D01*
X029853Y013780D01*
X029777Y013857D01*
X029777Y014011D01*
X029853Y014087D01*
X032451Y013966D02*
X032451Y013813D01*
X032527Y013736D01*
X032527Y013582D02*
X032451Y013506D01*
X032451Y013275D01*
X032911Y013275D01*
X032758Y013275D02*
X032758Y013506D01*
X032681Y013582D01*
X032527Y013582D01*
X032758Y013429D02*
X032911Y013582D01*
X032911Y013736D02*
X032604Y014043D01*
X032527Y014043D01*
X032451Y013966D01*
X032527Y014196D02*
X032451Y014273D01*
X032451Y014426D01*
X032527Y014503D01*
X032604Y014503D01*
X032681Y014426D01*
X032681Y014273D01*
X032604Y014196D01*
X032527Y014196D01*
X032681Y014273D02*
X032758Y014196D01*
X032834Y014196D01*
X032911Y014273D01*
X032911Y014426D01*
X032834Y014503D01*
X032758Y014503D01*
X032681Y014426D01*
X032911Y014043D02*
X032911Y013736D01*
X030101Y011543D02*
X029794Y011850D01*
X029718Y011850D01*
X029718Y011543D01*
X029794Y011389D02*
X029718Y011312D01*
X029718Y011159D01*
X029794Y011082D01*
X029794Y010929D02*
X029948Y010929D01*
X030025Y010852D01*
X030025Y010622D01*
X030178Y010622D02*
X029718Y010622D01*
X029718Y010852D01*
X029794Y010929D01*
X030025Y010775D02*
X030178Y010929D01*
X030178Y011082D02*
X029871Y011389D01*
X029794Y011389D01*
X030101Y011543D02*
X030178Y011543D01*
X030178Y011389D02*
X030178Y011082D01*
X034124Y010475D02*
X034124Y010322D01*
X034201Y010245D01*
X034124Y010092D02*
X034584Y009785D01*
X034584Y010092D02*
X034124Y009785D01*
X034584Y010245D02*
X034277Y010552D01*
X034201Y010552D01*
X034124Y010475D01*
X034584Y010552D02*
X034584Y010245D01*
X031504Y003241D02*
X031351Y003241D01*
X031274Y003164D01*
X031121Y003164D02*
X031121Y003010D01*
X031044Y002934D01*
X030814Y002934D01*
X030967Y002934D02*
X031121Y002780D01*
X031274Y002780D02*
X031581Y003087D01*
X031581Y003164D01*
X031504Y003241D01*
X031121Y003164D02*
X031044Y003241D01*
X030814Y003241D01*
X030814Y002780D01*
X031274Y002780D02*
X031581Y002780D01*
X031491Y001815D02*
X031338Y001815D01*
X031261Y001739D01*
X031108Y001739D02*
X031031Y001815D01*
X030878Y001815D01*
X030801Y001739D01*
X030801Y001432D01*
X030878Y001355D01*
X031031Y001355D01*
X031108Y001432D01*
X031261Y001355D02*
X031568Y001662D01*
X031568Y001739D01*
X031491Y001815D01*
X031568Y001355D02*
X031261Y001355D01*
X029223Y002780D02*
X028916Y002780D01*
X029069Y002780D02*
X029069Y003241D01*
X028916Y003087D01*
X028762Y003010D02*
X028686Y002934D01*
X028456Y002934D01*
X028609Y002934D02*
X028762Y002780D01*
X028762Y003010D02*
X028762Y003164D01*
X028686Y003241D01*
X028456Y003241D01*
X028456Y002780D01*
X013350Y003259D02*
X013043Y003259D01*
X013350Y003566D01*
X013350Y003643D01*
X013273Y003719D01*
X013119Y003719D01*
X013043Y003643D01*
X012889Y003643D02*
X012812Y003719D01*
X012659Y003719D01*
X012582Y003643D01*
X012429Y003643D02*
X012429Y003489D01*
X012352Y003412D01*
X012122Y003412D01*
X012122Y003259D02*
X012122Y003719D01*
X012352Y003719D01*
X012429Y003643D01*
X012275Y003412D02*
X012429Y003259D01*
X012582Y003259D02*
X012889Y003566D01*
X012889Y003643D01*
X012889Y003259D02*
X012582Y003259D01*
X012567Y004794D02*
X012873Y004794D01*
X012720Y004794D02*
X012720Y005255D01*
X012567Y005101D01*
X012413Y005025D02*
X012336Y004948D01*
X012106Y004948D01*
X012106Y004794D02*
X012106Y005255D01*
X012336Y005255D01*
X012413Y005178D01*
X012413Y005025D01*
X012260Y004948D02*
X012413Y004794D01*
X013027Y004871D02*
X013104Y004794D01*
X013257Y004794D01*
X013334Y004871D01*
X013334Y005178D01*
X013257Y005255D01*
X013104Y005255D01*
X013027Y005178D01*
X013027Y005101D01*
X013104Y005025D01*
X013334Y005025D01*
X010215Y007874D02*
X010138Y007797D01*
X009985Y007797D01*
X009908Y007874D01*
X009908Y008027D02*
X010061Y008104D01*
X010138Y008104D01*
X010215Y008027D01*
X010215Y007874D01*
X009908Y008027D02*
X009908Y008257D01*
X010215Y008257D01*
X009754Y008180D02*
X009678Y008257D01*
X009524Y008257D01*
X009448Y008180D01*
X009448Y007874D01*
X009524Y007797D01*
X009678Y007797D01*
X009754Y007874D01*
X008665Y006691D02*
X008742Y006614D01*
X008742Y006538D01*
X008665Y006461D01*
X008742Y006384D01*
X008742Y006307D01*
X008665Y006231D01*
X008512Y006231D01*
X008435Y006307D01*
X008281Y006307D02*
X008205Y006231D01*
X008051Y006231D01*
X007975Y006307D01*
X007975Y006614D01*
X008051Y006691D01*
X008205Y006691D01*
X008281Y006614D01*
X008435Y006614D02*
X008512Y006691D01*
X008665Y006691D01*
X008665Y006461D02*
X008588Y006461D01*
X007821Y006691D02*
X007668Y006691D01*
X007744Y006691D02*
X007744Y006231D01*
X007668Y006231D02*
X007821Y006231D01*
X007461Y006533D02*
X007307Y006533D01*
X007230Y006609D01*
X007077Y006609D02*
X007077Y006916D01*
X007000Y006993D01*
X006770Y006993D01*
X006770Y006533D01*
X007000Y006533D01*
X007077Y006609D01*
X007384Y006763D02*
X007461Y006763D01*
X007537Y006686D01*
X007537Y006609D01*
X007461Y006533D01*
X007461Y006763D02*
X007537Y006840D01*
X007537Y006916D01*
X007461Y006993D01*
X007307Y006993D01*
X007230Y006916D01*
X004390Y006686D02*
X004390Y006379D01*
X004313Y006302D01*
X004160Y006302D01*
X004083Y006379D01*
X004390Y006686D01*
X004313Y006763D01*
X004160Y006763D01*
X004083Y006686D01*
X004083Y006379D01*
X003929Y006302D02*
X003623Y006302D01*
X003929Y006609D01*
X003929Y006686D01*
X003853Y006763D01*
X003699Y006763D01*
X003623Y006686D01*
X003469Y006686D02*
X003392Y006763D01*
X003162Y006763D01*
X003162Y006302D01*
X003162Y006456D02*
X003392Y006456D01*
X003469Y006532D01*
X003469Y006686D01*
X003316Y006456D02*
X003469Y006302D01*
X003400Y005188D02*
X003170Y005188D01*
X003170Y004727D01*
X003170Y004881D02*
X003400Y004881D01*
X003477Y004958D01*
X003477Y005111D01*
X003400Y005188D01*
X003630Y005111D02*
X003707Y005188D01*
X003861Y005188D01*
X003937Y005111D01*
X003937Y005034D01*
X003630Y004727D01*
X003937Y004727D01*
X004091Y004727D02*
X004398Y004727D01*
X004244Y004727D02*
X004244Y005188D01*
X004091Y005034D01*
X003477Y004727D02*
X003323Y004881D01*
X012098Y008731D02*
X012098Y009192D01*
X012328Y009192D01*
X012405Y009115D01*
X012405Y008962D01*
X012328Y008885D01*
X012098Y008885D01*
X012252Y008885D02*
X012405Y008731D01*
X012559Y008731D02*
X012866Y008731D01*
X012712Y008731D02*
X012712Y009192D01*
X012559Y009038D01*
X013019Y008962D02*
X013326Y008962D01*
X013249Y009192D02*
X013019Y008962D01*
X013249Y008731D02*
X013249Y009192D01*
X013196Y010306D02*
X013196Y010767D01*
X013043Y010613D01*
X013043Y010306D02*
X013350Y010306D01*
X012889Y010306D02*
X012582Y010306D01*
X012429Y010306D02*
X012275Y010460D01*
X012352Y010460D02*
X012122Y010460D01*
X012122Y010306D02*
X012122Y010767D01*
X012352Y010767D01*
X012429Y010690D01*
X012429Y010536D01*
X012352Y010460D01*
X012582Y010613D02*
X012736Y010767D01*
X012736Y010306D01*
X008738Y011770D02*
X008431Y011770D01*
X008738Y012077D01*
X008738Y012154D01*
X008661Y012230D01*
X008508Y012230D01*
X008431Y012154D01*
X008278Y012154D02*
X008201Y012230D01*
X008047Y012230D01*
X007971Y012154D01*
X007971Y011847D01*
X008047Y011770D01*
X008201Y011770D01*
X008278Y011847D01*
X007817Y011770D02*
X007664Y011770D01*
X007740Y011770D02*
X007740Y012230D01*
X007664Y012230D02*
X007817Y012230D01*
X007231Y012333D02*
X007231Y012410D01*
X007154Y012487D01*
X007001Y012487D01*
X006924Y012410D01*
X006771Y012410D02*
X006694Y012487D01*
X006464Y012487D01*
X006464Y012026D01*
X006694Y012026D01*
X006771Y012103D01*
X006771Y012410D01*
X006924Y012026D02*
X007231Y012333D01*
X007231Y012026D02*
X006924Y012026D01*
X009292Y013385D02*
X009368Y013309D01*
X009522Y013309D01*
X009599Y013385D01*
X009752Y013539D02*
X010059Y013539D01*
X009982Y013309D02*
X009982Y013769D01*
X009752Y013539D01*
X009599Y013692D02*
X009522Y013769D01*
X009368Y013769D01*
X009292Y013692D01*
X009292Y013385D01*
X012582Y014263D02*
X012582Y014723D01*
X012812Y014723D01*
X012889Y014647D01*
X012889Y014493D01*
X012812Y014416D01*
X012582Y014416D01*
X012736Y014416D02*
X012889Y014263D01*
X013043Y014340D02*
X013119Y014263D01*
X013273Y014263D01*
X013350Y014340D01*
X013350Y014416D01*
X013273Y014493D01*
X013043Y014493D01*
X013043Y014340D01*
X013043Y014493D02*
X013196Y014647D01*
X013350Y014723D01*
X013296Y015838D02*
X013143Y015838D01*
X013066Y015914D01*
X012913Y015838D02*
X012759Y015991D01*
X012836Y015991D02*
X012606Y015991D01*
X012606Y015838D02*
X012606Y016298D01*
X012836Y016298D01*
X012913Y016221D01*
X012913Y016068D01*
X012836Y015991D01*
X013066Y016221D02*
X013143Y016298D01*
X013296Y016298D01*
X013373Y016221D01*
X013373Y016145D01*
X013296Y016068D01*
X013373Y015991D01*
X013373Y015914D01*
X013296Y015838D01*
X013296Y016068D02*
X013220Y016068D01*
X008746Y017239D02*
X008439Y017239D01*
X008592Y017239D02*
X008592Y017699D01*
X008439Y017545D01*
X008285Y017622D02*
X008209Y017699D01*
X008055Y017699D01*
X007979Y017622D01*
X007979Y017315D01*
X008055Y017239D01*
X008209Y017239D01*
X008285Y017315D01*
X007825Y017239D02*
X007672Y017239D01*
X007748Y017239D02*
X007748Y017699D01*
X007672Y017699D02*
X007825Y017699D01*
X007419Y017726D02*
X007112Y017726D01*
X007265Y017726D02*
X007265Y018187D01*
X007112Y018033D01*
X006958Y018110D02*
X006881Y018187D01*
X006651Y018187D01*
X006651Y017726D01*
X006881Y017726D01*
X006958Y017803D01*
X006958Y018110D01*
X009288Y018940D02*
X009364Y018864D01*
X009518Y018864D01*
X009595Y018940D01*
X009748Y018864D02*
X010055Y018864D01*
X009902Y018864D02*
X009902Y019324D01*
X009748Y019171D01*
X009595Y019247D02*
X009518Y019324D01*
X009364Y019324D01*
X009288Y019247D01*
X009288Y018940D01*
X003846Y017606D02*
X003539Y017606D01*
X003769Y017836D01*
X003769Y017376D01*
X003385Y017376D02*
X003232Y017529D01*
X003309Y017529D02*
X003078Y017529D01*
X003078Y017376D02*
X003078Y017836D01*
X003309Y017836D01*
X003385Y017759D01*
X003385Y017606D01*
X003309Y017529D01*
X003277Y016261D02*
X003047Y016261D01*
X003047Y015801D01*
X003047Y015954D02*
X003277Y015954D01*
X003354Y016031D01*
X003354Y016184D01*
X003277Y016261D01*
X003507Y016261D02*
X003507Y016031D01*
X003661Y016108D01*
X003738Y016108D01*
X003814Y016031D01*
X003814Y015878D01*
X003738Y015801D01*
X003584Y015801D01*
X003507Y015878D01*
X003354Y015801D02*
X003200Y015954D01*
X003507Y016261D02*
X003814Y016261D01*
X003677Y012304D02*
X003523Y012151D01*
X003370Y012228D02*
X003370Y012074D01*
X003293Y011998D01*
X003063Y011998D01*
X003216Y011998D02*
X003370Y011844D01*
X003523Y011844D02*
X003830Y011844D01*
X003983Y011844D02*
X004290Y012151D01*
X004290Y012228D01*
X004214Y012304D01*
X004060Y012304D01*
X003983Y012228D01*
X003677Y012304D02*
X003677Y011844D01*
X003983Y011844D02*
X004290Y011844D01*
X003370Y012228D02*
X003293Y012304D01*
X003063Y012304D01*
X003063Y011844D01*
X003071Y010730D02*
X003301Y010730D01*
X003377Y010653D01*
X003377Y010499D01*
X003301Y010423D01*
X003071Y010423D01*
X003224Y010423D02*
X003377Y010269D01*
X003531Y010269D02*
X003838Y010269D01*
X003684Y010269D02*
X003684Y010730D01*
X003531Y010576D01*
X003071Y010730D02*
X003071Y010269D01*
X003991Y010346D02*
X004068Y010269D01*
X004222Y010269D01*
X004298Y010346D01*
X004298Y010423D01*
X004222Y010499D01*
X004145Y010499D01*
X004222Y010499D02*
X004298Y010576D01*
X004298Y010653D01*
X004222Y010730D01*
X004068Y010730D01*
X003991Y010653D01*
X034124Y018852D02*
X034584Y019159D01*
X034584Y019312D02*
X034584Y019619D01*
X034584Y019465D02*
X034124Y019465D01*
X034277Y019312D01*
X034124Y019159D02*
X034584Y018852D01*
M02*
