G75*
%MOIN*%
%OFA0B0*%
%FSLAX24Y24*%
%IPPOS*%
%LPD*%
%AMOC8*
5,1,8,0,0,1.08239X$1,22.5*
%
%ADD10C,0.0000*%
%ADD11C,0.0060*%
D10*
X000500Y000500D02*
X000500Y021500D01*
X034400Y021500D01*
X035000Y020900D01*
X035000Y016400D01*
X036000Y015400D01*
X036000Y002500D01*
X035000Y001500D01*
X035000Y000500D01*
X000500Y000500D01*
X000500Y021500D01*
X030392Y021470D01*
X034400Y021500D01*
X035000Y020900D01*
X035000Y016400D01*
X036000Y015400D01*
X036000Y002500D01*
X035000Y001500D01*
X035000Y000500D01*
X000500Y000500D01*
D11*
X001437Y004525D02*
X001330Y004631D01*
X001437Y004738D01*
X001330Y004845D01*
X001437Y004952D01*
X001757Y004952D01*
X001757Y005169D02*
X001437Y005169D01*
X001330Y005276D01*
X001437Y005383D01*
X001330Y005489D01*
X001437Y005596D01*
X001757Y005596D01*
X001757Y005814D02*
X001437Y005814D01*
X001330Y005920D01*
X001437Y006027D01*
X001330Y006134D01*
X001437Y006241D01*
X001757Y006241D01*
X001437Y006458D02*
X001437Y006565D01*
X001330Y006565D01*
X001330Y006458D01*
X001437Y006458D01*
X001437Y006781D02*
X001330Y006887D01*
X001330Y007101D01*
X001437Y007208D01*
X001864Y007208D01*
X001971Y007101D01*
X001971Y006887D01*
X001864Y006781D01*
X001437Y006781D01*
X001330Y007425D02*
X001330Y007745D01*
X001437Y007852D01*
X001650Y007852D01*
X001757Y007745D01*
X001757Y007425D01*
X001116Y007425D01*
X001437Y008070D02*
X001650Y008070D01*
X001757Y008176D01*
X001757Y008390D01*
X001650Y008497D01*
X001544Y008497D01*
X001544Y008070D01*
X001437Y008070D02*
X001330Y008176D01*
X001330Y008390D01*
X001330Y008714D02*
X001757Y008714D01*
X001757Y009034D01*
X001650Y009141D01*
X001330Y009141D01*
X001330Y009359D02*
X001971Y009359D01*
X001971Y009679D01*
X001864Y009786D01*
X001650Y009786D01*
X001544Y009679D01*
X001544Y009359D01*
X001544Y009572D02*
X001330Y009786D01*
X001437Y010003D02*
X001330Y010110D01*
X001330Y010324D01*
X001437Y010430D01*
X001650Y010430D01*
X001757Y010324D01*
X001757Y010110D01*
X001650Y010003D01*
X001437Y010003D01*
X001757Y010648D02*
X001330Y010861D01*
X001757Y011075D01*
X001650Y011292D02*
X001437Y011292D01*
X001330Y011399D01*
X001330Y011613D01*
X001544Y011719D02*
X001544Y011292D01*
X001650Y011292D02*
X001757Y011399D01*
X001757Y011613D01*
X001650Y011719D01*
X001544Y011719D01*
X001544Y011937D02*
X001757Y012150D01*
X001757Y012257D01*
X001757Y011937D02*
X001330Y011937D01*
X001330Y012474D02*
X001330Y012581D01*
X001437Y012581D01*
X001437Y012474D01*
X001330Y012474D01*
X001437Y012796D02*
X001330Y012903D01*
X001330Y013223D01*
X001437Y013441D02*
X001330Y013548D01*
X001330Y013761D01*
X001437Y013868D01*
X001650Y013868D01*
X001757Y013761D01*
X001757Y013548D01*
X001650Y013441D01*
X001437Y013441D01*
X001757Y013223D02*
X001757Y012903D01*
X001650Y012796D01*
X001437Y012796D01*
X001330Y014085D02*
X001757Y014085D01*
X001757Y014192D01*
X001650Y014299D01*
X001757Y014406D01*
X001650Y014512D01*
X001330Y014512D01*
X001330Y014299D02*
X001650Y014299D01*
X001757Y004525D02*
X001437Y004525D01*
X034916Y007325D02*
X035557Y007325D01*
X035557Y007645D01*
X035450Y007752D01*
X035237Y007752D01*
X035130Y007645D01*
X035130Y007325D01*
X035237Y007108D02*
X035664Y007108D01*
X035771Y007001D01*
X035771Y006787D01*
X035664Y006681D01*
X035237Y006681D01*
X035130Y006787D01*
X035130Y007001D01*
X035237Y007108D01*
X035237Y006465D02*
X035130Y006465D01*
X035130Y006358D01*
X035237Y006358D01*
X035237Y006465D01*
X035237Y006141D02*
X035557Y006141D01*
X035237Y006141D02*
X035130Y006034D01*
X035237Y005927D01*
X035130Y005820D01*
X035237Y005714D01*
X035557Y005714D01*
X035557Y005496D02*
X035237Y005496D01*
X035130Y005389D01*
X035237Y005283D01*
X035130Y005176D01*
X035237Y005069D01*
X035557Y005069D01*
X035557Y004852D02*
X035237Y004852D01*
X035130Y004745D01*
X035237Y004638D01*
X035130Y004531D01*
X035237Y004425D01*
X035557Y004425D01*
X035450Y007970D02*
X035237Y007970D01*
X035130Y008076D01*
X035130Y008290D01*
X035344Y008397D02*
X035344Y007970D01*
X035450Y007970D02*
X035557Y008076D01*
X035557Y008290D01*
X035450Y008397D01*
X035344Y008397D01*
X035130Y008614D02*
X035557Y008614D01*
X035557Y008934D01*
X035450Y009041D01*
X035130Y009041D01*
X035130Y009259D02*
X035771Y009259D01*
X035771Y009579D01*
X035664Y009686D01*
X035450Y009686D01*
X035344Y009579D01*
X035344Y009259D01*
X035344Y009472D02*
X035130Y009686D01*
X035237Y009903D02*
X035130Y010010D01*
X035130Y010224D01*
X035237Y010330D01*
X035450Y010330D01*
X035557Y010224D01*
X035557Y010010D01*
X035450Y009903D01*
X035237Y009903D01*
X035557Y010548D02*
X035130Y010761D01*
X035557Y010975D01*
X035450Y011192D02*
X035237Y011192D01*
X035130Y011299D01*
X035130Y011513D01*
X035344Y011619D02*
X035344Y011192D01*
X035450Y011192D02*
X035557Y011299D01*
X035557Y011513D01*
X035450Y011619D01*
X035344Y011619D01*
X035344Y011837D02*
X035557Y012050D01*
X035557Y012157D01*
X035237Y012374D02*
X035237Y012481D01*
X035130Y012481D01*
X035130Y012374D01*
X035237Y012374D01*
X035237Y012696D02*
X035130Y012803D01*
X035130Y013123D01*
X035237Y013341D02*
X035130Y013448D01*
X035130Y013661D01*
X035237Y013768D01*
X035450Y013768D01*
X035557Y013661D01*
X035557Y013448D01*
X035450Y013341D01*
X035237Y013341D01*
X035557Y013123D02*
X035557Y012803D01*
X035450Y012696D01*
X035237Y012696D01*
X035130Y011837D02*
X035557Y011837D01*
X035557Y013985D02*
X035130Y013985D01*
X035130Y014199D02*
X035450Y014199D01*
X035557Y014306D01*
X035450Y014412D01*
X035130Y014412D01*
X035450Y014199D02*
X035557Y014092D01*
X035557Y013985D01*
M02*
