G75*
%MOIN*%
%OFA0B0*%
%FSLAX24Y24*%
%IPPOS*%
%LPD*%
%AMOC8*
5,1,8,0,0,1.08239X$1,22.5*
%
%ADD10C,0.0600*%
%ADD11R,0.0710X0.0630*%
%ADD12R,0.0630X0.0709*%
%ADD13R,0.0701X0.0283*%
%ADD14R,0.0630X0.0710*%
%ADD15R,0.0551X0.0551*%
%ADD16R,0.0709X0.0630*%
%ADD17C,0.0787*%
%ADD18R,0.1260X0.0709*%
%ADD19OC8,0.0660*%
%ADD20C,0.0413*%
%ADD21C,0.0160*%
%ADD22C,0.0400*%
%ADD23C,0.0472*%
D10*
X017900Y005000D02*
X018500Y005000D01*
X018500Y006000D02*
X017900Y006000D01*
X017900Y007000D02*
X018500Y007000D01*
X021400Y007000D02*
X022000Y007000D01*
X022000Y006000D02*
X021400Y006000D01*
X021400Y005000D02*
X022000Y005000D01*
X022000Y010500D02*
X021400Y010500D01*
X021400Y011500D02*
X022000Y011500D01*
X022000Y012500D02*
X021400Y012500D01*
X018500Y012500D02*
X017900Y012500D01*
X017900Y011500D02*
X018500Y011500D01*
X018500Y010500D02*
X017900Y010500D01*
X017900Y016000D02*
X018500Y016000D01*
X018500Y017000D02*
X017900Y017000D01*
X017900Y018000D02*
X018500Y018000D01*
X021400Y018000D02*
X022000Y018000D01*
X022000Y017000D02*
X021400Y017000D01*
X021400Y016000D02*
X022000Y016000D01*
D11*
X024200Y016060D03*
X024200Y014940D03*
X024200Y013060D03*
X025700Y013060D03*
X025700Y011940D03*
X024200Y011940D03*
X024200Y010560D03*
X024200Y009440D03*
X024200Y007560D03*
X025700Y007560D03*
X025700Y006440D03*
X024200Y006440D03*
X023200Y005060D03*
X023200Y003940D03*
X027200Y003940D03*
X027200Y005060D03*
X027200Y009440D03*
X027200Y010560D03*
X031950Y011940D03*
X031950Y013060D03*
X029700Y015440D03*
X029700Y016560D03*
X029700Y017940D03*
X029700Y019060D03*
X025700Y018560D03*
X024200Y018560D03*
X024200Y017440D03*
X025700Y017440D03*
X027200Y016060D03*
X027200Y014940D03*
X015700Y015690D03*
X015700Y016810D03*
D12*
X012751Y018000D03*
X011649Y018000D03*
X011649Y013000D03*
X012751Y013000D03*
X013251Y006500D03*
X012149Y006500D03*
X024649Y004500D03*
X025751Y004500D03*
X028899Y012000D03*
X030001Y012000D03*
D13*
X012125Y011250D03*
X012125Y010750D03*
X012125Y010250D03*
X012125Y009750D03*
X010275Y009750D03*
X010275Y010250D03*
X010275Y010750D03*
X010275Y011250D03*
X010275Y014750D03*
X010275Y015250D03*
X010275Y015750D03*
X010275Y016250D03*
X012125Y016250D03*
X012125Y015750D03*
X012125Y015250D03*
X012125Y014750D03*
X012125Y004750D03*
X012125Y004250D03*
X012125Y003750D03*
X012125Y003250D03*
X010275Y003250D03*
X010275Y003750D03*
X010275Y004250D03*
X010275Y004750D03*
D14*
X008010Y004500D03*
X006890Y004500D03*
X006890Y003000D03*
X008010Y003000D03*
X014640Y004000D03*
X015760Y004000D03*
X015890Y007000D03*
X017010Y007000D03*
X015760Y010000D03*
X014640Y010000D03*
X015390Y012250D03*
X016510Y012250D03*
X016010Y014500D03*
X014890Y014500D03*
X008010Y014500D03*
X006890Y014500D03*
X006890Y016000D03*
X008010Y016000D03*
X008010Y011000D03*
X006890Y011000D03*
X006890Y009500D03*
X008010Y009500D03*
D15*
X009452Y006500D03*
X010948Y006500D03*
X010448Y013000D03*
X008952Y013000D03*
X008952Y018000D03*
X010448Y018000D03*
D16*
X025700Y016051D03*
X025700Y014949D03*
X031200Y015449D03*
X031200Y016551D03*
X025700Y010551D03*
X025700Y009449D03*
D17*
X033210Y008508D03*
X033210Y006508D03*
X033210Y004508D03*
X033710Y016508D03*
X033710Y018508D03*
D18*
X033700Y014102D03*
X033700Y011898D03*
D19*
X027700Y020500D03*
X026700Y020500D03*
X025700Y020500D03*
X024700Y020500D03*
X023700Y020500D03*
X022700Y020500D03*
X021700Y020500D03*
X020700Y020500D03*
X019100Y020500D03*
X018100Y020500D03*
X017100Y020500D03*
X016100Y020500D03*
X015100Y020500D03*
X014100Y020500D03*
X013100Y020500D03*
X012100Y020500D03*
X015700Y001500D03*
X016700Y001500D03*
X017700Y001500D03*
X018700Y001500D03*
X019700Y001500D03*
X020700Y001500D03*
X022700Y001500D03*
X023700Y001500D03*
X024700Y001500D03*
X025700Y001500D03*
X026700Y001500D03*
X027700Y001500D03*
D20*
X030700Y003000D03*
X029700Y003500D03*
X028200Y004500D03*
X026700Y006000D03*
X025700Y005500D03*
X028700Y009500D03*
X029700Y010000D03*
X030700Y010000D03*
X027200Y013000D03*
X023450Y014500D03*
X019950Y014750D03*
X019950Y013250D03*
X017200Y013250D03*
X014450Y016250D03*
X013700Y016500D03*
X011450Y017000D03*
X008950Y016000D03*
X009200Y015000D03*
X007950Y017000D03*
X006950Y017500D03*
X007950Y012000D03*
X008950Y011250D03*
X008950Y009750D03*
X012200Y012000D03*
X016700Y009000D03*
X012700Y005500D03*
X009200Y003500D03*
X008950Y004500D03*
X007950Y005500D03*
X016700Y003500D03*
X027200Y017500D03*
X030700Y017500D03*
X019950Y019500D03*
X016700Y018000D03*
X015950Y018000D03*
D21*
X006950Y002940D02*
X006950Y002000D01*
X008450Y002000D01*
X014700Y002000D01*
X015700Y003000D01*
X018200Y003000D01*
X018700Y002500D01*
X018700Y001500D01*
X021700Y002500D02*
X022700Y001500D01*
X021700Y002500D02*
X021700Y003000D01*
X020200Y004500D01*
X019200Y004500D01*
X019200Y005000D01*
X016700Y003500D02*
X016260Y003500D01*
X015760Y004000D01*
X014640Y004000D02*
X013700Y004000D01*
X013450Y004250D01*
X012125Y004250D01*
X012125Y003750D02*
X011450Y003750D01*
X011200Y004000D01*
X011200Y005000D01*
X011700Y005500D01*
X012200Y005500D01*
X012149Y005551D01*
X012149Y006500D01*
X013200Y006449D02*
X013251Y006500D01*
X013200Y006551D01*
X013200Y007500D01*
X011200Y007500D01*
X010948Y007248D01*
X010948Y006500D01*
X009452Y006500D02*
X008200Y006500D01*
X007950Y006250D01*
X007950Y005500D01*
X008010Y004500D02*
X008950Y004500D01*
X009200Y004250D01*
X010275Y004250D01*
X010275Y003750D02*
X009450Y003750D01*
X009200Y003500D01*
X008700Y003000D01*
X008010Y003000D01*
X006950Y002940D02*
X006890Y003000D01*
X006890Y004500D01*
X006890Y008500D01*
X009700Y008500D01*
X010176Y008976D01*
X010275Y009750D01*
X010275Y010250D02*
X009450Y010250D01*
X008700Y009500D01*
X008010Y009500D01*
X006890Y009500D02*
X006890Y011000D01*
X006890Y013500D01*
X008450Y013500D01*
X009700Y014750D01*
X010275Y014750D01*
X009950Y015250D02*
X009700Y015250D01*
X009450Y015000D01*
X009200Y015000D01*
X008950Y015000D01*
X008450Y014500D01*
X008200Y014500D01*
X006890Y014500D02*
X006890Y016000D01*
X006950Y016060D01*
X006950Y017500D01*
X007950Y017000D02*
X007950Y018000D01*
X008952Y018000D01*
X009200Y018000D01*
X009200Y016500D01*
X009450Y016250D01*
X010275Y016250D01*
X010275Y015750D02*
X009200Y015750D01*
X008950Y016000D01*
X008200Y016000D01*
X006890Y014500D02*
X006890Y013500D01*
X007950Y013000D02*
X008952Y013000D01*
X007950Y013000D02*
X007950Y012000D01*
X009950Y012000D01*
X009950Y011750D01*
X010176Y011524D01*
X010275Y011250D01*
X010200Y010750D02*
X008700Y010750D01*
X008450Y011000D01*
X008700Y011000D01*
X008950Y011250D01*
X008450Y011000D02*
X008200Y011000D01*
X006890Y009500D02*
X006890Y008500D01*
X009452Y006500D02*
X009452Y004998D01*
X009700Y004750D01*
X010275Y004750D01*
X012125Y004750D02*
X012950Y004750D01*
X013200Y005000D01*
X013200Y006449D01*
X012700Y005500D02*
X012200Y005500D01*
X015200Y006310D02*
X015890Y007000D01*
X015200Y006310D02*
X015200Y003000D01*
X012700Y003000D01*
X012450Y003250D01*
X012125Y003250D01*
X010275Y003250D02*
X010176Y002976D01*
X008450Y002000D01*
X017200Y007000D02*
X018200Y007000D01*
X016700Y009000D02*
X015760Y009940D01*
X015760Y010000D01*
X014640Y010000D02*
X014200Y010000D01*
X013450Y010750D01*
X012125Y010750D01*
X012125Y010250D02*
X011450Y010250D01*
X011200Y010500D01*
X011200Y012500D01*
X011649Y012949D01*
X011649Y012551D01*
X012200Y012000D01*
X012125Y011250D02*
X012950Y011250D01*
X013200Y011500D01*
X013200Y013000D01*
X012751Y013000D01*
X012751Y013949D01*
X012700Y014000D01*
X011448Y014000D01*
X010448Y013000D01*
X011649Y013000D02*
X011649Y012949D01*
X013200Y014750D02*
X014450Y013500D01*
X015450Y013500D01*
X015450Y015440D01*
X015700Y015690D01*
X014700Y016500D02*
X014450Y016250D01*
X014700Y016500D02*
X014700Y017500D01*
X016200Y017500D01*
X016700Y018000D01*
X015950Y018000D02*
X014200Y018000D01*
X013950Y017750D01*
X013950Y016750D01*
X013700Y016500D01*
X012751Y016778D02*
X012125Y016250D01*
X012751Y016778D02*
X012751Y018000D01*
X012700Y018051D01*
X012700Y019000D01*
X010700Y019000D01*
X010448Y018748D01*
X010448Y018000D01*
X011649Y018000D02*
X011700Y017949D01*
X011700Y017500D01*
X011450Y017000D01*
X011450Y015250D01*
X012125Y015250D01*
X012125Y014750D02*
X013200Y014750D01*
X014200Y014500D02*
X014890Y014500D01*
X014200Y014500D02*
X012950Y015750D01*
X012125Y015750D01*
X015700Y016810D02*
X016260Y016810D01*
X017450Y018000D01*
X018200Y018000D01*
X019950Y019500D02*
X013450Y019500D01*
X013450Y019550D01*
X013100Y019900D01*
X013100Y020500D01*
X012100Y020500D02*
X012100Y020100D01*
X013200Y019000D01*
X022700Y019000D01*
X023200Y019250D01*
X028760Y019250D01*
X029700Y019060D01*
X033158Y019060D01*
X033710Y018508D01*
X033710Y016508D02*
X032650Y015449D01*
X031200Y015449D01*
X031191Y015440D01*
X029700Y015440D01*
X027820Y015440D01*
X027200Y016060D01*
X026811Y016060D01*
X025700Y014949D01*
X025140Y014000D02*
X024200Y014940D01*
X023450Y014500D02*
X023450Y016000D01*
X021700Y016000D01*
X023200Y017000D02*
X023200Y018560D01*
X022260Y018560D01*
X021700Y018000D01*
X023200Y018560D02*
X024200Y018560D01*
X025700Y018560D02*
X026140Y018560D01*
X027200Y017500D01*
X025700Y017440D02*
X024200Y017440D01*
X023200Y017000D02*
X024149Y016051D01*
X024209Y016051D01*
X024200Y016060D01*
X024209Y016051D02*
X025700Y016051D01*
X027200Y014940D02*
X027200Y014500D01*
X026700Y014000D01*
X025140Y014000D01*
X025700Y013060D02*
X027140Y013060D01*
X027200Y013000D01*
X027950Y012000D02*
X027200Y011250D01*
X027200Y010750D01*
X027200Y010560D02*
X032362Y010560D01*
X033700Y011898D01*
X031950Y012000D02*
X029950Y012000D01*
X028950Y012000D02*
X027950Y012000D01*
X027200Y010560D02*
X026089Y009449D01*
X025700Y009449D01*
X026200Y008500D02*
X025140Y008500D01*
X024200Y009440D01*
X024209Y010551D02*
X024200Y010560D01*
X024140Y010560D01*
X023200Y011500D01*
X023200Y013060D01*
X022260Y013060D01*
X021700Y012500D01*
X019950Y013250D02*
X019950Y014750D01*
X017200Y013250D02*
X016200Y013250D01*
X016200Y014310D01*
X016010Y014500D01*
X017450Y012500D02*
X018200Y012500D01*
X017450Y012500D02*
X017200Y012250D01*
X016510Y012250D01*
X015390Y012250D02*
X015200Y012060D01*
X015200Y009000D01*
X012974Y009000D01*
X012125Y009750D01*
X021700Y007000D02*
X022260Y007560D01*
X024200Y007560D01*
X024140Y007500D01*
X023200Y007500D01*
X023200Y005060D01*
X023260Y005000D01*
X024700Y005000D01*
X024700Y004551D01*
X024649Y004500D01*
X025751Y004500D02*
X025751Y004949D01*
X025700Y005000D01*
X025700Y005500D01*
X025700Y005000D02*
X027140Y005000D01*
X027200Y005060D01*
X028200Y004500D02*
X028700Y005000D01*
X028700Y009500D01*
X029700Y010000D02*
X029700Y003500D01*
X030700Y003000D02*
X030700Y010000D01*
X027200Y009440D02*
X027140Y009440D01*
X026200Y008500D01*
X026640Y007560D02*
X025700Y007560D01*
X026640Y007560D02*
X026700Y007500D01*
X026700Y006000D01*
X025700Y006440D02*
X024200Y006440D01*
X023200Y003940D02*
X027200Y003940D01*
X025700Y010551D02*
X024209Y010551D01*
X024200Y011940D02*
X025700Y011940D01*
X024200Y013060D02*
X023200Y013060D01*
X029700Y016560D02*
X029760Y016560D01*
X030700Y017500D01*
X029700Y017940D02*
X029700Y016560D01*
X029709Y016551D01*
X031200Y016551D01*
X031950Y014000D02*
X031950Y013250D01*
D22*
X031950Y014000D02*
X033450Y014000D01*
X031950Y014000D02*
X027700Y014000D01*
X033700Y011898D02*
X034598Y011898D01*
X034700Y012000D01*
X034700Y015518D01*
X033710Y016508D01*
X021700Y017000D02*
X020700Y017000D01*
X020700Y011500D01*
X021700Y011500D01*
X020700Y011500D02*
X020700Y006000D01*
X021700Y006000D01*
X019200Y005000D02*
X019200Y010500D01*
X019200Y016000D01*
X018200Y016000D01*
X018200Y010500D02*
X019200Y010500D01*
X019200Y005000D02*
X018200Y005000D01*
D23*
X027700Y014000D03*
M02*
