G75*
%MOIN*%
%OFA0B0*%
%FSLAX24Y24*%
%IPPOS*%
%LPD*%
%AMOC8*
5,1,8,0,0,1.08239X$1,22.5*
%
%ADD10C,0.0000*%
%ADD11C,0.0600*%
%ADD12R,0.0710X0.0630*%
%ADD13R,0.0709X0.0630*%
%ADD14R,0.0866X0.0236*%
%ADD15R,0.0630X0.0710*%
%ADD16R,0.0630X0.0709*%
%ADD17R,0.0551X0.0551*%
%ADD18C,0.0787*%
%ADD19R,0.1260X0.0709*%
%ADD20OC8,0.0660*%
%ADD21C,0.0160*%
%ADD22C,0.0400*%
%ADD23C,0.0413*%
D10*
X000500Y000500D02*
X000500Y021500D01*
X030392Y021470D01*
X034400Y021500D01*
X035000Y020900D01*
X035000Y016400D01*
X036000Y015400D01*
X036000Y002500D01*
X035000Y001500D01*
X035000Y000500D01*
X000500Y000500D01*
D11*
X015511Y004854D02*
X016111Y004854D01*
X016111Y005854D02*
X015511Y005854D01*
X015511Y006854D02*
X016111Y006854D01*
X018810Y006854D02*
X019410Y006854D01*
X019410Y005854D02*
X018810Y005854D01*
X018810Y004854D02*
X019410Y004854D01*
X019530Y010575D02*
X018930Y010575D01*
X018930Y011575D02*
X019530Y011575D01*
X019530Y012575D02*
X018930Y012575D01*
X016211Y012579D02*
X015611Y012579D01*
X015611Y011579D02*
X016211Y011579D01*
X016211Y010579D02*
X015611Y010579D01*
X015603Y016236D02*
X016203Y016236D01*
X016203Y017236D02*
X015603Y017236D01*
X015603Y018236D02*
X016203Y018236D01*
X018902Y018228D02*
X019502Y018228D01*
X019502Y017228D02*
X018902Y017228D01*
X018902Y016228D02*
X019502Y016228D01*
D12*
X021799Y016725D03*
X021799Y015606D03*
X024969Y015621D03*
X024969Y016741D03*
X029248Y011993D03*
X029248Y010873D03*
X024949Y011253D03*
X024949Y010133D03*
X021839Y010109D03*
X021839Y011229D03*
X021799Y005339D03*
X021799Y004220D03*
X024988Y004165D03*
X024988Y005284D03*
D13*
X023390Y005287D03*
X023390Y004185D03*
X023390Y010138D03*
X023390Y011240D03*
X029307Y013630D03*
X029307Y014732D03*
X023350Y015618D03*
X023350Y016720D03*
D14*
X009425Y016719D03*
X009425Y016219D03*
X009425Y015719D03*
X009425Y015219D03*
X007378Y015219D03*
X007378Y015719D03*
X007378Y016219D03*
X007378Y016719D03*
X007370Y011250D03*
X007370Y010750D03*
X007370Y010250D03*
X007370Y009750D03*
X009417Y009750D03*
X009417Y010250D03*
X009417Y010750D03*
X009417Y011250D03*
X009421Y005711D03*
X009421Y005211D03*
X009421Y004711D03*
X009421Y004211D03*
X007374Y004211D03*
X007374Y004711D03*
X007374Y005211D03*
X007374Y005711D03*
D15*
X004252Y005832D03*
X003132Y005832D03*
X003140Y004257D03*
X004260Y004257D03*
X012373Y004189D03*
X013493Y004189D03*
X013477Y005724D03*
X012357Y005724D03*
X012350Y009661D03*
X013469Y009661D03*
X013493Y011236D03*
X012373Y011236D03*
X012373Y015193D03*
X013493Y015193D03*
X013517Y016768D03*
X012397Y016768D03*
X004168Y016906D03*
X003049Y016906D03*
X003017Y015331D03*
X004137Y015331D03*
X004153Y011374D03*
X003033Y011374D03*
X003041Y009799D03*
X004160Y009799D03*
X021822Y006913D03*
X022942Y006913D03*
X024633Y006925D03*
X025753Y006925D03*
X028246Y003710D03*
X029366Y003710D03*
X030605Y003710D03*
X031724Y003710D03*
X025694Y012831D03*
X024574Y012831D03*
X023005Y012858D03*
X021885Y012858D03*
X021861Y018350D03*
X022981Y018350D03*
X024594Y018382D03*
X025713Y018382D03*
D16*
X010319Y018394D03*
X009217Y018394D03*
X009220Y012839D03*
X010323Y012839D03*
X010479Y007327D03*
X009376Y007327D03*
X030650Y002285D03*
X031753Y002285D03*
D17*
X007986Y007406D03*
X006490Y007406D03*
X006183Y012900D03*
X007680Y012900D03*
X007867Y018600D03*
X006371Y018600D03*
D18*
X032364Y018890D03*
X032364Y016890D03*
X032364Y009823D03*
X032364Y007823D03*
X032364Y005823D03*
D19*
X031681Y012484D03*
X031681Y014689D03*
D20*
X025500Y020500D03*
X024500Y020500D03*
X023500Y020500D03*
X022500Y020500D03*
X021500Y020500D03*
X020500Y020500D03*
X019500Y020500D03*
X018500Y020500D03*
X016900Y020500D03*
X015900Y020500D03*
X014900Y020500D03*
X013900Y020500D03*
X012900Y020500D03*
X011900Y020500D03*
X010900Y020500D03*
X009900Y020500D03*
X008900Y020500D03*
X007900Y020500D03*
X013500Y001500D03*
X014500Y001500D03*
X015500Y001500D03*
X016500Y001500D03*
X017500Y001500D03*
X018500Y001500D03*
X020500Y001500D03*
X021500Y001500D03*
X022500Y001500D03*
X023500Y001500D03*
X024500Y001500D03*
X025500Y001500D03*
D21*
X024700Y001700D02*
X024500Y001500D01*
X024700Y001700D02*
X024700Y002100D01*
X024800Y002200D01*
X029000Y002200D01*
X029366Y002566D01*
X029366Y003710D01*
X030605Y003710D01*
X030605Y002331D01*
X030650Y002285D01*
X031724Y002313D02*
X031753Y002285D01*
X031724Y002313D02*
X031724Y003710D01*
X034300Y003710D01*
X034300Y008800D01*
X034200Y008700D01*
X030200Y008700D01*
X029248Y010873D02*
X029375Y011000D01*
X031700Y011000D01*
X031700Y011600D01*
X029307Y012052D02*
X029248Y011993D01*
X029307Y012052D02*
X029307Y013630D01*
X029275Y014600D02*
X029307Y014732D01*
X031638Y014732D01*
X031681Y014689D01*
X031681Y014700D01*
X034300Y014700D01*
X034300Y008800D01*
X027300Y004600D02*
X027300Y013600D01*
X025000Y013600D01*
X025000Y013700D01*
X024546Y012858D02*
X024574Y012831D01*
X024500Y012757D01*
X024500Y012100D01*
X023640Y011240D01*
X023390Y011240D01*
X021885Y011276D02*
X021839Y011229D01*
X021885Y011276D02*
X021885Y012858D01*
X023005Y012858D02*
X023005Y013495D01*
X022900Y013600D01*
X020700Y013600D01*
X020700Y012075D01*
X020200Y011575D01*
X019230Y011575D01*
X021839Y010109D02*
X021867Y010138D01*
X023390Y010138D01*
X023390Y010290D01*
X023400Y010300D01*
X023400Y008700D01*
X023000Y007700D02*
X023000Y007600D01*
X022942Y007600D01*
X022942Y006913D01*
X022942Y005287D01*
X023390Y005287D01*
X021799Y005339D02*
X021799Y006913D01*
X021822Y006913D01*
X022942Y006913D02*
X024633Y006913D01*
X024633Y006925D01*
X025700Y006925D02*
X025700Y005200D01*
X024988Y005200D01*
X024988Y005284D01*
X026700Y004700D02*
X026700Y007800D01*
X025000Y009500D01*
X025000Y010082D01*
X024949Y010133D01*
X024800Y009984D01*
X025002Y011200D02*
X024949Y011253D01*
X025002Y011200D02*
X025700Y011200D01*
X025694Y011206D01*
X025694Y012831D01*
X024546Y012858D02*
X023005Y012858D01*
X023350Y014300D02*
X023350Y015618D01*
X023338Y015606D01*
X021799Y015606D01*
X021799Y016725D02*
X021861Y016787D01*
X021861Y018350D01*
X022981Y018350D02*
X022981Y019200D01*
X023000Y019200D01*
X022981Y019200D02*
X020800Y019200D01*
X020800Y017828D01*
X020200Y017228D01*
X019202Y017228D01*
X015903Y016236D02*
X015839Y016300D01*
X014800Y016300D01*
X014500Y016000D01*
X011700Y016000D01*
X011419Y015719D01*
X009425Y015719D01*
X008600Y015700D01*
X008600Y017100D01*
X009217Y018394D01*
X010319Y018394D02*
X010300Y019400D01*
X008200Y019400D01*
X007867Y018600D01*
X006371Y018600D02*
X006200Y018429D01*
X006200Y017300D01*
X006781Y016719D01*
X007378Y016719D01*
X007781Y016719D01*
X008100Y016400D01*
X008100Y015000D01*
X007300Y014200D01*
X006300Y014200D01*
X006200Y014100D01*
X006200Y012917D01*
X006183Y012900D01*
X006200Y012883D01*
X006200Y011600D01*
X006550Y011250D01*
X007370Y011250D01*
X007850Y011250D01*
X008100Y011000D01*
X008100Y009400D01*
X007500Y008800D01*
X006900Y008800D01*
X006500Y008400D01*
X006500Y007417D01*
X006490Y007406D01*
X006490Y005810D01*
X006600Y005700D01*
X007363Y005700D01*
X007374Y005711D01*
X007789Y005711D01*
X008100Y005400D01*
X008100Y003200D01*
X015200Y003200D01*
X015500Y002900D01*
X015500Y001500D01*
X015500Y001300D01*
X015900Y000900D01*
X017900Y000900D01*
X018500Y001500D01*
X019300Y002400D02*
X018200Y003500D01*
X018200Y006754D01*
X018300Y006854D01*
X019110Y005854D02*
X020800Y005854D01*
X020800Y007700D01*
X023000Y007700D01*
X025700Y006925D02*
X025753Y006925D01*
X026700Y004700D02*
X024900Y002900D01*
X023100Y002900D01*
X022500Y002300D01*
X022500Y001500D01*
X021500Y001500D02*
X022000Y003500D01*
X024700Y003500D01*
X024700Y004165D01*
X024988Y004165D01*
X023390Y004220D02*
X023390Y004185D01*
X023390Y004220D02*
X021799Y004220D01*
X021780Y004200D01*
X020000Y004200D01*
X019700Y003900D01*
X019700Y003200D01*
X019300Y002400D02*
X020500Y002400D01*
X020500Y001500D01*
X023500Y001500D02*
X023500Y002200D01*
X023800Y002500D01*
X025200Y002500D01*
X027300Y004600D01*
X027100Y003800D02*
X028246Y003800D01*
X028246Y003710D01*
X016800Y003800D02*
X016800Y005854D01*
X016900Y005854D01*
X015811Y004854D02*
X015665Y005000D01*
X011600Y005000D01*
X011111Y004711D01*
X009421Y004711D01*
X009411Y004700D01*
X008700Y004700D01*
X008600Y004800D01*
X008600Y006200D01*
X009376Y006976D01*
X009376Y007327D01*
X007986Y007406D02*
X007986Y007986D01*
X008300Y008300D01*
X010300Y008300D01*
X010500Y008100D01*
X010500Y007348D01*
X010479Y007327D01*
X010479Y006079D01*
X010100Y005700D01*
X009432Y005700D01*
X009421Y005711D01*
X009421Y005211D02*
X010411Y005211D01*
X011000Y005800D01*
X012500Y005800D01*
X012600Y005700D01*
X013477Y005724D02*
X013553Y005800D01*
X014200Y005800D01*
X015254Y006854D01*
X015811Y006854D01*
X013493Y004189D02*
X013582Y004100D01*
X015000Y004100D01*
X012373Y004189D02*
X012352Y004211D01*
X009421Y004211D01*
X007374Y004211D02*
X006311Y004211D01*
X005400Y003300D01*
X003500Y003300D01*
X003450Y003350D01*
X003300Y003200D01*
X003300Y002500D01*
X003450Y003350D02*
X003200Y003600D01*
X003200Y004198D01*
X003140Y004257D01*
X003140Y005824D01*
X003132Y005832D01*
X003132Y009000D01*
X003232Y008900D01*
X005800Y008900D01*
X006650Y009750D01*
X007370Y009750D01*
X007370Y010250D02*
X005350Y010250D01*
X005000Y010600D01*
X005000Y010100D01*
X004700Y009800D01*
X004161Y009800D01*
X004160Y009799D01*
X003132Y009708D02*
X003041Y009799D01*
X003041Y011366D01*
X003033Y011374D01*
X003033Y014600D01*
X003133Y014700D01*
X005400Y014700D01*
X005919Y015219D01*
X007378Y015219D01*
X007378Y015719D02*
X005419Y015719D01*
X005300Y015600D01*
X005000Y015900D01*
X005000Y016200D01*
X005300Y015600D02*
X005000Y015300D01*
X004168Y015300D01*
X004137Y015331D01*
X003033Y015315D02*
X003033Y014600D01*
X003033Y015315D02*
X003017Y015331D01*
X003017Y016874D01*
X003049Y016906D01*
X003000Y016954D01*
X003000Y018700D01*
X004800Y018600D02*
X004800Y017000D01*
X004900Y016900D01*
X004174Y016900D01*
X004168Y016906D01*
X004900Y016900D02*
X005200Y016900D01*
X005881Y016219D01*
X007378Y016219D01*
X009425Y016719D02*
X009719Y016719D01*
X010500Y017500D01*
X010500Y018213D01*
X010319Y018394D01*
X011100Y016700D02*
X012329Y016700D01*
X012397Y016768D01*
X013517Y016768D02*
X013549Y016800D01*
X014100Y016800D01*
X014200Y016900D01*
X014200Y017500D01*
X014900Y018200D01*
X015000Y018200D01*
X015036Y018236D01*
X015903Y018236D01*
X015200Y015200D02*
X013500Y015200D01*
X013493Y015193D01*
X012373Y015193D02*
X012366Y015200D01*
X009700Y015200D01*
X009707Y015193D01*
X009800Y016200D02*
X010600Y016200D01*
X011100Y016700D01*
X010400Y013600D02*
X007900Y013600D01*
X007680Y013380D01*
X007680Y012900D01*
X008500Y011700D02*
X009220Y012420D01*
X009220Y012839D01*
X010323Y012839D02*
X010400Y012916D01*
X010400Y013600D01*
X010323Y012839D02*
X010500Y012661D01*
X010500Y011900D01*
X009850Y011250D01*
X009417Y011250D01*
X009600Y010700D02*
X010900Y010700D01*
X011400Y011200D01*
X012337Y011200D01*
X012373Y011236D01*
X013493Y011236D02*
X013657Y011400D01*
X014200Y011400D01*
X014700Y011900D01*
X014700Y012100D01*
X015179Y012579D01*
X015911Y012579D01*
X015911Y010579D02*
X015832Y010500D01*
X011800Y010500D01*
X011550Y010250D01*
X009417Y010250D01*
X009367Y010200D01*
X008600Y010200D01*
X008500Y010300D01*
X008500Y011700D01*
X007370Y010750D02*
X005950Y010750D01*
X005300Y011400D01*
X004600Y011400D01*
X004600Y013000D01*
X004600Y011400D02*
X004178Y011400D01*
X004153Y011374D01*
X005000Y010600D02*
X005150Y010600D01*
X003132Y009708D02*
X003132Y009000D01*
X004400Y007700D02*
X004400Y005980D01*
X004252Y005832D01*
X004500Y005800D02*
X004600Y005900D01*
X005500Y005900D01*
X006189Y005211D01*
X007374Y005211D01*
X007374Y004711D02*
X006211Y004711D01*
X005700Y004300D01*
X005300Y004300D01*
X004900Y004700D01*
X004900Y005100D01*
X005300Y004300D02*
X004302Y004300D01*
X004260Y004257D01*
X012261Y009750D02*
X012350Y009661D01*
X012261Y009750D02*
X009417Y009750D01*
X013469Y009661D02*
X013508Y009700D01*
X015300Y009700D01*
X023350Y014300D02*
X027300Y014300D01*
X027500Y014600D01*
X029275Y014600D01*
X025713Y016713D02*
X025700Y016700D01*
X025009Y016700D01*
X024969Y016741D01*
X025713Y016713D02*
X025713Y018382D01*
X024594Y018382D02*
X024562Y018350D01*
X022981Y018350D01*
X024500Y018288D02*
X024500Y017600D01*
X023620Y016720D01*
X023350Y016720D01*
X024969Y015621D02*
X024969Y014800D01*
X025000Y014800D01*
X024500Y018288D02*
X024594Y018382D01*
D22*
X023000Y018350D02*
X023000Y018300D01*
X023000Y018350D02*
X022981Y018350D01*
X019202Y018228D02*
X018200Y018228D01*
X018200Y012500D01*
X018200Y006854D01*
X018300Y006854D01*
X019110Y006854D01*
X016900Y005854D02*
X016900Y011600D01*
X016900Y017236D01*
X015903Y017236D01*
X019230Y012575D02*
X019230Y012500D01*
X018200Y012500D01*
X016900Y011600D02*
X015911Y011600D01*
X015911Y011579D01*
X015811Y005854D02*
X016900Y005854D01*
X031700Y011600D02*
X031700Y012484D01*
X031681Y012484D01*
X031681Y014689D02*
X031681Y016207D01*
X032364Y016890D01*
D23*
X025000Y014800D03*
X025000Y013700D03*
X031700Y011600D03*
X030200Y008700D03*
X023400Y008700D03*
X015300Y009700D03*
X015200Y015200D03*
X005000Y016200D03*
X004800Y018600D03*
X003000Y018700D03*
X004600Y013000D03*
X005000Y010600D03*
X004400Y007700D03*
X004900Y005100D03*
X003300Y002500D03*
X015000Y004100D03*
X016800Y003800D03*
X019700Y003200D03*
X027100Y003800D03*
M02*
