G75*
%MOIN*%
%OFA0B0*%
%FSLAX25Y25*%
%IPPOS*%
%LPD*%
%AMOC8*
5,1,8,0,0,1.08239X$1,22.5*
%
%ADD10C,0.00000*%
%ADD11R,0.07498X0.06699*%
%ADD12R,0.07487X0.06699*%
%ADD13R,0.05912X0.05912*%
%ADD14R,0.06699X0.07487*%
%ADD15OC8,0.07000*%
%ADD16C,0.07000*%
%ADD17R,0.06900X0.06900*%
%ADD18R,0.06699X0.07498*%
%ADD19C,0.06400*%
%ADD20C,0.07800*%
%ADD21R,0.04416X0.02014*%
%ADD22R,0.10636X0.10636*%
%ADD23C,0.00681*%
%ADD24OC8,0.16800*%
%ADD25R,0.05912X0.05124*%
%ADD26R,0.02959X0.09061*%
%ADD27R,0.07880X0.06306*%
%ADD28C,0.02257*%
%ADD29C,0.00422*%
%ADD30C,0.04534*%
D10*
X0005000Y0005000D02*
X0005000Y0215000D01*
X0330921Y0214701D01*
X0370000Y0215000D01*
X0377000Y0209000D01*
X0377000Y0163000D01*
X0387000Y0154000D01*
X0387000Y0025000D01*
X0377000Y0015000D01*
X0377000Y0005000D01*
X0005000Y0005000D01*
D11*
X0193898Y0023047D03*
X0209102Y0023339D03*
X0209102Y0034535D03*
X0193898Y0034244D03*
X0087677Y0113835D03*
X0071929Y0114071D03*
X0071929Y0125268D03*
X0087677Y0125031D03*
X0127614Y0126504D03*
X0143362Y0126268D03*
X0143362Y0115071D03*
X0127614Y0115307D03*
X0179890Y0116071D03*
X0195244Y0116228D03*
X0195244Y0127425D03*
X0179890Y0127268D03*
X0231000Y0174402D03*
X0245000Y0174402D03*
X0259000Y0174402D03*
X0259000Y0185598D03*
X0245000Y0185598D03*
X0231000Y0185598D03*
D12*
X0211268Y0157236D03*
X0211268Y0146213D03*
X0258000Y0149512D03*
X0258000Y0138488D03*
X0297000Y0143512D03*
X0310000Y0143512D03*
X0310000Y0132488D03*
X0297000Y0132488D03*
X0292000Y0170488D03*
X0292000Y0181512D03*
X0354000Y0180488D03*
X0354000Y0191512D03*
X0159386Y0157795D03*
X0159386Y0146772D03*
X0103937Y0145811D03*
X0103937Y0156835D03*
D13*
X0106000Y0170331D03*
X0106000Y0185291D03*
X0160000Y0188165D03*
X0160000Y0173205D03*
X0212063Y0171142D03*
X0212063Y0186102D03*
X0325520Y0192000D03*
X0340480Y0192000D03*
D14*
X0328512Y0118000D03*
X0317488Y0118000D03*
X0182496Y0023150D03*
X0171472Y0023150D03*
D15*
X0175000Y0015000D03*
X0185000Y0015000D03*
X0165000Y0015000D03*
X0155000Y0015000D03*
X0145000Y0015000D03*
X0135000Y0015000D03*
X0205000Y0015000D03*
X0215000Y0015000D03*
X0225000Y0015000D03*
X0235000Y0015000D03*
X0245000Y0015000D03*
X0255000Y0015000D03*
X0255000Y0205000D03*
X0245000Y0205000D03*
X0235000Y0205000D03*
X0225000Y0205000D03*
X0215000Y0205000D03*
X0205000Y0205000D03*
X0195000Y0205000D03*
X0185000Y0205000D03*
X0169000Y0205000D03*
X0159000Y0205000D03*
X0149000Y0205000D03*
X0139000Y0205000D03*
X0129000Y0205000D03*
X0119000Y0205000D03*
X0109000Y0205000D03*
X0099000Y0205000D03*
X0089000Y0205000D03*
X0079000Y0205000D03*
D16*
X0311000Y0061000D03*
D17*
X0311000Y0031000D03*
D18*
X0331402Y0150000D03*
X0342598Y0150000D03*
X0342598Y0159000D03*
X0331402Y0159000D03*
X0317598Y0163000D03*
X0306402Y0163000D03*
X0358402Y0170000D03*
X0369598Y0170000D03*
D19*
X0265000Y0052000D02*
X0265000Y0046000D01*
X0255000Y0046000D02*
X0255000Y0052000D01*
X0245000Y0052000D02*
X0245000Y0046000D01*
X0220000Y0046000D02*
X0220000Y0052000D01*
X0210000Y0052000D02*
X0210000Y0046000D01*
X0200000Y0046000D02*
X0200000Y0052000D01*
X0174000Y0051000D02*
X0174000Y0045000D01*
X0164000Y0045000D02*
X0164000Y0051000D01*
X0154000Y0051000D02*
X0154000Y0045000D01*
X0129000Y0045000D02*
X0129000Y0051000D01*
X0119000Y0051000D02*
X0119000Y0045000D01*
X0109000Y0045000D02*
X0109000Y0051000D01*
X0084000Y0051000D02*
X0084000Y0045000D01*
X0074000Y0045000D02*
X0074000Y0051000D01*
X0064000Y0051000D02*
X0064000Y0045000D01*
X0039000Y0045000D02*
X0039000Y0051000D01*
X0029000Y0051000D02*
X0029000Y0045000D01*
X0019000Y0045000D02*
X0019000Y0051000D01*
D20*
X0265000Y0205000D03*
X0275000Y0205000D03*
D21*
X0325551Y0179839D03*
X0325551Y0177280D03*
X0325551Y0174720D03*
X0325551Y0172161D03*
X0344449Y0172161D03*
X0344449Y0174720D03*
X0344449Y0177280D03*
X0344449Y0179839D03*
D22*
X0335000Y0176000D03*
D23*
X0194479Y0174365D02*
X0194479Y0180305D01*
X0196521Y0180305D01*
X0196521Y0174365D01*
X0194479Y0174365D01*
X0194479Y0175045D02*
X0196521Y0175045D01*
X0196521Y0175725D02*
X0194479Y0175725D01*
X0194479Y0176405D02*
X0196521Y0176405D01*
X0196521Y0177085D02*
X0194479Y0177085D01*
X0194479Y0177765D02*
X0196521Y0177765D01*
X0196521Y0178445D02*
X0194479Y0178445D01*
X0194479Y0179125D02*
X0196521Y0179125D01*
X0196521Y0179805D02*
X0194479Y0179805D01*
X0189479Y0180305D02*
X0189479Y0174365D01*
X0189479Y0180305D02*
X0191521Y0180305D01*
X0191521Y0174365D01*
X0189479Y0174365D01*
X0189479Y0175045D02*
X0191521Y0175045D01*
X0191521Y0175725D02*
X0189479Y0175725D01*
X0189479Y0176405D02*
X0191521Y0176405D01*
X0191521Y0177085D02*
X0189479Y0177085D01*
X0189479Y0177765D02*
X0191521Y0177765D01*
X0191521Y0178445D02*
X0189479Y0178445D01*
X0189479Y0179125D02*
X0191521Y0179125D01*
X0191521Y0179805D02*
X0189479Y0179805D01*
X0184479Y0180305D02*
X0184479Y0174365D01*
X0184479Y0180305D02*
X0186521Y0180305D01*
X0186521Y0174365D01*
X0184479Y0174365D01*
X0184479Y0175045D02*
X0186521Y0175045D01*
X0186521Y0175725D02*
X0184479Y0175725D01*
X0184479Y0176405D02*
X0186521Y0176405D01*
X0186521Y0177085D02*
X0184479Y0177085D01*
X0184479Y0177765D02*
X0186521Y0177765D01*
X0186521Y0178445D02*
X0184479Y0178445D01*
X0184479Y0179125D02*
X0186521Y0179125D01*
X0186521Y0179805D02*
X0184479Y0179805D01*
X0179479Y0180305D02*
X0179479Y0174365D01*
X0179479Y0180305D02*
X0181521Y0180305D01*
X0181521Y0174365D01*
X0179479Y0174365D01*
X0179479Y0175045D02*
X0181521Y0175045D01*
X0181521Y0175725D02*
X0179479Y0175725D01*
X0179479Y0176405D02*
X0181521Y0176405D01*
X0181521Y0177085D02*
X0179479Y0177085D01*
X0179479Y0177765D02*
X0181521Y0177765D01*
X0181521Y0178445D02*
X0179479Y0178445D01*
X0179479Y0179125D02*
X0181521Y0179125D01*
X0181521Y0179805D02*
X0179479Y0179805D01*
X0142479Y0181305D02*
X0142479Y0175365D01*
X0142479Y0181305D02*
X0144521Y0181305D01*
X0144521Y0175365D01*
X0142479Y0175365D01*
X0142479Y0176045D02*
X0144521Y0176045D01*
X0144521Y0176725D02*
X0142479Y0176725D01*
X0142479Y0177405D02*
X0144521Y0177405D01*
X0144521Y0178085D02*
X0142479Y0178085D01*
X0142479Y0178765D02*
X0144521Y0178765D01*
X0144521Y0179445D02*
X0142479Y0179445D01*
X0142479Y0180125D02*
X0144521Y0180125D01*
X0144521Y0180805D02*
X0142479Y0180805D01*
X0137479Y0181305D02*
X0137479Y0175365D01*
X0137479Y0181305D02*
X0139521Y0181305D01*
X0139521Y0175365D01*
X0137479Y0175365D01*
X0137479Y0176045D02*
X0139521Y0176045D01*
X0139521Y0176725D02*
X0137479Y0176725D01*
X0137479Y0177405D02*
X0139521Y0177405D01*
X0139521Y0178085D02*
X0137479Y0178085D01*
X0137479Y0178765D02*
X0139521Y0178765D01*
X0139521Y0179445D02*
X0137479Y0179445D01*
X0137479Y0180125D02*
X0139521Y0180125D01*
X0139521Y0180805D02*
X0137479Y0180805D01*
X0132479Y0181305D02*
X0132479Y0175365D01*
X0132479Y0181305D02*
X0134521Y0181305D01*
X0134521Y0175365D01*
X0132479Y0175365D01*
X0132479Y0176045D02*
X0134521Y0176045D01*
X0134521Y0176725D02*
X0132479Y0176725D01*
X0132479Y0177405D02*
X0134521Y0177405D01*
X0134521Y0178085D02*
X0132479Y0178085D01*
X0132479Y0178765D02*
X0134521Y0178765D01*
X0134521Y0179445D02*
X0132479Y0179445D01*
X0132479Y0180125D02*
X0134521Y0180125D01*
X0134521Y0180805D02*
X0132479Y0180805D01*
X0127479Y0181305D02*
X0127479Y0175365D01*
X0127479Y0181305D02*
X0129521Y0181305D01*
X0129521Y0175365D01*
X0127479Y0175365D01*
X0127479Y0176045D02*
X0129521Y0176045D01*
X0129521Y0176725D02*
X0127479Y0176725D01*
X0127479Y0177405D02*
X0129521Y0177405D01*
X0129521Y0178085D02*
X0127479Y0178085D01*
X0127479Y0178765D02*
X0129521Y0178765D01*
X0129521Y0179445D02*
X0127479Y0179445D01*
X0127479Y0180125D02*
X0129521Y0180125D01*
X0129521Y0180805D02*
X0127479Y0180805D01*
X0086479Y0181305D02*
X0086479Y0175365D01*
X0086479Y0181305D02*
X0088521Y0181305D01*
X0088521Y0175365D01*
X0086479Y0175365D01*
X0086479Y0176045D02*
X0088521Y0176045D01*
X0088521Y0176725D02*
X0086479Y0176725D01*
X0086479Y0177405D02*
X0088521Y0177405D01*
X0088521Y0178085D02*
X0086479Y0178085D01*
X0086479Y0178765D02*
X0088521Y0178765D01*
X0088521Y0179445D02*
X0086479Y0179445D01*
X0086479Y0180125D02*
X0088521Y0180125D01*
X0088521Y0180805D02*
X0086479Y0180805D01*
X0081479Y0181305D02*
X0081479Y0175365D01*
X0081479Y0181305D02*
X0083521Y0181305D01*
X0083521Y0175365D01*
X0081479Y0175365D01*
X0081479Y0176045D02*
X0083521Y0176045D01*
X0083521Y0176725D02*
X0081479Y0176725D01*
X0081479Y0177405D02*
X0083521Y0177405D01*
X0083521Y0178085D02*
X0081479Y0178085D01*
X0081479Y0178765D02*
X0083521Y0178765D01*
X0083521Y0179445D02*
X0081479Y0179445D01*
X0081479Y0180125D02*
X0083521Y0180125D01*
X0083521Y0180805D02*
X0081479Y0180805D01*
X0076479Y0181305D02*
X0076479Y0175365D01*
X0076479Y0181305D02*
X0078521Y0181305D01*
X0078521Y0175365D01*
X0076479Y0175365D01*
X0076479Y0176045D02*
X0078521Y0176045D01*
X0078521Y0176725D02*
X0076479Y0176725D01*
X0076479Y0177405D02*
X0078521Y0177405D01*
X0078521Y0178085D02*
X0076479Y0178085D01*
X0076479Y0178765D02*
X0078521Y0178765D01*
X0078521Y0179445D02*
X0076479Y0179445D01*
X0076479Y0180125D02*
X0078521Y0180125D01*
X0078521Y0180805D02*
X0076479Y0180805D01*
X0071479Y0181305D02*
X0071479Y0175365D01*
X0071479Y0181305D02*
X0073521Y0181305D01*
X0073521Y0175365D01*
X0071479Y0175365D01*
X0071479Y0176045D02*
X0073521Y0176045D01*
X0073521Y0176725D02*
X0071479Y0176725D01*
X0071479Y0177405D02*
X0073521Y0177405D01*
X0073521Y0178085D02*
X0071479Y0178085D01*
X0071479Y0178765D02*
X0073521Y0178765D01*
X0073521Y0179445D02*
X0071479Y0179445D01*
X0071479Y0180125D02*
X0073521Y0180125D01*
X0073521Y0180805D02*
X0071479Y0180805D01*
X0071479Y0160635D02*
X0071479Y0154695D01*
X0071479Y0160635D02*
X0073521Y0160635D01*
X0073521Y0154695D01*
X0071479Y0154695D01*
X0071479Y0155375D02*
X0073521Y0155375D01*
X0073521Y0156055D02*
X0071479Y0156055D01*
X0071479Y0156735D02*
X0073521Y0156735D01*
X0073521Y0157415D02*
X0071479Y0157415D01*
X0071479Y0158095D02*
X0073521Y0158095D01*
X0073521Y0158775D02*
X0071479Y0158775D01*
X0071479Y0159455D02*
X0073521Y0159455D01*
X0073521Y0160135D02*
X0071479Y0160135D01*
X0076479Y0160635D02*
X0076479Y0154695D01*
X0076479Y0160635D02*
X0078521Y0160635D01*
X0078521Y0154695D01*
X0076479Y0154695D01*
X0076479Y0155375D02*
X0078521Y0155375D01*
X0078521Y0156055D02*
X0076479Y0156055D01*
X0076479Y0156735D02*
X0078521Y0156735D01*
X0078521Y0157415D02*
X0076479Y0157415D01*
X0076479Y0158095D02*
X0078521Y0158095D01*
X0078521Y0158775D02*
X0076479Y0158775D01*
X0076479Y0159455D02*
X0078521Y0159455D01*
X0078521Y0160135D02*
X0076479Y0160135D01*
X0081479Y0160635D02*
X0081479Y0154695D01*
X0081479Y0160635D02*
X0083521Y0160635D01*
X0083521Y0154695D01*
X0081479Y0154695D01*
X0081479Y0155375D02*
X0083521Y0155375D01*
X0083521Y0156055D02*
X0081479Y0156055D01*
X0081479Y0156735D02*
X0083521Y0156735D01*
X0083521Y0157415D02*
X0081479Y0157415D01*
X0081479Y0158095D02*
X0083521Y0158095D01*
X0083521Y0158775D02*
X0081479Y0158775D01*
X0081479Y0159455D02*
X0083521Y0159455D01*
X0083521Y0160135D02*
X0081479Y0160135D01*
X0086479Y0160635D02*
X0086479Y0154695D01*
X0086479Y0160635D02*
X0088521Y0160635D01*
X0088521Y0154695D01*
X0086479Y0154695D01*
X0086479Y0155375D02*
X0088521Y0155375D01*
X0088521Y0156055D02*
X0086479Y0156055D01*
X0086479Y0156735D02*
X0088521Y0156735D01*
X0088521Y0157415D02*
X0086479Y0157415D01*
X0086479Y0158095D02*
X0088521Y0158095D01*
X0088521Y0158775D02*
X0086479Y0158775D01*
X0086479Y0159455D02*
X0088521Y0159455D01*
X0088521Y0160135D02*
X0086479Y0160135D01*
X0127479Y0160635D02*
X0127479Y0154695D01*
X0127479Y0160635D02*
X0129521Y0160635D01*
X0129521Y0154695D01*
X0127479Y0154695D01*
X0127479Y0155375D02*
X0129521Y0155375D01*
X0129521Y0156055D02*
X0127479Y0156055D01*
X0127479Y0156735D02*
X0129521Y0156735D01*
X0129521Y0157415D02*
X0127479Y0157415D01*
X0127479Y0158095D02*
X0129521Y0158095D01*
X0129521Y0158775D02*
X0127479Y0158775D01*
X0127479Y0159455D02*
X0129521Y0159455D01*
X0129521Y0160135D02*
X0127479Y0160135D01*
X0132479Y0160635D02*
X0132479Y0154695D01*
X0132479Y0160635D02*
X0134521Y0160635D01*
X0134521Y0154695D01*
X0132479Y0154695D01*
X0132479Y0155375D02*
X0134521Y0155375D01*
X0134521Y0156055D02*
X0132479Y0156055D01*
X0132479Y0156735D02*
X0134521Y0156735D01*
X0134521Y0157415D02*
X0132479Y0157415D01*
X0132479Y0158095D02*
X0134521Y0158095D01*
X0134521Y0158775D02*
X0132479Y0158775D01*
X0132479Y0159455D02*
X0134521Y0159455D01*
X0134521Y0160135D02*
X0132479Y0160135D01*
X0137479Y0160635D02*
X0137479Y0154695D01*
X0137479Y0160635D02*
X0139521Y0160635D01*
X0139521Y0154695D01*
X0137479Y0154695D01*
X0137479Y0155375D02*
X0139521Y0155375D01*
X0139521Y0156055D02*
X0137479Y0156055D01*
X0137479Y0156735D02*
X0139521Y0156735D01*
X0139521Y0157415D02*
X0137479Y0157415D01*
X0137479Y0158095D02*
X0139521Y0158095D01*
X0139521Y0158775D02*
X0137479Y0158775D01*
X0137479Y0159455D02*
X0139521Y0159455D01*
X0139521Y0160135D02*
X0137479Y0160135D01*
X0142479Y0160635D02*
X0142479Y0154695D01*
X0142479Y0160635D02*
X0144521Y0160635D01*
X0144521Y0154695D01*
X0142479Y0154695D01*
X0142479Y0155375D02*
X0144521Y0155375D01*
X0144521Y0156055D02*
X0142479Y0156055D01*
X0142479Y0156735D02*
X0144521Y0156735D01*
X0144521Y0157415D02*
X0142479Y0157415D01*
X0142479Y0158095D02*
X0144521Y0158095D01*
X0144521Y0158775D02*
X0142479Y0158775D01*
X0142479Y0159455D02*
X0144521Y0159455D01*
X0144521Y0160135D02*
X0142479Y0160135D01*
X0179479Y0159635D02*
X0179479Y0153695D01*
X0179479Y0159635D02*
X0181521Y0159635D01*
X0181521Y0153695D01*
X0179479Y0153695D01*
X0179479Y0154375D02*
X0181521Y0154375D01*
X0181521Y0155055D02*
X0179479Y0155055D01*
X0179479Y0155735D02*
X0181521Y0155735D01*
X0181521Y0156415D02*
X0179479Y0156415D01*
X0179479Y0157095D02*
X0181521Y0157095D01*
X0181521Y0157775D02*
X0179479Y0157775D01*
X0179479Y0158455D02*
X0181521Y0158455D01*
X0181521Y0159135D02*
X0179479Y0159135D01*
X0184479Y0159635D02*
X0184479Y0153695D01*
X0184479Y0159635D02*
X0186521Y0159635D01*
X0186521Y0153695D01*
X0184479Y0153695D01*
X0184479Y0154375D02*
X0186521Y0154375D01*
X0186521Y0155055D02*
X0184479Y0155055D01*
X0184479Y0155735D02*
X0186521Y0155735D01*
X0186521Y0156415D02*
X0184479Y0156415D01*
X0184479Y0157095D02*
X0186521Y0157095D01*
X0186521Y0157775D02*
X0184479Y0157775D01*
X0184479Y0158455D02*
X0186521Y0158455D01*
X0186521Y0159135D02*
X0184479Y0159135D01*
X0189479Y0159635D02*
X0189479Y0153695D01*
X0189479Y0159635D02*
X0191521Y0159635D01*
X0191521Y0153695D01*
X0189479Y0153695D01*
X0189479Y0154375D02*
X0191521Y0154375D01*
X0191521Y0155055D02*
X0189479Y0155055D01*
X0189479Y0155735D02*
X0191521Y0155735D01*
X0191521Y0156415D02*
X0189479Y0156415D01*
X0189479Y0157095D02*
X0191521Y0157095D01*
X0191521Y0157775D02*
X0189479Y0157775D01*
X0189479Y0158455D02*
X0191521Y0158455D01*
X0191521Y0159135D02*
X0189479Y0159135D01*
X0194479Y0159635D02*
X0194479Y0153695D01*
X0194479Y0159635D02*
X0196521Y0159635D01*
X0196521Y0153695D01*
X0194479Y0153695D01*
X0194479Y0154375D02*
X0196521Y0154375D01*
X0196521Y0155055D02*
X0194479Y0155055D01*
X0194479Y0155735D02*
X0196521Y0155735D01*
X0196521Y0156415D02*
X0194479Y0156415D01*
X0194479Y0157095D02*
X0196521Y0157095D01*
X0196521Y0157775D02*
X0194479Y0157775D01*
X0194479Y0158455D02*
X0196521Y0158455D01*
X0196521Y0159135D02*
X0194479Y0159135D01*
D24*
X0232000Y0073000D03*
X0141000Y0072000D03*
X0051000Y0072000D03*
X0355000Y0061000D03*
X0355000Y0031000D03*
D25*
X0328000Y0092126D03*
X0328000Y0107874D03*
D26*
X0310787Y0107480D03*
X0310787Y0092913D03*
X0277787Y0131913D03*
X0277787Y0146480D03*
D27*
X0291929Y0197000D03*
X0308071Y0197000D03*
D28*
X0346846Y0106822D02*
X0367154Y0106822D01*
X0346846Y0106822D02*
X0346846Y0128942D01*
X0367154Y0128942D01*
X0367154Y0106822D01*
X0367154Y0109078D02*
X0346846Y0109078D01*
X0346846Y0111334D02*
X0367154Y0111334D01*
X0367154Y0113590D02*
X0346846Y0113590D01*
X0346846Y0115846D02*
X0367154Y0115846D01*
X0367154Y0118102D02*
X0346846Y0118102D01*
X0346846Y0120358D02*
X0367154Y0120358D01*
X0367154Y0122614D02*
X0346846Y0122614D01*
X0346846Y0124870D02*
X0367154Y0124870D01*
X0367154Y0127126D02*
X0346846Y0127126D01*
D29*
X0346086Y0086141D02*
X0349882Y0086141D01*
X0346086Y0086141D02*
X0346086Y0097261D01*
X0349882Y0097261D01*
X0349882Y0086141D01*
X0349882Y0086562D02*
X0346086Y0086562D01*
X0346086Y0086983D02*
X0349882Y0086983D01*
X0349882Y0087404D02*
X0346086Y0087404D01*
X0346086Y0087825D02*
X0349882Y0087825D01*
X0349882Y0088246D02*
X0346086Y0088246D01*
X0346086Y0088667D02*
X0349882Y0088667D01*
X0349882Y0089088D02*
X0346086Y0089088D01*
X0346086Y0089509D02*
X0349882Y0089509D01*
X0349882Y0089930D02*
X0346086Y0089930D01*
X0346086Y0090351D02*
X0349882Y0090351D01*
X0349882Y0090772D02*
X0346086Y0090772D01*
X0346086Y0091193D02*
X0349882Y0091193D01*
X0349882Y0091614D02*
X0346086Y0091614D01*
X0346086Y0092035D02*
X0349882Y0092035D01*
X0349882Y0092456D02*
X0346086Y0092456D01*
X0346086Y0092877D02*
X0349882Y0092877D01*
X0349882Y0093298D02*
X0346086Y0093298D01*
X0346086Y0093719D02*
X0349882Y0093719D01*
X0349882Y0094140D02*
X0346086Y0094140D01*
X0346086Y0094561D02*
X0349882Y0094561D01*
X0349882Y0094982D02*
X0346086Y0094982D01*
X0346086Y0095403D02*
X0349882Y0095403D01*
X0349882Y0095824D02*
X0346086Y0095824D01*
X0346086Y0096245D02*
X0349882Y0096245D01*
X0349882Y0096666D02*
X0346086Y0096666D01*
X0346086Y0097087D02*
X0349882Y0097087D01*
X0364118Y0086141D02*
X0367914Y0086141D01*
X0364118Y0086141D02*
X0364118Y0097261D01*
X0367914Y0097261D01*
X0367914Y0086141D01*
X0367914Y0086562D02*
X0364118Y0086562D01*
X0364118Y0086983D02*
X0367914Y0086983D01*
X0367914Y0087404D02*
X0364118Y0087404D01*
X0364118Y0087825D02*
X0367914Y0087825D01*
X0367914Y0088246D02*
X0364118Y0088246D01*
X0364118Y0088667D02*
X0367914Y0088667D01*
X0367914Y0089088D02*
X0364118Y0089088D01*
X0364118Y0089509D02*
X0367914Y0089509D01*
X0367914Y0089930D02*
X0364118Y0089930D01*
X0364118Y0090351D02*
X0367914Y0090351D01*
X0367914Y0090772D02*
X0364118Y0090772D01*
X0364118Y0091193D02*
X0367914Y0091193D01*
X0367914Y0091614D02*
X0364118Y0091614D01*
X0364118Y0092035D02*
X0367914Y0092035D01*
X0367914Y0092456D02*
X0364118Y0092456D01*
X0364118Y0092877D02*
X0367914Y0092877D01*
X0367914Y0093298D02*
X0364118Y0093298D01*
X0364118Y0093719D02*
X0367914Y0093719D01*
X0367914Y0094140D02*
X0364118Y0094140D01*
X0364118Y0094561D02*
X0367914Y0094561D01*
X0367914Y0094982D02*
X0364118Y0094982D01*
X0364118Y0095403D02*
X0367914Y0095403D01*
X0367914Y0095824D02*
X0364118Y0095824D01*
X0364118Y0096245D02*
X0367914Y0096245D01*
X0367914Y0096666D02*
X0364118Y0096666D01*
X0364118Y0097087D02*
X0367914Y0097087D01*
D30*
X0249000Y0159000D03*
X0233000Y0139000D03*
X0232000Y0113000D03*
X0187000Y0103000D03*
X0187000Y0138000D03*
X0179000Y0187000D03*
X0185500Y0188500D03*
X0133000Y0193000D03*
X0091000Y0193000D03*
X0076000Y0197000D03*
X0057000Y0114000D03*
X0039000Y0114000D03*
X0294000Y0162000D03*
M02*
