G75*
%MOIN*%
%OFA0B0*%
%FSLAX24Y24*%
%IPPOS*%
%LPD*%
%AMOC8*
5,1,8,0,0,1.08239X$1,22.5*
%
%ADD10C,0.0640*%
%ADD11R,0.0750X0.0670*%
%ADD12R,0.0670X0.0749*%
%ADD13R,0.0741X0.0323*%
%ADD14R,0.0670X0.0750*%
%ADD15R,0.0591X0.0591*%
%ADD16R,0.0749X0.0670*%
%ADD17C,0.0827*%
%ADD18R,0.1300X0.0749*%
%ADD19OC8,0.0700*%
%ADD20C,0.0453*%
%ADD21C,0.0512*%
D10*
X017900Y005000D02*
X018500Y005000D01*
X018500Y006000D02*
X017900Y006000D01*
X017900Y007000D02*
X018500Y007000D01*
X021400Y007000D02*
X022000Y007000D01*
X022000Y006000D02*
X021400Y006000D01*
X021400Y005000D02*
X022000Y005000D01*
X022000Y010500D02*
X021400Y010500D01*
X021400Y011500D02*
X022000Y011500D01*
X022000Y012500D02*
X021400Y012500D01*
X018500Y012500D02*
X017900Y012500D01*
X017900Y011500D02*
X018500Y011500D01*
X018500Y010500D02*
X017900Y010500D01*
X017900Y016000D02*
X018500Y016000D01*
X018500Y017000D02*
X017900Y017000D01*
X017900Y018000D02*
X018500Y018000D01*
X021400Y018000D02*
X022000Y018000D01*
X022000Y017000D02*
X021400Y017000D01*
X021400Y016000D02*
X022000Y016000D01*
D11*
X024200Y016060D03*
X024200Y014940D03*
X024200Y013060D03*
X025700Y013060D03*
X025700Y011940D03*
X024200Y011940D03*
X024200Y010560D03*
X024200Y009440D03*
X024200Y007560D03*
X025700Y007560D03*
X025700Y006440D03*
X024200Y006440D03*
X023200Y005060D03*
X023200Y003940D03*
X027200Y003940D03*
X027200Y005060D03*
X027200Y009440D03*
X027200Y010560D03*
X031950Y011940D03*
X031950Y013060D03*
X029700Y015440D03*
X029700Y016560D03*
X029700Y017940D03*
X029700Y019060D03*
X025700Y018560D03*
X024200Y018560D03*
X024200Y017440D03*
X025700Y017440D03*
X027200Y016060D03*
X027200Y014940D03*
X015700Y015690D03*
X015700Y016810D03*
D12*
X012751Y018000D03*
X011649Y018000D03*
X011649Y013000D03*
X012751Y013000D03*
X013251Y006500D03*
X012149Y006500D03*
X024649Y004500D03*
X025751Y004500D03*
X028899Y012000D03*
X030001Y012000D03*
D13*
X012125Y011250D03*
X012125Y010750D03*
X012125Y010250D03*
X012125Y009750D03*
X010275Y009750D03*
X010275Y010250D03*
X010275Y010750D03*
X010275Y011250D03*
X010275Y014750D03*
X010275Y015250D03*
X010275Y015750D03*
X010275Y016250D03*
X012125Y016250D03*
X012125Y015750D03*
X012125Y015250D03*
X012125Y014750D03*
X012125Y004750D03*
X012125Y004250D03*
X012125Y003750D03*
X012125Y003250D03*
X010275Y003250D03*
X010275Y003750D03*
X010275Y004250D03*
X010275Y004750D03*
D14*
X006890Y003000D03*
X008010Y003000D03*
X008010Y004500D03*
X006890Y004500D03*
X014640Y004000D03*
X015760Y004000D03*
X015890Y007000D03*
X017010Y007000D03*
X015760Y010000D03*
X014640Y010000D03*
X015390Y012250D03*
X016510Y012250D03*
X016010Y014500D03*
X014890Y014500D03*
X008010Y014500D03*
X006890Y014500D03*
X006890Y016000D03*
X008010Y016000D03*
X008010Y011000D03*
X006890Y011000D03*
X006890Y009500D03*
X008010Y009500D03*
D15*
X009452Y006500D03*
X010948Y006500D03*
X010448Y013000D03*
X008952Y013000D03*
X008952Y018000D03*
X010448Y018000D03*
D16*
X025700Y016051D03*
X025700Y014949D03*
X031200Y015449D03*
X031200Y016551D03*
X025700Y010551D03*
X025700Y009449D03*
D17*
X033210Y008508D03*
X033210Y006508D03*
X033210Y004508D03*
X033710Y016508D03*
X033710Y018508D03*
D18*
X033700Y014102D03*
X033700Y011898D03*
D19*
X027700Y020500D03*
X026700Y020500D03*
X025700Y020500D03*
X024700Y020500D03*
X023700Y020500D03*
X022700Y020500D03*
X021700Y020500D03*
X020700Y020500D03*
X019100Y020500D03*
X018100Y020500D03*
X017100Y020500D03*
X016100Y020500D03*
X015100Y020500D03*
X014100Y020500D03*
X013100Y020500D03*
X012100Y020500D03*
X015700Y001500D03*
X016700Y001500D03*
X017700Y001500D03*
X018700Y001500D03*
X019700Y001500D03*
X020700Y001500D03*
X022700Y001500D03*
X023700Y001500D03*
X024700Y001500D03*
X025700Y001500D03*
X026700Y001500D03*
X027700Y001500D03*
D20*
X030700Y003000D03*
X029700Y003500D03*
X028200Y004500D03*
X026700Y006000D03*
X025700Y005500D03*
X028700Y009500D03*
X029700Y010000D03*
X030700Y010000D03*
X027200Y013000D03*
X023450Y014500D03*
X019950Y014750D03*
X019950Y013250D03*
X017200Y013250D03*
X014450Y016250D03*
X013700Y016500D03*
X011450Y017000D03*
X008950Y016000D03*
X009200Y015000D03*
X007950Y017000D03*
X006950Y017500D03*
X007950Y012000D03*
X008950Y011250D03*
X008950Y009750D03*
X012200Y012000D03*
X016700Y009000D03*
X012700Y005500D03*
X009200Y003500D03*
X008950Y004500D03*
X007950Y005500D03*
X016700Y003500D03*
X027200Y017500D03*
X030700Y017500D03*
X019950Y019500D03*
X016700Y018000D03*
X015950Y018000D03*
D21*
X027700Y014000D03*
M02*
