G75*
%MOIN*%
%OFA0B0*%
%FSLAX25Y25*%
%IPPOS*%
%LPD*%
%AMOC8*
5,1,8,0,0,1.08239X$1,22.5*
%
%ADD10C,0.00000*%
%ADD11R,0.06299X0.07098*%
%ADD12R,0.06299X0.07087*%
%ADD13R,0.07087X0.12598*%
%ADD14OC8,0.06600*%
%ADD15C,0.06600*%
%ADD16R,0.06500X0.06500*%
%ADD17C,0.06000*%
%ADD18C,0.07400*%
%ADD19OC8,0.16400*%
%ADD20C,0.04134*%
%ADD21C,0.01600*%
D10*
X0005000Y0005000D02*
X0005000Y0215000D01*
X0330921Y0214701D01*
X0370000Y0215000D01*
X0377000Y0209000D01*
X0377000Y0163000D01*
X0387000Y0154000D01*
X0387000Y0025000D01*
X0377000Y0015000D01*
X0377000Y0005000D01*
X0005000Y0005000D01*
D11*
X0279732Y0108520D03*
X0290929Y0108520D03*
D12*
X0290701Y0128071D03*
X0279677Y0128071D03*
D13*
X0275843Y0092189D03*
X0297890Y0092189D03*
D14*
X0255000Y0015000D03*
X0245000Y0015000D03*
X0235000Y0015000D03*
X0225000Y0015000D03*
X0215000Y0015000D03*
X0205000Y0015000D03*
X0185000Y0015000D03*
X0175000Y0015000D03*
X0165000Y0015000D03*
X0155000Y0015000D03*
X0145000Y0015000D03*
X0135000Y0015000D03*
X0139000Y0205000D03*
X0129000Y0205000D03*
X0119000Y0205000D03*
X0109000Y0205000D03*
X0099000Y0205000D03*
X0089000Y0205000D03*
X0079000Y0205000D03*
X0149000Y0205000D03*
X0159000Y0205000D03*
X0169000Y0205000D03*
X0185000Y0205000D03*
X0195000Y0205000D03*
X0205000Y0205000D03*
X0215000Y0205000D03*
X0225000Y0205000D03*
X0235000Y0205000D03*
X0245000Y0205000D03*
X0255000Y0205000D03*
D15*
X0311000Y0061000D03*
D16*
X0311000Y0031000D03*
D17*
X0265000Y0046000D02*
X0265000Y0052000D01*
X0255000Y0052000D02*
X0255000Y0046000D01*
X0245000Y0046000D02*
X0245000Y0052000D01*
X0220000Y0052000D02*
X0220000Y0046000D01*
X0210000Y0046000D02*
X0210000Y0052000D01*
X0200000Y0052000D02*
X0200000Y0046000D01*
X0174000Y0045000D02*
X0174000Y0051000D01*
X0164000Y0051000D02*
X0164000Y0045000D01*
X0154000Y0045000D02*
X0154000Y0051000D01*
X0129000Y0051000D02*
X0129000Y0045000D01*
X0119000Y0045000D02*
X0119000Y0051000D01*
X0109000Y0051000D02*
X0109000Y0045000D01*
X0084000Y0045000D02*
X0084000Y0051000D01*
X0074000Y0051000D02*
X0074000Y0045000D01*
X0064000Y0045000D02*
X0064000Y0051000D01*
X0039000Y0051000D02*
X0039000Y0045000D01*
X0029000Y0045000D02*
X0029000Y0051000D01*
X0019000Y0051000D02*
X0019000Y0045000D01*
D18*
X0265000Y0205000D03*
X0275000Y0205000D03*
D19*
X0232000Y0073000D03*
X0141000Y0072000D03*
X0051000Y0072000D03*
X0355000Y0061000D03*
X0355000Y0031000D03*
D20*
X0232000Y0113000D03*
X0187000Y0103000D03*
X0187000Y0138000D03*
X0233000Y0139000D03*
X0249000Y0159000D03*
X0294000Y0162000D03*
X0185500Y0188500D03*
X0179000Y0187000D03*
X0133000Y0193000D03*
X0091000Y0193000D03*
X0076000Y0197000D03*
X0057000Y0114000D03*
X0039000Y0114000D03*
D21*
X0057000Y0114000D01*
X0060606Y0112602D02*
X0228133Y0112602D01*
X0228133Y0112901D02*
X0228133Y0112231D01*
X0228722Y0110810D01*
X0229810Y0109722D01*
X0231231Y0109133D01*
X0232769Y0109133D01*
X0234190Y0109722D01*
X0235278Y0110810D01*
X0235867Y0112231D01*
X0235867Y0113769D01*
X0235278Y0115190D01*
X0234190Y0116278D01*
X0232769Y0116867D01*
X0231496Y0116867D01*
X0204770Y0139907D01*
X0204473Y0140204D01*
X0204381Y0140242D01*
X0204306Y0140307D01*
X0203906Y0140439D01*
X0203517Y0140600D01*
X0203418Y0140600D01*
X0203324Y0140631D01*
X0202904Y0140600D01*
X0189869Y0140600D01*
X0189190Y0141278D01*
X0187769Y0141867D01*
X0186231Y0141867D01*
X0184810Y0141278D01*
X0183722Y0140190D01*
X0183133Y0138769D01*
X0183133Y0137231D01*
X0183722Y0135810D01*
X0184810Y0134722D01*
X0186231Y0134133D01*
X0187769Y0134133D01*
X0189190Y0134722D01*
X0189869Y0135400D01*
X0202034Y0135400D01*
X0228133Y0112901D01*
X0228641Y0111003D02*
X0059472Y0111003D01*
X0059190Y0110722D02*
X0060278Y0111810D01*
X0060867Y0113231D01*
X0060867Y0114769D01*
X0060278Y0116190D01*
X0059190Y0117278D01*
X0057769Y0117867D01*
X0056231Y0117867D01*
X0054810Y0117278D01*
X0054131Y0116600D01*
X0041869Y0116600D01*
X0041190Y0117278D01*
X0039769Y0117867D01*
X0038231Y0117867D01*
X0036810Y0117278D01*
X0035722Y0116190D01*
X0035133Y0114769D01*
X0035133Y0113231D01*
X0035722Y0111810D01*
X0036810Y0110722D01*
X0038231Y0110133D01*
X0039769Y0110133D01*
X0041190Y0110722D01*
X0041869Y0111400D01*
X0054131Y0111400D01*
X0054810Y0110722D01*
X0056231Y0110133D01*
X0057769Y0110133D01*
X0059190Y0110722D01*
X0060867Y0114201D02*
X0226625Y0114201D01*
X0224771Y0115799D02*
X0060440Y0115799D01*
X0058902Y0117398D02*
X0222917Y0117398D01*
X0221063Y0118996D02*
X0006800Y0118996D01*
X0006800Y0117398D02*
X0037098Y0117398D01*
X0035560Y0115799D02*
X0006800Y0115799D01*
X0006800Y0114201D02*
X0035133Y0114201D01*
X0035394Y0112602D02*
X0006800Y0112602D01*
X0006800Y0111003D02*
X0036528Y0111003D01*
X0041472Y0111003D02*
X0054528Y0111003D01*
X0055098Y0117398D02*
X0040902Y0117398D01*
X0026483Y0101600D02*
X0025527Y0101204D01*
X0014527Y0090204D01*
X0013796Y0089473D01*
X0013400Y0088517D01*
X0013400Y0042483D01*
X0013796Y0041527D01*
X0014527Y0040796D01*
X0015483Y0040400D01*
X0017562Y0040400D01*
X0018045Y0040200D01*
X0019955Y0040200D01*
X0020438Y0040400D01*
X0022517Y0040400D01*
X0023473Y0040796D01*
X0024000Y0041323D01*
X0024527Y0040796D01*
X0025483Y0040400D01*
X0027562Y0040400D01*
X0028045Y0040200D01*
X0029955Y0040200D01*
X0030438Y0040400D01*
X0037562Y0040400D01*
X0038045Y0040200D01*
X0039955Y0040200D01*
X0040438Y0040400D01*
X0062562Y0040400D01*
X0063045Y0040200D01*
X0064955Y0040200D01*
X0065438Y0040400D01*
X0067400Y0040400D01*
X0067400Y0021513D01*
X0067398Y0021508D01*
X0067400Y0020995D01*
X0067400Y0020483D01*
X0067402Y0020479D01*
X0067402Y0020474D01*
X0067600Y0020000D01*
X0067796Y0019527D01*
X0067799Y0019524D01*
X0067801Y0019520D01*
X0068166Y0019157D01*
X0068527Y0018796D01*
X0068531Y0018794D01*
X0068535Y0018791D01*
X0069011Y0018596D01*
X0069483Y0018400D01*
X0069487Y0018400D01*
X0069492Y0018398D01*
X0070005Y0018400D01*
X0070517Y0018400D01*
X0070521Y0018402D01*
X0131396Y0018609D01*
X0129900Y0017112D01*
X0129900Y0012888D01*
X0132888Y0009900D01*
X0137112Y0009900D01*
X0140000Y0012788D01*
X0142888Y0009900D01*
X0147112Y0009900D01*
X0150000Y0012788D01*
X0152888Y0009900D01*
X0157112Y0009900D01*
X0160100Y0012888D01*
X0160100Y0017112D01*
X0158511Y0018701D01*
X0181567Y0018779D01*
X0179900Y0017112D01*
X0179900Y0012888D01*
X0182888Y0009900D01*
X0187112Y0009900D01*
X0190100Y0012888D01*
X0190100Y0017112D01*
X0188410Y0018803D01*
X0201635Y0018848D01*
X0199900Y0017112D01*
X0199900Y0012888D01*
X0202888Y0009900D01*
X0207112Y0009900D01*
X0210000Y0012788D01*
X0212888Y0009900D01*
X0217112Y0009900D01*
X0220000Y0012788D01*
X0222888Y0009900D01*
X0227112Y0009900D01*
X0230000Y0012788D01*
X0232888Y0009900D01*
X0237112Y0009900D01*
X0240000Y0012788D01*
X0242888Y0009900D01*
X0247112Y0009900D01*
X0250000Y0012788D01*
X0252888Y0009900D01*
X0257112Y0009900D01*
X0260100Y0012888D01*
X0260100Y0017112D01*
X0258172Y0019040D01*
X0364005Y0019400D01*
X0364517Y0019400D01*
X0364521Y0019402D01*
X0364526Y0019402D01*
X0365000Y0019600D01*
X0365473Y0019796D01*
X0365476Y0019799D01*
X0365480Y0019801D01*
X0365843Y0020166D01*
X0366204Y0020527D01*
X0366206Y0020531D01*
X0366209Y0020535D01*
X0366405Y0021011D01*
X0366600Y0021483D01*
X0366600Y0021487D01*
X0380941Y0021487D01*
X0379343Y0019888D02*
X0365567Y0019888D01*
X0366600Y0021487D02*
X0366602Y0021492D01*
X0366600Y0022005D01*
X0366600Y0039517D01*
X0366204Y0040473D01*
X0365473Y0041204D01*
X0364517Y0041600D01*
X0266920Y0041600D01*
X0267719Y0041931D01*
X0269069Y0043281D01*
X0269800Y0045045D01*
X0269800Y0052955D01*
X0269069Y0054719D01*
X0267719Y0056069D01*
X0265955Y0056800D01*
X0264045Y0056800D01*
X0262281Y0056069D01*
X0261600Y0055388D01*
X0261600Y0055517D01*
X0261204Y0056473D01*
X0260473Y0057204D01*
X0259517Y0057600D01*
X0250600Y0057600D01*
X0250600Y0069517D01*
X0250204Y0070473D01*
X0239277Y0081400D01*
X0279517Y0081400D01*
X0280473Y0081796D01*
X0281204Y0082527D01*
X0281600Y0083483D01*
X0281600Y0094270D01*
X0282204Y0094874D01*
X0282600Y0095829D01*
X0282600Y0099517D01*
X0282332Y0100163D01*
X0282332Y0103170D01*
X0283627Y0103170D01*
X0284682Y0104225D01*
X0284682Y0112814D01*
X0283627Y0113869D01*
X0275837Y0113869D01*
X0274783Y0112814D01*
X0274783Y0104225D01*
X0275837Y0103170D01*
X0277132Y0103170D01*
X0277132Y0101600D01*
X0239277Y0101600D01*
X0250473Y0112796D01*
X0251204Y0113527D01*
X0251600Y0114483D01*
X0251600Y0156131D01*
X0252278Y0156810D01*
X0252867Y0158231D01*
X0252867Y0159769D01*
X0252278Y0161190D01*
X0251190Y0162278D01*
X0249769Y0162867D01*
X0248231Y0162867D01*
X0246810Y0162278D01*
X0245722Y0161190D01*
X0245133Y0159769D01*
X0245133Y0158231D01*
X0245722Y0156810D01*
X0246400Y0156131D01*
X0246400Y0116077D01*
X0235923Y0105600D01*
X0189869Y0105600D01*
X0189190Y0106278D01*
X0187769Y0106867D01*
X0186231Y0106867D01*
X0184810Y0106278D01*
X0183722Y0105190D01*
X0183133Y0103769D01*
X0183133Y0102231D01*
X0183394Y0101600D01*
X0026483Y0101600D01*
X0026030Y0101412D02*
X0006800Y0101412D01*
X0006800Y0099814D02*
X0024137Y0099814D01*
X0022538Y0098215D02*
X0006800Y0098215D01*
X0006800Y0096617D02*
X0020940Y0096617D01*
X0019341Y0095018D02*
X0006800Y0095018D01*
X0006800Y0093420D02*
X0017743Y0093420D01*
X0016144Y0091821D02*
X0006800Y0091821D01*
X0006800Y0090223D02*
X0014546Y0090223D01*
X0013444Y0088624D02*
X0006800Y0088624D01*
X0006800Y0087026D02*
X0013400Y0087026D01*
X0013400Y0085427D02*
X0006800Y0085427D01*
X0006800Y0083829D02*
X0013400Y0083829D01*
X0013400Y0082230D02*
X0006800Y0082230D01*
X0006800Y0080632D02*
X0013400Y0080632D01*
X0013400Y0079033D02*
X0006800Y0079033D01*
X0006800Y0077435D02*
X0013400Y0077435D01*
X0013400Y0075836D02*
X0006800Y0075836D01*
X0006800Y0074238D02*
X0013400Y0074238D01*
X0013400Y0072639D02*
X0006800Y0072639D01*
X0006800Y0071041D02*
X0013400Y0071041D01*
X0013400Y0069442D02*
X0006800Y0069442D01*
X0006800Y0067844D02*
X0013400Y0067844D01*
X0013400Y0066245D02*
X0006800Y0066245D01*
X0006800Y0064647D02*
X0013400Y0064647D01*
X0013400Y0063048D02*
X0006800Y0063048D01*
X0006800Y0061450D02*
X0013400Y0061450D01*
X0013400Y0059851D02*
X0006800Y0059851D01*
X0006800Y0058253D02*
X0013400Y0058253D01*
X0013400Y0056654D02*
X0006800Y0056654D01*
X0006800Y0055056D02*
X0013400Y0055056D01*
X0013400Y0053457D02*
X0006800Y0053457D01*
X0006800Y0051859D02*
X0013400Y0051859D01*
X0013400Y0050260D02*
X0006800Y0050260D01*
X0006800Y0048662D02*
X0013400Y0048662D01*
X0013400Y0047063D02*
X0006800Y0047063D01*
X0006800Y0045465D02*
X0013400Y0045465D01*
X0013400Y0043866D02*
X0006800Y0043866D01*
X0006800Y0042268D02*
X0013489Y0042268D01*
X0014833Y0040669D02*
X0006800Y0040669D01*
X0006800Y0039070D02*
X0067400Y0039070D01*
X0067400Y0037472D02*
X0006800Y0037472D01*
X0006800Y0035873D02*
X0067400Y0035873D01*
X0067400Y0034275D02*
X0006800Y0034275D01*
X0006800Y0032676D02*
X0067400Y0032676D01*
X0067400Y0031078D02*
X0006800Y0031078D01*
X0006800Y0029479D02*
X0067400Y0029479D01*
X0067400Y0027881D02*
X0006800Y0027881D01*
X0006800Y0026282D02*
X0067400Y0026282D01*
X0067400Y0024684D02*
X0006800Y0024684D01*
X0006800Y0023085D02*
X0067400Y0023085D01*
X0067398Y0021487D02*
X0006800Y0021487D01*
X0006800Y0019888D02*
X0067646Y0019888D01*
X0070000Y0021000D02*
X0070000Y0054000D01*
X0078000Y0054000D01*
X0078000Y0038000D01*
X0160000Y0039000D01*
X0160000Y0054000D01*
X0168000Y0054000D01*
X0168000Y0039000D01*
X0251000Y0039000D01*
X0251000Y0055000D01*
X0259000Y0055000D01*
X0259000Y0039000D01*
X0364000Y0039000D01*
X0364000Y0022000D01*
X0070000Y0021000D01*
X0070000Y0021487D02*
X0213137Y0021487D01*
X0201077Y0018290D02*
X0188923Y0018290D01*
X0190100Y0016691D02*
X0199900Y0016691D01*
X0199900Y0015093D02*
X0190100Y0015093D01*
X0190100Y0013494D02*
X0199900Y0013494D01*
X0200892Y0011896D02*
X0189108Y0011896D01*
X0187510Y0010297D02*
X0202490Y0010297D01*
X0207510Y0010297D02*
X0212490Y0010297D01*
X0210892Y0011896D02*
X0209108Y0011896D01*
X0217510Y0010297D02*
X0222490Y0010297D01*
X0220892Y0011896D02*
X0219108Y0011896D01*
X0227510Y0010297D02*
X0232490Y0010297D01*
X0230892Y0011896D02*
X0229108Y0011896D01*
X0237510Y0010297D02*
X0242490Y0010297D01*
X0240892Y0011896D02*
X0239108Y0011896D01*
X0247510Y0010297D02*
X0252490Y0010297D01*
X0250892Y0011896D02*
X0249108Y0011896D01*
X0257510Y0010297D02*
X0375200Y0010297D01*
X0375200Y0008699D02*
X0006800Y0008699D01*
X0006800Y0010297D02*
X0132490Y0010297D01*
X0130892Y0011896D02*
X0006800Y0011896D01*
X0006800Y0013494D02*
X0129900Y0013494D01*
X0129900Y0015093D02*
X0006800Y0015093D01*
X0006800Y0016691D02*
X0129900Y0016691D01*
X0131077Y0018290D02*
X0006800Y0018290D01*
X0006800Y0007100D02*
X0375200Y0007100D01*
X0375200Y0006800D02*
X0006800Y0006800D01*
X0006800Y0213198D01*
X0330183Y0212901D01*
X0330189Y0212895D01*
X0330927Y0212901D01*
X0331665Y0212900D01*
X0331672Y0212906D01*
X0369340Y0213195D01*
X0375200Y0208172D01*
X0375200Y0163691D01*
X0375163Y0163650D01*
X0375200Y0162953D01*
X0375200Y0162254D01*
X0375239Y0162216D01*
X0375242Y0162161D01*
X0375761Y0161694D01*
X0376254Y0161200D01*
X0376309Y0161200D01*
X0385200Y0153198D01*
X0385200Y0025746D01*
X0375200Y0015746D01*
X0375200Y0006800D01*
X0375200Y0011896D02*
X0259108Y0011896D01*
X0260100Y0013494D02*
X0375200Y0013494D01*
X0375200Y0015093D02*
X0260100Y0015093D01*
X0260100Y0016691D02*
X0376146Y0016691D01*
X0377744Y0018290D02*
X0258923Y0018290D01*
X0259000Y0039070D02*
X0251000Y0039070D01*
X0251000Y0040669D02*
X0259000Y0040669D01*
X0259000Y0042268D02*
X0251000Y0042268D01*
X0251000Y0043866D02*
X0259000Y0043866D01*
X0259000Y0045465D02*
X0251000Y0045465D01*
X0251000Y0047063D02*
X0259000Y0047063D01*
X0259000Y0048662D02*
X0251000Y0048662D01*
X0251000Y0050260D02*
X0259000Y0050260D01*
X0259000Y0051859D02*
X0251000Y0051859D01*
X0251000Y0053457D02*
X0259000Y0053457D01*
X0261023Y0056654D02*
X0263693Y0056654D01*
X0266307Y0056654D02*
X0385200Y0056654D01*
X0385200Y0055056D02*
X0268733Y0055056D01*
X0269592Y0053457D02*
X0385200Y0053457D01*
X0385200Y0051859D02*
X0269800Y0051859D01*
X0269800Y0050260D02*
X0385200Y0050260D01*
X0385200Y0048662D02*
X0269800Y0048662D01*
X0269800Y0047063D02*
X0385200Y0047063D01*
X0385200Y0045465D02*
X0269800Y0045465D01*
X0269312Y0043866D02*
X0385200Y0043866D01*
X0385200Y0042268D02*
X0268056Y0042268D01*
X0248000Y0044000D02*
X0248000Y0069000D01*
X0236000Y0081000D01*
X0220000Y0081000D01*
X0207000Y0068000D01*
X0207000Y0044000D01*
X0215849Y0044000D01*
X0215400Y0045085D01*
X0215400Y0052915D01*
X0216100Y0054606D01*
X0217394Y0055900D01*
X0219085Y0056600D01*
X0220915Y0056600D01*
X0222606Y0055900D01*
X0223900Y0054606D01*
X0224600Y0052915D01*
X0224600Y0045085D01*
X0224151Y0044000D01*
X0248000Y0044000D01*
X0248000Y0045465D02*
X0224600Y0045465D01*
X0224600Y0047063D02*
X0248000Y0047063D01*
X0248000Y0048662D02*
X0224600Y0048662D01*
X0224600Y0050260D02*
X0248000Y0050260D01*
X0248000Y0051859D02*
X0224600Y0051859D01*
X0224375Y0053457D02*
X0248000Y0053457D01*
X0248000Y0055056D02*
X0223450Y0055056D01*
X0216550Y0055056D02*
X0207000Y0055056D01*
X0207000Y0056654D02*
X0248000Y0056654D01*
X0248000Y0058253D02*
X0207000Y0058253D01*
X0207000Y0059851D02*
X0248000Y0059851D01*
X0248000Y0061450D02*
X0207000Y0061450D01*
X0207000Y0063048D02*
X0248000Y0063048D01*
X0248000Y0064647D02*
X0207000Y0064647D01*
X0207000Y0066245D02*
X0248000Y0066245D01*
X0248000Y0067844D02*
X0207000Y0067844D01*
X0208442Y0069442D02*
X0247558Y0069442D01*
X0245959Y0071041D02*
X0210041Y0071041D01*
X0211639Y0072639D02*
X0244361Y0072639D01*
X0242762Y0074238D02*
X0213238Y0074238D01*
X0214836Y0075836D02*
X0241164Y0075836D01*
X0239565Y0077435D02*
X0216435Y0077435D01*
X0218033Y0079033D02*
X0237967Y0079033D01*
X0236368Y0080632D02*
X0219632Y0080632D01*
X0216829Y0083829D02*
X0198000Y0083829D01*
X0198000Y0084000D02*
X0127000Y0084000D01*
X0112000Y0069000D01*
X0112000Y0043000D01*
X0106000Y0043000D01*
X0106000Y0084000D01*
X0036000Y0084000D01*
X0022000Y0070000D01*
X0022000Y0043000D01*
X0016000Y0043000D01*
X0016000Y0088000D01*
X0027000Y0099000D01*
X0279000Y0099000D01*
X0279000Y0084000D01*
X0217000Y0084000D01*
X0203000Y0070000D01*
X0203000Y0043000D01*
X0198000Y0043000D01*
X0198000Y0084000D01*
X0198000Y0082230D02*
X0215230Y0082230D01*
X0213632Y0080632D02*
X0198000Y0080632D01*
X0198000Y0079033D02*
X0212033Y0079033D01*
X0210435Y0077435D02*
X0198000Y0077435D01*
X0198000Y0075836D02*
X0208836Y0075836D01*
X0207238Y0074238D02*
X0198000Y0074238D01*
X0198000Y0072639D02*
X0205639Y0072639D01*
X0204041Y0071041D02*
X0198000Y0071041D01*
X0198000Y0069442D02*
X0203000Y0069442D01*
X0203000Y0067844D02*
X0198000Y0067844D01*
X0198000Y0066245D02*
X0203000Y0066245D01*
X0203000Y0064647D02*
X0198000Y0064647D01*
X0198000Y0063048D02*
X0203000Y0063048D01*
X0203000Y0061450D02*
X0198000Y0061450D01*
X0198000Y0059851D02*
X0203000Y0059851D01*
X0203000Y0058253D02*
X0198000Y0058253D01*
X0198000Y0056654D02*
X0203000Y0056654D01*
X0203000Y0055056D02*
X0198000Y0055056D01*
X0198000Y0053457D02*
X0203000Y0053457D01*
X0203000Y0051859D02*
X0198000Y0051859D01*
X0198000Y0050260D02*
X0203000Y0050260D01*
X0203000Y0048662D02*
X0198000Y0048662D01*
X0198000Y0047063D02*
X0203000Y0047063D01*
X0203000Y0045465D02*
X0198000Y0045465D01*
X0198000Y0043866D02*
X0203000Y0043866D01*
X0207000Y0045465D02*
X0215400Y0045465D01*
X0215400Y0047063D02*
X0207000Y0047063D01*
X0207000Y0048662D02*
X0215400Y0048662D01*
X0215400Y0050260D02*
X0207000Y0050260D01*
X0207000Y0051859D02*
X0215400Y0051859D01*
X0215625Y0053457D02*
X0207000Y0053457D01*
X0168000Y0053457D02*
X0160000Y0053457D01*
X0160000Y0051859D02*
X0168000Y0051859D01*
X0168000Y0050260D02*
X0160000Y0050260D01*
X0160000Y0048662D02*
X0168000Y0048662D01*
X0168000Y0047063D02*
X0160000Y0047063D01*
X0160000Y0045465D02*
X0168000Y0045465D01*
X0168000Y0043866D02*
X0160000Y0043866D01*
X0160000Y0042268D02*
X0168000Y0042268D01*
X0168000Y0040669D02*
X0160000Y0040669D01*
X0160000Y0039070D02*
X0168000Y0039070D01*
X0157000Y0043000D02*
X0157000Y0069000D01*
X0145000Y0081000D01*
X0129000Y0081000D01*
X0116000Y0068000D01*
X0116000Y0043000D01*
X0124849Y0043000D01*
X0124400Y0044085D01*
X0124400Y0051915D01*
X0125100Y0053606D01*
X0126394Y0054900D01*
X0128085Y0055600D01*
X0129915Y0055600D01*
X0131606Y0054900D01*
X0132900Y0053606D01*
X0133600Y0051915D01*
X0133600Y0044085D01*
X0133151Y0043000D01*
X0157000Y0043000D01*
X0157000Y0043866D02*
X0133509Y0043866D01*
X0133600Y0045465D02*
X0157000Y0045465D01*
X0157000Y0047063D02*
X0133600Y0047063D01*
X0133600Y0048662D02*
X0157000Y0048662D01*
X0157000Y0050260D02*
X0133600Y0050260D01*
X0133600Y0051859D02*
X0157000Y0051859D01*
X0157000Y0053457D02*
X0132961Y0053457D01*
X0131229Y0055056D02*
X0157000Y0055056D01*
X0157000Y0056654D02*
X0116000Y0056654D01*
X0116000Y0055056D02*
X0126771Y0055056D01*
X0125039Y0053457D02*
X0116000Y0053457D01*
X0116000Y0051859D02*
X0124400Y0051859D01*
X0124400Y0050260D02*
X0116000Y0050260D01*
X0116000Y0048662D02*
X0124400Y0048662D01*
X0124400Y0047063D02*
X0116000Y0047063D01*
X0116000Y0045465D02*
X0124400Y0045465D01*
X0124491Y0043866D02*
X0116000Y0043866D01*
X0112000Y0043866D02*
X0106000Y0043866D01*
X0106000Y0045465D02*
X0112000Y0045465D01*
X0112000Y0047063D02*
X0106000Y0047063D01*
X0106000Y0048662D02*
X0112000Y0048662D01*
X0112000Y0050260D02*
X0106000Y0050260D01*
X0106000Y0051859D02*
X0112000Y0051859D01*
X0112000Y0053457D02*
X0106000Y0053457D01*
X0106000Y0055056D02*
X0112000Y0055056D01*
X0112000Y0056654D02*
X0106000Y0056654D01*
X0106000Y0058253D02*
X0112000Y0058253D01*
X0112000Y0059851D02*
X0106000Y0059851D01*
X0106000Y0061450D02*
X0112000Y0061450D01*
X0112000Y0063048D02*
X0106000Y0063048D01*
X0106000Y0064647D02*
X0112000Y0064647D01*
X0112000Y0066245D02*
X0106000Y0066245D01*
X0106000Y0067844D02*
X0112000Y0067844D01*
X0112442Y0069442D02*
X0106000Y0069442D01*
X0106000Y0071041D02*
X0114041Y0071041D01*
X0115639Y0072639D02*
X0106000Y0072639D01*
X0106000Y0074238D02*
X0117238Y0074238D01*
X0118836Y0075836D02*
X0106000Y0075836D01*
X0106000Y0077435D02*
X0120435Y0077435D01*
X0122033Y0079033D02*
X0106000Y0079033D01*
X0106000Y0080632D02*
X0123632Y0080632D01*
X0125230Y0082230D02*
X0106000Y0082230D01*
X0106000Y0083829D02*
X0126829Y0083829D01*
X0128632Y0080632D02*
X0145368Y0080632D01*
X0146967Y0079033D02*
X0127033Y0079033D01*
X0125435Y0077435D02*
X0148565Y0077435D01*
X0150164Y0075836D02*
X0123836Y0075836D01*
X0122238Y0074238D02*
X0151762Y0074238D01*
X0153361Y0072639D02*
X0120639Y0072639D01*
X0119041Y0071041D02*
X0154959Y0071041D01*
X0156558Y0069442D02*
X0117442Y0069442D01*
X0116000Y0067844D02*
X0157000Y0067844D01*
X0157000Y0066245D02*
X0116000Y0066245D01*
X0116000Y0064647D02*
X0157000Y0064647D01*
X0157000Y0063048D02*
X0116000Y0063048D01*
X0116000Y0061450D02*
X0157000Y0061450D01*
X0157000Y0059851D02*
X0116000Y0059851D01*
X0116000Y0058253D02*
X0157000Y0058253D01*
X0158923Y0018290D02*
X0181077Y0018290D01*
X0179900Y0016691D02*
X0160100Y0016691D01*
X0160100Y0015093D02*
X0179900Y0015093D01*
X0179900Y0013494D02*
X0160100Y0013494D01*
X0159108Y0011896D02*
X0180892Y0011896D01*
X0182490Y0010297D02*
X0157510Y0010297D01*
X0152490Y0010297D02*
X0147510Y0010297D01*
X0149108Y0011896D02*
X0150892Y0011896D01*
X0142490Y0010297D02*
X0137510Y0010297D01*
X0139108Y0011896D02*
X0140892Y0011896D01*
X0078000Y0039070D02*
X0070000Y0039070D01*
X0070000Y0037472D02*
X0364000Y0037472D01*
X0364000Y0035873D02*
X0070000Y0035873D01*
X0070000Y0034275D02*
X0364000Y0034275D01*
X0364000Y0032676D02*
X0070000Y0032676D01*
X0070000Y0031078D02*
X0364000Y0031078D01*
X0364000Y0029479D02*
X0070000Y0029479D01*
X0070000Y0027881D02*
X0364000Y0027881D01*
X0364000Y0026282D02*
X0070000Y0026282D01*
X0070000Y0024684D02*
X0364000Y0024684D01*
X0364000Y0023085D02*
X0070000Y0023085D01*
X0070000Y0040669D02*
X0078000Y0040669D01*
X0078000Y0042268D02*
X0070000Y0042268D01*
X0070000Y0043866D02*
X0078000Y0043866D01*
X0078000Y0045465D02*
X0070000Y0045465D01*
X0070000Y0047063D02*
X0078000Y0047063D01*
X0078000Y0048662D02*
X0070000Y0048662D01*
X0070000Y0050260D02*
X0078000Y0050260D01*
X0078000Y0051859D02*
X0070000Y0051859D01*
X0070000Y0053457D02*
X0078000Y0053457D01*
X0067000Y0053457D02*
X0042961Y0053457D01*
X0042900Y0053606D02*
X0041606Y0054900D01*
X0039915Y0055600D01*
X0038085Y0055600D01*
X0036394Y0054900D01*
X0035100Y0053606D01*
X0034400Y0051915D01*
X0034400Y0044085D01*
X0034849Y0043000D01*
X0026000Y0043000D01*
X0026000Y0069000D01*
X0040000Y0081000D01*
X0055000Y0081000D01*
X0067000Y0069000D01*
X0067000Y0043000D01*
X0043151Y0043000D01*
X0043600Y0044085D01*
X0043600Y0051915D01*
X0042900Y0053606D01*
X0043600Y0051859D02*
X0067000Y0051859D01*
X0067000Y0050260D02*
X0043600Y0050260D01*
X0043600Y0048662D02*
X0067000Y0048662D01*
X0067000Y0047063D02*
X0043600Y0047063D01*
X0043600Y0045465D02*
X0067000Y0045465D01*
X0067000Y0043866D02*
X0043509Y0043866D01*
X0034491Y0043866D02*
X0026000Y0043866D01*
X0026000Y0045465D02*
X0034400Y0045465D01*
X0034400Y0047063D02*
X0026000Y0047063D01*
X0026000Y0048662D02*
X0034400Y0048662D01*
X0034400Y0050260D02*
X0026000Y0050260D01*
X0026000Y0051859D02*
X0034400Y0051859D01*
X0035039Y0053457D02*
X0026000Y0053457D01*
X0026000Y0055056D02*
X0036771Y0055056D01*
X0041229Y0055056D02*
X0067000Y0055056D01*
X0067000Y0056654D02*
X0026000Y0056654D01*
X0026000Y0058253D02*
X0067000Y0058253D01*
X0067000Y0059851D02*
X0026000Y0059851D01*
X0026000Y0061450D02*
X0067000Y0061450D01*
X0067000Y0063048D02*
X0026000Y0063048D01*
X0026000Y0064647D02*
X0067000Y0064647D01*
X0067000Y0066245D02*
X0026000Y0066245D01*
X0026000Y0067844D02*
X0067000Y0067844D01*
X0066558Y0069442D02*
X0026516Y0069442D01*
X0028381Y0071041D02*
X0064959Y0071041D01*
X0063361Y0072639D02*
X0030246Y0072639D01*
X0032111Y0074238D02*
X0061762Y0074238D01*
X0060164Y0075836D02*
X0033976Y0075836D01*
X0035841Y0077435D02*
X0058565Y0077435D01*
X0056967Y0079033D02*
X0037705Y0079033D01*
X0039570Y0080632D02*
X0055368Y0080632D01*
X0035829Y0083829D02*
X0016000Y0083829D01*
X0016000Y0085427D02*
X0279000Y0085427D01*
X0279000Y0087026D02*
X0016000Y0087026D01*
X0016624Y0088624D02*
X0279000Y0088624D01*
X0279000Y0090223D02*
X0018223Y0090223D01*
X0019821Y0091821D02*
X0279000Y0091821D01*
X0279000Y0093420D02*
X0021420Y0093420D01*
X0023018Y0095018D02*
X0279000Y0095018D01*
X0279000Y0096617D02*
X0024617Y0096617D01*
X0026215Y0098215D02*
X0279000Y0098215D01*
X0280000Y0099000D02*
X0280000Y0096346D01*
X0275843Y0092189D01*
X0276000Y0092346D01*
X0281600Y0091821D02*
X0385200Y0091821D01*
X0385200Y0090223D02*
X0281600Y0090223D01*
X0281600Y0088624D02*
X0385200Y0088624D01*
X0385200Y0087026D02*
X0281600Y0087026D01*
X0281600Y0085427D02*
X0385200Y0085427D01*
X0385200Y0083829D02*
X0281600Y0083829D01*
X0280907Y0082230D02*
X0385200Y0082230D01*
X0385200Y0080632D02*
X0240045Y0080632D01*
X0241644Y0079033D02*
X0385200Y0079033D01*
X0385200Y0077435D02*
X0243242Y0077435D01*
X0244841Y0075836D02*
X0385200Y0075836D01*
X0385200Y0074238D02*
X0246439Y0074238D01*
X0248038Y0072639D02*
X0385200Y0072639D01*
X0385200Y0071041D02*
X0249636Y0071041D01*
X0250600Y0069442D02*
X0385200Y0069442D01*
X0385200Y0067844D02*
X0250600Y0067844D01*
X0250600Y0066245D02*
X0385200Y0066245D01*
X0385200Y0064647D02*
X0250600Y0064647D01*
X0250600Y0063048D02*
X0385200Y0063048D01*
X0385200Y0061450D02*
X0250600Y0061450D01*
X0250600Y0059851D02*
X0385200Y0059851D01*
X0385200Y0058253D02*
X0250600Y0058253D01*
X0281600Y0093420D02*
X0385200Y0093420D01*
X0385200Y0095018D02*
X0282264Y0095018D01*
X0282600Y0096617D02*
X0385200Y0096617D01*
X0385200Y0098215D02*
X0282600Y0098215D01*
X0282477Y0099814D02*
X0385200Y0099814D01*
X0385200Y0101412D02*
X0282332Y0101412D01*
X0282332Y0103011D02*
X0385200Y0103011D01*
X0385200Y0104609D02*
X0295879Y0104609D01*
X0295879Y0104225D02*
X0295879Y0112814D01*
X0294824Y0113869D01*
X0293301Y0113869D01*
X0293301Y0122728D01*
X0294596Y0122728D01*
X0295650Y0123782D01*
X0295650Y0132360D01*
X0294596Y0133414D01*
X0286806Y0133414D01*
X0285751Y0132360D01*
X0285751Y0123782D01*
X0286806Y0122728D01*
X0288101Y0122728D01*
X0288101Y0113869D01*
X0287034Y0113869D01*
X0285980Y0112814D01*
X0285980Y0104225D01*
X0287034Y0103170D01*
X0294824Y0103170D01*
X0295879Y0104225D01*
X0295879Y0106208D02*
X0385200Y0106208D01*
X0385200Y0107806D02*
X0295879Y0107806D01*
X0295879Y0109405D02*
X0385200Y0109405D01*
X0385200Y0111003D02*
X0295879Y0111003D01*
X0295879Y0112602D02*
X0385200Y0112602D01*
X0385200Y0114201D02*
X0293301Y0114201D01*
X0293301Y0115799D02*
X0385200Y0115799D01*
X0385200Y0117398D02*
X0293301Y0117398D01*
X0293301Y0118996D02*
X0385200Y0118996D01*
X0385200Y0120595D02*
X0293301Y0120595D01*
X0293301Y0122193D02*
X0385200Y0122193D01*
X0385200Y0123792D02*
X0295650Y0123792D01*
X0295650Y0125390D02*
X0385200Y0125390D01*
X0385200Y0126989D02*
X0295650Y0126989D01*
X0295650Y0128587D02*
X0385200Y0128587D01*
X0385200Y0130186D02*
X0295650Y0130186D01*
X0295650Y0131784D02*
X0385200Y0131784D01*
X0385200Y0133383D02*
X0294627Y0133383D01*
X0290701Y0128071D02*
X0290701Y0108748D01*
X0290929Y0108520D01*
X0285980Y0107806D02*
X0284682Y0107806D01*
X0284682Y0106208D02*
X0285980Y0106208D01*
X0285980Y0104609D02*
X0284682Y0104609D01*
X0279732Y0105732D02*
X0279732Y0108520D01*
X0279732Y0099268D01*
X0280000Y0099000D01*
X0277132Y0103011D02*
X0240688Y0103011D01*
X0242286Y0104609D02*
X0274783Y0104609D01*
X0274783Y0106208D02*
X0243885Y0106208D01*
X0245483Y0107806D02*
X0274783Y0107806D01*
X0274783Y0109405D02*
X0247082Y0109405D01*
X0248680Y0111003D02*
X0274783Y0111003D01*
X0274783Y0112602D02*
X0250279Y0112602D01*
X0251483Y0114201D02*
X0288101Y0114201D01*
X0288101Y0115799D02*
X0251600Y0115799D01*
X0251600Y0117398D02*
X0288101Y0117398D01*
X0288101Y0118996D02*
X0251600Y0118996D01*
X0251600Y0120595D02*
X0288101Y0120595D01*
X0288101Y0122193D02*
X0251600Y0122193D01*
X0251600Y0123792D02*
X0285751Y0123792D01*
X0285751Y0125390D02*
X0251600Y0125390D01*
X0251600Y0126989D02*
X0285751Y0126989D01*
X0285751Y0128587D02*
X0251600Y0128587D01*
X0251600Y0130186D02*
X0285751Y0130186D01*
X0285751Y0131784D02*
X0251600Y0131784D01*
X0251600Y0133383D02*
X0286774Y0133383D01*
X0251600Y0134981D02*
X0385200Y0134981D01*
X0385200Y0136580D02*
X0251600Y0136580D01*
X0251600Y0138178D02*
X0385200Y0138178D01*
X0385200Y0139777D02*
X0251600Y0139777D01*
X0251600Y0141375D02*
X0385200Y0141375D01*
X0385200Y0142974D02*
X0251600Y0142974D01*
X0251600Y0144572D02*
X0385200Y0144572D01*
X0385200Y0146171D02*
X0251600Y0146171D01*
X0251600Y0147769D02*
X0385200Y0147769D01*
X0385200Y0149368D02*
X0251600Y0149368D01*
X0251600Y0150966D02*
X0385200Y0150966D01*
X0385200Y0152565D02*
X0251600Y0152565D01*
X0251600Y0154163D02*
X0384128Y0154163D01*
X0382352Y0155762D02*
X0251600Y0155762D01*
X0252506Y0157360D02*
X0380576Y0157360D01*
X0378799Y0158959D02*
X0252867Y0158959D01*
X0252540Y0160557D02*
X0377023Y0160557D01*
X0375247Y0162156D02*
X0251313Y0162156D01*
X0249000Y0159000D02*
X0249000Y0115000D01*
X0237000Y0103000D01*
X0187000Y0103000D01*
X0183133Y0103011D02*
X0006800Y0103011D01*
X0006800Y0104609D02*
X0183481Y0104609D01*
X0184739Y0106208D02*
X0006800Y0106208D01*
X0006800Y0107806D02*
X0238130Y0107806D01*
X0236531Y0106208D02*
X0189261Y0106208D01*
X0219208Y0120595D02*
X0006800Y0120595D01*
X0006800Y0122193D02*
X0217354Y0122193D01*
X0215500Y0123792D02*
X0006800Y0123792D01*
X0006800Y0125390D02*
X0213645Y0125390D01*
X0211791Y0126989D02*
X0006800Y0126989D01*
X0006800Y0128587D02*
X0209937Y0128587D01*
X0208083Y0130186D02*
X0006800Y0130186D01*
X0006800Y0131784D02*
X0206228Y0131784D01*
X0204374Y0133383D02*
X0006800Y0133383D01*
X0006800Y0134981D02*
X0184550Y0134981D01*
X0183403Y0136580D02*
X0006800Y0136580D01*
X0006800Y0138178D02*
X0183133Y0138178D01*
X0183550Y0139777D02*
X0006800Y0139777D01*
X0006800Y0141375D02*
X0185044Y0141375D01*
X0188956Y0141375D02*
X0246400Y0141375D01*
X0246400Y0139777D02*
X0204921Y0139777D01*
X0206775Y0138178D02*
X0246400Y0138178D01*
X0246400Y0136580D02*
X0208630Y0136580D01*
X0210484Y0134981D02*
X0246400Y0134981D01*
X0246400Y0133383D02*
X0212338Y0133383D01*
X0214192Y0131784D02*
X0246400Y0131784D01*
X0246400Y0130186D02*
X0216047Y0130186D01*
X0217901Y0128587D02*
X0246400Y0128587D01*
X0246400Y0126989D02*
X0219755Y0126989D01*
X0221609Y0125390D02*
X0246400Y0125390D01*
X0246400Y0123792D02*
X0223464Y0123792D01*
X0225318Y0122193D02*
X0246400Y0122193D01*
X0246400Y0120595D02*
X0227172Y0120595D01*
X0229027Y0118996D02*
X0246400Y0118996D01*
X0246400Y0117398D02*
X0230881Y0117398D01*
X0234670Y0115799D02*
X0246122Y0115799D01*
X0244524Y0114201D02*
X0235688Y0114201D01*
X0235867Y0112602D02*
X0242925Y0112602D01*
X0241327Y0111003D02*
X0235359Y0111003D01*
X0233426Y0109405D02*
X0239728Y0109405D01*
X0232000Y0113000D02*
X0203000Y0138000D01*
X0187000Y0138000D01*
X0189450Y0134981D02*
X0202520Y0134981D01*
X0246400Y0142974D02*
X0006800Y0142974D01*
X0006800Y0144572D02*
X0246400Y0144572D01*
X0246400Y0146171D02*
X0006800Y0146171D01*
X0006800Y0147769D02*
X0246400Y0147769D01*
X0246400Y0149368D02*
X0006800Y0149368D01*
X0006800Y0150966D02*
X0246400Y0150966D01*
X0246400Y0152565D02*
X0006800Y0152565D01*
X0006800Y0154163D02*
X0246400Y0154163D01*
X0246400Y0155762D02*
X0006800Y0155762D01*
X0006800Y0157360D02*
X0245494Y0157360D01*
X0245133Y0158959D02*
X0006800Y0158959D01*
X0006800Y0160557D02*
X0245460Y0160557D01*
X0246687Y0162156D02*
X0006800Y0162156D01*
X0006800Y0163754D02*
X0375200Y0163754D01*
X0375200Y0165353D02*
X0006800Y0165353D01*
X0006800Y0166951D02*
X0375200Y0166951D01*
X0375200Y0168550D02*
X0006800Y0168550D01*
X0006800Y0170148D02*
X0375200Y0170148D01*
X0375200Y0171747D02*
X0006800Y0171747D01*
X0006800Y0173345D02*
X0375200Y0173345D01*
X0375200Y0174944D02*
X0006800Y0174944D01*
X0006800Y0176542D02*
X0375200Y0176542D01*
X0375200Y0178141D02*
X0006800Y0178141D01*
X0006800Y0179739D02*
X0375200Y0179739D01*
X0375200Y0181338D02*
X0006800Y0181338D01*
X0006800Y0182937D02*
X0375200Y0182937D01*
X0375200Y0184535D02*
X0006800Y0184535D01*
X0006800Y0186134D02*
X0182398Y0186134D01*
X0182222Y0186310D02*
X0183310Y0185222D01*
X0184731Y0184633D01*
X0186269Y0184633D01*
X0187690Y0185222D01*
X0188778Y0186310D01*
X0189367Y0187731D01*
X0189367Y0188690D01*
X0195077Y0194400D01*
X0206517Y0194400D01*
X0207473Y0194796D01*
X0208204Y0195527D01*
X0208600Y0196483D01*
X0208600Y0201388D01*
X0210000Y0202788D01*
X0212888Y0199900D01*
X0217112Y0199900D01*
X0220000Y0202788D01*
X0222888Y0199900D01*
X0227112Y0199900D01*
X0230000Y0202788D01*
X0232888Y0199900D01*
X0237112Y0199900D01*
X0240000Y0202788D01*
X0242888Y0199900D01*
X0247112Y0199900D01*
X0250000Y0202788D01*
X0252888Y0199900D01*
X0257112Y0199900D01*
X0259974Y0202762D01*
X0260337Y0201884D01*
X0261884Y0200337D01*
X0263906Y0199500D01*
X0266094Y0199500D01*
X0268115Y0200337D01*
X0269663Y0201884D01*
X0270500Y0203906D01*
X0270500Y0206094D01*
X0269663Y0208115D01*
X0268115Y0209663D01*
X0266094Y0210500D01*
X0263906Y0210500D01*
X0261884Y0209663D01*
X0260337Y0208115D01*
X0259974Y0207238D01*
X0257112Y0210100D01*
X0252888Y0210100D01*
X0250000Y0207212D01*
X0247112Y0210100D01*
X0242888Y0210100D01*
X0240000Y0207212D01*
X0237112Y0210100D01*
X0232888Y0210100D01*
X0230000Y0207212D01*
X0227112Y0210100D01*
X0222888Y0210100D01*
X0220000Y0207212D01*
X0217112Y0210100D01*
X0212888Y0210100D01*
X0210000Y0207212D01*
X0207112Y0210100D01*
X0202888Y0210100D01*
X0200000Y0207212D01*
X0197112Y0210100D01*
X0192888Y0210100D01*
X0190000Y0207212D01*
X0187112Y0210100D01*
X0182888Y0210100D01*
X0179900Y0207112D01*
X0179900Y0205577D01*
X0174923Y0200600D01*
X0171812Y0200600D01*
X0174100Y0202888D01*
X0174100Y0207112D01*
X0171112Y0210100D01*
X0166888Y0210100D01*
X0164000Y0207212D01*
X0161112Y0210100D01*
X0156888Y0210100D01*
X0154000Y0207212D01*
X0151112Y0210100D01*
X0146888Y0210100D01*
X0144000Y0207212D01*
X0141112Y0210100D01*
X0136888Y0210100D01*
X0134000Y0207212D01*
X0131112Y0210100D01*
X0126888Y0210100D01*
X0124000Y0207212D01*
X0121112Y0210100D01*
X0116888Y0210100D01*
X0113900Y0207112D01*
X0113900Y0202888D01*
X0116188Y0200600D01*
X0101812Y0200600D01*
X0104100Y0202888D01*
X0104100Y0207112D01*
X0101112Y0210100D01*
X0096888Y0210100D01*
X0094000Y0207212D01*
X0091112Y0210100D01*
X0086888Y0210100D01*
X0084000Y0207212D01*
X0081112Y0210100D01*
X0076888Y0210100D01*
X0073900Y0207112D01*
X0073900Y0202888D01*
X0075921Y0200867D01*
X0075231Y0200867D01*
X0073810Y0200278D01*
X0072722Y0199190D01*
X0072133Y0197769D01*
X0072133Y0196231D01*
X0072722Y0194810D01*
X0073810Y0193722D01*
X0075231Y0193133D01*
X0076769Y0193133D01*
X0078190Y0193722D01*
X0079278Y0194810D01*
X0079523Y0195400D01*
X0129931Y0195400D01*
X0129722Y0195190D01*
X0129133Y0193769D01*
X0129133Y0192231D01*
X0129722Y0190810D01*
X0130810Y0189722D01*
X0132231Y0189133D01*
X0133769Y0189133D01*
X0135190Y0189722D01*
X0135869Y0190400D01*
X0182101Y0190400D01*
X0181633Y0189269D01*
X0181633Y0187731D01*
X0182222Y0186310D01*
X0181633Y0187732D02*
X0006800Y0187732D01*
X0006800Y0189331D02*
X0131754Y0189331D01*
X0134246Y0189331D02*
X0181659Y0189331D01*
X0185500Y0188500D02*
X0194000Y0197000D01*
X0206000Y0197000D01*
X0206000Y0204000D01*
X0205000Y0205000D01*
X0209331Y0202119D02*
X0210669Y0202119D01*
X0212267Y0200520D02*
X0208600Y0200520D01*
X0208600Y0198922D02*
X0375200Y0198922D01*
X0375200Y0200520D02*
X0268298Y0200520D01*
X0269760Y0202119D02*
X0375200Y0202119D01*
X0375200Y0203717D02*
X0270422Y0203717D01*
X0270500Y0205316D02*
X0375200Y0205316D01*
X0375200Y0206914D02*
X0270160Y0206914D01*
X0269265Y0208513D02*
X0374803Y0208513D01*
X0372938Y0210111D02*
X0267033Y0210111D01*
X0262967Y0210111D02*
X0006800Y0210111D01*
X0006800Y0208513D02*
X0075300Y0208513D01*
X0073900Y0206914D02*
X0006800Y0206914D01*
X0006800Y0205316D02*
X0073900Y0205316D01*
X0073900Y0203717D02*
X0006800Y0203717D01*
X0006800Y0202119D02*
X0074669Y0202119D01*
X0074394Y0200520D02*
X0006800Y0200520D01*
X0006800Y0198922D02*
X0072610Y0198922D01*
X0072133Y0197323D02*
X0006800Y0197323D01*
X0006800Y0195725D02*
X0072343Y0195725D01*
X0073405Y0194126D02*
X0006800Y0194126D01*
X0006800Y0192528D02*
X0129133Y0192528D01*
X0129281Y0194126D02*
X0078595Y0194126D01*
X0076000Y0197000D02*
X0077000Y0198000D01*
X0176000Y0198000D01*
X0183000Y0205000D01*
X0185000Y0205000D01*
X0179639Y0205316D02*
X0174100Y0205316D01*
X0174100Y0206914D02*
X0179900Y0206914D01*
X0181300Y0208513D02*
X0172700Y0208513D01*
X0165300Y0208513D02*
X0162700Y0208513D01*
X0155300Y0208513D02*
X0152700Y0208513D01*
X0145300Y0208513D02*
X0142700Y0208513D01*
X0135300Y0208513D02*
X0132700Y0208513D01*
X0125300Y0208513D02*
X0122700Y0208513D01*
X0115300Y0208513D02*
X0102700Y0208513D01*
X0104100Y0206914D02*
X0113900Y0206914D01*
X0113900Y0205316D02*
X0104100Y0205316D01*
X0104100Y0203717D02*
X0113900Y0203717D01*
X0114669Y0202119D02*
X0103331Y0202119D01*
X0095300Y0208513D02*
X0092700Y0208513D01*
X0085300Y0208513D02*
X0082700Y0208513D01*
X0129672Y0190929D02*
X0006800Y0190929D01*
X0006800Y0211710D02*
X0371073Y0211710D01*
X0375200Y0197323D02*
X0208600Y0197323D01*
X0208286Y0195725D02*
X0375200Y0195725D01*
X0375200Y0194126D02*
X0194803Y0194126D01*
X0193205Y0192528D02*
X0375200Y0192528D01*
X0375200Y0190929D02*
X0191606Y0190929D01*
X0190007Y0189331D02*
X0375200Y0189331D01*
X0375200Y0187732D02*
X0189367Y0187732D01*
X0188602Y0186134D02*
X0375200Y0186134D01*
X0261702Y0200520D02*
X0257733Y0200520D01*
X0259331Y0202119D02*
X0260240Y0202119D01*
X0252267Y0200520D02*
X0247733Y0200520D01*
X0249331Y0202119D02*
X0250669Y0202119D01*
X0242267Y0200520D02*
X0237733Y0200520D01*
X0239331Y0202119D02*
X0240669Y0202119D01*
X0232267Y0200520D02*
X0227733Y0200520D01*
X0229331Y0202119D02*
X0230669Y0202119D01*
X0222267Y0200520D02*
X0217733Y0200520D01*
X0219331Y0202119D02*
X0220669Y0202119D01*
X0221300Y0208513D02*
X0218700Y0208513D01*
X0211300Y0208513D02*
X0208700Y0208513D01*
X0201300Y0208513D02*
X0198700Y0208513D01*
X0191300Y0208513D02*
X0188700Y0208513D01*
X0195000Y0205000D02*
X0183000Y0193000D01*
X0133000Y0193000D01*
X0173331Y0202119D02*
X0176442Y0202119D01*
X0178040Y0203717D02*
X0174100Y0203717D01*
X0228700Y0208513D02*
X0231300Y0208513D01*
X0238700Y0208513D02*
X0241300Y0208513D01*
X0248700Y0208513D02*
X0251300Y0208513D01*
X0258700Y0208513D02*
X0260735Y0208513D01*
X0284682Y0112602D02*
X0285980Y0112602D01*
X0285980Y0111003D02*
X0284682Y0111003D01*
X0284682Y0109405D02*
X0285980Y0109405D01*
X0230574Y0109405D02*
X0006800Y0109405D01*
X0016000Y0082230D02*
X0034230Y0082230D01*
X0032632Y0080632D02*
X0016000Y0080632D01*
X0016000Y0079033D02*
X0031033Y0079033D01*
X0029435Y0077435D02*
X0016000Y0077435D01*
X0016000Y0075836D02*
X0027836Y0075836D01*
X0026238Y0074238D02*
X0016000Y0074238D01*
X0016000Y0072639D02*
X0024639Y0072639D01*
X0023041Y0071041D02*
X0016000Y0071041D01*
X0016000Y0069442D02*
X0022000Y0069442D01*
X0022000Y0067844D02*
X0016000Y0067844D01*
X0016000Y0066245D02*
X0022000Y0066245D01*
X0022000Y0064647D02*
X0016000Y0064647D01*
X0016000Y0063048D02*
X0022000Y0063048D01*
X0022000Y0061450D02*
X0016000Y0061450D01*
X0016000Y0059851D02*
X0022000Y0059851D01*
X0022000Y0058253D02*
X0016000Y0058253D01*
X0016000Y0056654D02*
X0022000Y0056654D01*
X0022000Y0055056D02*
X0016000Y0055056D01*
X0016000Y0053457D02*
X0022000Y0053457D01*
X0022000Y0051859D02*
X0016000Y0051859D01*
X0016000Y0050260D02*
X0022000Y0050260D01*
X0022000Y0048662D02*
X0016000Y0048662D01*
X0016000Y0047063D02*
X0022000Y0047063D01*
X0022000Y0045465D02*
X0016000Y0045465D01*
X0016000Y0043866D02*
X0022000Y0043866D01*
X0023167Y0040669D02*
X0024833Y0040669D01*
X0366008Y0040669D02*
X0385200Y0040669D01*
X0385200Y0039070D02*
X0366600Y0039070D01*
X0366600Y0037472D02*
X0385200Y0037472D01*
X0385200Y0035873D02*
X0366600Y0035873D01*
X0366600Y0034275D02*
X0385200Y0034275D01*
X0385200Y0032676D02*
X0366600Y0032676D01*
X0366600Y0031078D02*
X0385200Y0031078D01*
X0385200Y0029479D02*
X0366600Y0029479D01*
X0366600Y0027881D02*
X0385200Y0027881D01*
X0385200Y0026282D02*
X0366600Y0026282D01*
X0366600Y0024684D02*
X0384138Y0024684D01*
X0382540Y0023085D02*
X0366600Y0023085D01*
M02*
