G75*
%MOIN*%
%OFA0B0*%
%FSLAX24Y24*%
%IPPOS*%
%LPD*%
%AMOC8*
5,1,8,0,0,1.08239X$1,22.5*
%
%ADD10C,0.0000*%
%ADD11C,0.0600*%
%ADD12C,0.0787*%
%ADD13OC8,0.0660*%
%ADD14C,0.0400*%
%ADD15C,0.0413*%
%ADD16C,0.0160*%
D10*
X000500Y000500D02*
X000500Y021500D01*
X030392Y021470D01*
X034400Y021500D01*
X035000Y020900D01*
X035000Y016400D01*
X036000Y015400D01*
X036000Y002500D01*
X035000Y001500D01*
X035000Y000500D01*
X000500Y000500D01*
D11*
X015511Y004854D02*
X016111Y004854D01*
X016111Y005854D02*
X015511Y005854D01*
X015511Y006854D02*
X016111Y006854D01*
X018810Y006854D02*
X019410Y006854D01*
X019410Y005854D02*
X018810Y005854D01*
X018810Y004854D02*
X019410Y004854D01*
X019530Y010575D02*
X018930Y010575D01*
X018930Y011575D02*
X019530Y011575D01*
X019530Y012575D02*
X018930Y012575D01*
X016211Y012579D02*
X015611Y012579D01*
X015611Y011579D02*
X016211Y011579D01*
X016211Y010579D02*
X015611Y010579D01*
X015603Y016236D02*
X016203Y016236D01*
X016203Y017236D02*
X015603Y017236D01*
X015603Y018236D02*
X016203Y018236D01*
X018902Y018228D02*
X019502Y018228D01*
X019502Y017228D02*
X018902Y017228D01*
X018902Y016228D02*
X019502Y016228D01*
D12*
X032364Y016890D03*
X032364Y018890D03*
X032364Y009823D03*
X032364Y007823D03*
X032364Y005823D03*
D13*
X025500Y001500D03*
X024500Y001500D03*
X023500Y001500D03*
X022500Y001500D03*
X021500Y001500D03*
X020500Y001500D03*
X018500Y001500D03*
X017500Y001500D03*
X016500Y001500D03*
X015500Y001500D03*
X014500Y001500D03*
X013500Y001500D03*
X013900Y020500D03*
X012900Y020500D03*
X011900Y020500D03*
X010900Y020500D03*
X009900Y020500D03*
X008900Y020500D03*
X007900Y020500D03*
X014900Y020500D03*
X015900Y020500D03*
X016900Y020500D03*
X018500Y020500D03*
X019500Y020500D03*
X020500Y020500D03*
X021500Y020500D03*
X022500Y020500D03*
X023500Y020500D03*
X024500Y020500D03*
X025500Y020500D03*
D14*
X023600Y018200D02*
X019202Y018200D01*
X019202Y018228D01*
X019202Y017228D02*
X017500Y017228D01*
X017500Y016200D01*
X015803Y016200D01*
X015903Y016236D01*
X019202Y017228D02*
X022200Y017228D01*
X022200Y009700D01*
X032364Y009700D01*
X032364Y009823D01*
X031700Y011600D02*
X023600Y011600D01*
X023600Y018200D01*
X020900Y011575D02*
X019230Y011575D01*
X019230Y011600D01*
X017600Y011600D01*
X017600Y010600D01*
X017500Y010600D01*
X017500Y010579D01*
X015911Y010579D01*
X020900Y011575D02*
X020900Y007800D01*
X032364Y007800D01*
X032364Y007823D01*
X032364Y005854D02*
X032364Y005823D01*
X032364Y005854D02*
X019110Y005854D01*
X017500Y005854D01*
X017500Y004800D01*
X015811Y004800D01*
X015811Y004854D01*
D15*
X015000Y004100D03*
X016800Y003800D03*
X011900Y008100D03*
X015300Y009700D03*
X012000Y013500D03*
X015200Y015200D03*
X005000Y016200D03*
X004800Y018600D03*
X004600Y013000D03*
X005000Y010600D03*
X004400Y007700D03*
X004900Y005100D03*
X027100Y003800D03*
X031700Y011600D03*
D16*
X031974Y011873D02*
X034400Y011873D01*
X034400Y011715D02*
X032071Y011715D01*
X032087Y011677D02*
X032028Y011819D01*
X031919Y011928D01*
X031777Y011987D01*
X031623Y011987D01*
X031607Y011980D01*
X023980Y011980D01*
X023980Y018276D01*
X023922Y018415D01*
X023815Y018522D01*
X023676Y018580D01*
X019830Y018580D01*
X019774Y018635D01*
X019598Y018708D01*
X018807Y018708D01*
X018630Y018635D01*
X018495Y018500D01*
X018422Y018324D01*
X018422Y018133D01*
X018495Y017956D01*
X018630Y017821D01*
X018807Y017748D01*
X019598Y017748D01*
X019771Y017820D01*
X023220Y017820D01*
X023220Y011524D01*
X023278Y011385D01*
X023385Y011278D01*
X023524Y011220D01*
X031607Y011220D01*
X031623Y011213D01*
X031777Y011213D01*
X031919Y011272D01*
X032028Y011381D01*
X032087Y011523D01*
X032087Y011677D01*
X032087Y011556D02*
X034400Y011556D01*
X034400Y011398D02*
X032035Y011398D01*
X031839Y011239D02*
X034400Y011239D01*
X034400Y011081D02*
X022580Y011081D01*
X022580Y011239D02*
X023478Y011239D01*
X023273Y011398D02*
X022580Y011398D01*
X022580Y011556D02*
X023220Y011556D01*
X023220Y011715D02*
X022580Y011715D01*
X022580Y011873D02*
X023220Y011873D01*
X023220Y012032D02*
X022580Y012032D01*
X022580Y012190D02*
X023220Y012190D01*
X023220Y012349D02*
X022580Y012349D01*
X022580Y012507D02*
X023220Y012507D01*
X023220Y012666D02*
X022580Y012666D01*
X022580Y012824D02*
X023220Y012824D01*
X023220Y012983D02*
X022580Y012983D01*
X022580Y013141D02*
X023220Y013141D01*
X023220Y013300D02*
X022580Y013300D01*
X022580Y013458D02*
X023220Y013458D01*
X023220Y013617D02*
X022580Y013617D01*
X022580Y013775D02*
X023220Y013775D01*
X023220Y013934D02*
X022580Y013934D01*
X022580Y014092D02*
X023220Y014092D01*
X023220Y014251D02*
X022580Y014251D01*
X022580Y014409D02*
X023220Y014409D01*
X023220Y014568D02*
X022580Y014568D01*
X022580Y014726D02*
X023220Y014726D01*
X023220Y014885D02*
X022580Y014885D01*
X022580Y015043D02*
X023220Y015043D01*
X023220Y015202D02*
X022580Y015202D01*
X022580Y015360D02*
X023220Y015360D01*
X023220Y015519D02*
X022580Y015519D01*
X022580Y015677D02*
X023220Y015677D01*
X023220Y015836D02*
X022580Y015836D01*
X022580Y015994D02*
X023220Y015994D01*
X023220Y016153D02*
X022580Y016153D01*
X022580Y016311D02*
X023220Y016311D01*
X023220Y016470D02*
X022580Y016470D01*
X022580Y016628D02*
X023220Y016628D01*
X023220Y016787D02*
X022580Y016787D01*
X022580Y016945D02*
X023220Y016945D01*
X023220Y017104D02*
X022580Y017104D01*
X022580Y017262D02*
X023220Y017262D01*
X023220Y017421D02*
X022532Y017421D01*
X022522Y017444D02*
X022415Y017550D01*
X022276Y017608D01*
X019801Y017608D01*
X019774Y017635D01*
X019598Y017708D01*
X018807Y017708D01*
X018630Y017635D01*
X018604Y017608D01*
X017424Y017608D01*
X017285Y017550D01*
X017178Y017444D01*
X017120Y017304D01*
X017120Y016580D01*
X016538Y016580D01*
X016475Y016643D01*
X016299Y016716D01*
X015508Y016716D01*
X015331Y016643D01*
X015196Y016508D01*
X015123Y016332D01*
X015123Y016141D01*
X015196Y015964D01*
X015331Y015829D01*
X015423Y015791D01*
X015219Y015587D01*
X015123Y015587D01*
X014981Y015528D01*
X014872Y015419D01*
X014813Y015277D01*
X014813Y015123D01*
X014872Y014981D01*
X014981Y014872D01*
X015123Y014813D01*
X015277Y014813D01*
X015419Y014872D01*
X015528Y014981D01*
X015587Y015123D01*
X015587Y015219D01*
X015708Y015340D01*
X018852Y015340D01*
X018947Y015380D01*
X019020Y015453D01*
X019316Y015748D01*
X019598Y015748D01*
X019774Y015821D01*
X019909Y015956D01*
X019982Y016133D01*
X019982Y016324D01*
X019909Y016500D01*
X019774Y016635D01*
X019598Y016708D01*
X018807Y016708D01*
X018630Y016635D01*
X018495Y016500D01*
X018422Y016324D01*
X018422Y016133D01*
X018495Y015956D01*
X018592Y015860D01*
X017672Y015860D01*
X017715Y015878D01*
X017822Y015985D01*
X017880Y016124D01*
X017880Y016848D01*
X018604Y016848D01*
X018630Y016821D01*
X018807Y016748D01*
X019598Y016748D01*
X019774Y016821D01*
X019801Y016848D01*
X021820Y016848D01*
X021820Y009624D01*
X021878Y009485D01*
X021985Y009378D01*
X022124Y009320D01*
X032080Y009320D01*
X032250Y009250D01*
X032478Y009250D01*
X032689Y009337D01*
X032851Y009498D01*
X032938Y009709D01*
X032938Y009937D01*
X032851Y010148D01*
X032689Y010310D01*
X032478Y010397D01*
X032250Y010397D01*
X032039Y010310D01*
X031878Y010148D01*
X031850Y010080D01*
X022580Y010080D01*
X022580Y017304D01*
X022522Y017444D01*
X022346Y017579D02*
X023220Y017579D01*
X023220Y017738D02*
X014305Y017738D01*
X014464Y017896D02*
X015265Y017896D01*
X015331Y017829D02*
X015508Y017756D01*
X016299Y017756D01*
X016475Y017829D01*
X016610Y017964D01*
X016683Y018141D01*
X016683Y018332D01*
X016610Y018508D01*
X016475Y018643D01*
X016299Y018716D01*
X015508Y018716D01*
X015331Y018643D01*
X015196Y018508D01*
X015123Y018332D01*
X015123Y018141D01*
X015196Y017964D01*
X015331Y017829D01*
X015331Y017643D02*
X015196Y017508D01*
X015123Y017332D01*
X015123Y017141D01*
X015196Y016964D01*
X015331Y016829D01*
X015508Y016756D01*
X016299Y016756D01*
X016475Y016829D01*
X016610Y016964D01*
X016683Y017141D01*
X016683Y017332D01*
X016610Y017508D01*
X016475Y017643D01*
X016299Y017716D01*
X015508Y017716D01*
X015331Y017643D01*
X015267Y017579D02*
X014147Y017579D01*
X013988Y017421D02*
X015160Y017421D01*
X015123Y017262D02*
X013830Y017262D01*
X013671Y017104D02*
X015139Y017104D01*
X015216Y016945D02*
X013513Y016945D01*
X013354Y016787D02*
X015434Y016787D01*
X015316Y016628D02*
X013196Y016628D01*
X013037Y016470D02*
X015180Y016470D01*
X015123Y016311D02*
X012879Y016311D01*
X012720Y016153D02*
X015123Y016153D01*
X015184Y015994D02*
X012562Y015994D01*
X012547Y015980D02*
X012620Y016053D01*
X016623Y020056D01*
X016689Y019990D01*
X017111Y019990D01*
X017410Y020289D01*
X017410Y020711D01*
X017111Y021010D01*
X016689Y021010D01*
X016400Y020721D01*
X016111Y021010D01*
X015689Y021010D01*
X015400Y020721D01*
X015111Y021010D01*
X014689Y021010D01*
X014400Y020721D01*
X014111Y021010D01*
X013689Y021010D01*
X013400Y020721D01*
X013111Y021010D01*
X012689Y021010D01*
X012400Y020721D01*
X012111Y021010D01*
X011689Y021010D01*
X011400Y020721D01*
X011111Y021010D01*
X010918Y021010D01*
X010918Y020518D01*
X010882Y020518D01*
X010882Y021010D01*
X010689Y021010D01*
X010400Y020721D01*
X010111Y021010D01*
X009689Y021010D01*
X009400Y020721D01*
X009111Y021010D01*
X008689Y021010D01*
X008400Y020721D01*
X008111Y021010D01*
X007689Y021010D01*
X007390Y020711D01*
X007390Y020289D01*
X007689Y019990D01*
X008111Y019990D01*
X008400Y020279D01*
X008689Y019990D01*
X009111Y019990D01*
X009400Y020279D01*
X009689Y019990D01*
X010111Y019990D01*
X010400Y020279D01*
X010689Y019990D01*
X010882Y019990D01*
X010882Y020482D01*
X010918Y020482D01*
X010918Y019990D01*
X011111Y019990D01*
X011400Y020279D01*
X011506Y020173D01*
X010892Y019560D01*
X005148Y019560D01*
X005053Y019520D01*
X004653Y019120D01*
X004580Y019047D01*
X004540Y018952D01*
X004540Y018887D01*
X004472Y018819D01*
X004413Y018677D01*
X004413Y018523D01*
X004472Y018381D01*
X004581Y018272D01*
X004723Y018213D01*
X004877Y018213D01*
X005019Y018272D01*
X005128Y018381D01*
X005140Y018410D01*
X005140Y016708D01*
X005019Y016587D01*
X004923Y016587D01*
X004781Y016528D01*
X004672Y016419D01*
X004613Y016277D01*
X004613Y016123D01*
X004672Y015981D01*
X004781Y015872D01*
X004923Y015813D01*
X005077Y015813D01*
X005219Y015872D01*
X005328Y015981D01*
X005387Y016123D01*
X005387Y016219D01*
X005620Y016453D01*
X005660Y016548D01*
X005660Y018492D01*
X005708Y018540D01*
X011352Y018540D01*
X011447Y018580D01*
X011520Y018653D01*
X012858Y019990D01*
X013111Y019990D01*
X013400Y020279D01*
X013406Y020273D01*
X011392Y018260D01*
X005948Y018260D01*
X005853Y018220D01*
X005780Y018147D01*
X005740Y018052D01*
X005740Y015608D01*
X004353Y014220D01*
X004280Y014147D01*
X004240Y014052D01*
X004240Y013141D01*
X000680Y013141D01*
X000680Y012983D02*
X004213Y012983D01*
X004213Y012923D02*
X004272Y012781D01*
X004381Y012672D01*
X004523Y012613D01*
X004677Y012613D01*
X004740Y012639D01*
X004740Y010887D01*
X004672Y010819D01*
X004613Y010677D01*
X004613Y010523D01*
X004672Y010381D01*
X004781Y010272D01*
X004923Y010213D01*
X005077Y010213D01*
X005219Y010272D01*
X005328Y010381D01*
X005340Y010410D01*
X005340Y009008D01*
X004419Y008087D01*
X004323Y008087D01*
X004181Y008028D01*
X004072Y007919D01*
X004013Y007777D01*
X004013Y007623D01*
X004072Y007481D01*
X004181Y007372D01*
X004323Y007313D01*
X004477Y007313D01*
X004619Y007372D01*
X004640Y007393D01*
X004640Y005387D01*
X004572Y005319D01*
X004513Y005177D01*
X004513Y005023D01*
X004572Y004881D01*
X004681Y004772D01*
X004823Y004713D01*
X004977Y004713D01*
X005119Y004772D01*
X005228Y004881D01*
X005287Y005023D01*
X005287Y005177D01*
X005228Y005319D01*
X005160Y005387D01*
X005160Y007492D01*
X006620Y008953D01*
X006660Y009048D01*
X006660Y013292D01*
X007720Y014353D01*
X007760Y014448D01*
X007760Y015940D01*
X012452Y015940D01*
X012547Y015980D01*
X012400Y016200D02*
X007500Y016200D01*
X007500Y014500D01*
X006400Y013400D01*
X006400Y009100D01*
X004900Y007600D01*
X004900Y005100D01*
X004628Y005375D02*
X000680Y005375D01*
X000680Y005533D02*
X004640Y005533D01*
X004640Y005692D02*
X000680Y005692D01*
X000680Y005850D02*
X004640Y005850D01*
X004640Y006009D02*
X000680Y006009D01*
X000680Y006167D02*
X004640Y006167D01*
X004640Y006326D02*
X000680Y006326D01*
X000680Y006484D02*
X004640Y006484D01*
X004640Y006643D02*
X000680Y006643D01*
X000680Y006801D02*
X004640Y006801D01*
X004640Y006960D02*
X000680Y006960D01*
X000680Y007118D02*
X004640Y007118D01*
X004640Y007277D02*
X000680Y007277D01*
X000680Y007435D02*
X004118Y007435D01*
X004026Y007594D02*
X000680Y007594D01*
X000680Y007752D02*
X004013Y007752D01*
X004069Y007911D02*
X000680Y007911D01*
X000680Y008069D02*
X004280Y008069D01*
X004560Y008228D02*
X000680Y008228D01*
X000680Y008386D02*
X004718Y008386D01*
X004877Y008545D02*
X000680Y008545D01*
X000680Y008703D02*
X005035Y008703D01*
X005194Y008862D02*
X000680Y008862D01*
X000680Y009020D02*
X005340Y009020D01*
X005340Y009179D02*
X000680Y009179D01*
X000680Y009337D02*
X005340Y009337D01*
X005340Y009496D02*
X000680Y009496D01*
X000680Y009654D02*
X005340Y009654D01*
X005340Y009813D02*
X000680Y009813D01*
X000680Y009971D02*
X005340Y009971D01*
X005340Y010130D02*
X000680Y010130D01*
X000680Y010288D02*
X004765Y010288D01*
X004645Y010447D02*
X000680Y010447D01*
X000680Y010605D02*
X004613Y010605D01*
X004649Y010764D02*
X000680Y010764D01*
X000680Y010922D02*
X004740Y010922D01*
X004740Y011081D02*
X000680Y011081D01*
X000680Y011239D02*
X004740Y011239D01*
X004740Y011398D02*
X000680Y011398D01*
X000680Y011556D02*
X004740Y011556D01*
X004740Y011715D02*
X000680Y011715D01*
X000680Y011873D02*
X004740Y011873D01*
X004740Y012032D02*
X000680Y012032D01*
X000680Y012190D02*
X004740Y012190D01*
X004740Y012349D02*
X000680Y012349D01*
X000680Y012507D02*
X004740Y012507D01*
X004397Y012666D02*
X000680Y012666D01*
X000680Y012824D02*
X004254Y012824D01*
X004213Y012923D02*
X004213Y013077D01*
X004240Y013141D01*
X004240Y013300D02*
X000680Y013300D01*
X000680Y013458D02*
X004240Y013458D01*
X004240Y013617D02*
X000680Y013617D01*
X000680Y013775D02*
X004240Y013775D01*
X004240Y013934D02*
X000680Y013934D01*
X000680Y014092D02*
X004257Y014092D01*
X004383Y014251D02*
X000680Y014251D01*
X000680Y014409D02*
X004541Y014409D01*
X004700Y014568D02*
X000680Y014568D01*
X000680Y014726D02*
X004858Y014726D01*
X005017Y014885D02*
X000680Y014885D01*
X000680Y015043D02*
X005175Y015043D01*
X005334Y015202D02*
X000680Y015202D01*
X000680Y015360D02*
X005492Y015360D01*
X005651Y015519D02*
X000680Y015519D01*
X000680Y015677D02*
X005740Y015677D01*
X005740Y015836D02*
X005131Y015836D01*
X005333Y015994D02*
X005740Y015994D01*
X005740Y016153D02*
X005387Y016153D01*
X005479Y016311D02*
X005740Y016311D01*
X005740Y016470D02*
X005627Y016470D01*
X005660Y016628D02*
X005740Y016628D01*
X005740Y016787D02*
X005660Y016787D01*
X005660Y016945D02*
X005740Y016945D01*
X005740Y017104D02*
X005660Y017104D01*
X005660Y017262D02*
X005740Y017262D01*
X005740Y017421D02*
X005660Y017421D01*
X005660Y017579D02*
X005740Y017579D01*
X005740Y017738D02*
X005660Y017738D01*
X005660Y017896D02*
X005740Y017896D01*
X005741Y018055D02*
X005660Y018055D01*
X005660Y018213D02*
X005845Y018213D01*
X005660Y018372D02*
X011504Y018372D01*
X011662Y018530D02*
X005698Y018530D01*
X005600Y018800D02*
X005400Y018600D01*
X005400Y016600D01*
X005000Y016200D01*
X004723Y016470D02*
X000680Y016470D01*
X000680Y016628D02*
X005060Y016628D01*
X005140Y016787D02*
X000680Y016787D01*
X000680Y016945D02*
X005140Y016945D01*
X005140Y017104D02*
X000680Y017104D01*
X000680Y017262D02*
X005140Y017262D01*
X005140Y017421D02*
X000680Y017421D01*
X000680Y017579D02*
X005140Y017579D01*
X005140Y017738D02*
X000680Y017738D01*
X000680Y017896D02*
X005140Y017896D01*
X005140Y018055D02*
X000680Y018055D01*
X000680Y018213D02*
X005140Y018213D01*
X005140Y018372D02*
X005118Y018372D01*
X004800Y018600D02*
X004800Y018900D01*
X005200Y019300D01*
X011000Y019300D01*
X011900Y020200D01*
X011900Y020500D01*
X011428Y020749D02*
X011372Y020749D01*
X011214Y020908D02*
X011586Y020908D01*
X012214Y020908D02*
X012586Y020908D01*
X012428Y020749D02*
X012372Y020749D01*
X012900Y020500D02*
X012900Y020400D01*
X011300Y018800D01*
X005600Y018800D01*
X006000Y018000D02*
X006000Y015500D01*
X004500Y014000D01*
X004500Y013100D01*
X004600Y013000D01*
X005600Y013600D02*
X005600Y008900D01*
X004400Y007700D01*
X005160Y007435D02*
X020788Y007435D01*
X020824Y007420D02*
X031956Y007420D01*
X032039Y007337D01*
X032250Y007250D01*
X032478Y007250D01*
X032689Y007337D01*
X032851Y007498D01*
X032938Y007709D01*
X032938Y007937D01*
X032851Y008148D01*
X032689Y008310D01*
X032478Y008397D01*
X032250Y008397D01*
X032039Y008310D01*
X031910Y008180D01*
X021280Y008180D01*
X021280Y011650D01*
X021222Y011790D01*
X021115Y011897D01*
X020976Y011955D01*
X019829Y011955D01*
X019802Y011982D01*
X019625Y012055D01*
X018834Y012055D01*
X018658Y011982D01*
X018656Y011980D01*
X017524Y011980D01*
X017385Y011922D01*
X017278Y011815D01*
X017220Y011676D01*
X017220Y010959D01*
X016510Y010959D01*
X016483Y010986D01*
X016307Y011059D01*
X015516Y011059D01*
X015339Y010986D01*
X015204Y010851D01*
X015131Y010674D01*
X015131Y010483D01*
X015204Y010307D01*
X015339Y010172D01*
X015408Y010143D01*
X015353Y010120D01*
X015319Y010087D01*
X015223Y010087D01*
X015081Y010028D01*
X014972Y009919D01*
X014913Y009777D01*
X014913Y009623D01*
X014972Y009481D01*
X015081Y009372D01*
X015223Y009313D01*
X015377Y009313D01*
X015519Y009372D01*
X015628Y009481D01*
X015687Y009623D01*
X015687Y009640D01*
X018852Y009640D01*
X018947Y009680D01*
X019020Y009753D01*
X019362Y010095D01*
X019625Y010095D01*
X019802Y010168D01*
X019937Y010303D01*
X020010Y010479D01*
X020010Y010670D01*
X019937Y010847D01*
X019802Y010982D01*
X019625Y011055D01*
X018834Y011055D01*
X018658Y010982D01*
X018523Y010847D01*
X018450Y010670D01*
X018450Y010479D01*
X018523Y010303D01*
X018658Y010168D01*
X018677Y010160D01*
X016454Y010160D01*
X016483Y010172D01*
X016510Y010199D01*
X017576Y010199D01*
X017627Y010220D01*
X017676Y010220D01*
X017815Y010278D01*
X017922Y010385D01*
X017980Y010524D01*
X017980Y011220D01*
X018606Y011220D01*
X018658Y011168D01*
X018834Y011095D01*
X019625Y011095D01*
X019802Y011168D01*
X019829Y011195D01*
X020520Y011195D01*
X020520Y007724D01*
X020578Y007585D01*
X020685Y007478D01*
X020824Y007420D01*
X020574Y007594D02*
X005261Y007594D01*
X005420Y007752D02*
X020520Y007752D01*
X020520Y007911D02*
X005578Y007911D01*
X005737Y008069D02*
X020520Y008069D01*
X020520Y008228D02*
X005895Y008228D01*
X006054Y008386D02*
X020520Y008386D01*
X020520Y008545D02*
X006212Y008545D01*
X006371Y008703D02*
X020520Y008703D01*
X020520Y008862D02*
X006529Y008862D01*
X006648Y009020D02*
X020520Y009020D01*
X020520Y009179D02*
X006660Y009179D01*
X006660Y009337D02*
X015166Y009337D01*
X014966Y009496D02*
X006660Y009496D01*
X006660Y009654D02*
X014913Y009654D01*
X014928Y009813D02*
X006660Y009813D01*
X006660Y009971D02*
X015024Y009971D01*
X015375Y010130D02*
X006660Y010130D01*
X006660Y010288D02*
X015223Y010288D01*
X015146Y010447D02*
X006660Y010447D01*
X006660Y010605D02*
X015131Y010605D01*
X015168Y010764D02*
X006660Y010764D01*
X006660Y010922D02*
X015275Y010922D01*
X015339Y011172D02*
X015516Y011099D01*
X016307Y011099D01*
X016483Y011172D01*
X016618Y011307D01*
X016691Y011483D01*
X016691Y011674D01*
X016618Y011851D01*
X016483Y011986D01*
X016307Y012059D01*
X015516Y012059D01*
X015339Y011986D01*
X015204Y011851D01*
X015131Y011674D01*
X015131Y011483D01*
X015204Y011307D01*
X015339Y011172D01*
X015272Y011239D02*
X006660Y011239D01*
X006660Y011081D02*
X017220Y011081D01*
X017220Y011239D02*
X016550Y011239D01*
X016656Y011398D02*
X017220Y011398D01*
X017220Y011556D02*
X016691Y011556D01*
X016674Y011715D02*
X017236Y011715D01*
X017336Y011873D02*
X016596Y011873D01*
X016372Y012032D02*
X018778Y012032D01*
X018834Y012095D02*
X018658Y012168D01*
X018523Y012303D01*
X018450Y012479D01*
X018450Y012670D01*
X018523Y012847D01*
X018658Y012982D01*
X018834Y013055D01*
X019625Y013055D01*
X019802Y012982D01*
X019937Y012847D01*
X020010Y012670D01*
X020010Y012479D01*
X019937Y012303D01*
X019802Y012168D01*
X019625Y012095D01*
X018834Y012095D01*
X018636Y012190D02*
X016501Y012190D01*
X016483Y012172D02*
X016618Y012307D01*
X016691Y012483D01*
X016691Y012674D01*
X016618Y012851D01*
X016483Y012986D01*
X016307Y013059D01*
X015516Y013059D01*
X015339Y012986D01*
X015204Y012851D01*
X015131Y012674D01*
X015131Y012483D01*
X015204Y012307D01*
X015339Y012172D01*
X015516Y012099D01*
X016307Y012099D01*
X016483Y012172D01*
X016635Y012349D02*
X018504Y012349D01*
X018450Y012507D02*
X016691Y012507D01*
X016691Y012666D02*
X018450Y012666D01*
X018514Y012824D02*
X016629Y012824D01*
X016486Y012983D02*
X018660Y012983D01*
X019800Y012983D02*
X021820Y012983D01*
X021820Y013141D02*
X006660Y013141D01*
X006660Y012983D02*
X015336Y012983D01*
X015193Y012824D02*
X006660Y012824D01*
X006660Y012666D02*
X015131Y012666D01*
X015131Y012507D02*
X006660Y012507D01*
X006660Y012349D02*
X015187Y012349D01*
X015321Y012190D02*
X006660Y012190D01*
X006660Y012032D02*
X015450Y012032D01*
X015226Y011873D02*
X006660Y011873D01*
X006660Y011715D02*
X015148Y011715D01*
X015131Y011556D02*
X006660Y011556D01*
X006660Y011398D02*
X015167Y011398D01*
X015500Y009900D02*
X015300Y009700D01*
X015500Y009900D02*
X018800Y009900D01*
X019230Y010330D01*
X019230Y010575D01*
X019709Y010130D02*
X020520Y010130D01*
X020520Y010288D02*
X019922Y010288D01*
X019996Y010447D02*
X020520Y010447D01*
X020520Y010605D02*
X020010Y010605D01*
X019971Y010764D02*
X020520Y010764D01*
X020520Y010922D02*
X019862Y010922D01*
X020520Y011081D02*
X017980Y011081D01*
X017980Y010922D02*
X018598Y010922D01*
X018489Y010764D02*
X017980Y010764D01*
X017980Y010605D02*
X018450Y010605D01*
X018464Y010447D02*
X017948Y010447D01*
X017825Y010288D02*
X018538Y010288D01*
X019080Y009813D02*
X020520Y009813D01*
X020520Y009971D02*
X019239Y009971D01*
X018886Y009654D02*
X020520Y009654D01*
X020520Y009496D02*
X015634Y009496D01*
X015434Y009337D02*
X020520Y009337D01*
X021280Y009337D02*
X022083Y009337D01*
X021873Y009496D02*
X021280Y009496D01*
X021280Y009654D02*
X021820Y009654D01*
X021820Y009813D02*
X021280Y009813D01*
X021280Y009971D02*
X021820Y009971D01*
X021820Y010130D02*
X021280Y010130D01*
X021280Y010288D02*
X021820Y010288D01*
X021820Y010447D02*
X021280Y010447D01*
X021280Y010605D02*
X021820Y010605D01*
X021820Y010764D02*
X021280Y010764D01*
X021280Y010922D02*
X021820Y010922D01*
X021820Y011081D02*
X021280Y011081D01*
X021280Y011239D02*
X021820Y011239D01*
X021820Y011398D02*
X021280Y011398D01*
X021280Y011556D02*
X021820Y011556D01*
X021820Y011715D02*
X021253Y011715D01*
X021139Y011873D02*
X021820Y011873D01*
X021820Y012032D02*
X019682Y012032D01*
X019824Y012190D02*
X021820Y012190D01*
X021820Y012349D02*
X019956Y012349D01*
X020010Y012507D02*
X021820Y012507D01*
X021820Y012666D02*
X020010Y012666D01*
X019946Y012824D02*
X021820Y012824D01*
X021820Y013300D02*
X006667Y013300D01*
X006826Y013458D02*
X021820Y013458D01*
X021820Y013617D02*
X006984Y013617D01*
X007143Y013775D02*
X021820Y013775D01*
X021820Y013934D02*
X007301Y013934D01*
X007460Y014092D02*
X021820Y014092D01*
X021820Y014251D02*
X007618Y014251D01*
X007744Y014409D02*
X021820Y014409D01*
X021820Y014568D02*
X007760Y014568D01*
X007760Y014726D02*
X021820Y014726D01*
X021820Y014885D02*
X015431Y014885D01*
X015554Y015043D02*
X021820Y015043D01*
X021820Y015202D02*
X015587Y015202D01*
X015200Y015200D02*
X015600Y015600D01*
X018800Y015600D01*
X019202Y016002D01*
X019202Y016228D01*
X019788Y015836D02*
X021820Y015836D01*
X021820Y015994D02*
X019925Y015994D01*
X019982Y016153D02*
X021820Y016153D01*
X021820Y016311D02*
X019982Y016311D01*
X019922Y016470D02*
X021820Y016470D01*
X021820Y016628D02*
X019781Y016628D01*
X019690Y016787D02*
X021820Y016787D01*
X021820Y015677D02*
X019245Y015677D01*
X019086Y015519D02*
X021820Y015519D01*
X021820Y015360D02*
X018900Y015360D01*
X018480Y015994D02*
X017826Y015994D01*
X017880Y016153D02*
X018422Y016153D01*
X018422Y016311D02*
X017880Y016311D01*
X017880Y016470D02*
X018483Y016470D01*
X018623Y016628D02*
X017880Y016628D01*
X017880Y016787D02*
X018715Y016787D01*
X017354Y017579D02*
X016539Y017579D01*
X016646Y017421D02*
X017168Y017421D01*
X017120Y017262D02*
X016683Y017262D01*
X016668Y017104D02*
X017120Y017104D01*
X017120Y016945D02*
X016591Y016945D01*
X016372Y016787D02*
X017120Y016787D01*
X017120Y016628D02*
X016490Y016628D01*
X015325Y015836D02*
X007760Y015836D01*
X007760Y015677D02*
X015309Y015677D01*
X014972Y015519D02*
X007760Y015519D01*
X007760Y015360D02*
X014848Y015360D01*
X014813Y015202D02*
X007760Y015202D01*
X007760Y015043D02*
X014846Y015043D01*
X014969Y014885D02*
X007760Y014885D01*
X007000Y015000D02*
X005600Y013600D01*
X005000Y013800D02*
X005000Y010600D01*
X005235Y010288D02*
X005340Y010288D01*
X005160Y007277D02*
X015276Y007277D01*
X015239Y007261D02*
X015104Y007126D01*
X015031Y006950D01*
X015031Y006759D01*
X015104Y006582D01*
X015239Y006447D01*
X015416Y006374D01*
X016207Y006374D01*
X016383Y006447D01*
X016518Y006582D01*
X016591Y006759D01*
X016591Y006950D01*
X016518Y007126D01*
X016383Y007261D01*
X016207Y007334D01*
X015416Y007334D01*
X015239Y007261D01*
X015101Y007118D02*
X005160Y007118D01*
X005160Y006960D02*
X015035Y006960D01*
X015031Y006801D02*
X005160Y006801D01*
X005160Y006643D02*
X015079Y006643D01*
X015203Y006484D02*
X005160Y006484D01*
X005160Y006326D02*
X015394Y006326D01*
X015416Y006334D02*
X015239Y006261D01*
X015104Y006126D01*
X015031Y005950D01*
X015031Y005759D01*
X015104Y005582D01*
X015239Y005447D01*
X015416Y005374D01*
X016207Y005374D01*
X016207Y005375D02*
X017120Y005375D01*
X017120Y005533D02*
X016469Y005533D01*
X016518Y005582D02*
X016591Y005759D01*
X016591Y005950D01*
X016518Y006126D01*
X016383Y006261D01*
X016207Y006334D01*
X015416Y006334D01*
X015145Y006167D02*
X005160Y006167D01*
X005160Y006009D02*
X015055Y006009D01*
X015031Y005850D02*
X005160Y005850D01*
X005160Y005692D02*
X015059Y005692D01*
X015154Y005533D02*
X005160Y005533D01*
X005172Y005375D02*
X015415Y005375D01*
X015416Y005334D02*
X015239Y005261D01*
X015104Y005126D01*
X015031Y004950D01*
X015031Y004759D01*
X015104Y004582D01*
X015133Y004554D01*
X015053Y004520D01*
X015019Y004487D01*
X014923Y004487D01*
X014781Y004428D01*
X014672Y004319D01*
X014613Y004177D01*
X014613Y004023D01*
X014672Y003881D01*
X014781Y003772D01*
X014923Y003713D01*
X015077Y003713D01*
X015219Y003772D01*
X015328Y003881D01*
X015387Y004023D01*
X015387Y004040D01*
X016493Y004040D01*
X016472Y004019D01*
X016413Y003877D01*
X016413Y003723D01*
X016472Y003581D01*
X016581Y003472D01*
X016723Y003413D01*
X016877Y003413D01*
X017019Y003472D01*
X017087Y003540D01*
X026813Y003540D01*
X026881Y003472D01*
X027023Y003413D01*
X027177Y003413D01*
X027319Y003472D01*
X027428Y003581D01*
X027487Y003723D01*
X027487Y003877D01*
X027428Y004019D01*
X027319Y004128D01*
X027177Y004187D01*
X027023Y004187D01*
X026881Y004128D01*
X026813Y004060D01*
X018800Y004060D01*
X018847Y004080D01*
X018920Y004153D01*
X019142Y004374D01*
X019506Y004374D01*
X019682Y004447D01*
X019817Y004582D01*
X034400Y004582D01*
X034400Y004424D02*
X019624Y004424D01*
X019817Y004582D02*
X019890Y004759D01*
X019890Y004950D01*
X019817Y005126D01*
X019682Y005261D01*
X019506Y005334D01*
X018715Y005334D01*
X018538Y005261D01*
X018403Y005126D01*
X018330Y004950D01*
X018330Y004759D01*
X018403Y004582D01*
X018426Y004560D01*
X017797Y004560D01*
X017822Y004585D01*
X017880Y004724D01*
X017880Y005474D01*
X018511Y005474D01*
X018538Y005447D01*
X018715Y005374D01*
X019506Y005374D01*
X019682Y005447D01*
X019709Y005474D01*
X031902Y005474D01*
X032039Y005337D01*
X032250Y005250D01*
X032478Y005250D01*
X032689Y005337D01*
X032851Y005498D01*
X032938Y005709D01*
X032938Y005937D01*
X032851Y006148D01*
X032689Y006310D01*
X032478Y006397D01*
X032250Y006397D01*
X032039Y006310D01*
X031964Y006234D01*
X019709Y006234D01*
X019682Y006261D01*
X019506Y006334D01*
X018715Y006334D01*
X018538Y006261D01*
X018511Y006234D01*
X017424Y006234D01*
X017285Y006176D01*
X017178Y006070D01*
X017120Y005930D01*
X017120Y005180D01*
X016464Y005180D01*
X016383Y005261D01*
X016207Y005334D01*
X015416Y005334D01*
X015194Y005216D02*
X005270Y005216D01*
X005287Y005058D02*
X015076Y005058D01*
X015031Y004899D02*
X005235Y004899D01*
X005043Y004741D02*
X015039Y004741D01*
X015105Y004582D02*
X000680Y004582D01*
X000680Y004424D02*
X014777Y004424D01*
X014650Y004265D02*
X000680Y004265D01*
X000680Y004107D02*
X014613Y004107D01*
X014644Y003948D02*
X000680Y003948D01*
X000680Y003790D02*
X014764Y003790D01*
X015000Y004100D02*
X015200Y004300D01*
X018700Y004300D01*
X019110Y004710D01*
X019110Y004854D01*
X018714Y005375D02*
X017880Y005375D01*
X017880Y005216D02*
X018493Y005216D01*
X018375Y005058D02*
X017880Y005058D01*
X017880Y004899D02*
X018330Y004899D01*
X018338Y004741D02*
X017880Y004741D01*
X017819Y004582D02*
X018404Y004582D01*
X019033Y004265D02*
X034400Y004265D01*
X034400Y004107D02*
X027340Y004107D01*
X027457Y003948D02*
X034400Y003948D01*
X034400Y003790D02*
X027487Y003790D01*
X027449Y003631D02*
X034400Y003631D01*
X034400Y003473D02*
X027319Y003473D01*
X027100Y003800D02*
X016800Y003800D01*
X016443Y003948D02*
X015356Y003948D01*
X015236Y003790D02*
X016413Y003790D01*
X016451Y003631D02*
X000680Y003631D01*
X000680Y003473D02*
X016581Y003473D01*
X017019Y003473D02*
X026881Y003473D01*
X026860Y004107D02*
X018874Y004107D01*
X019883Y004741D02*
X034400Y004741D01*
X034400Y004899D02*
X019890Y004899D01*
X019846Y005058D02*
X034400Y005058D01*
X034400Y005216D02*
X019727Y005216D01*
X019506Y005375D02*
X032002Y005375D01*
X032727Y005375D02*
X034400Y005375D01*
X034400Y005533D02*
X032865Y005533D01*
X032931Y005692D02*
X034400Y005692D01*
X034400Y005850D02*
X032938Y005850D01*
X032908Y006009D02*
X034400Y006009D01*
X034400Y006167D02*
X032832Y006167D01*
X032651Y006326D02*
X034400Y006326D01*
X034400Y006484D02*
X019719Y006484D01*
X019682Y006447D02*
X019817Y006582D01*
X019890Y006759D01*
X019890Y006950D01*
X019817Y007126D01*
X019682Y007261D01*
X019506Y007334D01*
X018715Y007334D01*
X018538Y007261D01*
X018403Y007126D01*
X018330Y006950D01*
X018330Y006759D01*
X018403Y006582D01*
X018538Y006447D01*
X018715Y006374D01*
X019506Y006374D01*
X019682Y006447D01*
X019527Y006326D02*
X032078Y006326D01*
X032185Y007277D02*
X019645Y007277D01*
X019821Y007118D02*
X034400Y007118D01*
X034400Y006960D02*
X019886Y006960D01*
X019890Y006801D02*
X034400Y006801D01*
X034400Y006643D02*
X019842Y006643D01*
X018694Y006326D02*
X016228Y006326D01*
X016420Y006484D02*
X018502Y006484D01*
X018378Y006643D02*
X016543Y006643D01*
X016591Y006801D02*
X018330Y006801D01*
X018334Y006960D02*
X016587Y006960D01*
X016521Y007118D02*
X018400Y007118D01*
X018575Y007277D02*
X016346Y007277D01*
X016477Y006167D02*
X017275Y006167D01*
X017153Y006009D02*
X016567Y006009D01*
X016591Y005850D02*
X017120Y005850D01*
X017120Y005692D02*
X016563Y005692D01*
X016518Y005582D02*
X016383Y005447D01*
X016207Y005374D01*
X016428Y005216D02*
X017120Y005216D01*
X021280Y008228D02*
X031957Y008228D01*
X032224Y008386D02*
X021280Y008386D01*
X021280Y008545D02*
X034400Y008545D01*
X034400Y008703D02*
X021280Y008703D01*
X021280Y008862D02*
X034400Y008862D01*
X034400Y009020D02*
X021280Y009020D01*
X021280Y009179D02*
X034400Y009179D01*
X034400Y009337D02*
X032689Y009337D01*
X032848Y009496D02*
X034400Y009496D01*
X034400Y009654D02*
X032915Y009654D01*
X032938Y009813D02*
X034400Y009813D01*
X034400Y009971D02*
X032924Y009971D01*
X032858Y010130D02*
X034400Y010130D01*
X034400Y010288D02*
X032711Y010288D01*
X032018Y010288D02*
X022580Y010288D01*
X022580Y010130D02*
X031870Y010130D01*
X034400Y010447D02*
X022580Y010447D01*
X022580Y010605D02*
X034400Y010605D01*
X034400Y010764D02*
X022580Y010764D01*
X022580Y010922D02*
X034400Y010922D01*
X034400Y012032D02*
X023980Y012032D01*
X023980Y012190D02*
X034400Y012190D01*
X034400Y012349D02*
X023980Y012349D01*
X023980Y012507D02*
X034400Y012507D01*
X034400Y012666D02*
X023980Y012666D01*
X023980Y012824D02*
X034400Y012824D01*
X034400Y012983D02*
X023980Y012983D01*
X023980Y013141D02*
X034400Y013141D01*
X034400Y013300D02*
X023980Y013300D01*
X023980Y013458D02*
X034400Y013458D01*
X034400Y013617D02*
X023980Y013617D01*
X023980Y013775D02*
X034400Y013775D01*
X034400Y013934D02*
X023980Y013934D01*
X023980Y014092D02*
X034400Y014092D01*
X034400Y014251D02*
X023980Y014251D01*
X023980Y014409D02*
X034400Y014409D01*
X034400Y014568D02*
X023980Y014568D01*
X023980Y014726D02*
X034400Y014726D01*
X034400Y014885D02*
X023980Y014885D01*
X023980Y015043D02*
X034400Y015043D01*
X034400Y015202D02*
X023980Y015202D01*
X023980Y015360D02*
X034400Y015360D01*
X034400Y015519D02*
X023980Y015519D01*
X023980Y015677D02*
X034400Y015677D01*
X034400Y015836D02*
X023980Y015836D01*
X023980Y015994D02*
X034400Y015994D01*
X034400Y016153D02*
X023980Y016153D01*
X023980Y016311D02*
X034400Y016311D01*
X034400Y016470D02*
X032755Y016470D01*
X032738Y016453D02*
X032802Y016516D01*
X032855Y016590D01*
X032896Y016670D01*
X032924Y016756D01*
X032937Y016842D01*
X032412Y016842D01*
X032412Y016317D01*
X032499Y016331D01*
X032584Y016359D01*
X032665Y016400D01*
X032738Y016453D01*
X032874Y016628D02*
X034400Y016628D01*
X034400Y016787D02*
X032929Y016787D01*
X032937Y016938D02*
X032924Y017025D01*
X032896Y017110D01*
X032855Y017191D01*
X032802Y017264D01*
X032738Y017328D01*
X032665Y017381D01*
X032584Y017422D01*
X032499Y017450D01*
X032412Y017463D01*
X032412Y016938D01*
X032937Y016938D01*
X032936Y016945D02*
X034400Y016945D01*
X034400Y017104D02*
X032898Y017104D01*
X032803Y017262D02*
X034400Y017262D01*
X034400Y017421D02*
X032587Y017421D01*
X032412Y017421D02*
X032316Y017421D01*
X032316Y017463D02*
X032230Y017450D01*
X032144Y017422D01*
X032063Y017381D01*
X031990Y017328D01*
X031927Y017264D01*
X031874Y017191D01*
X031833Y017110D01*
X031805Y017025D01*
X031791Y016938D01*
X032316Y016938D01*
X032316Y016842D01*
X031791Y016842D01*
X031805Y016756D01*
X031833Y016670D01*
X031874Y016590D01*
X031927Y016516D01*
X031990Y016453D01*
X032063Y016400D01*
X032144Y016359D01*
X032230Y016331D01*
X032316Y016317D01*
X032316Y016842D01*
X032412Y016842D01*
X032412Y016938D01*
X032316Y016938D01*
X032316Y017463D01*
X032141Y017421D02*
X023980Y017421D01*
X023980Y017579D02*
X034400Y017579D01*
X034400Y017738D02*
X023980Y017738D01*
X023980Y017896D02*
X034400Y017896D01*
X034400Y018055D02*
X023980Y018055D01*
X023980Y018213D02*
X034400Y018213D01*
X034400Y018372D02*
X032611Y018372D01*
X032689Y018404D02*
X032851Y018565D01*
X032938Y018776D01*
X032938Y019004D01*
X032851Y019215D01*
X032689Y019377D01*
X032478Y019464D01*
X032250Y019464D01*
X032039Y019377D01*
X031878Y019215D01*
X031790Y019004D01*
X031790Y018776D01*
X031878Y018565D01*
X032039Y018404D01*
X032250Y018316D01*
X032478Y018316D01*
X032689Y018404D01*
X032815Y018530D02*
X034400Y018530D01*
X034400Y018689D02*
X032902Y018689D01*
X032938Y018847D02*
X034400Y018847D01*
X034400Y019006D02*
X032937Y019006D01*
X032872Y019164D02*
X034400Y019164D01*
X034400Y019323D02*
X032743Y019323D01*
X031985Y019323D02*
X015890Y019323D01*
X016049Y019481D02*
X034400Y019481D01*
X034400Y019640D02*
X016207Y019640D01*
X016366Y019798D02*
X034400Y019798D01*
X034400Y019957D02*
X016524Y019957D01*
X016700Y020500D02*
X012400Y016200D01*
X012100Y016800D02*
X007100Y016800D01*
X007000Y016700D01*
X007000Y015000D01*
X006500Y015300D02*
X005000Y013800D01*
X006500Y015300D02*
X006500Y017500D01*
X011700Y017500D01*
X014700Y020500D01*
X014900Y020500D01*
X015372Y020749D02*
X015428Y020749D01*
X015586Y020908D02*
X015214Y020908D01*
X014586Y020908D02*
X014214Y020908D01*
X014372Y020749D02*
X014428Y020749D01*
X013900Y020500D02*
X013900Y020400D01*
X011500Y018000D01*
X006000Y018000D01*
X004482Y018372D02*
X000680Y018372D01*
X000680Y018530D02*
X004413Y018530D01*
X004418Y018689D02*
X000680Y018689D01*
X000680Y018847D02*
X004500Y018847D01*
X004562Y019006D02*
X000680Y019006D01*
X000680Y019164D02*
X004696Y019164D01*
X004855Y019323D02*
X000680Y019323D01*
X000680Y019481D02*
X005013Y019481D01*
X007405Y020274D02*
X000680Y020274D01*
X000680Y020432D02*
X007390Y020432D01*
X007390Y020591D02*
X000680Y020591D01*
X000680Y020749D02*
X007428Y020749D01*
X007586Y020908D02*
X000680Y020908D01*
X000680Y021066D02*
X034400Y021066D01*
X034400Y020908D02*
X025814Y020908D01*
X025711Y021010D02*
X025289Y021010D01*
X025000Y020721D01*
X024711Y021010D01*
X024289Y021010D01*
X024000Y020721D01*
X023711Y021010D01*
X023289Y021010D01*
X023000Y020721D01*
X022711Y021010D01*
X022289Y021010D01*
X022000Y020721D01*
X021711Y021010D01*
X021289Y021010D01*
X021000Y020721D01*
X020711Y021010D01*
X020289Y021010D01*
X020000Y020721D01*
X019711Y021010D01*
X019289Y021010D01*
X019000Y020721D01*
X018711Y021010D01*
X018289Y021010D01*
X017990Y020711D01*
X017990Y020289D01*
X018289Y019990D01*
X018711Y019990D01*
X019000Y020279D01*
X019289Y019990D01*
X019711Y019990D01*
X020000Y020279D01*
X020289Y019990D01*
X020711Y019990D01*
X021000Y020279D01*
X021289Y019990D01*
X021711Y019990D01*
X022000Y020279D01*
X022289Y019990D01*
X022711Y019990D01*
X023000Y020279D01*
X023289Y019990D01*
X023711Y019990D01*
X024000Y020279D01*
X024289Y019990D01*
X024711Y019990D01*
X025000Y020279D01*
X025289Y019990D01*
X025711Y019990D01*
X026010Y020289D01*
X026010Y020711D01*
X025711Y021010D01*
X025972Y020749D02*
X034400Y020749D01*
X034400Y020591D02*
X026010Y020591D01*
X026010Y020432D02*
X034400Y020432D01*
X034400Y020274D02*
X025995Y020274D01*
X025836Y020115D02*
X034400Y020115D01*
X034400Y021225D02*
X000680Y021225D01*
X000680Y021320D02*
X030318Y021290D01*
X030319Y021290D01*
X030393Y021290D01*
X030467Y021290D01*
X030467Y021291D01*
X034326Y021319D01*
X034400Y021245D01*
X034400Y000680D01*
X000680Y000680D01*
X000680Y021320D01*
X000680Y020115D02*
X007564Y020115D01*
X008236Y020115D02*
X008564Y020115D01*
X008405Y020274D02*
X008395Y020274D01*
X008372Y020749D02*
X008428Y020749D01*
X008586Y020908D02*
X008214Y020908D01*
X009214Y020908D02*
X009586Y020908D01*
X009428Y020749D02*
X009372Y020749D01*
X009395Y020274D02*
X009405Y020274D01*
X009564Y020115D02*
X009236Y020115D01*
X010236Y020115D02*
X010564Y020115D01*
X010405Y020274D02*
X010395Y020274D01*
X010372Y020749D02*
X010428Y020749D01*
X010586Y020908D02*
X010214Y020908D01*
X010882Y020908D02*
X010918Y020908D01*
X010918Y020749D02*
X010882Y020749D01*
X010882Y020591D02*
X010918Y020591D01*
X010918Y020432D02*
X010882Y020432D01*
X010882Y020274D02*
X010918Y020274D01*
X010918Y020115D02*
X010882Y020115D01*
X011236Y020115D02*
X011447Y020115D01*
X011405Y020274D02*
X011395Y020274D01*
X011289Y019957D02*
X000680Y019957D01*
X000680Y019798D02*
X011130Y019798D01*
X010972Y019640D02*
X000680Y019640D01*
X000680Y016311D02*
X004627Y016311D01*
X004613Y016153D02*
X000680Y016153D01*
X000680Y015994D02*
X004667Y015994D01*
X004869Y015836D02*
X000680Y015836D01*
X011556Y018689D02*
X011821Y018689D01*
X011715Y018847D02*
X011979Y018847D01*
X011873Y019006D02*
X012138Y019006D01*
X012032Y019164D02*
X012296Y019164D01*
X012190Y019323D02*
X012455Y019323D01*
X012349Y019481D02*
X012613Y019481D01*
X012507Y019640D02*
X012772Y019640D01*
X012666Y019798D02*
X012930Y019798D01*
X012824Y019957D02*
X013089Y019957D01*
X013236Y020115D02*
X013247Y020115D01*
X013395Y020274D02*
X013405Y020274D01*
X013428Y020749D02*
X013372Y020749D01*
X013214Y020908D02*
X013586Y020908D01*
X015800Y020500D02*
X012100Y016800D01*
X014622Y018055D02*
X015159Y018055D01*
X015123Y018213D02*
X014781Y018213D01*
X014939Y018372D02*
X015140Y018372D01*
X015098Y018530D02*
X015218Y018530D01*
X015256Y018689D02*
X015441Y018689D01*
X015415Y018847D02*
X031790Y018847D01*
X031791Y019006D02*
X015573Y019006D01*
X015732Y019164D02*
X031857Y019164D01*
X031827Y018689D02*
X019646Y018689D01*
X018759Y018689D02*
X016365Y018689D01*
X016588Y018530D02*
X018525Y018530D01*
X018442Y018372D02*
X016667Y018372D01*
X016683Y018213D02*
X018422Y018213D01*
X018455Y018055D02*
X016647Y018055D01*
X016542Y017896D02*
X018556Y017896D01*
X018836Y020115D02*
X019164Y020115D01*
X019005Y020274D02*
X018995Y020274D01*
X018972Y020749D02*
X019028Y020749D01*
X019186Y020908D02*
X018814Y020908D01*
X018186Y020908D02*
X017214Y020908D01*
X017372Y020749D02*
X018028Y020749D01*
X017990Y020591D02*
X017410Y020591D01*
X017410Y020432D02*
X017990Y020432D01*
X018005Y020274D02*
X017395Y020274D01*
X017236Y020115D02*
X018164Y020115D01*
X016900Y020500D02*
X016700Y020500D01*
X016428Y020749D02*
X016372Y020749D01*
X016214Y020908D02*
X016586Y020908D01*
X015900Y020500D02*
X015800Y020500D01*
X019814Y020908D02*
X020186Y020908D01*
X020028Y020749D02*
X019972Y020749D01*
X019995Y020274D02*
X020005Y020274D01*
X020164Y020115D02*
X019836Y020115D01*
X020836Y020115D02*
X021164Y020115D01*
X021005Y020274D02*
X020995Y020274D01*
X020972Y020749D02*
X021028Y020749D01*
X021186Y020908D02*
X020814Y020908D01*
X021814Y020908D02*
X022186Y020908D01*
X022028Y020749D02*
X021972Y020749D01*
X021995Y020274D02*
X022005Y020274D01*
X022164Y020115D02*
X021836Y020115D01*
X022836Y020115D02*
X023164Y020115D01*
X023005Y020274D02*
X022995Y020274D01*
X022972Y020749D02*
X023028Y020749D01*
X023186Y020908D02*
X022814Y020908D01*
X023814Y020908D02*
X024186Y020908D01*
X024028Y020749D02*
X023972Y020749D01*
X023995Y020274D02*
X024005Y020274D01*
X024164Y020115D02*
X023836Y020115D01*
X024836Y020115D02*
X025164Y020115D01*
X025005Y020274D02*
X024995Y020274D01*
X024972Y020749D02*
X025028Y020749D01*
X025186Y020908D02*
X024814Y020908D01*
X023796Y018530D02*
X031913Y018530D01*
X032117Y018372D02*
X023940Y018372D01*
X023980Y017262D02*
X031925Y017262D01*
X031830Y017104D02*
X023980Y017104D01*
X023980Y016945D02*
X031792Y016945D01*
X031800Y016787D02*
X023980Y016787D01*
X023980Y016628D02*
X031854Y016628D01*
X031973Y016470D02*
X023980Y016470D01*
X032316Y016470D02*
X032412Y016470D01*
X032412Y016628D02*
X032316Y016628D01*
X032316Y016787D02*
X032412Y016787D01*
X032412Y016945D02*
X032316Y016945D01*
X032316Y017104D02*
X032412Y017104D01*
X032412Y017262D02*
X032316Y017262D01*
X032505Y008386D02*
X034400Y008386D01*
X034400Y008228D02*
X032771Y008228D01*
X032883Y008069D02*
X034400Y008069D01*
X034400Y007911D02*
X032938Y007911D01*
X032938Y007752D02*
X034400Y007752D01*
X034400Y007594D02*
X032890Y007594D01*
X032787Y007435D02*
X034400Y007435D01*
X034400Y007277D02*
X032543Y007277D01*
X034400Y003314D02*
X000680Y003314D01*
X000680Y003156D02*
X034400Y003156D01*
X034400Y002997D02*
X000680Y002997D01*
X000680Y002839D02*
X034400Y002839D01*
X034400Y002680D02*
X000680Y002680D01*
X000680Y002522D02*
X034400Y002522D01*
X034400Y002363D02*
X000680Y002363D01*
X000680Y002205D02*
X034400Y002205D01*
X034400Y002046D02*
X000680Y002046D01*
X000680Y001888D02*
X013166Y001888D01*
X013289Y002010D02*
X012990Y001711D01*
X012990Y001289D01*
X013289Y000990D01*
X013711Y000990D01*
X014000Y001279D01*
X014289Y000990D01*
X014711Y000990D01*
X015000Y001279D01*
X015289Y000990D01*
X015711Y000990D01*
X016000Y001279D01*
X016289Y000990D01*
X016482Y000990D01*
X016482Y001482D01*
X016518Y001482D01*
X016518Y000990D01*
X016711Y000990D01*
X017000Y001279D01*
X017289Y000990D01*
X017482Y000990D01*
X017482Y001482D01*
X017518Y001482D01*
X017518Y000990D01*
X017711Y000990D01*
X018000Y001279D01*
X018289Y000990D01*
X018711Y000990D01*
X019010Y001289D01*
X019010Y001711D01*
X018711Y002010D01*
X018289Y002010D01*
X018000Y001721D01*
X017711Y002010D01*
X017518Y002010D01*
X017518Y001518D01*
X017482Y001518D01*
X017482Y002010D01*
X017289Y002010D01*
X017000Y001721D01*
X016711Y002010D01*
X016518Y002010D01*
X016518Y001518D01*
X016482Y001518D01*
X016482Y002010D01*
X016289Y002010D01*
X016000Y001721D01*
X015711Y002010D01*
X015289Y002010D01*
X015000Y001721D01*
X014711Y002010D01*
X014289Y002010D01*
X014000Y001721D01*
X013711Y002010D01*
X013289Y002010D01*
X013008Y001729D02*
X000680Y001729D01*
X000680Y001571D02*
X012990Y001571D01*
X012990Y001412D02*
X000680Y001412D01*
X000680Y001254D02*
X013025Y001254D01*
X013184Y001095D02*
X000680Y001095D01*
X000680Y000937D02*
X034400Y000937D01*
X034400Y001095D02*
X025816Y001095D01*
X025711Y000990D02*
X026010Y001289D01*
X026010Y001711D01*
X025711Y002010D01*
X025289Y002010D01*
X025000Y001721D01*
X024711Y002010D01*
X024289Y002010D01*
X024000Y001721D01*
X023711Y002010D01*
X023289Y002010D01*
X023000Y001721D01*
X022711Y002010D01*
X022289Y002010D01*
X022000Y001721D01*
X021711Y002010D01*
X021289Y002010D01*
X021000Y001721D01*
X020711Y002010D01*
X020289Y002010D01*
X019990Y001711D01*
X019990Y001289D01*
X020289Y000990D01*
X020711Y000990D01*
X021000Y001279D01*
X021289Y000990D01*
X021711Y000990D01*
X022000Y001279D01*
X022289Y000990D01*
X022711Y000990D01*
X023000Y001279D01*
X023289Y000990D01*
X023711Y000990D01*
X024000Y001279D01*
X024289Y000990D01*
X024711Y000990D01*
X025000Y001279D01*
X025289Y000990D01*
X025711Y000990D01*
X025975Y001254D02*
X034400Y001254D01*
X034400Y001412D02*
X026010Y001412D01*
X026010Y001571D02*
X034400Y001571D01*
X034400Y001729D02*
X025992Y001729D01*
X025834Y001888D02*
X034400Y001888D01*
X034400Y000778D02*
X000680Y000778D01*
X000680Y004741D02*
X004757Y004741D01*
X004565Y004899D02*
X000680Y004899D01*
X000680Y005058D02*
X004513Y005058D01*
X004530Y005216D02*
X000680Y005216D01*
X013834Y001888D02*
X014166Y001888D01*
X014008Y001729D02*
X013992Y001729D01*
X013975Y001254D02*
X014025Y001254D01*
X014184Y001095D02*
X013816Y001095D01*
X014816Y001095D02*
X015184Y001095D01*
X015025Y001254D02*
X014975Y001254D01*
X014992Y001729D02*
X015008Y001729D01*
X015166Y001888D02*
X014834Y001888D01*
X015834Y001888D02*
X016166Y001888D01*
X016008Y001729D02*
X015992Y001729D01*
X016482Y001729D02*
X016518Y001729D01*
X016500Y001600D02*
X016500Y001500D01*
X016518Y001482D02*
X016518Y001518D01*
X017010Y001518D01*
X017482Y001518D01*
X017482Y001482D01*
X016518Y001482D01*
X016518Y001412D02*
X016482Y001412D01*
X016482Y001254D02*
X016518Y001254D01*
X016518Y001095D02*
X016482Y001095D01*
X016184Y001095D02*
X015816Y001095D01*
X015975Y001254D02*
X016025Y001254D01*
X016482Y001571D02*
X016518Y001571D01*
X016518Y001888D02*
X016482Y001888D01*
X016834Y001888D02*
X017166Y001888D01*
X017008Y001729D02*
X016992Y001729D01*
X017482Y001729D02*
X017518Y001729D01*
X017518Y001571D02*
X017482Y001571D01*
X017482Y001412D02*
X017518Y001412D01*
X017518Y001254D02*
X017482Y001254D01*
X017482Y001095D02*
X017518Y001095D01*
X017816Y001095D02*
X018184Y001095D01*
X018025Y001254D02*
X017975Y001254D01*
X017992Y001729D02*
X018008Y001729D01*
X018166Y001888D02*
X017834Y001888D01*
X017518Y001888D02*
X017482Y001888D01*
X017025Y001254D02*
X016975Y001254D01*
X016816Y001095D02*
X017184Y001095D01*
X018816Y001095D02*
X020184Y001095D01*
X020025Y001254D02*
X018975Y001254D01*
X019010Y001412D02*
X019990Y001412D01*
X019990Y001571D02*
X019010Y001571D01*
X018992Y001729D02*
X020008Y001729D01*
X020166Y001888D02*
X018834Y001888D01*
X020834Y001888D02*
X021166Y001888D01*
X021008Y001729D02*
X020992Y001729D01*
X020975Y001254D02*
X021025Y001254D01*
X021184Y001095D02*
X020816Y001095D01*
X021816Y001095D02*
X022184Y001095D01*
X022025Y001254D02*
X021975Y001254D01*
X021992Y001729D02*
X022008Y001729D01*
X022166Y001888D02*
X021834Y001888D01*
X022834Y001888D02*
X023166Y001888D01*
X023008Y001729D02*
X022992Y001729D01*
X022975Y001254D02*
X023025Y001254D01*
X023184Y001095D02*
X022816Y001095D01*
X023816Y001095D02*
X024184Y001095D01*
X024025Y001254D02*
X023975Y001254D01*
X023992Y001729D02*
X024008Y001729D01*
X024166Y001888D02*
X023834Y001888D01*
X024834Y001888D02*
X025166Y001888D01*
X025008Y001729D02*
X024992Y001729D01*
X024975Y001254D02*
X025025Y001254D01*
X025184Y001095D02*
X024816Y001095D01*
M02*
