%
M48
M72
T01C0.0276
T02C0.0394
T03C0.0400
T04C0.0550
%
T01
X8300Y10100
X11000Y10000
X12700Y10500
X14400Y10000
X15400Y10500
X18700Y10300
X23200Y11300
X24900Y11600
X18700Y13800
X18200Y19000
X13800Y19500
X8450Y18750
T02
X7900Y20500
X8900Y20500
X9900Y20500
X10900Y20500
X11900Y20500
X12900Y20500
X13900Y20500
X14900Y20500
X15900Y20500
X16900Y20500
X18500Y20500
X19500Y20500
X20500Y20500
X21500Y20500
X22500Y20500
X23500Y20500
X24500Y20500
X25500Y20500
X2900Y15000
X2900Y14000
X2900Y13000
X13500Y1500
X14500Y1500
X15500Y1500
X16500Y1500
X17500Y1500
X18500Y1500
X20500Y1500
X21500Y1500
X22500Y1500
X23500Y1500
X24500Y1500
X25500Y1500
T03
X1800Y4700
X2800Y4700
X3800Y4700
X6200Y4700
X7200Y4700
X8200Y4700
X11000Y4700
X12000Y4700
X13000Y4700
X15400Y4700
X16400Y4700
X17400Y4700
X20100Y4700
X21100Y4700
X22100Y4700
X24500Y4700
X25500Y4700
X26500Y4700
X31100Y6100
X31100Y3100
T04
X5000Y6500
X14200Y6500
X23300Y6500
X35400Y6200
X35500Y3100
M30
