%
M48
M72
T01C0.0276
T02C0.0394
T03C0.0400
T04C0.0630
%
T01
X18700Y10300
X23200Y11300
X18700Y13800
X23300Y13900
X24900Y15900
X29400Y16200
X18550Y18850
X17900Y18700
X13300Y19300
X9100Y19300
X7600Y19700
X5700Y11400
X3900Y11400
T02
X7900Y20500
X8900Y20500
X9900Y20500
X10900Y20500
X11900Y20500
X12900Y20500
X13900Y20500
X14900Y20500
X15900Y20500
X16900Y20500
X18500Y20500
X19500Y20500
X20500Y20500
X21500Y20500
X22500Y20500
X23500Y20500
X24500Y20500
X25500Y20500
X25500Y1500
X24500Y1500
X23500Y1500
X22500Y1500
X21500Y1500
X20500Y1500
X18500Y1500
X17500Y1500
X16500Y1500
X15500Y1500
X14500Y1500
X13500Y1500
T03
X1900Y4800
X2900Y4800
X3900Y4800
X6400Y4800
X7400Y4800
X8400Y4800
X10900Y4800
X11900Y4800
X12900Y4800
X15400Y4800
X16400Y4800
X17400Y4800
X20000Y4900
X21000Y4900
X22000Y4900
X24500Y4900
X25500Y4900
X26500Y4900
X31100Y6100
X31100Y3100
X27500Y20500
X26500Y20500
T04
X5100Y7200
X14100Y7200
X23200Y7300
X35500Y6100
X35500Y3100
M30
