%
M48
M72
T01C0.0276
T02C0.0315
T03C0.0394
T04C0.0400
T05C0.0512
%
T01
X8950Y4500
X9200Y3500
X7950Y5500
X12700Y5500
X16700Y3500
X25700Y5500
X26700Y6000
X28200Y4500
X29700Y3500
X30700Y3000
X28700Y9500
X29700Y10000
X30700Y10000
X27200Y13000
X23450Y14500
X19950Y14750
X19950Y13250
X17200Y13250
X14450Y16250
X13700Y16500
X11450Y17000
X8950Y16000
X9200Y15000
X7950Y17000
X6950Y17500
X7950Y12000
X8950Y11250
X8950Y9750
X12200Y12000
X16700Y9000
X27200Y17500
X30700Y17500
X19950Y19500
X16700Y18000
X15950Y18000
T02
X27700Y14000
T03
X27700Y20500
X26700Y20500
X25700Y20500
X24700Y20500
X23700Y20500
X22700Y20500
X21700Y20500
X20700Y20500
X19100Y20500
X18100Y20500
X17100Y20500
X16100Y20500
X15100Y20500
X14100Y20500
X13100Y20500
X12100Y20500
X15700Y1500
X16700Y1500
X17700Y1500
X18700Y1500
X19700Y1500
X20700Y1500
X22700Y1500
X23700Y1500
X24700Y1500
X25700Y1500
X26700Y1500
X27700Y1500
T04
X21700Y5000
X21700Y6000
X21700Y7000
X18200Y7000
X18200Y6000
X18200Y5000
X18200Y10500
X18200Y11500
X18200Y12500
X21700Y12500
X21700Y11500
X21700Y10500
X21700Y16000
X21700Y17000
X21700Y18000
X18200Y18000
X18200Y17000
X18200Y16000
T05
X33210Y8508
X33210Y6508
X33210Y4508
X33710Y16508
X33710Y18508
M30
