G75*
%MOIN*%
%OFA0B0*%
%FSLAX25Y25*%
%IPPOS*%
%LPD*%
%AMOC8*
5,1,8,0,0,1.08239X$1,22.5*
%
%ADD10C,0.00000*%
%ADD11R,0.02362X0.08661*%
%ADD12R,0.07098X0.06299*%
%ADD13R,0.07087X0.06299*%
%ADD14R,0.05512X0.05512*%
%ADD15R,0.06299X0.07087*%
%ADD16R,0.06299X0.07098*%
D10*
X0005000Y0005000D02*
X0005000Y0215000D01*
X0330921Y0214701D01*
X0370000Y0215000D01*
X0377000Y0209000D01*
X0377000Y0163000D01*
X0387000Y0154000D01*
X0387000Y0025000D01*
X0377000Y0015000D01*
X0377000Y0005000D01*
X0005000Y0005000D01*
D11*
X0072185Y0154748D03*
X0077185Y0154748D03*
X0082185Y0154748D03*
X0087185Y0154748D03*
X0087185Y0175220D03*
X0082185Y0175220D03*
X0077185Y0175220D03*
X0072185Y0175220D03*
X0128500Y0176299D03*
X0133500Y0176299D03*
X0138500Y0176299D03*
X0143500Y0176299D03*
X0143500Y0155827D03*
X0138500Y0155827D03*
X0133500Y0155827D03*
X0128500Y0155827D03*
X0180106Y0156787D03*
X0185106Y0156787D03*
X0190106Y0156787D03*
X0195106Y0156787D03*
X0195106Y0177260D03*
X0190106Y0177260D03*
X0185106Y0177260D03*
X0180106Y0177260D03*
D12*
X0231000Y0174402D03*
X0245000Y0174402D03*
X0259000Y0174402D03*
X0259000Y0185598D03*
X0245000Y0185598D03*
X0231000Y0185598D03*
X0195244Y0127425D03*
X0179890Y0127268D03*
X0179890Y0116071D03*
X0195244Y0116228D03*
X0143362Y0115071D03*
X0127614Y0115307D03*
X0127614Y0126504D03*
X0143362Y0126268D03*
X0087677Y0125031D03*
X0071929Y0125268D03*
X0071929Y0114071D03*
X0087677Y0113835D03*
X0193898Y0034244D03*
X0209102Y0034535D03*
X0209102Y0023339D03*
X0193898Y0023047D03*
D13*
X0211268Y0146213D03*
X0211268Y0157236D03*
X0159386Y0157795D03*
X0159386Y0146772D03*
X0103937Y0145811D03*
X0103937Y0156835D03*
X0058000Y0175488D03*
X0058000Y0186512D03*
D14*
X0106000Y0185291D03*
X0106000Y0170331D03*
X0160000Y0173205D03*
X0160000Y0188165D03*
X0212063Y0186102D03*
X0212063Y0171142D03*
D15*
X0028512Y0114000D03*
X0017488Y0114000D03*
X0171472Y0023150D03*
X0182496Y0023150D03*
D16*
X0034598Y0168000D03*
X0023402Y0168000D03*
X0025402Y0182000D03*
X0036598Y0182000D03*
M02*
