G75*
%MOIN*%
%OFA0B0*%
%FSLAX24Y24*%
%IPPOS*%
%LPD*%
%AMOC8*
5,1,8,0,0,1.08239X$1,22.5*
%
%ADD10C,0.0060*%
%ADD11C,0.0000*%
%ADD12C,0.0080*%
%ADD13C,0.0050*%
%ADD14R,0.0400X0.4000*%
%ADD15C,0.0040*%
%ADD16C,0.0030*%
D10*
X007630Y000937D02*
X007737Y000830D01*
X007950Y000830D01*
X008057Y000937D01*
X008057Y001364D01*
X007950Y001471D01*
X007737Y001471D01*
X007630Y001364D01*
X007630Y000937D01*
X008275Y000830D02*
X008595Y000830D01*
X008702Y000937D01*
X008702Y001150D01*
X008595Y001257D01*
X008275Y001257D01*
X008275Y000616D01*
X008919Y000937D02*
X008919Y001150D01*
X009026Y001257D01*
X009239Y001257D01*
X009346Y001150D01*
X009346Y001044D01*
X008919Y001044D01*
X008919Y000937D02*
X009026Y000830D01*
X009239Y000830D01*
X009564Y000830D02*
X009564Y001257D01*
X009884Y001257D01*
X009991Y001150D01*
X009991Y000830D01*
X010853Y000830D02*
X011173Y000830D01*
X011280Y000937D01*
X011280Y001044D01*
X011173Y001150D01*
X010853Y001150D01*
X010853Y000830D02*
X010853Y001471D01*
X011173Y001471D01*
X011280Y001364D01*
X011280Y001257D01*
X011173Y001150D01*
X011497Y000830D02*
X011497Y001471D01*
X012142Y001471D02*
X012462Y001471D01*
X012569Y001364D01*
X012569Y000937D01*
X012462Y000830D01*
X012142Y000830D01*
X012142Y001471D01*
X012786Y001364D02*
X012786Y000937D01*
X012893Y000830D01*
X013107Y000830D01*
X013213Y000937D01*
X013213Y001364D02*
X013107Y001471D01*
X012893Y001471D01*
X012786Y001364D01*
X011924Y000830D02*
X011497Y000830D01*
X014075Y000937D02*
X014503Y001364D01*
X014503Y000937D01*
X014396Y000830D01*
X014182Y000830D01*
X014075Y000937D01*
X014075Y001364D01*
X014182Y001471D01*
X014396Y001471D01*
X014503Y001364D01*
X015042Y001257D02*
X015256Y001471D01*
X015256Y000830D01*
X015469Y000830D02*
X015042Y000830D01*
X014827Y000830D02*
X014827Y000937D01*
X014720Y000937D01*
X014720Y000830D01*
X014827Y000830D01*
X033120Y012420D02*
X033120Y013590D01*
X034280Y013590D02*
X034280Y012420D01*
D11*
X034700Y000500D02*
X006300Y000500D01*
X006300Y021500D01*
X035200Y021500D01*
X035700Y021000D01*
X035700Y002600D01*
X034700Y001600D01*
X034700Y000500D01*
D12*
X034794Y003508D02*
X034194Y003508D01*
X034004Y003508D01*
X032430Y003508D01*
X032236Y003508D01*
X031969Y003508D01*
X031724Y003508D01*
X031606Y003508D01*
X031606Y009508D01*
X031724Y009508D01*
X031724Y003508D01*
X031969Y003508D02*
X031969Y009508D01*
X031890Y009508D01*
X031724Y009508D01*
X031831Y009629D02*
X031890Y009559D01*
X031890Y009508D01*
X031969Y009508D02*
X032053Y009508D01*
X032236Y009508D01*
X032236Y003508D01*
X032456Y004508D02*
X032458Y004562D01*
X032464Y004617D01*
X032474Y004670D01*
X032487Y004723D01*
X032505Y004774D01*
X032526Y004825D01*
X032550Y004873D01*
X032578Y004920D01*
X032610Y004964D01*
X032644Y005006D01*
X032682Y005046D01*
X032722Y005083D01*
X032765Y005116D01*
X032810Y005147D01*
X032857Y005174D01*
X032906Y005198D01*
X032956Y005218D01*
X033008Y005235D01*
X033061Y005247D01*
X033115Y005256D01*
X033169Y005261D01*
X033224Y005262D01*
X033278Y005259D01*
X033332Y005252D01*
X033385Y005241D01*
X033438Y005227D01*
X033489Y005208D01*
X033539Y005186D01*
X033587Y005161D01*
X033633Y005132D01*
X033677Y005100D01*
X033719Y005065D01*
X033757Y005027D01*
X033793Y004986D01*
X033826Y004942D01*
X033856Y004897D01*
X033882Y004849D01*
X033905Y004800D01*
X033925Y004749D01*
X033940Y004697D01*
X033952Y004643D01*
X033960Y004590D01*
X033964Y004535D01*
X033964Y004481D01*
X033960Y004426D01*
X033952Y004373D01*
X033940Y004319D01*
X033925Y004267D01*
X033905Y004216D01*
X033882Y004167D01*
X033856Y004119D01*
X033826Y004074D01*
X033793Y004030D01*
X033757Y003989D01*
X033719Y003951D01*
X033677Y003916D01*
X033633Y003884D01*
X033587Y003855D01*
X033539Y003830D01*
X033489Y003808D01*
X033438Y003789D01*
X033385Y003775D01*
X033332Y003764D01*
X033278Y003757D01*
X033224Y003754D01*
X033169Y003755D01*
X033115Y003760D01*
X033061Y003769D01*
X033008Y003781D01*
X032956Y003798D01*
X032906Y003818D01*
X032857Y003842D01*
X032810Y003869D01*
X032765Y003900D01*
X032722Y003933D01*
X032682Y003970D01*
X032644Y004010D01*
X032610Y004052D01*
X032578Y004096D01*
X032550Y004143D01*
X032526Y004191D01*
X032505Y004242D01*
X032487Y004293D01*
X032474Y004346D01*
X032464Y004399D01*
X032458Y004454D01*
X032456Y004508D01*
X034194Y003508D02*
X034194Y009508D01*
X034794Y009508D01*
X034794Y003508D01*
X032456Y006508D02*
X032458Y006562D01*
X032464Y006617D01*
X032474Y006670D01*
X032487Y006723D01*
X032505Y006774D01*
X032526Y006825D01*
X032550Y006873D01*
X032578Y006920D01*
X032610Y006964D01*
X032644Y007006D01*
X032682Y007046D01*
X032722Y007083D01*
X032765Y007116D01*
X032810Y007147D01*
X032857Y007174D01*
X032906Y007198D01*
X032956Y007218D01*
X033008Y007235D01*
X033061Y007247D01*
X033115Y007256D01*
X033169Y007261D01*
X033224Y007262D01*
X033278Y007259D01*
X033332Y007252D01*
X033385Y007241D01*
X033438Y007227D01*
X033489Y007208D01*
X033539Y007186D01*
X033587Y007161D01*
X033633Y007132D01*
X033677Y007100D01*
X033719Y007065D01*
X033757Y007027D01*
X033793Y006986D01*
X033826Y006942D01*
X033856Y006897D01*
X033882Y006849D01*
X033905Y006800D01*
X033925Y006749D01*
X033940Y006697D01*
X033952Y006643D01*
X033960Y006590D01*
X033964Y006535D01*
X033964Y006481D01*
X033960Y006426D01*
X033952Y006373D01*
X033940Y006319D01*
X033925Y006267D01*
X033905Y006216D01*
X033882Y006167D01*
X033856Y006119D01*
X033826Y006074D01*
X033793Y006030D01*
X033757Y005989D01*
X033719Y005951D01*
X033677Y005916D01*
X033633Y005884D01*
X033587Y005855D01*
X033539Y005830D01*
X033489Y005808D01*
X033438Y005789D01*
X033385Y005775D01*
X033332Y005764D01*
X033278Y005757D01*
X033224Y005754D01*
X033169Y005755D01*
X033115Y005760D01*
X033061Y005769D01*
X033008Y005781D01*
X032956Y005798D01*
X032906Y005818D01*
X032857Y005842D01*
X032810Y005869D01*
X032765Y005900D01*
X032722Y005933D01*
X032682Y005970D01*
X032644Y006010D01*
X032610Y006052D01*
X032578Y006096D01*
X032550Y006143D01*
X032526Y006191D01*
X032505Y006242D01*
X032487Y006293D01*
X032474Y006346D01*
X032464Y006399D01*
X032458Y006454D01*
X032456Y006508D01*
X032456Y008508D02*
X032458Y008562D01*
X032464Y008617D01*
X032474Y008670D01*
X032487Y008723D01*
X032505Y008774D01*
X032526Y008825D01*
X032550Y008873D01*
X032578Y008920D01*
X032610Y008964D01*
X032644Y009006D01*
X032682Y009046D01*
X032722Y009083D01*
X032765Y009116D01*
X032810Y009147D01*
X032857Y009174D01*
X032906Y009198D01*
X032956Y009218D01*
X033008Y009235D01*
X033061Y009247D01*
X033115Y009256D01*
X033169Y009261D01*
X033224Y009262D01*
X033278Y009259D01*
X033332Y009252D01*
X033385Y009241D01*
X033438Y009227D01*
X033489Y009208D01*
X033539Y009186D01*
X033587Y009161D01*
X033633Y009132D01*
X033677Y009100D01*
X033719Y009065D01*
X033757Y009027D01*
X033793Y008986D01*
X033826Y008942D01*
X033856Y008897D01*
X033882Y008849D01*
X033905Y008800D01*
X033925Y008749D01*
X033940Y008697D01*
X033952Y008643D01*
X033960Y008590D01*
X033964Y008535D01*
X033964Y008481D01*
X033960Y008426D01*
X033952Y008373D01*
X033940Y008319D01*
X033925Y008267D01*
X033905Y008216D01*
X033882Y008167D01*
X033856Y008119D01*
X033826Y008074D01*
X033793Y008030D01*
X033757Y007989D01*
X033719Y007951D01*
X033677Y007916D01*
X033633Y007884D01*
X033587Y007855D01*
X033539Y007830D01*
X033489Y007808D01*
X033438Y007789D01*
X033385Y007775D01*
X033332Y007764D01*
X033278Y007757D01*
X033224Y007754D01*
X033169Y007755D01*
X033115Y007760D01*
X033061Y007769D01*
X033008Y007781D01*
X032956Y007798D01*
X032906Y007818D01*
X032857Y007842D01*
X032810Y007869D01*
X032765Y007900D01*
X032722Y007933D01*
X032682Y007970D01*
X032644Y008010D01*
X032610Y008052D01*
X032578Y008096D01*
X032550Y008143D01*
X032526Y008191D01*
X032505Y008242D01*
X032487Y008293D01*
X032474Y008346D01*
X032464Y008399D01*
X032458Y008454D01*
X032456Y008508D01*
X032430Y009508D02*
X034004Y009508D01*
X034194Y009508D01*
X032430Y009508D02*
X032236Y009508D01*
X032112Y009629D02*
X032053Y009559D01*
X032053Y009508D01*
X032112Y009629D02*
X032112Y009733D01*
X031831Y009733D01*
X031831Y009629D01*
X022200Y009850D02*
X022200Y010000D01*
X022200Y009850D02*
X022199Y009816D01*
X022195Y009781D01*
X022187Y009748D01*
X022176Y009715D01*
X022161Y009684D01*
X022144Y009654D01*
X022123Y009626D01*
X022100Y009600D01*
X022074Y009577D01*
X022046Y009556D01*
X022016Y009539D01*
X021985Y009524D01*
X021952Y009513D01*
X021919Y009505D01*
X021884Y009501D01*
X021850Y009500D01*
X020900Y009500D01*
X020500Y009500D01*
X020500Y013500D01*
X020900Y013500D01*
X020900Y009500D01*
X019400Y009500D02*
X019000Y009500D01*
X019000Y013500D01*
X019400Y013500D01*
X019400Y009500D01*
X019000Y009500D02*
X018050Y009500D01*
X018016Y009501D01*
X017981Y009505D01*
X017948Y009513D01*
X017915Y009524D01*
X017884Y009539D01*
X017854Y009556D01*
X017826Y009577D01*
X017800Y009600D01*
X017777Y009626D01*
X017756Y009654D01*
X017739Y009684D01*
X017724Y009715D01*
X017713Y009748D01*
X017705Y009781D01*
X017701Y009816D01*
X017700Y009850D01*
X017700Y010000D01*
X018050Y008000D02*
X019000Y008000D01*
X019400Y008000D01*
X019400Y004000D01*
X019000Y004000D01*
X019000Y008000D01*
X018050Y008000D02*
X018016Y007999D01*
X017981Y007995D01*
X017948Y007987D01*
X017915Y007976D01*
X017884Y007961D01*
X017854Y007944D01*
X017826Y007923D01*
X017800Y007900D01*
X017777Y007874D01*
X017756Y007846D01*
X017739Y007816D01*
X017724Y007785D01*
X017713Y007752D01*
X017705Y007719D01*
X017701Y007684D01*
X017700Y007650D01*
X017700Y007500D01*
X020500Y008000D02*
X020900Y008000D01*
X020900Y004000D01*
X020500Y004000D01*
X020500Y008000D01*
X020900Y008000D02*
X021850Y008000D01*
X021884Y007999D01*
X021919Y007995D01*
X021952Y007987D01*
X021985Y007976D01*
X022016Y007961D01*
X022046Y007944D01*
X022074Y007923D01*
X022100Y007900D01*
X022123Y007874D01*
X022144Y007846D01*
X022161Y007816D01*
X022176Y007785D01*
X022187Y007752D01*
X022195Y007719D01*
X022199Y007684D01*
X022200Y007650D01*
X022200Y007500D01*
X022200Y004500D02*
X022200Y004350D01*
X022199Y004316D01*
X022195Y004281D01*
X022187Y004248D01*
X022176Y004215D01*
X022161Y004184D01*
X022144Y004154D01*
X022123Y004126D01*
X022100Y004100D01*
X022074Y004077D01*
X022046Y004056D01*
X022016Y004039D01*
X021985Y004024D01*
X021952Y004013D01*
X021919Y004005D01*
X021884Y004001D01*
X021850Y004000D01*
X020900Y004000D01*
X019000Y004000D02*
X018050Y004000D01*
X018016Y004001D01*
X017981Y004005D01*
X017948Y004013D01*
X017915Y004024D01*
X017884Y004039D01*
X017854Y004056D01*
X017826Y004077D01*
X017800Y004100D01*
X017777Y004126D01*
X017756Y004154D01*
X017739Y004184D01*
X017724Y004215D01*
X017713Y004248D01*
X017705Y004281D01*
X017701Y004316D01*
X017700Y004350D01*
X017700Y004500D01*
X017700Y013000D02*
X017700Y013150D01*
X017701Y013184D01*
X017705Y013219D01*
X017713Y013252D01*
X017724Y013285D01*
X017739Y013316D01*
X017756Y013346D01*
X017777Y013374D01*
X017800Y013400D01*
X017826Y013423D01*
X017854Y013444D01*
X017884Y013461D01*
X017915Y013476D01*
X017948Y013487D01*
X017981Y013495D01*
X018016Y013499D01*
X018050Y013500D01*
X019000Y013500D01*
X020900Y013500D02*
X021850Y013500D01*
X021884Y013499D01*
X021919Y013495D01*
X021952Y013487D01*
X021985Y013476D01*
X022016Y013461D01*
X022046Y013444D01*
X022074Y013423D01*
X022100Y013400D01*
X022123Y013374D01*
X022144Y013346D01*
X022161Y013316D01*
X022176Y013285D01*
X022187Y013252D01*
X022195Y013219D01*
X022199Y013184D01*
X022200Y013150D01*
X022200Y013000D01*
X021850Y015000D02*
X020900Y015000D01*
X020500Y015000D01*
X020500Y019000D01*
X020900Y019000D01*
X020900Y015000D01*
X021850Y015000D02*
X021884Y015001D01*
X021919Y015005D01*
X021952Y015013D01*
X021985Y015024D01*
X022016Y015039D01*
X022046Y015056D01*
X022074Y015077D01*
X022100Y015100D01*
X022123Y015126D01*
X022144Y015154D01*
X022161Y015184D01*
X022176Y015215D01*
X022187Y015248D01*
X022195Y015281D01*
X022199Y015316D01*
X022200Y015350D01*
X022200Y015500D01*
X019400Y015000D02*
X019000Y015000D01*
X019000Y019000D01*
X019400Y019000D01*
X019400Y015000D01*
X019000Y015000D02*
X018050Y015000D01*
X018016Y015001D01*
X017981Y015005D01*
X017948Y015013D01*
X017915Y015024D01*
X017884Y015039D01*
X017854Y015056D01*
X017826Y015077D01*
X017800Y015100D01*
X017777Y015126D01*
X017756Y015154D01*
X017739Y015184D01*
X017724Y015215D01*
X017713Y015248D01*
X017705Y015281D01*
X017701Y015316D01*
X017700Y015350D01*
X017700Y015500D01*
X017700Y018500D02*
X017700Y018650D01*
X017701Y018684D01*
X017705Y018719D01*
X017713Y018752D01*
X017724Y018785D01*
X017739Y018816D01*
X017756Y018846D01*
X017777Y018874D01*
X017800Y018900D01*
X017826Y018923D01*
X017854Y018944D01*
X017884Y018961D01*
X017915Y018976D01*
X017948Y018987D01*
X017981Y018995D01*
X018016Y018999D01*
X018050Y019000D01*
X019000Y019000D01*
X020900Y019000D02*
X021850Y019000D01*
X021884Y018999D01*
X021919Y018995D01*
X021952Y018987D01*
X021985Y018976D01*
X022016Y018961D01*
X022046Y018944D01*
X022074Y018923D01*
X022100Y018900D01*
X022123Y018874D01*
X022144Y018846D01*
X022161Y018816D01*
X022176Y018785D01*
X022187Y018752D01*
X022195Y018719D01*
X022199Y018684D01*
X022200Y018650D01*
X022200Y018500D01*
X032106Y019508D02*
X032106Y015508D01*
X032224Y015508D01*
X032224Y019508D01*
X032106Y019508D01*
X032224Y019508D02*
X032390Y019508D01*
X032469Y019508D01*
X032469Y015508D01*
X032224Y015508D01*
X032469Y015508D02*
X032736Y015508D01*
X032930Y015508D01*
X034504Y015508D01*
X034694Y015508D01*
X035294Y015508D01*
X035294Y019508D01*
X034694Y019508D01*
X034504Y019508D01*
X032930Y019508D01*
X032736Y019508D01*
X032736Y015508D01*
X032956Y016508D02*
X032958Y016562D01*
X032964Y016617D01*
X032974Y016670D01*
X032987Y016723D01*
X033005Y016774D01*
X033026Y016825D01*
X033050Y016873D01*
X033078Y016920D01*
X033110Y016964D01*
X033144Y017006D01*
X033182Y017046D01*
X033222Y017083D01*
X033265Y017116D01*
X033310Y017147D01*
X033357Y017174D01*
X033406Y017198D01*
X033456Y017218D01*
X033508Y017235D01*
X033561Y017247D01*
X033615Y017256D01*
X033669Y017261D01*
X033724Y017262D01*
X033778Y017259D01*
X033832Y017252D01*
X033885Y017241D01*
X033938Y017227D01*
X033989Y017208D01*
X034039Y017186D01*
X034087Y017161D01*
X034133Y017132D01*
X034177Y017100D01*
X034219Y017065D01*
X034257Y017027D01*
X034293Y016986D01*
X034326Y016942D01*
X034356Y016897D01*
X034382Y016849D01*
X034405Y016800D01*
X034425Y016749D01*
X034440Y016697D01*
X034452Y016643D01*
X034460Y016590D01*
X034464Y016535D01*
X034464Y016481D01*
X034460Y016426D01*
X034452Y016373D01*
X034440Y016319D01*
X034425Y016267D01*
X034405Y016216D01*
X034382Y016167D01*
X034356Y016119D01*
X034326Y016074D01*
X034293Y016030D01*
X034257Y015989D01*
X034219Y015951D01*
X034177Y015916D01*
X034133Y015884D01*
X034087Y015855D01*
X034039Y015830D01*
X033989Y015808D01*
X033938Y015789D01*
X033885Y015775D01*
X033832Y015764D01*
X033778Y015757D01*
X033724Y015754D01*
X033669Y015755D01*
X033615Y015760D01*
X033561Y015769D01*
X033508Y015781D01*
X033456Y015798D01*
X033406Y015818D01*
X033357Y015842D01*
X033310Y015869D01*
X033265Y015900D01*
X033222Y015933D01*
X033182Y015970D01*
X033144Y016010D01*
X033110Y016052D01*
X033078Y016096D01*
X033050Y016143D01*
X033026Y016191D01*
X033005Y016242D01*
X032987Y016293D01*
X032974Y016346D01*
X032964Y016399D01*
X032958Y016454D01*
X032956Y016508D01*
X034694Y015508D02*
X034694Y019508D01*
X032956Y018508D02*
X032958Y018562D01*
X032964Y018617D01*
X032974Y018670D01*
X032987Y018723D01*
X033005Y018774D01*
X033026Y018825D01*
X033050Y018873D01*
X033078Y018920D01*
X033110Y018964D01*
X033144Y019006D01*
X033182Y019046D01*
X033222Y019083D01*
X033265Y019116D01*
X033310Y019147D01*
X033357Y019174D01*
X033406Y019198D01*
X033456Y019218D01*
X033508Y019235D01*
X033561Y019247D01*
X033615Y019256D01*
X033669Y019261D01*
X033724Y019262D01*
X033778Y019259D01*
X033832Y019252D01*
X033885Y019241D01*
X033938Y019227D01*
X033989Y019208D01*
X034039Y019186D01*
X034087Y019161D01*
X034133Y019132D01*
X034177Y019100D01*
X034219Y019065D01*
X034257Y019027D01*
X034293Y018986D01*
X034326Y018942D01*
X034356Y018897D01*
X034382Y018849D01*
X034405Y018800D01*
X034425Y018749D01*
X034440Y018697D01*
X034452Y018643D01*
X034460Y018590D01*
X034464Y018535D01*
X034464Y018481D01*
X034460Y018426D01*
X034452Y018373D01*
X034440Y018319D01*
X034425Y018267D01*
X034405Y018216D01*
X034382Y018167D01*
X034356Y018119D01*
X034326Y018074D01*
X034293Y018030D01*
X034257Y017989D01*
X034219Y017951D01*
X034177Y017916D01*
X034133Y017884D01*
X034087Y017855D01*
X034039Y017830D01*
X033989Y017808D01*
X033938Y017789D01*
X033885Y017775D01*
X033832Y017764D01*
X033778Y017757D01*
X033724Y017754D01*
X033669Y017755D01*
X033615Y017760D01*
X033561Y017769D01*
X033508Y017781D01*
X033456Y017798D01*
X033406Y017818D01*
X033357Y017842D01*
X033310Y017869D01*
X033265Y017900D01*
X033222Y017933D01*
X033182Y017970D01*
X033144Y018010D01*
X033110Y018052D01*
X033078Y018096D01*
X033050Y018143D01*
X033026Y018191D01*
X033005Y018242D01*
X032987Y018293D01*
X032974Y018346D01*
X032964Y018399D01*
X032958Y018454D01*
X032956Y018508D01*
X032736Y019508D02*
X032553Y019508D01*
X032469Y019508D01*
X032390Y019508D02*
X032390Y019559D01*
X032331Y019629D01*
X032331Y019733D01*
X032612Y019733D01*
X032612Y019629D01*
X032553Y019559D01*
X032553Y019508D01*
D13*
X020325Y016686D02*
X020325Y016385D01*
X020325Y016536D02*
X019875Y016536D01*
X020025Y016385D01*
X019950Y016225D02*
X020250Y016225D01*
X020325Y016150D01*
X020325Y016000D01*
X020250Y015925D01*
X019950Y015925D01*
X019875Y016000D01*
X019875Y016150D01*
X019950Y016225D01*
X020175Y016075D02*
X020325Y016225D01*
X019950Y017204D02*
X019650Y017204D01*
X019575Y017279D01*
X019575Y017429D01*
X019650Y017504D01*
X019950Y017504D01*
X020025Y017429D01*
X020025Y017279D01*
X019950Y017204D01*
X019875Y017354D02*
X020025Y017504D01*
X020025Y017665D02*
X019725Y017965D01*
X019650Y017965D01*
X019575Y017890D01*
X019575Y017740D01*
X019650Y017665D01*
X020025Y017665D02*
X020025Y017965D01*
X019800Y012465D02*
X019800Y012165D01*
X019575Y012390D01*
X020025Y012390D01*
X020025Y012004D02*
X019875Y011854D01*
X019950Y011704D02*
X019650Y011704D01*
X019575Y011779D01*
X019575Y011929D01*
X019650Y012004D01*
X019950Y012004D01*
X020025Y011929D01*
X020025Y011779D01*
X019950Y011704D01*
X019950Y011186D02*
X019875Y011111D01*
X019875Y010960D01*
X019950Y010885D01*
X019950Y010725D02*
X019875Y010650D01*
X019875Y010500D01*
X019950Y010425D01*
X020250Y010425D01*
X020325Y010500D01*
X020325Y010650D01*
X020250Y010725D01*
X019950Y010725D01*
X020175Y010575D02*
X020325Y010725D01*
X020250Y010885D02*
X020325Y010960D01*
X020325Y011111D01*
X020250Y011186D01*
X020175Y011186D01*
X020100Y011111D01*
X020100Y011036D01*
X020100Y011111D02*
X020025Y011186D01*
X019950Y011186D01*
X019950Y006965D02*
X019875Y006965D01*
X019800Y006890D01*
X019800Y006665D01*
X019950Y006665D01*
X020025Y006740D01*
X020025Y006890D01*
X019950Y006965D01*
X019650Y006815D02*
X019800Y006665D01*
X019650Y006815D02*
X019575Y006965D01*
X019650Y006504D02*
X019950Y006504D01*
X020025Y006429D01*
X020025Y006279D01*
X019950Y006204D01*
X019650Y006204D01*
X019575Y006279D01*
X019575Y006429D01*
X019650Y006504D01*
X019875Y006354D02*
X020025Y006504D01*
X020100Y005686D02*
X020250Y005686D01*
X020325Y005611D01*
X020325Y005460D01*
X020250Y005385D01*
X020100Y005385D02*
X020025Y005536D01*
X020025Y005611D01*
X020100Y005686D01*
X019875Y005686D02*
X019875Y005385D01*
X020100Y005385D01*
X020250Y005225D02*
X020325Y005150D01*
X020325Y005000D01*
X020250Y004925D01*
X019950Y004925D01*
X019875Y005000D01*
X019875Y005150D01*
X019950Y005225D01*
X020250Y005225D01*
X020325Y005225D02*
X020175Y005075D01*
D14*
X020700Y006000D03*
X019200Y006000D03*
X019200Y011500D03*
X020700Y011500D03*
X020700Y017000D03*
X019200Y017000D03*
D15*
X016630Y016590D02*
X016630Y016436D01*
X016553Y016360D01*
X016400Y016360D01*
X016400Y016590D01*
X016477Y016667D01*
X016553Y016667D01*
X016630Y016590D01*
X016400Y016360D02*
X016246Y016513D01*
X016170Y016667D01*
X016170Y016053D02*
X016630Y016053D01*
X016630Y016206D02*
X016630Y015899D01*
X016630Y015746D02*
X016477Y015592D01*
X016477Y015669D02*
X016477Y015439D01*
X016630Y015439D02*
X016170Y015439D01*
X016170Y015669D01*
X016246Y015746D01*
X016400Y015746D01*
X016477Y015669D01*
X016323Y015899D02*
X016170Y016053D01*
X015867Y014030D02*
X015560Y014030D01*
X015867Y014030D02*
X015867Y013954D01*
X015560Y013647D01*
X015560Y013570D01*
X015406Y013570D02*
X015099Y013570D01*
X014946Y013570D02*
X014792Y013723D01*
X014869Y013723D02*
X014639Y013723D01*
X014639Y013570D02*
X014639Y014030D01*
X014869Y014030D01*
X014946Y013954D01*
X014946Y013800D01*
X014869Y013723D01*
X015099Y013877D02*
X015253Y014030D01*
X015253Y013570D01*
X012948Y013854D02*
X012641Y013547D01*
X012641Y013470D01*
X012487Y013470D02*
X012180Y013470D01*
X012334Y013470D02*
X012334Y013930D01*
X012180Y013777D01*
X012027Y013854D02*
X011950Y013930D01*
X011797Y013930D01*
X011720Y013854D01*
X011720Y013547D01*
X011797Y013470D01*
X011950Y013470D01*
X012027Y013547D01*
X012641Y013930D02*
X012948Y013930D01*
X012948Y013854D01*
X009923Y012587D02*
X009923Y012126D01*
X010000Y012356D02*
X009693Y012356D01*
X009923Y012587D01*
X009539Y012510D02*
X009462Y012587D01*
X009232Y012587D01*
X009232Y012126D01*
X009462Y012126D01*
X009539Y012203D01*
X009539Y012510D01*
X010470Y012030D02*
X010623Y012030D01*
X010547Y012030D02*
X010547Y011570D01*
X010623Y011570D02*
X010470Y011570D01*
X010777Y011647D02*
X010854Y011570D01*
X011007Y011570D01*
X011084Y011647D01*
X011237Y011647D02*
X011314Y011570D01*
X011468Y011570D01*
X011544Y011647D01*
X011544Y011723D01*
X011468Y011800D01*
X011391Y011800D01*
X011468Y011800D02*
X011544Y011877D01*
X011544Y011954D01*
X011468Y012030D01*
X011314Y012030D01*
X011237Y011954D01*
X011084Y011954D02*
X011007Y012030D01*
X010854Y012030D01*
X010777Y011954D01*
X010777Y011647D01*
X008148Y011547D02*
X008071Y011470D01*
X007918Y011470D01*
X007841Y011547D01*
X008148Y011854D01*
X008148Y011547D01*
X008148Y011854D02*
X008071Y011930D01*
X007918Y011930D01*
X007841Y011854D01*
X007841Y011547D01*
X007687Y011470D02*
X007380Y011470D01*
X007227Y011470D02*
X007073Y011623D01*
X007150Y011623D02*
X006920Y011623D01*
X006920Y011470D02*
X006920Y011930D01*
X007150Y011930D01*
X007227Y011854D01*
X007227Y011700D01*
X007150Y011623D01*
X007380Y011777D02*
X007534Y011930D01*
X007534Y011470D01*
X007534Y010430D02*
X007534Y009970D01*
X007687Y009970D02*
X007380Y009970D01*
X007227Y009970D02*
X007073Y010123D01*
X007150Y010123D02*
X006920Y010123D01*
X006920Y009970D02*
X006920Y010430D01*
X007150Y010430D01*
X007227Y010354D01*
X007227Y010200D01*
X007150Y010123D01*
X007380Y010277D02*
X007534Y010430D01*
X007841Y010277D02*
X007994Y010430D01*
X007994Y009970D01*
X007841Y009970D02*
X008148Y009970D01*
X012220Y007354D02*
X012297Y007430D01*
X012450Y007430D01*
X012527Y007354D01*
X012680Y007277D02*
X012834Y007430D01*
X012834Y006970D01*
X012987Y006970D02*
X012680Y006970D01*
X012527Y007047D02*
X012450Y006970D01*
X012297Y006970D01*
X012220Y007047D01*
X012220Y007354D01*
X013141Y007200D02*
X013141Y007047D01*
X013218Y006970D01*
X013371Y006970D01*
X013448Y007047D01*
X013448Y007123D01*
X013371Y007200D01*
X013141Y007200D01*
X013294Y007354D01*
X013448Y007430D01*
X014389Y009070D02*
X014389Y009530D01*
X014619Y009530D01*
X014696Y009454D01*
X014696Y009300D01*
X014619Y009223D01*
X014389Y009223D01*
X014542Y009223D02*
X014696Y009070D01*
X014849Y009070D02*
X015156Y009070D01*
X015003Y009070D02*
X015003Y009530D01*
X014849Y009377D01*
X015310Y009454D02*
X015386Y009530D01*
X015540Y009530D01*
X015617Y009454D01*
X015617Y009377D01*
X015540Y009300D01*
X015617Y009223D01*
X015617Y009147D01*
X015540Y009070D01*
X015386Y009070D01*
X015310Y009147D01*
X015463Y009300D02*
X015540Y009300D01*
X015599Y011320D02*
X015906Y011320D01*
X015753Y011320D02*
X015753Y011780D01*
X015599Y011627D01*
X015446Y011704D02*
X015446Y011550D01*
X015369Y011473D01*
X015139Y011473D01*
X015139Y011320D02*
X015139Y011780D01*
X015369Y011780D01*
X015446Y011704D01*
X015292Y011473D02*
X015446Y011320D01*
X016060Y011320D02*
X016367Y011627D01*
X016367Y011704D01*
X016290Y011780D01*
X016136Y011780D01*
X016060Y011704D01*
X016060Y011320D02*
X016367Y011320D01*
X023270Y011970D02*
X023270Y012200D01*
X023346Y012277D01*
X023500Y012277D01*
X023577Y012200D01*
X023577Y011970D01*
X023730Y011970D02*
X023270Y011970D01*
X023577Y012123D02*
X023730Y012277D01*
X023730Y012430D02*
X023423Y012737D01*
X023346Y012737D01*
X023270Y012661D01*
X023270Y012507D01*
X023346Y012430D01*
X023730Y012430D02*
X023730Y012737D01*
X023500Y012891D02*
X023500Y013198D01*
X023730Y013121D02*
X023270Y013121D01*
X023500Y012891D01*
X026170Y012917D02*
X026170Y012610D01*
X026400Y012610D01*
X026323Y012763D01*
X026323Y012840D01*
X026400Y012917D01*
X026553Y012917D01*
X026630Y012840D01*
X026630Y012686D01*
X026553Y012610D01*
X026630Y012456D02*
X026630Y012149D01*
X026323Y012456D01*
X026246Y012456D01*
X026170Y012379D01*
X026170Y012226D01*
X026246Y012149D01*
X026246Y011996D02*
X026400Y011996D01*
X026477Y011919D01*
X026477Y011689D01*
X026630Y011689D02*
X026170Y011689D01*
X026170Y011919D01*
X026246Y011996D01*
X026477Y011842D02*
X026630Y011996D01*
X025230Y010671D02*
X025230Y010518D01*
X025153Y010441D01*
X024846Y010748D01*
X025153Y010748D01*
X025230Y010671D01*
X025153Y010441D02*
X024846Y010441D01*
X024770Y010518D01*
X024770Y010671D01*
X024846Y010748D01*
X024846Y010287D02*
X024770Y010211D01*
X024770Y010057D01*
X024846Y009980D01*
X024846Y009827D02*
X024770Y009750D01*
X024770Y009597D01*
X024846Y009520D01*
X025153Y009520D01*
X025230Y009597D01*
X025230Y009750D01*
X025153Y009827D01*
X025230Y009980D02*
X024923Y010287D01*
X024846Y010287D01*
X025230Y010287D02*
X025230Y009980D01*
X023730Y009930D02*
X023423Y010237D01*
X023346Y010237D01*
X023270Y010161D01*
X023270Y010007D01*
X023346Y009930D01*
X023346Y009777D02*
X023500Y009777D01*
X023577Y009700D01*
X023577Y009470D01*
X023730Y009470D02*
X023270Y009470D01*
X023270Y009700D01*
X023346Y009777D01*
X023577Y009623D02*
X023730Y009777D01*
X023730Y009930D02*
X023730Y010237D01*
X023730Y010391D02*
X023423Y010698D01*
X023346Y010698D01*
X023270Y010621D01*
X023270Y010468D01*
X023346Y010391D01*
X023730Y010391D02*
X023730Y010698D01*
X027670Y010340D02*
X027746Y010417D01*
X027823Y010417D01*
X027900Y010340D01*
X027977Y010417D01*
X028053Y010417D01*
X028130Y010340D01*
X028130Y010186D01*
X028053Y010110D01*
X028130Y009956D02*
X028130Y009649D01*
X027823Y009956D01*
X027746Y009956D01*
X027670Y009879D01*
X027670Y009726D01*
X027746Y009649D01*
X027746Y009496D02*
X027900Y009496D01*
X027977Y009419D01*
X027977Y009189D01*
X028130Y009189D02*
X027670Y009189D01*
X027670Y009419D01*
X027746Y009496D01*
X027977Y009342D02*
X028130Y009496D01*
X027746Y010110D02*
X027670Y010186D01*
X027670Y010340D01*
X027900Y010340D02*
X027900Y010263D01*
X031020Y011970D02*
X031020Y012200D01*
X031096Y012277D01*
X031250Y012277D01*
X031327Y012200D01*
X031327Y011970D01*
X031480Y011970D02*
X031020Y011970D01*
X031327Y012123D02*
X031480Y012277D01*
X031250Y012430D02*
X031250Y012737D01*
X031480Y012661D02*
X031020Y012661D01*
X031250Y012430D01*
X030198Y012547D02*
X030121Y012470D01*
X029968Y012470D01*
X029891Y012547D01*
X029891Y012700D02*
X030044Y012777D01*
X030121Y012777D01*
X030198Y012700D01*
X030198Y012547D01*
X029891Y012700D02*
X029891Y012930D01*
X030198Y012930D01*
X029584Y012930D02*
X029584Y012470D01*
X029737Y012470D02*
X029430Y012470D01*
X029277Y012547D02*
X029200Y012470D01*
X029047Y012470D01*
X028970Y012547D01*
X028970Y012854D01*
X029047Y012930D01*
X029200Y012930D01*
X029277Y012854D01*
X029430Y012777D02*
X029584Y012930D01*
X032470Y012737D02*
X032470Y012430D01*
X032700Y012430D01*
X032623Y012584D01*
X032623Y012661D01*
X032700Y012737D01*
X032853Y012737D01*
X032930Y012661D01*
X032930Y012507D01*
X032853Y012430D01*
X032930Y012277D02*
X032777Y012123D01*
X032777Y012200D02*
X032777Y011970D01*
X032930Y011970D02*
X032470Y011970D01*
X032470Y012200D01*
X032546Y012277D01*
X032700Y012277D01*
X032777Y012200D01*
X035430Y009237D02*
X035430Y008930D01*
X035430Y008777D02*
X034970Y008470D01*
X034970Y008777D02*
X035430Y008470D01*
X035123Y008930D02*
X034970Y009084D01*
X035430Y009084D01*
X028130Y004610D02*
X028053Y004610D01*
X027746Y004917D01*
X027670Y004917D01*
X027670Y004610D01*
X027746Y004456D02*
X027670Y004379D01*
X027670Y004226D01*
X027746Y004149D01*
X027746Y003996D02*
X027900Y003996D01*
X027977Y003919D01*
X027977Y003689D01*
X028130Y003689D02*
X027670Y003689D01*
X027670Y003919D01*
X027746Y003996D01*
X027977Y003842D02*
X028130Y003996D01*
X028130Y004149D02*
X027823Y004456D01*
X027746Y004456D01*
X028130Y004456D02*
X028130Y004149D01*
X025567Y003570D02*
X025260Y003570D01*
X025413Y003570D02*
X025413Y004030D01*
X025260Y003877D01*
X025106Y003877D02*
X025106Y003954D01*
X025029Y004030D01*
X024876Y004030D01*
X024799Y003954D01*
X024646Y003954D02*
X024569Y004030D01*
X024416Y004030D01*
X024339Y003954D01*
X024339Y003647D01*
X024416Y003570D01*
X024569Y003570D01*
X024646Y003647D01*
X024799Y003570D02*
X025106Y003877D01*
X025106Y003570D02*
X024799Y003570D01*
X022730Y003970D02*
X022270Y003970D01*
X022270Y004200D01*
X022346Y004277D01*
X022500Y004277D01*
X022577Y004200D01*
X022577Y003970D01*
X022577Y004123D02*
X022730Y004277D01*
X022730Y004430D02*
X022423Y004737D01*
X022346Y004737D01*
X022270Y004661D01*
X022270Y004507D01*
X022346Y004430D01*
X022730Y004430D02*
X022730Y004737D01*
X022653Y004891D02*
X022730Y004968D01*
X022730Y005121D01*
X022653Y005198D01*
X022577Y005198D01*
X022500Y005121D01*
X022500Y004891D01*
X022653Y004891D01*
X022500Y004891D02*
X022346Y005044D01*
X022270Y005198D01*
X023270Y006470D02*
X023270Y006700D01*
X023346Y006777D01*
X023500Y006777D01*
X023577Y006700D01*
X023577Y006470D01*
X023730Y006470D02*
X023270Y006470D01*
X023577Y006623D02*
X023730Y006777D01*
X023730Y006930D02*
X023423Y007237D01*
X023346Y007237D01*
X023270Y007161D01*
X023270Y007007D01*
X023346Y006930D01*
X023730Y006930D02*
X023730Y007237D01*
X023653Y007391D02*
X023577Y007391D01*
X023500Y007468D01*
X023500Y007621D01*
X023577Y007698D01*
X023653Y007698D01*
X023730Y007621D01*
X023730Y007468D01*
X023653Y007391D01*
X023500Y007468D02*
X023423Y007391D01*
X023346Y007391D01*
X023270Y007468D01*
X023270Y007621D01*
X023346Y007698D01*
X023423Y007698D01*
X023500Y007621D01*
X026170Y007340D02*
X026170Y007186D01*
X026246Y007110D01*
X026323Y007110D01*
X026400Y007186D01*
X026400Y007417D01*
X026553Y007417D02*
X026246Y007417D01*
X026170Y007340D01*
X026553Y007417D02*
X026630Y007340D01*
X026630Y007186D01*
X026553Y007110D01*
X026630Y006956D02*
X026630Y006649D01*
X026323Y006956D01*
X026246Y006956D01*
X026170Y006879D01*
X026170Y006726D01*
X026246Y006649D01*
X026246Y006496D02*
X026400Y006496D01*
X026477Y006419D01*
X026477Y006189D01*
X026630Y006189D02*
X026170Y006189D01*
X026170Y006419D01*
X026246Y006496D01*
X026477Y006342D02*
X026630Y006496D01*
X016867Y006454D02*
X016867Y006377D01*
X016790Y006300D01*
X016636Y006300D01*
X016560Y006377D01*
X016560Y006454D01*
X016636Y006530D01*
X016790Y006530D01*
X016867Y006454D01*
X016790Y006300D02*
X016867Y006223D01*
X016867Y006147D01*
X016790Y006070D01*
X016636Y006070D01*
X016560Y006147D01*
X016560Y006223D01*
X016636Y006300D01*
X016406Y006300D02*
X016329Y006223D01*
X016099Y006223D01*
X016099Y006070D02*
X016099Y006530D01*
X016329Y006530D01*
X016406Y006454D01*
X016406Y006300D01*
X016253Y006223D02*
X016406Y006070D01*
X015540Y003530D02*
X015386Y003530D01*
X015310Y003454D01*
X015310Y003377D01*
X015386Y003300D01*
X015617Y003300D01*
X015617Y003147D02*
X015617Y003454D01*
X015540Y003530D01*
X015156Y003454D02*
X015156Y003300D01*
X015079Y003223D01*
X014849Y003223D01*
X014849Y003070D02*
X014849Y003530D01*
X015079Y003530D01*
X015156Y003454D01*
X015003Y003223D02*
X015156Y003070D01*
X015310Y003147D02*
X015386Y003070D01*
X015540Y003070D01*
X015617Y003147D01*
X011544Y005147D02*
X011468Y005070D01*
X011314Y005070D01*
X011237Y005147D01*
X011084Y005147D02*
X011007Y005070D01*
X010854Y005070D01*
X010777Y005147D01*
X010777Y005454D01*
X010854Y005530D01*
X011007Y005530D01*
X011084Y005454D01*
X011237Y005530D02*
X011237Y005300D01*
X011391Y005377D01*
X011468Y005377D01*
X011544Y005300D01*
X011544Y005147D01*
X011544Y005530D02*
X011237Y005530D01*
X010623Y005530D02*
X010470Y005530D01*
X010547Y005530D02*
X010547Y005070D01*
X010623Y005070D02*
X010470Y005070D01*
X010423Y005626D02*
X010269Y005626D01*
X010193Y005703D01*
X010039Y005703D02*
X010039Y006010D01*
X009962Y006087D01*
X009732Y006087D01*
X009732Y005626D01*
X009962Y005626D01*
X010039Y005703D01*
X010193Y006010D02*
X010269Y006087D01*
X010423Y006087D01*
X010500Y006010D01*
X010500Y005933D01*
X010423Y005856D01*
X010500Y005780D01*
X010500Y005703D01*
X010423Y005626D01*
X010423Y005856D02*
X010346Y005856D01*
X007687Y005430D02*
X007534Y005354D01*
X007380Y005200D01*
X007611Y005200D01*
X007687Y005123D01*
X007687Y005047D01*
X007611Y004970D01*
X007457Y004970D01*
X007380Y005047D01*
X007380Y005200D01*
X007227Y005200D02*
X007150Y005123D01*
X006920Y005123D01*
X006920Y004970D02*
X006920Y005430D01*
X007150Y005430D01*
X007227Y005354D01*
X007227Y005200D01*
X007073Y005123D02*
X007227Y004970D01*
X007150Y003930D02*
X007227Y003854D01*
X007227Y003700D01*
X007150Y003623D01*
X006920Y003623D01*
X006920Y003470D02*
X006920Y003930D01*
X007150Y003930D01*
X007380Y003930D02*
X007687Y003930D01*
X007687Y003854D01*
X007380Y003547D01*
X007380Y003470D01*
X007227Y003470D02*
X007073Y003623D01*
X006920Y014970D02*
X006920Y015430D01*
X007150Y015430D01*
X007227Y015354D01*
X007227Y015200D01*
X007150Y015123D01*
X006920Y015123D01*
X007073Y015123D02*
X007227Y014970D01*
X007380Y014970D02*
X007687Y014970D01*
X007534Y014970D02*
X007534Y015430D01*
X007380Y015277D01*
X007841Y015200D02*
X007841Y015430D01*
X008148Y015430D01*
X008071Y015277D02*
X008148Y015200D01*
X008148Y015047D01*
X008071Y014970D01*
X007918Y014970D01*
X007841Y015047D01*
X007841Y015200D02*
X007994Y015277D01*
X008071Y015277D01*
X008071Y016470D02*
X008071Y016930D01*
X007841Y016700D01*
X008148Y016700D01*
X007687Y016470D02*
X007380Y016470D01*
X007227Y016470D02*
X007073Y016623D01*
X007150Y016623D02*
X006920Y016623D01*
X006920Y016470D02*
X006920Y016930D01*
X007150Y016930D01*
X007227Y016854D01*
X007227Y016700D01*
X007150Y016623D01*
X007380Y016777D02*
X007534Y016930D01*
X007534Y016470D01*
X009232Y017126D02*
X009232Y017587D01*
X009462Y017587D01*
X009539Y017510D01*
X009539Y017203D01*
X009462Y017126D01*
X009232Y017126D01*
X009693Y017203D02*
X009769Y017126D01*
X009923Y017126D01*
X010000Y017203D01*
X010000Y017356D01*
X009923Y017433D01*
X009846Y017433D01*
X009693Y017356D01*
X009693Y017587D01*
X010000Y017587D01*
X010470Y017030D02*
X010623Y017030D01*
X010547Y017030D02*
X010547Y016570D01*
X010623Y016570D02*
X010470Y016570D01*
X010777Y016647D02*
X010854Y016570D01*
X011007Y016570D01*
X011084Y016647D01*
X011237Y016800D02*
X011544Y016800D01*
X011468Y016570D02*
X011468Y017030D01*
X011237Y016800D01*
X011084Y016954D02*
X011007Y017030D01*
X010854Y017030D01*
X010777Y016954D01*
X010777Y016647D01*
X011797Y018470D02*
X011950Y018470D01*
X012027Y018547D01*
X012180Y018470D02*
X012487Y018470D01*
X012334Y018470D02*
X012334Y018930D01*
X012180Y018777D01*
X012027Y018854D02*
X011950Y018930D01*
X011797Y018930D01*
X011720Y018854D01*
X011720Y018547D01*
X011797Y018470D01*
X012641Y018547D02*
X012641Y018623D01*
X012718Y018700D01*
X012871Y018700D01*
X012948Y018623D01*
X012948Y018547D01*
X012871Y018470D01*
X012718Y018470D01*
X012641Y018547D01*
X012718Y018700D02*
X012641Y018777D01*
X012641Y018854D01*
X012718Y018930D01*
X012871Y018930D01*
X012948Y018854D01*
X012948Y018777D01*
X012871Y018700D01*
X023270Y018621D02*
X023270Y018468D01*
X023346Y018391D01*
X023653Y018391D01*
X023346Y018698D01*
X023653Y018698D01*
X023730Y018621D01*
X023730Y018468D01*
X023653Y018391D01*
X023730Y018237D02*
X023730Y017930D01*
X023423Y018237D01*
X023346Y018237D01*
X023270Y018161D01*
X023270Y018007D01*
X023346Y017930D01*
X023346Y017777D02*
X023500Y017777D01*
X023577Y017700D01*
X023577Y017470D01*
X023730Y017470D02*
X023270Y017470D01*
X023270Y017700D01*
X023346Y017777D01*
X023577Y017623D02*
X023730Y017777D01*
X023270Y018621D02*
X023346Y018698D01*
X026170Y018263D02*
X026323Y018110D01*
X026323Y017956D02*
X026246Y017956D01*
X026170Y017879D01*
X026170Y017726D01*
X026246Y017649D01*
X026246Y017496D02*
X026400Y017496D01*
X026477Y017419D01*
X026477Y017189D01*
X026630Y017189D02*
X026170Y017189D01*
X026170Y017419D01*
X026246Y017496D01*
X026477Y017342D02*
X026630Y017496D01*
X026630Y017649D02*
X026323Y017956D01*
X026630Y017956D02*
X026630Y017649D01*
X026630Y018110D02*
X026630Y018417D01*
X026630Y018263D02*
X026170Y018263D01*
X028770Y018200D02*
X028770Y017970D01*
X029230Y017970D01*
X029077Y017970D02*
X029077Y018200D01*
X029000Y018277D01*
X028846Y018277D01*
X028770Y018200D01*
X028923Y018430D02*
X028770Y018584D01*
X029230Y018584D01*
X029230Y018737D02*
X029230Y018430D01*
X029230Y018277D02*
X029077Y018123D01*
X029077Y018891D02*
X029000Y018968D01*
X029000Y019121D01*
X029077Y019198D01*
X029153Y019198D01*
X029230Y019121D01*
X029230Y018968D01*
X029153Y018891D01*
X029077Y018891D01*
X029000Y018968D02*
X028923Y018891D01*
X028846Y018891D01*
X028770Y018968D01*
X028770Y019121D01*
X028846Y019198D01*
X028923Y019198D01*
X029000Y019121D01*
X029000Y016698D02*
X029000Y016468D01*
X028923Y016391D01*
X028846Y016391D01*
X028770Y016468D01*
X028770Y016621D01*
X028846Y016698D01*
X029153Y016698D01*
X029230Y016621D01*
X029230Y016468D01*
X029153Y016391D01*
X029230Y016237D02*
X029230Y015930D01*
X029230Y015777D02*
X029077Y015623D01*
X029077Y015700D02*
X029077Y015470D01*
X029230Y015470D02*
X028770Y015470D01*
X028770Y015700D01*
X028846Y015777D01*
X029000Y015777D01*
X029077Y015700D01*
X028923Y015930D02*
X028770Y016084D01*
X029230Y016084D01*
X030270Y016134D02*
X030730Y016134D01*
X030730Y016287D02*
X030730Y015980D01*
X030653Y015827D02*
X030730Y015750D01*
X030730Y015597D01*
X030653Y015520D01*
X030346Y015520D01*
X030270Y015597D01*
X030270Y015750D01*
X030346Y015827D01*
X030423Y015980D02*
X030270Y016134D01*
X030346Y016441D02*
X030423Y016441D01*
X030500Y016518D01*
X030500Y016748D01*
X030653Y016748D02*
X030346Y016748D01*
X030270Y016671D01*
X030270Y016518D01*
X030346Y016441D01*
X030653Y016441D02*
X030730Y016518D01*
X030730Y016671D01*
X030653Y016748D01*
X028130Y015840D02*
X028130Y015686D01*
X028053Y015610D01*
X028130Y015456D02*
X027977Y015303D01*
X027977Y015379D02*
X027977Y015149D01*
X028130Y015149D02*
X027670Y015149D01*
X027670Y015379D01*
X027746Y015456D01*
X027900Y015456D01*
X027977Y015379D01*
X027746Y015610D02*
X027670Y015686D01*
X027670Y015840D01*
X027746Y015917D01*
X027823Y015917D01*
X027900Y015840D01*
X027977Y015917D01*
X028053Y015917D01*
X028130Y015840D01*
X027900Y015840D02*
X027900Y015763D01*
X025230Y015711D02*
X025230Y015557D01*
X025153Y015480D01*
X025000Y015480D01*
X025000Y015711D01*
X025077Y015787D01*
X025153Y015787D01*
X025230Y015711D01*
X025000Y015480D02*
X024846Y015634D01*
X024770Y015787D01*
X024846Y015327D02*
X024770Y015250D01*
X024770Y015097D01*
X024846Y015020D01*
X025153Y015020D01*
X025230Y015097D01*
X025230Y015250D01*
X025153Y015327D01*
X023730Y015277D02*
X023577Y015123D01*
X023577Y015200D02*
X023577Y014970D01*
X023730Y014970D02*
X023270Y014970D01*
X023270Y015200D01*
X023346Y015277D01*
X023500Y015277D01*
X023577Y015200D01*
X023730Y015430D02*
X023423Y015737D01*
X023346Y015737D01*
X023270Y015661D01*
X023270Y015507D01*
X023346Y015430D01*
X023730Y015430D02*
X023730Y015737D01*
X035470Y018470D02*
X035930Y018777D01*
X035930Y018930D02*
X035623Y019237D01*
X035546Y019237D01*
X035470Y019160D01*
X035470Y019007D01*
X035546Y018930D01*
X035470Y018777D02*
X035930Y018470D01*
X035930Y018930D02*
X035930Y019237D01*
D16*
X027844Y019677D02*
X027782Y019615D01*
X027658Y019615D01*
X027597Y019677D01*
X027844Y019924D01*
X027844Y019677D01*
X027597Y019677D02*
X027597Y019924D01*
X027658Y019985D01*
X027782Y019985D01*
X027844Y019924D01*
X026844Y019615D02*
X026597Y019615D01*
X026720Y019615D02*
X026720Y019985D01*
X026597Y019862D01*
X025844Y019862D02*
X025844Y019924D01*
X025782Y019985D01*
X025658Y019985D01*
X025597Y019924D01*
X025844Y019862D02*
X025597Y019615D01*
X025844Y019615D01*
X024844Y019677D02*
X024782Y019615D01*
X024658Y019615D01*
X024597Y019677D01*
X024720Y019800D02*
X024782Y019800D01*
X024844Y019738D01*
X024844Y019677D01*
X024782Y019800D02*
X024844Y019862D01*
X024844Y019924D01*
X024782Y019985D01*
X024658Y019985D01*
X024597Y019924D01*
X023844Y019800D02*
X023597Y019800D01*
X023782Y019985D01*
X023782Y019615D01*
X022844Y019677D02*
X022782Y019615D01*
X022658Y019615D01*
X022597Y019677D01*
X022597Y019800D02*
X022720Y019862D01*
X022782Y019862D01*
X022844Y019800D01*
X022844Y019677D01*
X022597Y019800D02*
X022597Y019985D01*
X022844Y019985D01*
X021844Y019985D02*
X021720Y019924D01*
X021597Y019800D01*
X021782Y019800D01*
X021844Y019738D01*
X021844Y019677D01*
X021782Y019615D01*
X021658Y019615D01*
X021597Y019677D01*
X021597Y019800D01*
X020844Y019924D02*
X020597Y019677D01*
X020597Y019615D01*
X020597Y019985D02*
X020844Y019985D01*
X020844Y019924D01*
X019244Y019924D02*
X019244Y019862D01*
X019182Y019800D01*
X019058Y019800D01*
X018997Y019862D01*
X018997Y019924D01*
X019058Y019985D01*
X019182Y019985D01*
X019244Y019924D01*
X019182Y019800D02*
X019244Y019738D01*
X019244Y019677D01*
X019182Y019615D01*
X019058Y019615D01*
X018997Y019677D01*
X018997Y019738D01*
X019058Y019800D01*
X018244Y019800D02*
X018058Y019800D01*
X017997Y019862D01*
X017997Y019924D01*
X018058Y019985D01*
X018182Y019985D01*
X018244Y019924D01*
X018244Y019677D01*
X018182Y019615D01*
X018058Y019615D01*
X017997Y019677D01*
X017444Y019677D02*
X017382Y019615D01*
X017258Y019615D01*
X017197Y019677D01*
X017444Y019924D01*
X017444Y019677D01*
X017197Y019677D02*
X017197Y019924D01*
X017258Y019985D01*
X017382Y019985D01*
X017444Y019924D01*
X017075Y019615D02*
X016828Y019615D01*
X016952Y019615D02*
X016952Y019985D01*
X016828Y019862D01*
X016444Y019615D02*
X016197Y019615D01*
X016075Y019615D02*
X015828Y019615D01*
X015952Y019615D02*
X015952Y019985D01*
X015828Y019862D01*
X016197Y019862D02*
X016320Y019985D01*
X016320Y019615D01*
X015444Y019615D02*
X015197Y019615D01*
X015444Y019862D01*
X015444Y019924D01*
X015382Y019985D01*
X015258Y019985D01*
X015197Y019924D01*
X014952Y019985D02*
X014952Y019615D01*
X015075Y019615D02*
X014828Y019615D01*
X014828Y019862D02*
X014952Y019985D01*
X014444Y019924D02*
X014444Y019862D01*
X014382Y019800D01*
X014444Y019738D01*
X014444Y019677D01*
X014382Y019615D01*
X014258Y019615D01*
X014197Y019677D01*
X014075Y019615D02*
X013828Y019615D01*
X013952Y019615D02*
X013952Y019985D01*
X013828Y019862D01*
X013594Y019862D02*
X013408Y019862D01*
X013347Y019800D01*
X013347Y019677D01*
X013408Y019615D01*
X013594Y019615D01*
X013594Y019985D01*
X013225Y019800D02*
X013225Y019615D01*
X013225Y019800D02*
X013164Y019862D01*
X012978Y019862D01*
X012978Y019615D01*
X012857Y019615D02*
X012672Y019615D01*
X012610Y019677D01*
X012610Y019800D01*
X012672Y019862D01*
X012857Y019862D01*
X012857Y019553D01*
X012795Y019492D01*
X012733Y019492D01*
X012343Y019800D02*
X012219Y019800D01*
X012098Y019800D02*
X012098Y019738D01*
X011851Y019738D01*
X011851Y019677D02*
X011851Y019800D01*
X011913Y019862D01*
X012036Y019862D01*
X012098Y019800D01*
X012036Y019615D02*
X011913Y019615D01*
X011851Y019677D01*
X011730Y019615D02*
X011606Y019738D01*
X011668Y019738D02*
X011483Y019738D01*
X011483Y019615D02*
X011483Y019985D01*
X011668Y019985D01*
X011730Y019924D01*
X011730Y019800D01*
X011668Y019738D01*
X011361Y019800D02*
X011115Y019800D01*
X011115Y019862D02*
X011238Y019985D01*
X011361Y019862D01*
X011361Y019615D01*
X011115Y019615D02*
X011115Y019862D01*
X012281Y019924D02*
X012281Y019615D01*
X012281Y019924D02*
X012343Y019985D01*
X014197Y019924D02*
X014258Y019985D01*
X014382Y019985D01*
X014444Y019924D01*
X014382Y019800D02*
X014320Y019800D01*
X015902Y020892D02*
X015964Y020892D01*
X016026Y020953D01*
X016026Y021262D01*
X015841Y021262D01*
X015779Y021200D01*
X015779Y021077D01*
X015841Y021015D01*
X016026Y021015D01*
X016147Y021015D02*
X016271Y021015D01*
X016209Y021015D02*
X016209Y021262D01*
X016147Y021262D01*
X016209Y021385D02*
X016209Y021447D01*
X016393Y021262D02*
X016516Y021262D01*
X016454Y021324D02*
X016454Y021077D01*
X016516Y021015D01*
X016638Y021077D02*
X016700Y021138D01*
X016885Y021138D01*
X016885Y021200D02*
X016885Y021015D01*
X016700Y021015D01*
X016638Y021077D01*
X016700Y021262D02*
X016823Y021262D01*
X016885Y021200D01*
X017007Y021015D02*
X017130Y021015D01*
X017068Y021015D02*
X017068Y021385D01*
X017007Y021385D01*
X017620Y021385D02*
X017744Y021385D01*
X017682Y021385D02*
X017682Y021015D01*
X017620Y021015D02*
X017744Y021015D01*
X017866Y021015D02*
X018113Y021385D01*
X018234Y021324D02*
X018234Y021077D01*
X018296Y021015D01*
X018419Y021015D01*
X018481Y021077D01*
X018481Y021324D01*
X018419Y021385D01*
X018296Y021385D01*
X018234Y021324D01*
X015657Y021015D02*
X015533Y021015D01*
X015595Y021015D02*
X015595Y021262D01*
X015533Y021262D01*
X015412Y021324D02*
X015350Y021385D01*
X015165Y021385D01*
X015165Y021015D01*
X015350Y021015D01*
X015412Y021077D01*
X015412Y021324D01*
X015595Y021385D02*
X015595Y021447D01*
X022765Y021385D02*
X022765Y021015D01*
X022950Y021015D01*
X023012Y021077D01*
X023012Y021324D01*
X022950Y021385D01*
X022765Y021385D01*
X023133Y021262D02*
X023195Y021262D01*
X023195Y021015D01*
X023133Y021015D02*
X023257Y021015D01*
X023379Y021077D02*
X023441Y021015D01*
X023626Y021015D01*
X023626Y020953D02*
X023626Y021262D01*
X023441Y021262D01*
X023379Y021200D01*
X023379Y021077D01*
X023502Y020892D02*
X023564Y020892D01*
X023626Y020953D01*
X023747Y021015D02*
X023871Y021015D01*
X023809Y021015D02*
X023809Y021262D01*
X023747Y021262D01*
X023809Y021385D02*
X023809Y021447D01*
X023993Y021262D02*
X024116Y021262D01*
X024054Y021324D02*
X024054Y021077D01*
X024116Y021015D01*
X024238Y021077D02*
X024300Y021138D01*
X024485Y021138D01*
X024485Y021200D02*
X024485Y021015D01*
X024300Y021015D01*
X024238Y021077D01*
X024300Y021262D02*
X024423Y021262D01*
X024485Y021200D01*
X024607Y021015D02*
X024730Y021015D01*
X024668Y021015D02*
X024668Y021385D01*
X024607Y021385D01*
X025220Y021385D02*
X025344Y021385D01*
X025282Y021385D02*
X025282Y021015D01*
X025220Y021015D02*
X025344Y021015D01*
X025466Y021015D02*
X025713Y021385D01*
X025834Y021324D02*
X025834Y021077D01*
X025896Y021015D01*
X026019Y021015D01*
X026081Y021077D01*
X026081Y021324D01*
X026019Y021385D01*
X025896Y021385D01*
X025834Y021324D01*
X023195Y021385D02*
X023195Y021447D01*
X022750Y002385D02*
X022812Y002324D01*
X022565Y002077D01*
X022627Y002015D01*
X022750Y002015D01*
X022812Y002077D01*
X022812Y002324D01*
X022750Y002385D02*
X022627Y002385D01*
X022565Y002324D01*
X022565Y002077D01*
X023565Y002015D02*
X023812Y002015D01*
X023688Y002015D02*
X023688Y002385D01*
X023565Y002262D01*
X024565Y002324D02*
X024627Y002385D01*
X024750Y002385D01*
X024812Y002324D01*
X024812Y002262D01*
X024565Y002015D01*
X024812Y002015D01*
X025565Y002077D02*
X025627Y002015D01*
X025750Y002015D01*
X025812Y002077D01*
X025812Y002138D01*
X025750Y002200D01*
X025688Y002200D01*
X025750Y002200D02*
X025812Y002262D01*
X025812Y002324D01*
X025750Y002385D01*
X025627Y002385D01*
X025565Y002324D01*
X026565Y002200D02*
X026812Y002200D01*
X026750Y002015D02*
X026750Y002385D01*
X026565Y002200D01*
X027565Y002200D02*
X027688Y002262D01*
X027750Y002262D01*
X027812Y002200D01*
X027812Y002077D01*
X027750Y002015D01*
X027627Y002015D01*
X027565Y002077D01*
X027565Y002200D02*
X027565Y002385D01*
X027812Y002385D01*
X026905Y000944D02*
X026720Y000944D01*
X026720Y000697D01*
X026598Y000697D02*
X026474Y000697D01*
X026536Y000697D02*
X026536Y001067D01*
X026474Y001067D02*
X026598Y001067D01*
X026905Y000944D02*
X026967Y000882D01*
X026967Y000697D01*
X025985Y000697D02*
X025799Y000697D01*
X025738Y000759D01*
X025738Y000882D01*
X025799Y000944D01*
X025985Y000944D01*
X025985Y000635D01*
X025923Y000574D01*
X025861Y000574D01*
X025616Y000759D02*
X025616Y000882D01*
X025555Y000944D01*
X025431Y000944D01*
X025369Y000882D01*
X025369Y000759D01*
X025431Y000697D01*
X025555Y000697D01*
X025616Y000759D01*
X025247Y000697D02*
X025124Y000697D01*
X025186Y000697D02*
X025186Y001067D01*
X025124Y001067D01*
X024941Y000944D02*
X025002Y000882D01*
X025002Y000697D01*
X024817Y000697D01*
X024756Y000759D01*
X024817Y000820D01*
X025002Y000820D01*
X024941Y000944D02*
X024817Y000944D01*
X024634Y000882D02*
X024634Y000697D01*
X024634Y000882D02*
X024572Y000944D01*
X024387Y000944D01*
X024387Y000697D01*
X024266Y000697D02*
X024266Y000944D01*
X024142Y001067D01*
X024019Y000944D01*
X024019Y000697D01*
X024019Y000882D02*
X024266Y000882D01*
X021208Y002015D02*
X021208Y002200D01*
X021146Y002262D01*
X020961Y002262D01*
X020961Y002015D01*
X020839Y002015D02*
X020715Y002015D01*
X020777Y002015D02*
X020777Y002262D01*
X020715Y002262D01*
X020777Y002385D02*
X020777Y002447D01*
X020594Y002385D02*
X020594Y002138D01*
X020470Y002015D01*
X020347Y002138D01*
X020347Y002385D01*
X019752Y002385D02*
X019752Y002015D01*
X019567Y002015D01*
X019506Y002077D01*
X019506Y002200D01*
X019567Y002262D01*
X019752Y002262D01*
X019384Y002200D02*
X019384Y002015D01*
X019384Y002200D02*
X019322Y002262D01*
X019137Y002262D01*
X019137Y002015D01*
X019016Y002077D02*
X019016Y002200D01*
X018892Y002200D01*
X018769Y002077D02*
X018831Y002015D01*
X018954Y002015D01*
X019016Y002077D01*
X019016Y002324D02*
X018954Y002385D01*
X018831Y002385D01*
X018769Y002324D01*
X018769Y002077D01*
X018112Y002262D02*
X017989Y002015D01*
X017865Y002262D01*
X017744Y002200D02*
X017744Y002077D01*
X017682Y002015D01*
X017559Y002015D01*
X017497Y002077D01*
X017497Y002200D02*
X017620Y002262D01*
X017682Y002262D01*
X017744Y002200D01*
X017744Y002385D02*
X017497Y002385D01*
X017497Y002200D01*
X017012Y002262D02*
X016889Y002015D01*
X016765Y002262D01*
X016644Y002262D02*
X016582Y002200D01*
X016644Y002138D01*
X016644Y002077D01*
X016582Y002015D01*
X016459Y002015D01*
X016397Y002077D01*
X016520Y002200D02*
X016582Y002200D01*
X016644Y002262D02*
X016644Y002324D01*
X016582Y002385D01*
X016459Y002385D01*
X016397Y002324D01*
X015995Y002385D02*
X015748Y002385D01*
X015871Y002385D02*
X015871Y002015D01*
X015626Y002077D02*
X015564Y002015D01*
X015441Y002015D01*
X015379Y002077D01*
X015258Y002015D02*
X015134Y002138D01*
X015196Y002138D02*
X015011Y002138D01*
X015011Y002015D02*
X015011Y002385D01*
X015196Y002385D01*
X015258Y002324D01*
X015258Y002200D01*
X015196Y002138D01*
X015379Y002262D02*
X015441Y002200D01*
X015564Y002200D01*
X015626Y002138D01*
X015626Y002077D01*
X015626Y002324D02*
X015564Y002385D01*
X015441Y002385D01*
X015379Y002324D01*
X015379Y002262D01*
M02*
