%
M48
M72
T01C0.0276
T02C0.0394
T03C0.0400
T04C0.0512
%
T01
X3300Y2500
X4900Y5100
X4400Y7700
X5000Y10600
X4600Y13000
X5000Y16200
X4800Y18600
X3000Y18700
X15200Y15200
X15300Y9700
X23400Y8700
X30200Y8700
X31700Y11600
X25000Y13700
X25000Y14800
X15000Y4100
X16800Y3800
X19700Y3200
X27100Y3800
T02
X13500Y1500
X14500Y1500
X15500Y1500
X16500Y1500
X17500Y1500
X18500Y1500
X20500Y1500
X21500Y1500
X22500Y1500
X23500Y1500
X24500Y1500
X25500Y1500
X25500Y20500
X24500Y20500
X23500Y20500
X22500Y20500
X21500Y20500
X20500Y20500
X19500Y20500
X18500Y20500
X16900Y20500
X15900Y20500
X14900Y20500
X13900Y20500
X12900Y20500
X11900Y20500
X10900Y20500
X9900Y20500
X8900Y20500
X7900Y20500
T03
X15903Y18236
X15903Y17236
X15903Y16236
X19202Y16228
X19202Y17228
X19202Y18228
X19230Y12575
X19230Y11575
X19230Y10575
X15911Y10579
X15911Y11579
X15911Y12579
X15811Y6854
X15811Y5854
X15811Y4854
X19110Y4854
X19110Y5854
X19110Y6854
T04
X32364Y5823
X32364Y7823
X32364Y9823
X32364Y16890
X32364Y18890
M30
