G75*
%MOIN*%
%OFA0B0*%
%FSLAX24Y24*%
%IPPOS*%
%LPD*%
%AMOC8*
5,1,8,0,0,1.08239X$1,22.5*
%
%ADD10C,0.0000*%
%ADD11C,0.0640*%
%ADD12R,0.0750X0.0670*%
%ADD13R,0.0749X0.0670*%
%ADD14R,0.0906X0.0276*%
%ADD15R,0.0670X0.0750*%
%ADD16R,0.0670X0.0749*%
%ADD17R,0.0591X0.0591*%
%ADD18C,0.0827*%
%ADD19R,0.1300X0.0749*%
%ADD20OC8,0.0700*%
%ADD21C,0.0453*%
D10*
X000500Y000500D02*
X000500Y021500D01*
X030392Y021470D01*
X034400Y021500D01*
X035000Y020900D01*
X035000Y016400D01*
X036000Y015400D01*
X036000Y002500D01*
X035000Y001500D01*
X035000Y000500D01*
X000500Y000500D01*
D11*
X015511Y004854D02*
X016111Y004854D01*
X016111Y005854D02*
X015511Y005854D01*
X015511Y006854D02*
X016111Y006854D01*
X018810Y006854D02*
X019410Y006854D01*
X019410Y005854D02*
X018810Y005854D01*
X018810Y004854D02*
X019410Y004854D01*
X019530Y010575D02*
X018930Y010575D01*
X018930Y011575D02*
X019530Y011575D01*
X019530Y012575D02*
X018930Y012575D01*
X016211Y012579D02*
X015611Y012579D01*
X015611Y011579D02*
X016211Y011579D01*
X016211Y010579D02*
X015611Y010579D01*
X015603Y016236D02*
X016203Y016236D01*
X016203Y017236D02*
X015603Y017236D01*
X015603Y018236D02*
X016203Y018236D01*
X018902Y018228D02*
X019502Y018228D01*
X019502Y017228D02*
X018902Y017228D01*
X018902Y016228D02*
X019502Y016228D01*
D12*
X021799Y016725D03*
X021799Y015606D03*
X024969Y015621D03*
X024969Y016741D03*
X029248Y011993D03*
X029248Y010873D03*
X024949Y011253D03*
X024949Y010133D03*
X021839Y010109D03*
X021839Y011229D03*
X021799Y005339D03*
X021799Y004220D03*
X024988Y004165D03*
X024988Y005284D03*
D13*
X023390Y005287D03*
X023390Y004185D03*
X023390Y010138D03*
X023390Y011240D03*
X029307Y013630D03*
X029307Y014732D03*
X023350Y015618D03*
X023350Y016720D03*
D14*
X009425Y016719D03*
X009425Y016219D03*
X009425Y015719D03*
X009425Y015219D03*
X007378Y015219D03*
X007378Y015719D03*
X007378Y016219D03*
X007378Y016719D03*
X007370Y011250D03*
X007370Y010750D03*
X007370Y010250D03*
X007370Y009750D03*
X009417Y009750D03*
X009417Y010250D03*
X009417Y010750D03*
X009417Y011250D03*
X009421Y005711D03*
X009421Y005211D03*
X009421Y004711D03*
X009421Y004211D03*
X007374Y004211D03*
X007374Y004711D03*
X007374Y005211D03*
X007374Y005711D03*
D15*
X004252Y005832D03*
X003132Y005832D03*
X003140Y004257D03*
X004260Y004257D03*
X012373Y004189D03*
X013493Y004189D03*
X013477Y005724D03*
X012357Y005724D03*
X012350Y009661D03*
X013469Y009661D03*
X013493Y011236D03*
X012373Y011236D03*
X012373Y015193D03*
X013493Y015193D03*
X013517Y016768D03*
X012397Y016768D03*
X004168Y016906D03*
X003049Y016906D03*
X003017Y015331D03*
X004137Y015331D03*
X004153Y011374D03*
X003033Y011374D03*
X003041Y009799D03*
X004160Y009799D03*
X021822Y006913D03*
X022942Y006913D03*
X024633Y006925D03*
X025753Y006925D03*
X028246Y003710D03*
X029366Y003710D03*
X030605Y003710D03*
X031724Y003710D03*
X025694Y012831D03*
X024574Y012831D03*
X023005Y012858D03*
X021885Y012858D03*
X021861Y018350D03*
X022981Y018350D03*
X024594Y018382D03*
X025713Y018382D03*
D16*
X010319Y018394D03*
X009217Y018394D03*
X009220Y012839D03*
X010323Y012839D03*
X010479Y007327D03*
X009376Y007327D03*
X030650Y002285D03*
X031753Y002285D03*
D17*
X007986Y007406D03*
X006490Y007406D03*
X006183Y012900D03*
X007680Y012900D03*
X007867Y018600D03*
X006371Y018600D03*
D18*
X032364Y018890D03*
X032364Y016890D03*
X032364Y009823D03*
X032364Y007823D03*
X032364Y005823D03*
D19*
X031681Y012484D03*
X031681Y014689D03*
D20*
X025500Y020500D03*
X024500Y020500D03*
X023500Y020500D03*
X022500Y020500D03*
X021500Y020500D03*
X020500Y020500D03*
X019500Y020500D03*
X018500Y020500D03*
X016900Y020500D03*
X015900Y020500D03*
X014900Y020500D03*
X013900Y020500D03*
X012900Y020500D03*
X011900Y020500D03*
X010900Y020500D03*
X009900Y020500D03*
X008900Y020500D03*
X007900Y020500D03*
X013500Y001500D03*
X014500Y001500D03*
X015500Y001500D03*
X016500Y001500D03*
X017500Y001500D03*
X018500Y001500D03*
X020500Y001500D03*
X021500Y001500D03*
X022500Y001500D03*
X023500Y001500D03*
X024500Y001500D03*
X025500Y001500D03*
D21*
X027100Y003800D03*
X019700Y003200D03*
X016800Y003800D03*
X015000Y004100D03*
X023400Y008700D03*
X030200Y008700D03*
X031700Y011600D03*
X025000Y013700D03*
X025000Y014800D03*
X015200Y015200D03*
X015300Y009700D03*
X005000Y010600D03*
X004600Y013000D03*
X005000Y016200D03*
X004800Y018600D03*
X003000Y018700D03*
X004400Y007700D03*
X004900Y005100D03*
X003300Y002500D03*
M02*
