G75*
%MOIN*%
%OFA0B0*%
%FSLAX24Y24*%
%IPPOS*%
%LPD*%
%AMOC8*
5,1,8,0,0,1.08239X$1,22.5*
%
%ADD10C,0.0000*%
%ADD11C,0.0640*%
%ADD12C,0.0827*%
%ADD13OC8,0.0700*%
%ADD14C,0.0453*%
D10*
X000500Y000500D02*
X000500Y021500D01*
X030392Y021470D01*
X034400Y021500D01*
X035000Y020900D01*
X035000Y016400D01*
X036000Y015400D01*
X036000Y002500D01*
X035000Y001500D01*
X035000Y000500D01*
X000500Y000500D01*
D11*
X015511Y004854D02*
X016111Y004854D01*
X016111Y005854D02*
X015511Y005854D01*
X015511Y006854D02*
X016111Y006854D01*
X018810Y006854D02*
X019410Y006854D01*
X019410Y005854D02*
X018810Y005854D01*
X018810Y004854D02*
X019410Y004854D01*
X019530Y010575D02*
X018930Y010575D01*
X018930Y011575D02*
X019530Y011575D01*
X019530Y012575D02*
X018930Y012575D01*
X016211Y012579D02*
X015611Y012579D01*
X015611Y011579D02*
X016211Y011579D01*
X016211Y010579D02*
X015611Y010579D01*
X015603Y016236D02*
X016203Y016236D01*
X016203Y017236D02*
X015603Y017236D01*
X015603Y018236D02*
X016203Y018236D01*
X018902Y018228D02*
X019502Y018228D01*
X019502Y017228D02*
X018902Y017228D01*
X018902Y016228D02*
X019502Y016228D01*
D12*
X032364Y016890D03*
X032364Y018890D03*
X032364Y009823D03*
X032364Y007823D03*
X032364Y005823D03*
D13*
X025500Y001500D03*
X024500Y001500D03*
X023500Y001500D03*
X022500Y001500D03*
X021500Y001500D03*
X020500Y001500D03*
X018500Y001500D03*
X017500Y001500D03*
X016500Y001500D03*
X015500Y001500D03*
X014500Y001500D03*
X013500Y001500D03*
X013900Y020500D03*
X012900Y020500D03*
X011900Y020500D03*
X010900Y020500D03*
X009900Y020500D03*
X008900Y020500D03*
X007900Y020500D03*
X014900Y020500D03*
X015900Y020500D03*
X016900Y020500D03*
X018500Y020500D03*
X019500Y020500D03*
X020500Y020500D03*
X021500Y020500D03*
X022500Y020500D03*
X023500Y020500D03*
X024500Y020500D03*
X025500Y020500D03*
D14*
X025000Y014800D03*
X025000Y013700D03*
X031700Y011600D03*
X030200Y008700D03*
X023400Y008700D03*
X015300Y009700D03*
X015200Y015200D03*
X005000Y016200D03*
X004800Y018600D03*
X003000Y018700D03*
X004600Y013000D03*
X005000Y010600D03*
X004400Y007700D03*
X004900Y005100D03*
X003300Y002500D03*
X015000Y004100D03*
X016800Y003800D03*
X019700Y003200D03*
X027100Y003800D03*
M02*
