G75*
%MOIN*%
%OFA0B0*%
%FSLAX24Y24*%
%IPPOS*%
%LPD*%
%AMOC8*
5,1,8,0,0,1.08239X$1,22.5*
%
%ADD10C,0.0060*%
%ADD11C,0.0000*%
D10*
X010082Y007930D02*
X010082Y008250D01*
X010189Y008357D01*
X010296Y008250D01*
X010296Y007930D01*
X010509Y007930D02*
X010509Y008357D01*
X010402Y008357D01*
X010296Y008250D01*
X010727Y008250D02*
X010727Y008037D01*
X010833Y007930D01*
X011047Y007930D01*
X011154Y008037D01*
X011154Y008250D01*
X011047Y008357D01*
X010833Y008357D01*
X010727Y008250D01*
X011371Y008357D02*
X011692Y008357D01*
X011798Y008250D01*
X011798Y008037D01*
X011692Y007930D01*
X011371Y007930D01*
X012014Y007930D02*
X012121Y007930D01*
X012121Y008037D01*
X012014Y008037D01*
X012014Y007930D01*
X012444Y008357D02*
X012658Y008144D01*
X012658Y008357D02*
X012658Y007930D01*
X012875Y008144D02*
X013302Y008144D01*
X013302Y008250D02*
X013302Y008037D01*
X013195Y007930D01*
X012982Y007930D01*
X012875Y008144D02*
X012875Y008250D01*
X012982Y008357D01*
X013195Y008357D01*
X013302Y008250D01*
X013520Y008357D02*
X013733Y007930D01*
X013947Y008357D01*
X014164Y008250D02*
X014164Y008037D01*
X014271Y007930D01*
X014485Y007930D01*
X014591Y008037D01*
X014591Y008250D01*
X014485Y008357D01*
X014271Y008357D01*
X014164Y008250D01*
X014809Y008250D02*
X014809Y008464D01*
X014916Y008571D01*
X015236Y008571D01*
X015236Y007930D01*
X015236Y008144D02*
X014916Y008144D01*
X014809Y008250D01*
X015022Y008144D02*
X014809Y007930D01*
X015453Y007930D02*
X015453Y008250D01*
X015560Y008357D01*
X015880Y008357D01*
X015880Y007930D01*
X016098Y008144D02*
X016525Y008144D01*
X016525Y008250D02*
X016525Y008037D01*
X016418Y007930D01*
X016205Y007930D01*
X016098Y008144D02*
X016098Y008250D01*
X016205Y008357D01*
X016418Y008357D01*
X016525Y008250D01*
X016742Y008250D02*
X016742Y008037D01*
X016849Y007930D01*
X017170Y007930D01*
X017170Y007716D02*
X017170Y008357D01*
X016849Y008357D01*
X016742Y008250D01*
X017387Y008037D02*
X017494Y007930D01*
X017707Y007930D01*
X017814Y008037D01*
X017814Y008464D01*
X017707Y008571D01*
X017494Y008571D01*
X017387Y008464D01*
X017387Y008037D01*
X018030Y008037D02*
X018030Y007930D01*
X018136Y007930D01*
X018136Y008037D01*
X018030Y008037D01*
X018354Y008037D02*
X018461Y007930D01*
X018567Y008037D01*
X018674Y007930D01*
X018781Y008037D01*
X018781Y008357D01*
X018998Y008357D02*
X018998Y008037D01*
X019105Y007930D01*
X019212Y008037D01*
X019319Y007930D01*
X019425Y008037D01*
X019425Y008357D01*
X019643Y008357D02*
X019643Y008037D01*
X019750Y007930D01*
X019856Y008037D01*
X019963Y007930D01*
X020070Y008037D01*
X020070Y008357D01*
X018354Y008357D02*
X018354Y008037D01*
X012444Y008357D02*
X012337Y008357D01*
D11*
X002700Y000500D02*
X002700Y021500D01*
X028100Y021500D01*
X028700Y020900D01*
X028700Y016400D01*
X029700Y015400D01*
X029700Y002500D01*
X028700Y001500D01*
X028700Y000500D01*
X002700Y000500D01*
X002000Y002000D02*
X002000Y005500D01*
X007500Y005500D01*
X007500Y002000D01*
X002000Y002000D01*
X000100Y013000D02*
X006300Y013000D01*
X006300Y018000D01*
X000100Y018000D01*
X000100Y013000D01*
M02*
