G75*
%MOIN*%
%OFA0B0*%
%FSLAX25Y25*%
%IPPOS*%
%LPD*%
%AMOC8*
5,1,8,0,0,1.08239X$1,22.5*
%
%ADD10R,0.06299X0.07098*%
%ADD11R,0.06299X0.07087*%
%ADD12R,0.07087X0.12598*%
%ADD13OC8,0.06600*%
%ADD14C,0.06600*%
%ADD15R,0.06500X0.06500*%
%ADD16R,0.07400X0.07400*%
%ADD17C,0.07400*%
%ADD18OC8,0.15000*%
%ADD19C,0.06000*%
%ADD20C,0.04134*%
%ADD21C,0.01600*%
D10*
X0278732Y0097520D03*
X0289929Y0097520D03*
D11*
X0289701Y0117071D03*
X0278677Y0117071D03*
D12*
X0274843Y0081189D03*
X0296890Y0081189D03*
D13*
X0255000Y0015000D03*
X0245000Y0015000D03*
X0235000Y0015000D03*
X0225000Y0015000D03*
X0215000Y0015000D03*
X0205000Y0015000D03*
X0185000Y0015000D03*
X0175000Y0015000D03*
X0165000Y0015000D03*
X0155000Y0015000D03*
X0145000Y0015000D03*
X0135000Y0015000D03*
X0139000Y0205000D03*
X0129000Y0205000D03*
X0119000Y0205000D03*
X0109000Y0205000D03*
X0099000Y0205000D03*
X0089000Y0205000D03*
X0079000Y0205000D03*
X0149000Y0205000D03*
X0159000Y0205000D03*
X0169000Y0205000D03*
X0185000Y0205000D03*
X0195000Y0205000D03*
X0205000Y0205000D03*
X0215000Y0205000D03*
X0225000Y0205000D03*
X0235000Y0205000D03*
X0245000Y0205000D03*
X0255000Y0205000D03*
D14*
X0311000Y0061000D03*
D15*
X0311000Y0031000D03*
D16*
X0029000Y0150000D03*
D17*
X0029000Y0140000D03*
X0029000Y0130000D03*
D18*
X0050000Y0065000D03*
X0142000Y0065000D03*
X0233000Y0065000D03*
X0354000Y0062000D03*
X0355000Y0031000D03*
D19*
X0265000Y0044000D02*
X0265000Y0050000D01*
X0255000Y0050000D02*
X0255000Y0044000D01*
X0245000Y0044000D02*
X0245000Y0050000D01*
X0221000Y0050000D02*
X0221000Y0044000D01*
X0211000Y0044000D02*
X0211000Y0050000D01*
X0201000Y0050000D02*
X0201000Y0044000D01*
X0174000Y0044000D02*
X0174000Y0050000D01*
X0164000Y0050000D02*
X0164000Y0044000D01*
X0154000Y0044000D02*
X0154000Y0050000D01*
X0130000Y0050000D02*
X0130000Y0044000D01*
X0120000Y0044000D02*
X0120000Y0050000D01*
X0110000Y0050000D02*
X0110000Y0044000D01*
X0082000Y0044000D02*
X0082000Y0050000D01*
X0072000Y0050000D02*
X0072000Y0044000D01*
X0062000Y0044000D02*
X0062000Y0050000D01*
X0038000Y0050000D02*
X0038000Y0044000D01*
X0028000Y0044000D02*
X0028000Y0050000D01*
X0018000Y0050000D02*
X0018000Y0044000D01*
D20*
X0083000Y0101000D03*
X0110000Y0100000D03*
X0127000Y0105000D03*
X0144000Y0100000D03*
X0154000Y0105000D03*
X0187000Y0103000D03*
X0232000Y0113000D03*
X0249000Y0116000D03*
X0187000Y0138000D03*
X0182000Y0190000D03*
X0138000Y0195000D03*
X0084500Y0187500D03*
D21*
X0006800Y0213198D02*
X0006800Y0006800D01*
X0369991Y0006800D01*
X0369009Y0213192D01*
X0331672Y0212906D01*
X0331665Y0212900D01*
X0330927Y0212901D01*
X0330189Y0212895D01*
X0330183Y0212901D01*
X0006800Y0213198D01*
X0006800Y0211710D02*
X0369016Y0211710D01*
X0369023Y0210111D02*
X0006800Y0210111D01*
X0006800Y0208513D02*
X0075300Y0208513D01*
X0073900Y0207112D02*
X0076888Y0210100D01*
X0081112Y0210100D01*
X0084000Y0207212D01*
X0086888Y0210100D01*
X0091112Y0210100D01*
X0094000Y0207212D01*
X0096888Y0210100D01*
X0101112Y0210100D01*
X0104100Y0207112D01*
X0104100Y0202888D01*
X0101112Y0199900D01*
X0096888Y0199900D01*
X0094000Y0202788D01*
X0091112Y0199900D01*
X0086888Y0199900D01*
X0084000Y0202788D01*
X0081112Y0199900D01*
X0076888Y0199900D01*
X0073900Y0202888D01*
X0073900Y0207112D01*
X0073900Y0206914D02*
X0006800Y0206914D01*
X0006800Y0205316D02*
X0073900Y0205316D01*
X0073900Y0203717D02*
X0006800Y0203717D01*
X0006800Y0202119D02*
X0074669Y0202119D01*
X0076267Y0200520D02*
X0006800Y0200520D01*
X0006800Y0198922D02*
X0121401Y0198922D01*
X0120423Y0199900D02*
X0116888Y0199900D01*
X0113900Y0202888D01*
X0113900Y0207112D01*
X0116888Y0210100D01*
X0121112Y0210100D01*
X0124000Y0207212D01*
X0126888Y0210100D01*
X0131112Y0210100D01*
X0134000Y0207212D01*
X0136888Y0210100D01*
X0141112Y0210100D01*
X0144000Y0207212D01*
X0146888Y0210100D01*
X0151112Y0210100D01*
X0154000Y0207212D01*
X0156888Y0210100D01*
X0161112Y0210100D01*
X0164000Y0207212D01*
X0166888Y0210100D01*
X0171112Y0210100D01*
X0174100Y0207112D01*
X0174100Y0202888D01*
X0171112Y0199900D01*
X0167577Y0199900D01*
X0160473Y0192796D01*
X0160000Y0192600D01*
X0179131Y0192600D01*
X0179810Y0193278D01*
X0181231Y0193867D01*
X0182769Y0193867D01*
X0184190Y0193278D01*
X0185278Y0192190D01*
X0185867Y0190769D01*
X0185867Y0189231D01*
X0185278Y0187810D01*
X0184190Y0186722D01*
X0182769Y0186133D01*
X0181231Y0186133D01*
X0179810Y0186722D01*
X0179131Y0187400D01*
X0133483Y0187400D01*
X0132527Y0187796D01*
X0120423Y0199900D01*
X0123000Y0197323D02*
X0006800Y0197323D01*
X0006800Y0195725D02*
X0124598Y0195725D01*
X0126197Y0194126D02*
X0006800Y0194126D01*
X0006800Y0192528D02*
X0127795Y0192528D01*
X0129394Y0190929D02*
X0086326Y0190929D01*
X0086690Y0190778D02*
X0085269Y0191367D01*
X0083731Y0191367D01*
X0082310Y0190778D01*
X0081222Y0189690D01*
X0080633Y0188269D01*
X0080633Y0187310D01*
X0079796Y0186473D01*
X0079400Y0185517D01*
X0079400Y0164483D01*
X0079796Y0163527D01*
X0080527Y0162796D01*
X0081527Y0161796D01*
X0082483Y0161400D01*
X0211517Y0161400D01*
X0212473Y0161796D01*
X0213204Y0162527D01*
X0218204Y0167527D01*
X0218600Y0168483D01*
X0218600Y0201388D01*
X0220000Y0202788D01*
X0222888Y0199900D01*
X0227112Y0199900D01*
X0230000Y0202788D01*
X0232888Y0199900D01*
X0237112Y0199900D01*
X0240000Y0202788D01*
X0242888Y0199900D01*
X0247112Y0199900D01*
X0250000Y0202788D01*
X0252888Y0199900D01*
X0257112Y0199900D01*
X0260100Y0202888D01*
X0260100Y0207112D01*
X0257112Y0210100D01*
X0252888Y0210100D01*
X0250000Y0207212D01*
X0247112Y0210100D01*
X0242888Y0210100D01*
X0240000Y0207212D01*
X0237112Y0210100D01*
X0232888Y0210100D01*
X0230000Y0207212D01*
X0227112Y0210100D01*
X0222888Y0210100D01*
X0220000Y0207212D01*
X0217112Y0210100D01*
X0212888Y0210100D01*
X0210000Y0207212D01*
X0207112Y0210100D01*
X0202888Y0210100D01*
X0200000Y0207212D01*
X0197112Y0210100D01*
X0192888Y0210100D01*
X0190000Y0207212D01*
X0187112Y0210100D01*
X0182888Y0210100D01*
X0179900Y0207112D01*
X0179900Y0202888D01*
X0182888Y0199900D01*
X0187112Y0199900D01*
X0190000Y0202788D01*
X0192888Y0199900D01*
X0197112Y0199900D01*
X0200000Y0202788D01*
X0202888Y0199900D01*
X0207112Y0199900D01*
X0210000Y0202788D01*
X0212888Y0199900D01*
X0213400Y0199900D01*
X0213400Y0170077D01*
X0209923Y0166600D01*
X0084600Y0166600D01*
X0084600Y0183633D01*
X0085269Y0183633D01*
X0086690Y0184222D01*
X0087778Y0185310D01*
X0088367Y0186731D01*
X0088367Y0188269D01*
X0087778Y0189690D01*
X0086690Y0190778D01*
X0087927Y0189331D02*
X0130992Y0189331D01*
X0132681Y0187732D02*
X0088367Y0187732D01*
X0088120Y0186134D02*
X0181230Y0186134D01*
X0182770Y0186134D02*
X0213400Y0186134D01*
X0213400Y0187732D02*
X0185201Y0187732D01*
X0185867Y0189331D02*
X0213400Y0189331D01*
X0213400Y0190929D02*
X0185801Y0190929D01*
X0184941Y0192528D02*
X0213400Y0192528D01*
X0213400Y0194126D02*
X0161803Y0194126D01*
X0163402Y0195725D02*
X0213400Y0195725D01*
X0213400Y0197323D02*
X0165000Y0197323D01*
X0166599Y0198922D02*
X0213400Y0198922D01*
X0212267Y0200520D02*
X0207733Y0200520D01*
X0209331Y0202119D02*
X0210669Y0202119D01*
X0215000Y0205000D02*
X0216000Y0204000D01*
X0216000Y0169000D01*
X0211000Y0164000D01*
X0083000Y0164000D01*
X0082000Y0165000D01*
X0082000Y0185000D01*
X0084500Y0187500D01*
X0080633Y0187732D02*
X0006800Y0187732D01*
X0006800Y0186134D02*
X0079655Y0186134D01*
X0079400Y0184535D02*
X0006800Y0184535D01*
X0006800Y0182937D02*
X0079400Y0182937D01*
X0079400Y0181338D02*
X0006800Y0181338D01*
X0006800Y0179739D02*
X0079400Y0179739D01*
X0079400Y0178141D02*
X0006800Y0178141D01*
X0006800Y0176542D02*
X0079400Y0176542D01*
X0079400Y0174944D02*
X0006800Y0174944D01*
X0006800Y0173345D02*
X0079400Y0173345D01*
X0079400Y0171747D02*
X0006800Y0171747D01*
X0006800Y0170148D02*
X0079400Y0170148D01*
X0079400Y0168550D02*
X0006800Y0168550D01*
X0006800Y0166951D02*
X0079400Y0166951D01*
X0079400Y0165353D02*
X0006800Y0165353D01*
X0006800Y0163754D02*
X0079702Y0163754D01*
X0081167Y0162156D02*
X0006800Y0162156D01*
X0006800Y0160557D02*
X0369259Y0160557D01*
X0369267Y0158959D02*
X0006800Y0158959D01*
X0006800Y0157360D02*
X0369274Y0157360D01*
X0369282Y0155762D02*
X0006800Y0155762D01*
X0006800Y0154163D02*
X0023500Y0154163D01*
X0023500Y0154446D02*
X0023500Y0145554D01*
X0024554Y0144500D01*
X0025722Y0144500D01*
X0024337Y0143115D01*
X0023500Y0141094D01*
X0023500Y0138906D01*
X0024337Y0136884D01*
X0025884Y0135337D01*
X0026699Y0135000D01*
X0025884Y0134663D01*
X0024337Y0133115D01*
X0023500Y0131094D01*
X0023500Y0128906D01*
X0024337Y0126884D01*
X0025884Y0125337D01*
X0027906Y0124500D01*
X0030094Y0124500D01*
X0032115Y0125337D01*
X0033663Y0126884D01*
X0034500Y0128906D01*
X0034500Y0131094D01*
X0033663Y0133115D01*
X0032115Y0134663D01*
X0031301Y0135000D01*
X0032115Y0135337D01*
X0033663Y0136884D01*
X0034500Y0138906D01*
X0034500Y0141094D01*
X0033663Y0143115D01*
X0032278Y0144500D01*
X0033446Y0144500D01*
X0034500Y0145554D01*
X0034500Y0154446D01*
X0033446Y0155500D01*
X0024554Y0155500D01*
X0023500Y0154446D01*
X0023500Y0152565D02*
X0006800Y0152565D01*
X0006800Y0150966D02*
X0023500Y0150966D01*
X0023500Y0149368D02*
X0006800Y0149368D01*
X0006800Y0147769D02*
X0023500Y0147769D01*
X0023500Y0146171D02*
X0006800Y0146171D01*
X0006800Y0144572D02*
X0024482Y0144572D01*
X0024279Y0142974D02*
X0006800Y0142974D01*
X0006800Y0141375D02*
X0023616Y0141375D01*
X0023500Y0139777D02*
X0006800Y0139777D01*
X0006800Y0138178D02*
X0023801Y0138178D01*
X0024642Y0136580D02*
X0006800Y0136580D01*
X0006800Y0134981D02*
X0026653Y0134981D01*
X0024604Y0133383D02*
X0006800Y0133383D01*
X0006800Y0131784D02*
X0023786Y0131784D01*
X0023500Y0130186D02*
X0006800Y0130186D01*
X0006800Y0128587D02*
X0023632Y0128587D01*
X0024294Y0126989D02*
X0006800Y0126989D01*
X0006800Y0125390D02*
X0025832Y0125390D01*
X0032168Y0125390D02*
X0213645Y0125390D01*
X0211791Y0126989D02*
X0033706Y0126989D01*
X0034368Y0128587D02*
X0209937Y0128587D01*
X0208083Y0130186D02*
X0034500Y0130186D01*
X0034214Y0131784D02*
X0206228Y0131784D01*
X0204374Y0133383D02*
X0033395Y0133383D01*
X0031347Y0134981D02*
X0184550Y0134981D01*
X0184810Y0134722D02*
X0186231Y0134133D01*
X0187769Y0134133D01*
X0189190Y0134722D01*
X0189869Y0135400D01*
X0202034Y0135400D01*
X0228133Y0112901D01*
X0228133Y0112231D01*
X0228722Y0110810D01*
X0229810Y0109722D01*
X0231231Y0109133D01*
X0232769Y0109133D01*
X0234190Y0109722D01*
X0235278Y0110810D01*
X0235867Y0112231D01*
X0235867Y0113769D01*
X0235278Y0115190D01*
X0234190Y0116278D01*
X0232769Y0116867D01*
X0231496Y0116867D01*
X0204770Y0139907D01*
X0204473Y0140204D01*
X0204381Y0140242D01*
X0204306Y0140307D01*
X0203906Y0140439D01*
X0203517Y0140600D01*
X0203418Y0140600D01*
X0203324Y0140631D01*
X0202904Y0140600D01*
X0189869Y0140600D01*
X0189190Y0141278D01*
X0187769Y0141867D01*
X0186231Y0141867D01*
X0184810Y0141278D01*
X0183722Y0140190D01*
X0183133Y0138769D01*
X0183133Y0137231D01*
X0183722Y0135810D01*
X0184810Y0134722D01*
X0183403Y0136580D02*
X0033358Y0136580D01*
X0034199Y0138178D02*
X0183133Y0138178D01*
X0183550Y0139777D02*
X0034500Y0139777D01*
X0034384Y0141375D02*
X0185044Y0141375D01*
X0188956Y0141375D02*
X0369351Y0141375D01*
X0369358Y0139777D02*
X0204921Y0139777D01*
X0206775Y0138178D02*
X0369366Y0138178D01*
X0369373Y0136580D02*
X0208630Y0136580D01*
X0210484Y0134981D02*
X0369381Y0134981D01*
X0369389Y0133383D02*
X0212338Y0133383D01*
X0214192Y0131784D02*
X0369396Y0131784D01*
X0369404Y0130186D02*
X0216047Y0130186D01*
X0217901Y0128587D02*
X0369411Y0128587D01*
X0369419Y0126989D02*
X0219755Y0126989D01*
X0221609Y0125390D02*
X0369427Y0125390D01*
X0369434Y0123792D02*
X0223464Y0123792D01*
X0225318Y0122193D02*
X0285584Y0122193D01*
X0285806Y0122414D02*
X0284751Y0121360D01*
X0284751Y0112782D01*
X0285806Y0111728D01*
X0287101Y0111728D01*
X0287101Y0102869D01*
X0286034Y0102869D01*
X0284980Y0101814D01*
X0284980Y0093225D01*
X0286034Y0092170D01*
X0293824Y0092170D01*
X0294879Y0093225D01*
X0294879Y0101814D01*
X0293824Y0102869D01*
X0292301Y0102869D01*
X0292301Y0111728D01*
X0293596Y0111728D01*
X0294650Y0112782D01*
X0294650Y0121360D01*
X0293596Y0122414D01*
X0285806Y0122414D01*
X0284751Y0120595D02*
X0227172Y0120595D01*
X0229027Y0118996D02*
X0246527Y0118996D01*
X0246810Y0119278D02*
X0245722Y0118190D01*
X0245133Y0116769D01*
X0245133Y0115231D01*
X0245256Y0114933D01*
X0235923Y0105600D01*
X0189869Y0105600D01*
X0189190Y0106278D01*
X0187769Y0106867D01*
X0186231Y0106867D01*
X0184810Y0106278D01*
X0183722Y0105190D01*
X0183133Y0103769D01*
X0183133Y0102231D01*
X0183722Y0100810D01*
X0184810Y0099722D01*
X0186231Y0099133D01*
X0187769Y0099133D01*
X0189190Y0099722D01*
X0189869Y0100400D01*
X0237517Y0100400D01*
X0238473Y0100796D01*
X0249839Y0112162D01*
X0251190Y0112722D01*
X0252278Y0113810D01*
X0252867Y0115231D01*
X0252867Y0116769D01*
X0252278Y0118190D01*
X0251190Y0119278D01*
X0249769Y0119867D01*
X0248231Y0119867D01*
X0246810Y0119278D01*
X0245393Y0117398D02*
X0230881Y0117398D01*
X0234670Y0115799D02*
X0245133Y0115799D01*
X0244524Y0114201D02*
X0235688Y0114201D01*
X0235867Y0112602D02*
X0242925Y0112602D01*
X0241327Y0111003D02*
X0235359Y0111003D01*
X0233426Y0109405D02*
X0239728Y0109405D01*
X0238130Y0107806D02*
X0156662Y0107806D01*
X0156190Y0108278D02*
X0154769Y0108867D01*
X0153231Y0108867D01*
X0151810Y0108278D01*
X0151131Y0107600D01*
X0129869Y0107600D01*
X0129190Y0108278D01*
X0127769Y0108867D01*
X0126231Y0108867D01*
X0124810Y0108278D01*
X0123722Y0107190D01*
X0123133Y0105769D01*
X0123133Y0104231D01*
X0123722Y0102810D01*
X0123931Y0102600D01*
X0112869Y0102600D01*
X0112190Y0103278D01*
X0110769Y0103867D01*
X0109231Y0103867D01*
X0107810Y0103278D01*
X0106722Y0102190D01*
X0106133Y0100769D01*
X0106133Y0099231D01*
X0106722Y0097810D01*
X0107810Y0096722D01*
X0109231Y0096133D01*
X0110769Y0096133D01*
X0112190Y0096722D01*
X0112869Y0097400D01*
X0141131Y0097400D01*
X0141810Y0096722D01*
X0143231Y0096133D01*
X0144769Y0096133D01*
X0146190Y0096722D01*
X0147278Y0097810D01*
X0147867Y0099231D01*
X0147867Y0100769D01*
X0147278Y0102190D01*
X0147069Y0102400D01*
X0151131Y0102400D01*
X0151810Y0101722D01*
X0153231Y0101133D01*
X0154769Y0101133D01*
X0156190Y0101722D01*
X0157278Y0102810D01*
X0157867Y0104231D01*
X0157867Y0105769D01*
X0157278Y0107190D01*
X0156190Y0108278D01*
X0157685Y0106208D02*
X0184739Y0106208D01*
X0183481Y0104609D02*
X0157867Y0104609D01*
X0157362Y0103011D02*
X0183133Y0103011D01*
X0183472Y0101412D02*
X0155444Y0101412D01*
X0152556Y0101412D02*
X0147600Y0101412D01*
X0147867Y0099814D02*
X0184717Y0099814D01*
X0187000Y0103000D02*
X0237000Y0103000D01*
X0249000Y0115000D01*
X0249000Y0116000D01*
X0252607Y0117398D02*
X0284751Y0117398D01*
X0284751Y0118996D02*
X0251473Y0118996D01*
X0252867Y0115799D02*
X0284751Y0115799D01*
X0284751Y0114201D02*
X0252440Y0114201D01*
X0250901Y0112602D02*
X0284931Y0112602D01*
X0287101Y0111003D02*
X0248680Y0111003D01*
X0247082Y0109405D02*
X0287101Y0109405D01*
X0287101Y0107806D02*
X0245483Y0107806D01*
X0243885Y0106208D02*
X0287101Y0106208D01*
X0287101Y0104609D02*
X0242286Y0104609D01*
X0240688Y0103011D02*
X0287101Y0103011D01*
X0284980Y0101412D02*
X0283682Y0101412D01*
X0283682Y0101814D02*
X0282627Y0102869D01*
X0274837Y0102869D01*
X0273783Y0101814D01*
X0273783Y0093225D01*
X0274837Y0092170D01*
X0276132Y0092170D01*
X0276132Y0091600D01*
X0076483Y0091600D01*
X0075527Y0091204D01*
X0074796Y0090473D01*
X0074400Y0089517D01*
X0074400Y0077600D01*
X0032483Y0077600D01*
X0031527Y0077204D01*
X0030796Y0076473D01*
X0030400Y0075517D01*
X0030400Y0057600D01*
X0022483Y0057600D01*
X0021600Y0057234D01*
X0021600Y0083923D01*
X0036077Y0098400D01*
X0080131Y0098400D01*
X0080810Y0097722D01*
X0082231Y0097133D01*
X0083769Y0097133D01*
X0085190Y0097722D01*
X0086278Y0098810D01*
X0086867Y0100231D01*
X0086867Y0101769D01*
X0086278Y0103190D01*
X0085190Y0104278D01*
X0083769Y0104867D01*
X0082231Y0104867D01*
X0080810Y0104278D01*
X0080131Y0103600D01*
X0034483Y0103600D01*
X0033527Y0103204D01*
X0032796Y0102473D01*
X0032796Y0102473D01*
X0017527Y0087204D01*
X0016796Y0086473D01*
X0016400Y0085517D01*
X0016400Y0054533D01*
X0015281Y0054069D01*
X0013931Y0052719D01*
X0013200Y0050955D01*
X0013200Y0043045D01*
X0013931Y0041281D01*
X0015281Y0039931D01*
X0017045Y0039200D01*
X0018955Y0039200D01*
X0020400Y0039799D01*
X0020400Y0023003D01*
X0020398Y0022490D01*
X0020400Y0022487D01*
X0020400Y0022483D01*
X0020596Y0022009D01*
X0020792Y0021534D01*
X0020794Y0021531D01*
X0020796Y0021527D01*
X0021157Y0021166D01*
X0021521Y0020800D01*
X0021524Y0020799D01*
X0021527Y0020796D01*
X0022000Y0020600D01*
X0022475Y0020402D01*
X0022479Y0020402D01*
X0022483Y0020400D01*
X0022995Y0020400D01*
X0132865Y0020078D01*
X0129900Y0017112D01*
X0129900Y0012888D01*
X0132888Y0009900D01*
X0137112Y0009900D01*
X0140000Y0012788D01*
X0142888Y0009900D01*
X0147112Y0009900D01*
X0150000Y0012788D01*
X0152888Y0009900D01*
X0157112Y0009900D01*
X0160100Y0012888D01*
X0160100Y0017112D01*
X0157206Y0020006D01*
X0182719Y0019932D01*
X0179900Y0017112D01*
X0179900Y0012888D01*
X0182888Y0009900D01*
X0187112Y0009900D01*
X0190100Y0012888D01*
X0190100Y0017112D01*
X0187294Y0019918D01*
X0202661Y0019873D01*
X0199900Y0017112D01*
X0199900Y0012888D01*
X0202888Y0009900D01*
X0207112Y0009900D01*
X0210000Y0012788D01*
X0212888Y0009900D01*
X0217112Y0009900D01*
X0220000Y0012788D01*
X0222888Y0009900D01*
X0227112Y0009900D01*
X0230000Y0012788D01*
X0232888Y0009900D01*
X0237112Y0009900D01*
X0240000Y0012788D01*
X0242888Y0009900D01*
X0247112Y0009900D01*
X0250000Y0012788D01*
X0252888Y0009900D01*
X0257112Y0009900D01*
X0260100Y0012888D01*
X0260100Y0017112D01*
X0257500Y0019712D01*
X0363479Y0019402D01*
X0363483Y0019400D01*
X0363998Y0019400D01*
X0364510Y0019398D01*
X0364513Y0019400D01*
X0364517Y0019400D01*
X0364991Y0019596D01*
X0365466Y0019792D01*
X0365469Y0019794D01*
X0365473Y0019796D01*
X0365834Y0020157D01*
X0366200Y0020521D01*
X0366201Y0020524D01*
X0366204Y0020527D01*
X0366400Y0021000D01*
X0366598Y0021475D01*
X0366598Y0021479D01*
X0366600Y0021483D01*
X0366600Y0021997D01*
X0366601Y0022510D01*
X0366600Y0022513D01*
X0366600Y0039517D01*
X0366204Y0040473D01*
X0365473Y0041204D01*
X0364517Y0041600D01*
X0282600Y0041600D01*
X0282600Y0089517D01*
X0282204Y0090473D01*
X0281473Y0091204D01*
X0281332Y0091262D01*
X0281332Y0092170D01*
X0282627Y0092170D01*
X0283682Y0093225D01*
X0283682Y0101814D01*
X0283682Y0099814D02*
X0284980Y0099814D01*
X0284980Y0098215D02*
X0283682Y0098215D01*
X0283682Y0096617D02*
X0284980Y0096617D01*
X0284980Y0095018D02*
X0283682Y0095018D01*
X0283682Y0093420D02*
X0284980Y0093420D01*
X0281332Y0091821D02*
X0369587Y0091821D01*
X0369594Y0090223D02*
X0282308Y0090223D01*
X0282600Y0088624D02*
X0369602Y0088624D01*
X0369609Y0087026D02*
X0282600Y0087026D01*
X0282600Y0085427D02*
X0369617Y0085427D01*
X0369625Y0083829D02*
X0282600Y0083829D01*
X0282600Y0082230D02*
X0369632Y0082230D01*
X0369640Y0080632D02*
X0282600Y0080632D01*
X0282600Y0079033D02*
X0369647Y0079033D01*
X0369655Y0077435D02*
X0282600Y0077435D01*
X0282600Y0075836D02*
X0369663Y0075836D01*
X0369670Y0074238D02*
X0282600Y0074238D01*
X0282600Y0072639D02*
X0369678Y0072639D01*
X0369686Y0071041D02*
X0282600Y0071041D01*
X0282600Y0069442D02*
X0369693Y0069442D01*
X0369701Y0067844D02*
X0282600Y0067844D01*
X0282600Y0066245D02*
X0369708Y0066245D01*
X0369716Y0064647D02*
X0282600Y0064647D01*
X0282600Y0063048D02*
X0369724Y0063048D01*
X0369731Y0061450D02*
X0282600Y0061450D01*
X0282600Y0059851D02*
X0369739Y0059851D01*
X0369746Y0058253D02*
X0282600Y0058253D01*
X0282600Y0056654D02*
X0369754Y0056654D01*
X0369762Y0055056D02*
X0282600Y0055056D01*
X0282600Y0053457D02*
X0369769Y0053457D01*
X0369777Y0051859D02*
X0282600Y0051859D01*
X0282600Y0050260D02*
X0369784Y0050260D01*
X0369792Y0048662D02*
X0282600Y0048662D01*
X0282600Y0047063D02*
X0369800Y0047063D01*
X0369807Y0045465D02*
X0282600Y0045465D01*
X0282600Y0043866D02*
X0369815Y0043866D01*
X0369823Y0042268D02*
X0282600Y0042268D01*
X0280000Y0042268D02*
X0262400Y0042268D01*
X0262400Y0041400D02*
X0262400Y0074477D01*
X0262035Y0075359D01*
X0261359Y0076035D01*
X0260477Y0076400D01*
X0215523Y0076400D01*
X0214641Y0076035D01*
X0214606Y0076000D01*
X0184000Y0076000D01*
X0184000Y0041400D01*
X0171400Y0041400D01*
X0171400Y0074477D01*
X0171035Y0075359D01*
X0170359Y0076035D01*
X0169477Y0076400D01*
X0124523Y0076400D01*
X0123641Y0076035D01*
X0123606Y0076000D01*
X0094000Y0076000D01*
X0094000Y0041400D01*
X0077400Y0041400D01*
X0077400Y0074523D01*
X0077400Y0075477D01*
X0077035Y0076359D01*
X0077000Y0076394D01*
X0077000Y0089000D01*
X0280000Y0089000D01*
X0280000Y0041400D01*
X0262400Y0041400D01*
X0262400Y0043866D02*
X0280000Y0043866D01*
X0280000Y0045465D02*
X0262400Y0045465D01*
X0262400Y0047063D02*
X0280000Y0047063D01*
X0280000Y0048662D02*
X0262400Y0048662D01*
X0262400Y0050260D02*
X0280000Y0050260D01*
X0280000Y0051859D02*
X0262400Y0051859D01*
X0262400Y0053457D02*
X0280000Y0053457D01*
X0280000Y0055056D02*
X0262400Y0055056D01*
X0262400Y0056654D02*
X0280000Y0056654D01*
X0280000Y0058253D02*
X0262400Y0058253D01*
X0262400Y0059851D02*
X0280000Y0059851D01*
X0280000Y0061450D02*
X0262400Y0061450D01*
X0262400Y0063048D02*
X0280000Y0063048D01*
X0280000Y0064647D02*
X0262400Y0064647D01*
X0262400Y0066245D02*
X0280000Y0066245D01*
X0280000Y0067844D02*
X0262400Y0067844D01*
X0262400Y0069442D02*
X0280000Y0069442D01*
X0280000Y0071041D02*
X0262400Y0071041D01*
X0262400Y0072639D02*
X0280000Y0072639D01*
X0280000Y0074238D02*
X0262400Y0074238D01*
X0261558Y0075836D02*
X0280000Y0075836D01*
X0280000Y0077435D02*
X0077000Y0077435D01*
X0077000Y0079033D02*
X0280000Y0079033D01*
X0280000Y0080632D02*
X0077000Y0080632D01*
X0077000Y0082230D02*
X0280000Y0082230D01*
X0280000Y0083829D02*
X0077000Y0083829D01*
X0077000Y0085427D02*
X0280000Y0085427D01*
X0279000Y0085346D02*
X0279000Y0088000D01*
X0278732Y0088268D01*
X0278732Y0097520D01*
X0278732Y0094732D01*
X0276132Y0091821D02*
X0029498Y0091821D01*
X0027900Y0090223D02*
X0074692Y0090223D01*
X0074400Y0088624D02*
X0026301Y0088624D01*
X0024703Y0087026D02*
X0074400Y0087026D01*
X0074400Y0085427D02*
X0023104Y0085427D01*
X0021600Y0083829D02*
X0074400Y0083829D01*
X0074400Y0082230D02*
X0021600Y0082230D01*
X0021600Y0080632D02*
X0074400Y0080632D01*
X0074400Y0079033D02*
X0021600Y0079033D01*
X0021600Y0077435D02*
X0032084Y0077435D01*
X0030532Y0075836D02*
X0021600Y0075836D01*
X0021600Y0074238D02*
X0030400Y0074238D01*
X0030400Y0072639D02*
X0021600Y0072639D01*
X0021600Y0071041D02*
X0030400Y0071041D01*
X0030400Y0069442D02*
X0021600Y0069442D01*
X0021600Y0067844D02*
X0030400Y0067844D01*
X0030400Y0066245D02*
X0021600Y0066245D01*
X0021600Y0064647D02*
X0030400Y0064647D01*
X0030400Y0063048D02*
X0021600Y0063048D01*
X0021600Y0061450D02*
X0030400Y0061450D01*
X0030400Y0059851D02*
X0021600Y0059851D01*
X0021600Y0058253D02*
X0030400Y0058253D01*
X0033000Y0058253D02*
X0075000Y0058253D01*
X0075000Y0059851D02*
X0033000Y0059851D01*
X0033000Y0061450D02*
X0075000Y0061450D01*
X0075000Y0063048D02*
X0033000Y0063048D01*
X0033000Y0064647D02*
X0075000Y0064647D01*
X0075000Y0066245D02*
X0033000Y0066245D01*
X0033000Y0067844D02*
X0075000Y0067844D01*
X0075000Y0069442D02*
X0033000Y0069442D01*
X0033000Y0071041D02*
X0075000Y0071041D01*
X0075000Y0072639D02*
X0033000Y0072639D01*
X0033000Y0074238D02*
X0075000Y0074238D01*
X0075000Y0075000D02*
X0075000Y0039000D01*
X0033000Y0039000D01*
X0033000Y0075000D01*
X0075000Y0075000D01*
X0077251Y0075836D02*
X0094000Y0075836D01*
X0094000Y0074238D02*
X0077400Y0074238D01*
X0077400Y0072639D02*
X0094000Y0072639D01*
X0094000Y0071041D02*
X0077400Y0071041D01*
X0077400Y0069442D02*
X0094000Y0069442D01*
X0094000Y0067844D02*
X0077400Y0067844D01*
X0077400Y0066245D02*
X0094000Y0066245D01*
X0094000Y0064647D02*
X0077400Y0064647D01*
X0077400Y0063048D02*
X0094000Y0063048D01*
X0094000Y0061450D02*
X0077400Y0061450D01*
X0077400Y0059851D02*
X0094000Y0059851D01*
X0094000Y0058253D02*
X0077400Y0058253D01*
X0077400Y0056654D02*
X0094000Y0056654D01*
X0094000Y0055056D02*
X0077400Y0055056D01*
X0077400Y0053457D02*
X0094000Y0053457D01*
X0094000Y0051859D02*
X0077400Y0051859D01*
X0077400Y0050260D02*
X0094000Y0050260D01*
X0094000Y0048662D02*
X0077400Y0048662D01*
X0077400Y0047063D02*
X0094000Y0047063D01*
X0094000Y0045465D02*
X0077400Y0045465D01*
X0077400Y0043866D02*
X0094000Y0043866D01*
X0094000Y0042268D02*
X0077400Y0042268D01*
X0075000Y0042268D02*
X0066261Y0042268D01*
X0066600Y0043085D02*
X0066600Y0050915D01*
X0065900Y0052606D01*
X0064606Y0053900D01*
X0062915Y0054600D01*
X0061085Y0054600D01*
X0059394Y0053900D01*
X0058100Y0052606D01*
X0057400Y0050915D01*
X0057400Y0043085D01*
X0058100Y0041394D01*
X0059394Y0040100D01*
X0061085Y0039400D01*
X0062915Y0039400D01*
X0064606Y0040100D01*
X0065900Y0041394D01*
X0066600Y0043085D01*
X0066600Y0043866D02*
X0075000Y0043866D01*
X0075000Y0045465D02*
X0066600Y0045465D01*
X0066600Y0047063D02*
X0075000Y0047063D01*
X0075000Y0048662D02*
X0066600Y0048662D01*
X0066600Y0050260D02*
X0075000Y0050260D01*
X0075000Y0051859D02*
X0066209Y0051859D01*
X0065048Y0053457D02*
X0075000Y0053457D01*
X0075000Y0055056D02*
X0033000Y0055056D01*
X0033000Y0056654D02*
X0075000Y0056654D01*
X0058952Y0053457D02*
X0033000Y0053457D01*
X0033000Y0051859D02*
X0057791Y0051859D01*
X0057400Y0050260D02*
X0033000Y0050260D01*
X0033000Y0048662D02*
X0057400Y0048662D01*
X0057400Y0047063D02*
X0033000Y0047063D01*
X0033000Y0045465D02*
X0057400Y0045465D01*
X0057400Y0043866D02*
X0033000Y0043866D01*
X0033000Y0042268D02*
X0057739Y0042268D01*
X0058826Y0040669D02*
X0033000Y0040669D01*
X0033000Y0039070D02*
X0075000Y0039070D01*
X0075000Y0040669D02*
X0065174Y0040669D01*
X0074523Y0036600D02*
X0033477Y0036600D01*
X0032523Y0036600D01*
X0031641Y0036965D01*
X0030965Y0037641D01*
X0030600Y0038523D01*
X0030600Y0055000D01*
X0023000Y0055000D01*
X0023000Y0023000D01*
X0364000Y0022000D01*
X0364000Y0039000D01*
X0262400Y0039000D01*
X0262400Y0038523D01*
X0262035Y0037641D01*
X0261359Y0036965D01*
X0260477Y0036600D01*
X0215523Y0036600D01*
X0214641Y0036965D01*
X0213965Y0037641D01*
X0213600Y0038523D01*
X0213600Y0055000D01*
X0206000Y0055000D01*
X0206000Y0039000D01*
X0171400Y0039000D01*
X0171400Y0038523D01*
X0171035Y0037641D01*
X0170359Y0036965D01*
X0169477Y0036600D01*
X0124523Y0036600D01*
X0123641Y0036965D01*
X0122965Y0037641D01*
X0122600Y0038523D01*
X0122600Y0055000D01*
X0115000Y0055000D01*
X0115000Y0039000D01*
X0077400Y0039000D01*
X0077400Y0038523D01*
X0077035Y0037641D01*
X0076359Y0036965D01*
X0075477Y0036600D01*
X0074523Y0036600D01*
X0076866Y0037472D02*
X0123134Y0037472D01*
X0122600Y0039070D02*
X0115000Y0039070D01*
X0115000Y0040669D02*
X0122600Y0040669D01*
X0122600Y0042268D02*
X0115000Y0042268D01*
X0115000Y0043866D02*
X0122600Y0043866D01*
X0122600Y0045465D02*
X0115000Y0045465D01*
X0115000Y0047063D02*
X0122600Y0047063D01*
X0122600Y0048662D02*
X0115000Y0048662D01*
X0115000Y0050260D02*
X0122600Y0050260D01*
X0122600Y0051859D02*
X0115000Y0051859D01*
X0115000Y0053457D02*
X0122600Y0053457D01*
X0125000Y0053457D02*
X0150952Y0053457D01*
X0151394Y0053900D02*
X0150100Y0052606D01*
X0149400Y0050915D01*
X0149400Y0043085D01*
X0150100Y0041394D01*
X0151394Y0040100D01*
X0153085Y0039400D01*
X0154915Y0039400D01*
X0156606Y0040100D01*
X0157900Y0041394D01*
X0158600Y0043085D01*
X0158600Y0050915D01*
X0157900Y0052606D01*
X0156606Y0053900D01*
X0154915Y0054600D01*
X0153085Y0054600D01*
X0151394Y0053900D01*
X0149791Y0051859D02*
X0125000Y0051859D01*
X0125000Y0050260D02*
X0149400Y0050260D01*
X0149400Y0048662D02*
X0125000Y0048662D01*
X0125000Y0047063D02*
X0149400Y0047063D01*
X0149400Y0045465D02*
X0125000Y0045465D01*
X0125000Y0043866D02*
X0149400Y0043866D01*
X0149739Y0042268D02*
X0125000Y0042268D01*
X0125000Y0040669D02*
X0150826Y0040669D01*
X0157174Y0040669D02*
X0169000Y0040669D01*
X0169000Y0039070D02*
X0125000Y0039070D01*
X0125000Y0039000D02*
X0125000Y0074000D01*
X0169000Y0074000D01*
X0169000Y0039000D01*
X0125000Y0039000D01*
X0125000Y0055056D02*
X0169000Y0055056D01*
X0169000Y0056654D02*
X0125000Y0056654D01*
X0125000Y0058253D02*
X0169000Y0058253D01*
X0169000Y0059851D02*
X0125000Y0059851D01*
X0125000Y0061450D02*
X0169000Y0061450D01*
X0169000Y0063048D02*
X0125000Y0063048D01*
X0125000Y0064647D02*
X0169000Y0064647D01*
X0169000Y0066245D02*
X0125000Y0066245D01*
X0125000Y0067844D02*
X0169000Y0067844D01*
X0169000Y0069442D02*
X0125000Y0069442D01*
X0125000Y0071041D02*
X0169000Y0071041D01*
X0169000Y0072639D02*
X0125000Y0072639D01*
X0157048Y0053457D02*
X0169000Y0053457D01*
X0169000Y0051859D02*
X0158209Y0051859D01*
X0158600Y0050260D02*
X0169000Y0050260D01*
X0169000Y0048662D02*
X0158600Y0048662D01*
X0158600Y0047063D02*
X0169000Y0047063D01*
X0169000Y0045465D02*
X0158600Y0045465D01*
X0158600Y0043866D02*
X0169000Y0043866D01*
X0169000Y0042268D02*
X0158261Y0042268D01*
X0170866Y0037472D02*
X0214134Y0037472D01*
X0213600Y0039070D02*
X0206000Y0039070D01*
X0206000Y0040669D02*
X0213600Y0040669D01*
X0213600Y0042268D02*
X0206000Y0042268D01*
X0206000Y0043866D02*
X0213600Y0043866D01*
X0213600Y0045465D02*
X0206000Y0045465D01*
X0206000Y0047063D02*
X0213600Y0047063D01*
X0213600Y0048662D02*
X0206000Y0048662D01*
X0206000Y0050260D02*
X0213600Y0050260D01*
X0213600Y0051859D02*
X0206000Y0051859D01*
X0206000Y0053457D02*
X0213600Y0053457D01*
X0216000Y0053457D02*
X0241952Y0053457D01*
X0242394Y0053900D02*
X0241100Y0052606D01*
X0240400Y0050915D01*
X0240400Y0043085D01*
X0241100Y0041394D01*
X0242394Y0040100D01*
X0244085Y0039400D01*
X0245915Y0039400D01*
X0247606Y0040100D01*
X0248900Y0041394D01*
X0249600Y0043085D01*
X0249600Y0050915D01*
X0248900Y0052606D01*
X0247606Y0053900D01*
X0245915Y0054600D01*
X0244085Y0054600D01*
X0242394Y0053900D01*
X0240791Y0051859D02*
X0216000Y0051859D01*
X0216000Y0050260D02*
X0240400Y0050260D01*
X0240400Y0048662D02*
X0216000Y0048662D01*
X0216000Y0047063D02*
X0240400Y0047063D01*
X0240400Y0045465D02*
X0216000Y0045465D01*
X0216000Y0043866D02*
X0240400Y0043866D01*
X0240739Y0042268D02*
X0216000Y0042268D01*
X0216000Y0040669D02*
X0241826Y0040669D01*
X0248174Y0040669D02*
X0260000Y0040669D01*
X0260000Y0039070D02*
X0216000Y0039070D01*
X0216000Y0039000D02*
X0260000Y0039000D01*
X0260000Y0074000D01*
X0216000Y0074000D01*
X0216000Y0039000D01*
X0216000Y0055056D02*
X0260000Y0055056D01*
X0260000Y0056654D02*
X0216000Y0056654D01*
X0216000Y0058253D02*
X0260000Y0058253D01*
X0260000Y0059851D02*
X0216000Y0059851D01*
X0216000Y0061450D02*
X0260000Y0061450D01*
X0260000Y0063048D02*
X0216000Y0063048D01*
X0216000Y0064647D02*
X0260000Y0064647D01*
X0260000Y0066245D02*
X0216000Y0066245D01*
X0216000Y0067844D02*
X0260000Y0067844D01*
X0260000Y0069442D02*
X0216000Y0069442D01*
X0216000Y0071041D02*
X0260000Y0071041D01*
X0260000Y0072639D02*
X0216000Y0072639D01*
X0184000Y0072639D02*
X0171400Y0072639D01*
X0171400Y0071041D02*
X0184000Y0071041D01*
X0184000Y0069442D02*
X0171400Y0069442D01*
X0171400Y0067844D02*
X0184000Y0067844D01*
X0184000Y0066245D02*
X0171400Y0066245D01*
X0171400Y0064647D02*
X0184000Y0064647D01*
X0184000Y0063048D02*
X0171400Y0063048D01*
X0171400Y0061450D02*
X0184000Y0061450D01*
X0184000Y0059851D02*
X0171400Y0059851D01*
X0171400Y0058253D02*
X0184000Y0058253D01*
X0184000Y0056654D02*
X0171400Y0056654D01*
X0171400Y0055056D02*
X0184000Y0055056D01*
X0184000Y0053457D02*
X0171400Y0053457D01*
X0171400Y0051859D02*
X0184000Y0051859D01*
X0184000Y0050260D02*
X0171400Y0050260D01*
X0171400Y0048662D02*
X0184000Y0048662D01*
X0184000Y0047063D02*
X0171400Y0047063D01*
X0171400Y0045465D02*
X0184000Y0045465D01*
X0184000Y0043866D02*
X0171400Y0043866D01*
X0171400Y0042268D02*
X0184000Y0042268D01*
X0182676Y0019888D02*
X0157324Y0019888D01*
X0158923Y0018290D02*
X0181077Y0018290D01*
X0179900Y0016691D02*
X0160100Y0016691D01*
X0160100Y0015093D02*
X0179900Y0015093D01*
X0179900Y0013494D02*
X0160100Y0013494D01*
X0159108Y0011896D02*
X0180892Y0011896D01*
X0182490Y0010297D02*
X0157510Y0010297D01*
X0152490Y0010297D02*
X0147510Y0010297D01*
X0149108Y0011896D02*
X0150892Y0011896D01*
X0142490Y0010297D02*
X0137510Y0010297D01*
X0139108Y0011896D02*
X0140892Y0011896D01*
X0132490Y0010297D02*
X0006800Y0010297D01*
X0006800Y0008699D02*
X0369982Y0008699D01*
X0369975Y0010297D02*
X0257510Y0010297D01*
X0259108Y0011896D02*
X0369967Y0011896D01*
X0369960Y0013494D02*
X0260100Y0013494D01*
X0260100Y0015093D02*
X0369952Y0015093D01*
X0369944Y0016691D02*
X0260100Y0016691D01*
X0258923Y0018290D02*
X0369937Y0018290D01*
X0369929Y0019888D02*
X0365565Y0019888D01*
X0366600Y0021487D02*
X0369921Y0021487D01*
X0369914Y0023085D02*
X0366600Y0023085D01*
X0366600Y0024684D02*
X0369906Y0024684D01*
X0369899Y0026282D02*
X0366600Y0026282D01*
X0366600Y0027881D02*
X0369891Y0027881D01*
X0369883Y0029479D02*
X0366600Y0029479D01*
X0366600Y0031078D02*
X0369876Y0031078D01*
X0369868Y0032676D02*
X0366600Y0032676D01*
X0366600Y0034275D02*
X0369861Y0034275D01*
X0369853Y0035873D02*
X0366600Y0035873D01*
X0366600Y0037472D02*
X0369845Y0037472D01*
X0369838Y0039070D02*
X0366600Y0039070D01*
X0366008Y0040669D02*
X0369830Y0040669D01*
X0364000Y0037472D02*
X0261866Y0037472D01*
X0260000Y0042268D02*
X0249261Y0042268D01*
X0249600Y0043866D02*
X0260000Y0043866D01*
X0260000Y0045465D02*
X0249600Y0045465D01*
X0249600Y0047063D02*
X0260000Y0047063D01*
X0260000Y0048662D02*
X0249600Y0048662D01*
X0249600Y0050260D02*
X0260000Y0050260D01*
X0260000Y0051859D02*
X0249209Y0051859D01*
X0248048Y0053457D02*
X0260000Y0053457D01*
X0274843Y0081189D02*
X0279000Y0085346D01*
X0280000Y0087026D02*
X0077000Y0087026D01*
X0077000Y0088624D02*
X0280000Y0088624D01*
X0273783Y0093420D02*
X0031097Y0093420D01*
X0032695Y0095018D02*
X0273783Y0095018D01*
X0273783Y0096617D02*
X0145937Y0096617D01*
X0147446Y0098215D02*
X0273783Y0098215D01*
X0273783Y0099814D02*
X0189283Y0099814D01*
X0189261Y0106208D02*
X0236531Y0106208D01*
X0239089Y0101412D02*
X0273783Y0101412D01*
X0289701Y0097748D02*
X0289929Y0097520D01*
X0289701Y0097748D02*
X0289701Y0117071D01*
X0294650Y0117398D02*
X0369465Y0117398D01*
X0369457Y0118996D02*
X0294650Y0118996D01*
X0294650Y0120595D02*
X0369450Y0120595D01*
X0369442Y0122193D02*
X0293817Y0122193D01*
X0294650Y0115799D02*
X0369472Y0115799D01*
X0369480Y0114201D02*
X0294650Y0114201D01*
X0294470Y0112602D02*
X0369488Y0112602D01*
X0369495Y0111003D02*
X0292301Y0111003D01*
X0292301Y0109405D02*
X0369503Y0109405D01*
X0369510Y0107806D02*
X0292301Y0107806D01*
X0292301Y0106208D02*
X0369518Y0106208D01*
X0369526Y0104609D02*
X0292301Y0104609D01*
X0292301Y0103011D02*
X0369533Y0103011D01*
X0369541Y0101412D02*
X0294879Y0101412D01*
X0294879Y0099814D02*
X0369548Y0099814D01*
X0369556Y0098215D02*
X0294879Y0098215D01*
X0294879Y0096617D02*
X0369564Y0096617D01*
X0369571Y0095018D02*
X0294879Y0095018D01*
X0294879Y0093420D02*
X0369579Y0093420D01*
X0369343Y0142974D02*
X0033721Y0142974D01*
X0033518Y0144572D02*
X0369335Y0144572D01*
X0369328Y0146171D02*
X0034500Y0146171D01*
X0034500Y0147769D02*
X0369320Y0147769D01*
X0369313Y0149368D02*
X0034500Y0149368D01*
X0034500Y0150966D02*
X0369305Y0150966D01*
X0369297Y0152565D02*
X0034500Y0152565D01*
X0034500Y0154163D02*
X0369290Y0154163D01*
X0369252Y0162156D02*
X0212833Y0162156D01*
X0214431Y0163754D02*
X0369244Y0163754D01*
X0369236Y0165353D02*
X0216030Y0165353D01*
X0217628Y0166951D02*
X0369229Y0166951D01*
X0369221Y0168550D02*
X0218600Y0168550D01*
X0218600Y0170148D02*
X0369214Y0170148D01*
X0369206Y0171747D02*
X0218600Y0171747D01*
X0218600Y0173345D02*
X0369198Y0173345D01*
X0369191Y0174944D02*
X0218600Y0174944D01*
X0218600Y0176542D02*
X0369183Y0176542D01*
X0369176Y0178141D02*
X0218600Y0178141D01*
X0218600Y0179739D02*
X0369168Y0179739D01*
X0369160Y0181338D02*
X0218600Y0181338D01*
X0218600Y0182937D02*
X0369153Y0182937D01*
X0369145Y0184535D02*
X0218600Y0184535D01*
X0218600Y0186134D02*
X0369137Y0186134D01*
X0369130Y0187732D02*
X0218600Y0187732D01*
X0218600Y0189331D02*
X0369122Y0189331D01*
X0369115Y0190929D02*
X0218600Y0190929D01*
X0218600Y0192528D02*
X0369107Y0192528D01*
X0369099Y0194126D02*
X0218600Y0194126D01*
X0218600Y0195725D02*
X0369092Y0195725D01*
X0369084Y0197323D02*
X0218600Y0197323D01*
X0218600Y0198922D02*
X0369077Y0198922D01*
X0369069Y0200520D02*
X0257733Y0200520D01*
X0259331Y0202119D02*
X0369061Y0202119D01*
X0369054Y0203717D02*
X0260100Y0203717D01*
X0260100Y0205316D02*
X0369046Y0205316D01*
X0369038Y0206914D02*
X0260100Y0206914D01*
X0258700Y0208513D02*
X0369031Y0208513D01*
X0252267Y0200520D02*
X0247733Y0200520D01*
X0249331Y0202119D02*
X0250669Y0202119D01*
X0242267Y0200520D02*
X0237733Y0200520D01*
X0239331Y0202119D02*
X0240669Y0202119D01*
X0232267Y0200520D02*
X0227733Y0200520D01*
X0229331Y0202119D02*
X0230669Y0202119D01*
X0222267Y0200520D02*
X0218600Y0200520D01*
X0219331Y0202119D02*
X0220669Y0202119D01*
X0221300Y0208513D02*
X0218700Y0208513D01*
X0211300Y0208513D02*
X0208700Y0208513D01*
X0201300Y0208513D02*
X0198700Y0208513D01*
X0191300Y0208513D02*
X0188700Y0208513D01*
X0181300Y0208513D02*
X0172700Y0208513D01*
X0174100Y0206914D02*
X0179900Y0206914D01*
X0179900Y0205316D02*
X0174100Y0205316D01*
X0174100Y0203717D02*
X0179900Y0203717D01*
X0180669Y0202119D02*
X0173331Y0202119D01*
X0171733Y0200520D02*
X0182267Y0200520D01*
X0187733Y0200520D02*
X0192267Y0200520D01*
X0190669Y0202119D02*
X0189331Y0202119D01*
X0197733Y0200520D02*
X0202267Y0200520D01*
X0200669Y0202119D02*
X0199331Y0202119D01*
X0182000Y0190000D02*
X0134000Y0190000D01*
X0119000Y0205000D01*
X0113900Y0205316D02*
X0104100Y0205316D01*
X0104100Y0206914D02*
X0113900Y0206914D01*
X0115300Y0208513D02*
X0102700Y0208513D01*
X0095300Y0208513D02*
X0092700Y0208513D01*
X0085300Y0208513D02*
X0082700Y0208513D01*
X0083331Y0202119D02*
X0084669Y0202119D01*
X0086267Y0200520D02*
X0081733Y0200520D01*
X0091733Y0200520D02*
X0096267Y0200520D01*
X0094669Y0202119D02*
X0093331Y0202119D01*
X0101733Y0200520D02*
X0116267Y0200520D01*
X0114669Y0202119D02*
X0103331Y0202119D01*
X0104100Y0203717D02*
X0113900Y0203717D01*
X0122700Y0208513D02*
X0125300Y0208513D01*
X0132700Y0208513D02*
X0135300Y0208513D01*
X0142700Y0208513D02*
X0145300Y0208513D01*
X0152700Y0208513D02*
X0155300Y0208513D01*
X0162700Y0208513D02*
X0165300Y0208513D01*
X0169000Y0205000D02*
X0159000Y0195000D01*
X0138000Y0195000D01*
X0087004Y0184535D02*
X0213400Y0184535D01*
X0213400Y0182937D02*
X0084600Y0182937D01*
X0084600Y0181338D02*
X0213400Y0181338D01*
X0213400Y0179739D02*
X0084600Y0179739D01*
X0084600Y0178141D02*
X0213400Y0178141D01*
X0213400Y0176542D02*
X0084600Y0176542D01*
X0084600Y0174944D02*
X0213400Y0174944D01*
X0213400Y0173345D02*
X0084600Y0173345D01*
X0084600Y0171747D02*
X0213400Y0171747D01*
X0213400Y0170148D02*
X0084600Y0170148D01*
X0084600Y0168550D02*
X0211873Y0168550D01*
X0210274Y0166951D02*
X0084600Y0166951D01*
X0081073Y0189331D02*
X0006800Y0189331D01*
X0006800Y0190929D02*
X0082674Y0190929D01*
X0187000Y0138000D02*
X0203000Y0138000D01*
X0232000Y0113000D01*
X0228133Y0112602D02*
X0006800Y0112602D01*
X0006800Y0111003D02*
X0228641Y0111003D01*
X0230574Y0109405D02*
X0006800Y0109405D01*
X0006800Y0107806D02*
X0124338Y0107806D01*
X0123315Y0106208D02*
X0006800Y0106208D01*
X0006800Y0104609D02*
X0081609Y0104609D01*
X0084391Y0104609D02*
X0123133Y0104609D01*
X0123638Y0103011D02*
X0112458Y0103011D01*
X0110000Y0100000D02*
X0144000Y0100000D01*
X0142063Y0096617D02*
X0111937Y0096617D01*
X0108063Y0096617D02*
X0034294Y0096617D01*
X0035892Y0098215D02*
X0080316Y0098215D01*
X0083000Y0101000D02*
X0035000Y0101000D01*
X0019000Y0085000D01*
X0019000Y0048000D01*
X0018000Y0047000D01*
X0013200Y0047063D02*
X0006800Y0047063D01*
X0006800Y0045465D02*
X0013200Y0045465D01*
X0013200Y0043866D02*
X0006800Y0043866D01*
X0006800Y0042268D02*
X0013522Y0042268D01*
X0014543Y0040669D02*
X0006800Y0040669D01*
X0006800Y0039070D02*
X0020400Y0039070D01*
X0020400Y0037472D02*
X0006800Y0037472D01*
X0006800Y0035873D02*
X0020400Y0035873D01*
X0020400Y0034275D02*
X0006800Y0034275D01*
X0006800Y0032676D02*
X0020400Y0032676D01*
X0020400Y0031078D02*
X0006800Y0031078D01*
X0006800Y0029479D02*
X0020400Y0029479D01*
X0020400Y0027881D02*
X0006800Y0027881D01*
X0006800Y0026282D02*
X0020400Y0026282D01*
X0020400Y0024684D02*
X0006800Y0024684D01*
X0006800Y0023085D02*
X0020400Y0023085D01*
X0020836Y0021487D02*
X0006800Y0021487D01*
X0006800Y0019888D02*
X0132676Y0019888D01*
X0131077Y0018290D02*
X0006800Y0018290D01*
X0006800Y0016691D02*
X0129900Y0016691D01*
X0129900Y0015093D02*
X0006800Y0015093D01*
X0006800Y0013494D02*
X0129900Y0013494D01*
X0130892Y0011896D02*
X0006800Y0011896D01*
X0006800Y0007100D02*
X0369990Y0007100D01*
X0364000Y0023085D02*
X0023000Y0023085D01*
X0023000Y0024684D02*
X0364000Y0024684D01*
X0364000Y0026282D02*
X0023000Y0026282D01*
X0023000Y0027881D02*
X0364000Y0027881D01*
X0364000Y0029479D02*
X0023000Y0029479D01*
X0023000Y0031078D02*
X0364000Y0031078D01*
X0364000Y0032676D02*
X0023000Y0032676D01*
X0023000Y0034275D02*
X0364000Y0034275D01*
X0364000Y0035873D02*
X0023000Y0035873D01*
X0023000Y0037472D02*
X0031134Y0037472D01*
X0030600Y0039070D02*
X0023000Y0039070D01*
X0023000Y0040669D02*
X0030600Y0040669D01*
X0030600Y0042268D02*
X0023000Y0042268D01*
X0023000Y0043866D02*
X0030600Y0043866D01*
X0030600Y0045465D02*
X0023000Y0045465D01*
X0023000Y0047063D02*
X0030600Y0047063D01*
X0030600Y0048662D02*
X0023000Y0048662D01*
X0023000Y0050260D02*
X0030600Y0050260D01*
X0030600Y0051859D02*
X0023000Y0051859D01*
X0023000Y0053457D02*
X0030600Y0053457D01*
X0016400Y0055056D02*
X0006800Y0055056D01*
X0006800Y0056654D02*
X0016400Y0056654D01*
X0016400Y0058253D02*
X0006800Y0058253D01*
X0006800Y0059851D02*
X0016400Y0059851D01*
X0016400Y0061450D02*
X0006800Y0061450D01*
X0006800Y0063048D02*
X0016400Y0063048D01*
X0016400Y0064647D02*
X0006800Y0064647D01*
X0006800Y0066245D02*
X0016400Y0066245D01*
X0016400Y0067844D02*
X0006800Y0067844D01*
X0006800Y0069442D02*
X0016400Y0069442D01*
X0016400Y0071041D02*
X0006800Y0071041D01*
X0006800Y0072639D02*
X0016400Y0072639D01*
X0016400Y0074238D02*
X0006800Y0074238D01*
X0006800Y0075836D02*
X0016400Y0075836D01*
X0016400Y0077435D02*
X0006800Y0077435D01*
X0006800Y0079033D02*
X0016400Y0079033D01*
X0016400Y0080632D02*
X0006800Y0080632D01*
X0006800Y0082230D02*
X0016400Y0082230D01*
X0016400Y0083829D02*
X0006800Y0083829D01*
X0006800Y0085427D02*
X0016400Y0085427D01*
X0017349Y0087026D02*
X0006800Y0087026D01*
X0006800Y0088624D02*
X0018947Y0088624D01*
X0017527Y0087204D02*
X0017527Y0087204D01*
X0020546Y0090223D02*
X0006800Y0090223D01*
X0006800Y0091821D02*
X0022144Y0091821D01*
X0023743Y0093420D02*
X0006800Y0093420D01*
X0006800Y0095018D02*
X0025341Y0095018D01*
X0026940Y0096617D02*
X0006800Y0096617D01*
X0006800Y0098215D02*
X0028538Y0098215D01*
X0030137Y0099814D02*
X0006800Y0099814D01*
X0006800Y0101412D02*
X0031735Y0101412D01*
X0033334Y0103011D02*
X0006800Y0103011D01*
X0006800Y0114201D02*
X0226625Y0114201D01*
X0224771Y0115799D02*
X0006800Y0115799D01*
X0006800Y0117398D02*
X0222917Y0117398D01*
X0221063Y0118996D02*
X0006800Y0118996D01*
X0006800Y0120595D02*
X0219208Y0120595D01*
X0217354Y0122193D02*
X0006800Y0122193D01*
X0006800Y0123792D02*
X0215500Y0123792D01*
X0202520Y0134981D02*
X0189450Y0134981D01*
X0151338Y0107806D02*
X0129662Y0107806D01*
X0127000Y0105000D02*
X0154000Y0105000D01*
X0107542Y0103011D02*
X0086353Y0103011D01*
X0086867Y0101412D02*
X0106400Y0101412D01*
X0106133Y0099814D02*
X0086694Y0099814D01*
X0085684Y0098215D02*
X0106554Y0098215D01*
X0170558Y0075836D02*
X0184000Y0075836D01*
X0184000Y0074238D02*
X0171400Y0074238D01*
X0187324Y0019888D02*
X0197471Y0019888D01*
X0201077Y0018290D02*
X0188923Y0018290D01*
X0190100Y0016691D02*
X0199900Y0016691D01*
X0199900Y0015093D02*
X0190100Y0015093D01*
X0190100Y0013494D02*
X0199900Y0013494D01*
X0200892Y0011896D02*
X0189108Y0011896D01*
X0187510Y0010297D02*
X0202490Y0010297D01*
X0207510Y0010297D02*
X0212490Y0010297D01*
X0210892Y0011896D02*
X0209108Y0011896D01*
X0217510Y0010297D02*
X0222490Y0010297D01*
X0220892Y0011896D02*
X0219108Y0011896D01*
X0227510Y0010297D02*
X0232490Y0010297D01*
X0230892Y0011896D02*
X0229108Y0011896D01*
X0237510Y0010297D02*
X0242490Y0010297D01*
X0240892Y0011896D02*
X0239108Y0011896D01*
X0247510Y0010297D02*
X0252490Y0010297D01*
X0250892Y0011896D02*
X0249108Y0011896D01*
X0274843Y0081189D02*
X0275000Y0081346D01*
X0251300Y0208513D02*
X0248700Y0208513D01*
X0241300Y0208513D02*
X0238700Y0208513D01*
X0231300Y0208513D02*
X0228700Y0208513D01*
X0014669Y0053457D02*
X0006800Y0053457D01*
X0006800Y0051859D02*
X0013574Y0051859D01*
X0013200Y0050260D02*
X0006800Y0050260D01*
X0006800Y0048662D02*
X0013200Y0048662D01*
M02*
