G75*
%MOIN*%
%OFA0B0*%
%FSLAX25Y25*%
%IPPOS*%
%LPD*%
%AMOC8*
5,1,8,0,0,1.08239X$1,22.5*
%
%ADD10C,0.00000*%
%ADD11C,0.00600*%
%ADD12C,0.00800*%
%ADD13C,0.00100*%
%ADD14R,0.03000X0.03400*%
%ADD15C,0.00400*%
%ADD16C,0.00300*%
%ADD17C,0.00500*%
D10*
X0005867Y0006387D02*
X0005867Y0164387D01*
X0173867Y0164387D01*
X0186867Y0155387D01*
X0186867Y0026387D01*
X0173867Y0017387D01*
X0173867Y0006387D01*
X0005867Y0006387D01*
D11*
X0031667Y0138087D02*
X0058067Y0138087D01*
X0058067Y0152687D01*
X0031667Y0152687D01*
X0031667Y0138087D01*
X0087167Y0154755D02*
X0088234Y0153687D01*
X0090369Y0153687D01*
X0091437Y0154755D01*
X0091437Y0159025D01*
X0090369Y0160093D01*
X0088234Y0160093D01*
X0087167Y0159025D01*
X0087167Y0154755D01*
X0093612Y0153687D02*
X0096815Y0153687D01*
X0097882Y0154755D01*
X0097882Y0156890D01*
X0096815Y0157958D01*
X0093612Y0157958D01*
X0093612Y0151552D01*
X0100058Y0154755D02*
X0100058Y0156890D01*
X0101125Y0157958D01*
X0103260Y0157958D01*
X0104328Y0156890D01*
X0104328Y0155822D01*
X0100058Y0155822D01*
X0100058Y0154755D02*
X0101125Y0153687D01*
X0103260Y0153687D01*
X0106503Y0153687D02*
X0106503Y0157958D01*
X0109706Y0157958D01*
X0110773Y0156890D01*
X0110773Y0153687D01*
X0119394Y0153687D02*
X0122597Y0153687D01*
X0123664Y0154755D01*
X0123664Y0155822D01*
X0122597Y0156890D01*
X0119394Y0156890D01*
X0119394Y0153687D02*
X0119394Y0160093D01*
X0122597Y0160093D01*
X0123664Y0159025D01*
X0123664Y0157958D01*
X0122597Y0156890D01*
X0125840Y0160093D02*
X0125840Y0153687D01*
X0130110Y0153687D01*
X0132285Y0153687D02*
X0135488Y0153687D01*
X0136555Y0154755D01*
X0136555Y0159025D01*
X0135488Y0160093D01*
X0132285Y0160093D01*
X0132285Y0153687D01*
X0138731Y0154755D02*
X0138731Y0159025D01*
X0139798Y0160093D01*
X0141933Y0160093D01*
X0143001Y0159025D01*
X0143001Y0154755D02*
X0141933Y0153687D01*
X0139798Y0153687D01*
X0138731Y0154755D01*
X0151622Y0153687D02*
X0155892Y0153687D01*
X0153757Y0153687D02*
X0153757Y0160093D01*
X0151622Y0157958D01*
X0158067Y0154755D02*
X0159135Y0154755D01*
X0159135Y0153687D01*
X0158067Y0153687D01*
X0158067Y0154755D01*
X0161290Y0154755D02*
X0165560Y0159025D01*
X0165560Y0154755D01*
X0164493Y0153687D01*
X0162357Y0153687D01*
X0161290Y0154755D01*
X0161290Y0159025D01*
X0162357Y0160093D01*
X0164493Y0160093D01*
X0165560Y0159025D01*
D12*
X0164367Y0158387D02*
X0166867Y0155887D01*
X0166867Y0150887D01*
X0164367Y0148387D01*
X0166867Y0145887D01*
X0166867Y0140887D01*
X0164367Y0138387D01*
X0159367Y0138387D01*
X0156867Y0140887D01*
X0156867Y0145887D01*
X0159367Y0148387D01*
X0156867Y0150887D01*
X0156867Y0155887D01*
X0159367Y0158387D01*
X0164367Y0158387D01*
X0164638Y0122155D02*
X0161961Y0122155D01*
X0160022Y0122155D01*
X0144287Y0122155D01*
X0142385Y0122155D01*
X0136378Y0122155D01*
X0136378Y0062155D01*
X0142385Y0062155D01*
X0144287Y0062155D01*
X0160022Y0062155D01*
X0161961Y0062155D01*
X0161961Y0122155D01*
X0164638Y0122155D02*
X0167087Y0122155D01*
X0168268Y0122155D01*
X0168268Y0062155D01*
X0167087Y0062155D01*
X0167087Y0122155D01*
X0164638Y0122155D02*
X0164638Y0062155D01*
X0165422Y0062155D01*
X0167087Y0062155D01*
X0166012Y0060946D02*
X0165422Y0061648D01*
X0165422Y0062155D01*
X0164638Y0062155D02*
X0163792Y0062155D01*
X0161961Y0062155D01*
X0163201Y0060946D02*
X0163792Y0061648D01*
X0163792Y0062155D01*
X0163201Y0060946D02*
X0163201Y0059910D01*
X0166012Y0059910D01*
X0166012Y0060946D01*
X0144686Y0072155D02*
X0144688Y0072340D01*
X0144695Y0072525D01*
X0144706Y0072710D01*
X0144722Y0072894D01*
X0144743Y0073078D01*
X0144768Y0073261D01*
X0144797Y0073444D01*
X0144831Y0073626D01*
X0144869Y0073807D01*
X0144912Y0073987D01*
X0144959Y0074166D01*
X0145011Y0074343D01*
X0145067Y0074520D01*
X0145127Y0074695D01*
X0145191Y0074868D01*
X0145260Y0075040D01*
X0145333Y0075210D01*
X0145410Y0075378D01*
X0145491Y0075545D01*
X0145576Y0075709D01*
X0145665Y0075871D01*
X0145759Y0076031D01*
X0145856Y0076188D01*
X0145957Y0076343D01*
X0146061Y0076496D01*
X0146170Y0076646D01*
X0146282Y0076793D01*
X0146397Y0076938D01*
X0146516Y0077079D01*
X0146639Y0077218D01*
X0146765Y0077353D01*
X0146894Y0077486D01*
X0147027Y0077615D01*
X0147162Y0077741D01*
X0147301Y0077864D01*
X0147442Y0077983D01*
X0147587Y0078098D01*
X0147734Y0078210D01*
X0147884Y0078319D01*
X0148037Y0078423D01*
X0148192Y0078524D01*
X0148349Y0078621D01*
X0148509Y0078715D01*
X0148671Y0078804D01*
X0148835Y0078889D01*
X0149002Y0078970D01*
X0149170Y0079047D01*
X0149340Y0079120D01*
X0149512Y0079189D01*
X0149685Y0079253D01*
X0149860Y0079313D01*
X0150037Y0079369D01*
X0150214Y0079421D01*
X0150393Y0079468D01*
X0150573Y0079511D01*
X0150754Y0079549D01*
X0150936Y0079583D01*
X0151119Y0079612D01*
X0151302Y0079637D01*
X0151486Y0079658D01*
X0151670Y0079674D01*
X0151855Y0079685D01*
X0152040Y0079692D01*
X0152225Y0079694D01*
X0152410Y0079692D01*
X0152595Y0079685D01*
X0152780Y0079674D01*
X0152964Y0079658D01*
X0153148Y0079637D01*
X0153331Y0079612D01*
X0153514Y0079583D01*
X0153696Y0079549D01*
X0153877Y0079511D01*
X0154057Y0079468D01*
X0154236Y0079421D01*
X0154413Y0079369D01*
X0154590Y0079313D01*
X0154765Y0079253D01*
X0154938Y0079189D01*
X0155110Y0079120D01*
X0155280Y0079047D01*
X0155448Y0078970D01*
X0155615Y0078889D01*
X0155779Y0078804D01*
X0155941Y0078715D01*
X0156101Y0078621D01*
X0156258Y0078524D01*
X0156413Y0078423D01*
X0156566Y0078319D01*
X0156716Y0078210D01*
X0156863Y0078098D01*
X0157008Y0077983D01*
X0157149Y0077864D01*
X0157288Y0077741D01*
X0157423Y0077615D01*
X0157556Y0077486D01*
X0157685Y0077353D01*
X0157811Y0077218D01*
X0157934Y0077079D01*
X0158053Y0076938D01*
X0158168Y0076793D01*
X0158280Y0076646D01*
X0158389Y0076496D01*
X0158493Y0076343D01*
X0158594Y0076188D01*
X0158691Y0076031D01*
X0158785Y0075871D01*
X0158874Y0075709D01*
X0158959Y0075545D01*
X0159040Y0075378D01*
X0159117Y0075210D01*
X0159190Y0075040D01*
X0159259Y0074868D01*
X0159323Y0074695D01*
X0159383Y0074520D01*
X0159439Y0074343D01*
X0159491Y0074166D01*
X0159538Y0073987D01*
X0159581Y0073807D01*
X0159619Y0073626D01*
X0159653Y0073444D01*
X0159682Y0073261D01*
X0159707Y0073078D01*
X0159728Y0072894D01*
X0159744Y0072710D01*
X0159755Y0072525D01*
X0159762Y0072340D01*
X0159764Y0072155D01*
X0159762Y0071970D01*
X0159755Y0071785D01*
X0159744Y0071600D01*
X0159728Y0071416D01*
X0159707Y0071232D01*
X0159682Y0071049D01*
X0159653Y0070866D01*
X0159619Y0070684D01*
X0159581Y0070503D01*
X0159538Y0070323D01*
X0159491Y0070144D01*
X0159439Y0069967D01*
X0159383Y0069790D01*
X0159323Y0069615D01*
X0159259Y0069442D01*
X0159190Y0069270D01*
X0159117Y0069100D01*
X0159040Y0068932D01*
X0158959Y0068765D01*
X0158874Y0068601D01*
X0158785Y0068439D01*
X0158691Y0068279D01*
X0158594Y0068122D01*
X0158493Y0067967D01*
X0158389Y0067814D01*
X0158280Y0067664D01*
X0158168Y0067517D01*
X0158053Y0067372D01*
X0157934Y0067231D01*
X0157811Y0067092D01*
X0157685Y0066957D01*
X0157556Y0066824D01*
X0157423Y0066695D01*
X0157288Y0066569D01*
X0157149Y0066446D01*
X0157008Y0066327D01*
X0156863Y0066212D01*
X0156716Y0066100D01*
X0156566Y0065991D01*
X0156413Y0065887D01*
X0156258Y0065786D01*
X0156101Y0065689D01*
X0155941Y0065595D01*
X0155779Y0065506D01*
X0155615Y0065421D01*
X0155448Y0065340D01*
X0155280Y0065263D01*
X0155110Y0065190D01*
X0154938Y0065121D01*
X0154765Y0065057D01*
X0154590Y0064997D01*
X0154413Y0064941D01*
X0154236Y0064889D01*
X0154057Y0064842D01*
X0153877Y0064799D01*
X0153696Y0064761D01*
X0153514Y0064727D01*
X0153331Y0064698D01*
X0153148Y0064673D01*
X0152964Y0064652D01*
X0152780Y0064636D01*
X0152595Y0064625D01*
X0152410Y0064618D01*
X0152225Y0064616D01*
X0152040Y0064618D01*
X0151855Y0064625D01*
X0151670Y0064636D01*
X0151486Y0064652D01*
X0151302Y0064673D01*
X0151119Y0064698D01*
X0150936Y0064727D01*
X0150754Y0064761D01*
X0150573Y0064799D01*
X0150393Y0064842D01*
X0150214Y0064889D01*
X0150037Y0064941D01*
X0149860Y0064997D01*
X0149685Y0065057D01*
X0149512Y0065121D01*
X0149340Y0065190D01*
X0149170Y0065263D01*
X0149002Y0065340D01*
X0148835Y0065421D01*
X0148671Y0065506D01*
X0148509Y0065595D01*
X0148349Y0065689D01*
X0148192Y0065786D01*
X0148037Y0065887D01*
X0147884Y0065991D01*
X0147734Y0066100D01*
X0147587Y0066212D01*
X0147442Y0066327D01*
X0147301Y0066446D01*
X0147162Y0066569D01*
X0147027Y0066695D01*
X0146894Y0066824D01*
X0146765Y0066957D01*
X0146639Y0067092D01*
X0146516Y0067231D01*
X0146397Y0067372D01*
X0146282Y0067517D01*
X0146170Y0067664D01*
X0146061Y0067814D01*
X0145957Y0067967D01*
X0145856Y0068122D01*
X0145759Y0068279D01*
X0145665Y0068439D01*
X0145576Y0068601D01*
X0145491Y0068765D01*
X0145410Y0068932D01*
X0145333Y0069100D01*
X0145260Y0069270D01*
X0145191Y0069442D01*
X0145127Y0069615D01*
X0145067Y0069790D01*
X0145011Y0069967D01*
X0144959Y0070144D01*
X0144912Y0070323D01*
X0144869Y0070503D01*
X0144831Y0070684D01*
X0144797Y0070866D01*
X0144768Y0071049D01*
X0144743Y0071232D01*
X0144722Y0071416D01*
X0144706Y0071600D01*
X0144695Y0071785D01*
X0144688Y0071970D01*
X0144686Y0072155D01*
X0142385Y0062155D02*
X0142385Y0122155D01*
X0144686Y0112155D02*
X0144688Y0112340D01*
X0144695Y0112525D01*
X0144706Y0112710D01*
X0144722Y0112894D01*
X0144743Y0113078D01*
X0144768Y0113261D01*
X0144797Y0113444D01*
X0144831Y0113626D01*
X0144869Y0113807D01*
X0144912Y0113987D01*
X0144959Y0114166D01*
X0145011Y0114343D01*
X0145067Y0114520D01*
X0145127Y0114695D01*
X0145191Y0114868D01*
X0145260Y0115040D01*
X0145333Y0115210D01*
X0145410Y0115378D01*
X0145491Y0115545D01*
X0145576Y0115709D01*
X0145665Y0115871D01*
X0145759Y0116031D01*
X0145856Y0116188D01*
X0145957Y0116343D01*
X0146061Y0116496D01*
X0146170Y0116646D01*
X0146282Y0116793D01*
X0146397Y0116938D01*
X0146516Y0117079D01*
X0146639Y0117218D01*
X0146765Y0117353D01*
X0146894Y0117486D01*
X0147027Y0117615D01*
X0147162Y0117741D01*
X0147301Y0117864D01*
X0147442Y0117983D01*
X0147587Y0118098D01*
X0147734Y0118210D01*
X0147884Y0118319D01*
X0148037Y0118423D01*
X0148192Y0118524D01*
X0148349Y0118621D01*
X0148509Y0118715D01*
X0148671Y0118804D01*
X0148835Y0118889D01*
X0149002Y0118970D01*
X0149170Y0119047D01*
X0149340Y0119120D01*
X0149512Y0119189D01*
X0149685Y0119253D01*
X0149860Y0119313D01*
X0150037Y0119369D01*
X0150214Y0119421D01*
X0150393Y0119468D01*
X0150573Y0119511D01*
X0150754Y0119549D01*
X0150936Y0119583D01*
X0151119Y0119612D01*
X0151302Y0119637D01*
X0151486Y0119658D01*
X0151670Y0119674D01*
X0151855Y0119685D01*
X0152040Y0119692D01*
X0152225Y0119694D01*
X0152410Y0119692D01*
X0152595Y0119685D01*
X0152780Y0119674D01*
X0152964Y0119658D01*
X0153148Y0119637D01*
X0153331Y0119612D01*
X0153514Y0119583D01*
X0153696Y0119549D01*
X0153877Y0119511D01*
X0154057Y0119468D01*
X0154236Y0119421D01*
X0154413Y0119369D01*
X0154590Y0119313D01*
X0154765Y0119253D01*
X0154938Y0119189D01*
X0155110Y0119120D01*
X0155280Y0119047D01*
X0155448Y0118970D01*
X0155615Y0118889D01*
X0155779Y0118804D01*
X0155941Y0118715D01*
X0156101Y0118621D01*
X0156258Y0118524D01*
X0156413Y0118423D01*
X0156566Y0118319D01*
X0156716Y0118210D01*
X0156863Y0118098D01*
X0157008Y0117983D01*
X0157149Y0117864D01*
X0157288Y0117741D01*
X0157423Y0117615D01*
X0157556Y0117486D01*
X0157685Y0117353D01*
X0157811Y0117218D01*
X0157934Y0117079D01*
X0158053Y0116938D01*
X0158168Y0116793D01*
X0158280Y0116646D01*
X0158389Y0116496D01*
X0158493Y0116343D01*
X0158594Y0116188D01*
X0158691Y0116031D01*
X0158785Y0115871D01*
X0158874Y0115709D01*
X0158959Y0115545D01*
X0159040Y0115378D01*
X0159117Y0115210D01*
X0159190Y0115040D01*
X0159259Y0114868D01*
X0159323Y0114695D01*
X0159383Y0114520D01*
X0159439Y0114343D01*
X0159491Y0114166D01*
X0159538Y0113987D01*
X0159581Y0113807D01*
X0159619Y0113626D01*
X0159653Y0113444D01*
X0159682Y0113261D01*
X0159707Y0113078D01*
X0159728Y0112894D01*
X0159744Y0112710D01*
X0159755Y0112525D01*
X0159762Y0112340D01*
X0159764Y0112155D01*
X0159762Y0111970D01*
X0159755Y0111785D01*
X0159744Y0111600D01*
X0159728Y0111416D01*
X0159707Y0111232D01*
X0159682Y0111049D01*
X0159653Y0110866D01*
X0159619Y0110684D01*
X0159581Y0110503D01*
X0159538Y0110323D01*
X0159491Y0110144D01*
X0159439Y0109967D01*
X0159383Y0109790D01*
X0159323Y0109615D01*
X0159259Y0109442D01*
X0159190Y0109270D01*
X0159117Y0109100D01*
X0159040Y0108932D01*
X0158959Y0108765D01*
X0158874Y0108601D01*
X0158785Y0108439D01*
X0158691Y0108279D01*
X0158594Y0108122D01*
X0158493Y0107967D01*
X0158389Y0107814D01*
X0158280Y0107664D01*
X0158168Y0107517D01*
X0158053Y0107372D01*
X0157934Y0107231D01*
X0157811Y0107092D01*
X0157685Y0106957D01*
X0157556Y0106824D01*
X0157423Y0106695D01*
X0157288Y0106569D01*
X0157149Y0106446D01*
X0157008Y0106327D01*
X0156863Y0106212D01*
X0156716Y0106100D01*
X0156566Y0105991D01*
X0156413Y0105887D01*
X0156258Y0105786D01*
X0156101Y0105689D01*
X0155941Y0105595D01*
X0155779Y0105506D01*
X0155615Y0105421D01*
X0155448Y0105340D01*
X0155280Y0105263D01*
X0155110Y0105190D01*
X0154938Y0105121D01*
X0154765Y0105057D01*
X0154590Y0104997D01*
X0154413Y0104941D01*
X0154236Y0104889D01*
X0154057Y0104842D01*
X0153877Y0104799D01*
X0153696Y0104761D01*
X0153514Y0104727D01*
X0153331Y0104698D01*
X0153148Y0104673D01*
X0152964Y0104652D01*
X0152780Y0104636D01*
X0152595Y0104625D01*
X0152410Y0104618D01*
X0152225Y0104616D01*
X0152040Y0104618D01*
X0151855Y0104625D01*
X0151670Y0104636D01*
X0151486Y0104652D01*
X0151302Y0104673D01*
X0151119Y0104698D01*
X0150936Y0104727D01*
X0150754Y0104761D01*
X0150573Y0104799D01*
X0150393Y0104842D01*
X0150214Y0104889D01*
X0150037Y0104941D01*
X0149860Y0104997D01*
X0149685Y0105057D01*
X0149512Y0105121D01*
X0149340Y0105190D01*
X0149170Y0105263D01*
X0149002Y0105340D01*
X0148835Y0105421D01*
X0148671Y0105506D01*
X0148509Y0105595D01*
X0148349Y0105689D01*
X0148192Y0105786D01*
X0148037Y0105887D01*
X0147884Y0105991D01*
X0147734Y0106100D01*
X0147587Y0106212D01*
X0147442Y0106327D01*
X0147301Y0106446D01*
X0147162Y0106569D01*
X0147027Y0106695D01*
X0146894Y0106824D01*
X0146765Y0106957D01*
X0146639Y0107092D01*
X0146516Y0107231D01*
X0146397Y0107372D01*
X0146282Y0107517D01*
X0146170Y0107664D01*
X0146061Y0107814D01*
X0145957Y0107967D01*
X0145856Y0108122D01*
X0145759Y0108279D01*
X0145665Y0108439D01*
X0145576Y0108601D01*
X0145491Y0108765D01*
X0145410Y0108932D01*
X0145333Y0109100D01*
X0145260Y0109270D01*
X0145191Y0109442D01*
X0145127Y0109615D01*
X0145067Y0109790D01*
X0145011Y0109967D01*
X0144959Y0110144D01*
X0144912Y0110323D01*
X0144869Y0110503D01*
X0144831Y0110684D01*
X0144797Y0110866D01*
X0144768Y0111049D01*
X0144743Y0111232D01*
X0144722Y0111416D01*
X0144706Y0111600D01*
X0144695Y0111785D01*
X0144688Y0111970D01*
X0144686Y0112155D01*
X0144686Y0092155D02*
X0144688Y0092340D01*
X0144695Y0092525D01*
X0144706Y0092710D01*
X0144722Y0092894D01*
X0144743Y0093078D01*
X0144768Y0093261D01*
X0144797Y0093444D01*
X0144831Y0093626D01*
X0144869Y0093807D01*
X0144912Y0093987D01*
X0144959Y0094166D01*
X0145011Y0094343D01*
X0145067Y0094520D01*
X0145127Y0094695D01*
X0145191Y0094868D01*
X0145260Y0095040D01*
X0145333Y0095210D01*
X0145410Y0095378D01*
X0145491Y0095545D01*
X0145576Y0095709D01*
X0145665Y0095871D01*
X0145759Y0096031D01*
X0145856Y0096188D01*
X0145957Y0096343D01*
X0146061Y0096496D01*
X0146170Y0096646D01*
X0146282Y0096793D01*
X0146397Y0096938D01*
X0146516Y0097079D01*
X0146639Y0097218D01*
X0146765Y0097353D01*
X0146894Y0097486D01*
X0147027Y0097615D01*
X0147162Y0097741D01*
X0147301Y0097864D01*
X0147442Y0097983D01*
X0147587Y0098098D01*
X0147734Y0098210D01*
X0147884Y0098319D01*
X0148037Y0098423D01*
X0148192Y0098524D01*
X0148349Y0098621D01*
X0148509Y0098715D01*
X0148671Y0098804D01*
X0148835Y0098889D01*
X0149002Y0098970D01*
X0149170Y0099047D01*
X0149340Y0099120D01*
X0149512Y0099189D01*
X0149685Y0099253D01*
X0149860Y0099313D01*
X0150037Y0099369D01*
X0150214Y0099421D01*
X0150393Y0099468D01*
X0150573Y0099511D01*
X0150754Y0099549D01*
X0150936Y0099583D01*
X0151119Y0099612D01*
X0151302Y0099637D01*
X0151486Y0099658D01*
X0151670Y0099674D01*
X0151855Y0099685D01*
X0152040Y0099692D01*
X0152225Y0099694D01*
X0152410Y0099692D01*
X0152595Y0099685D01*
X0152780Y0099674D01*
X0152964Y0099658D01*
X0153148Y0099637D01*
X0153331Y0099612D01*
X0153514Y0099583D01*
X0153696Y0099549D01*
X0153877Y0099511D01*
X0154057Y0099468D01*
X0154236Y0099421D01*
X0154413Y0099369D01*
X0154590Y0099313D01*
X0154765Y0099253D01*
X0154938Y0099189D01*
X0155110Y0099120D01*
X0155280Y0099047D01*
X0155448Y0098970D01*
X0155615Y0098889D01*
X0155779Y0098804D01*
X0155941Y0098715D01*
X0156101Y0098621D01*
X0156258Y0098524D01*
X0156413Y0098423D01*
X0156566Y0098319D01*
X0156716Y0098210D01*
X0156863Y0098098D01*
X0157008Y0097983D01*
X0157149Y0097864D01*
X0157288Y0097741D01*
X0157423Y0097615D01*
X0157556Y0097486D01*
X0157685Y0097353D01*
X0157811Y0097218D01*
X0157934Y0097079D01*
X0158053Y0096938D01*
X0158168Y0096793D01*
X0158280Y0096646D01*
X0158389Y0096496D01*
X0158493Y0096343D01*
X0158594Y0096188D01*
X0158691Y0096031D01*
X0158785Y0095871D01*
X0158874Y0095709D01*
X0158959Y0095545D01*
X0159040Y0095378D01*
X0159117Y0095210D01*
X0159190Y0095040D01*
X0159259Y0094868D01*
X0159323Y0094695D01*
X0159383Y0094520D01*
X0159439Y0094343D01*
X0159491Y0094166D01*
X0159538Y0093987D01*
X0159581Y0093807D01*
X0159619Y0093626D01*
X0159653Y0093444D01*
X0159682Y0093261D01*
X0159707Y0093078D01*
X0159728Y0092894D01*
X0159744Y0092710D01*
X0159755Y0092525D01*
X0159762Y0092340D01*
X0159764Y0092155D01*
X0159762Y0091970D01*
X0159755Y0091785D01*
X0159744Y0091600D01*
X0159728Y0091416D01*
X0159707Y0091232D01*
X0159682Y0091049D01*
X0159653Y0090866D01*
X0159619Y0090684D01*
X0159581Y0090503D01*
X0159538Y0090323D01*
X0159491Y0090144D01*
X0159439Y0089967D01*
X0159383Y0089790D01*
X0159323Y0089615D01*
X0159259Y0089442D01*
X0159190Y0089270D01*
X0159117Y0089100D01*
X0159040Y0088932D01*
X0158959Y0088765D01*
X0158874Y0088601D01*
X0158785Y0088439D01*
X0158691Y0088279D01*
X0158594Y0088122D01*
X0158493Y0087967D01*
X0158389Y0087814D01*
X0158280Y0087664D01*
X0158168Y0087517D01*
X0158053Y0087372D01*
X0157934Y0087231D01*
X0157811Y0087092D01*
X0157685Y0086957D01*
X0157556Y0086824D01*
X0157423Y0086695D01*
X0157288Y0086569D01*
X0157149Y0086446D01*
X0157008Y0086327D01*
X0156863Y0086212D01*
X0156716Y0086100D01*
X0156566Y0085991D01*
X0156413Y0085887D01*
X0156258Y0085786D01*
X0156101Y0085689D01*
X0155941Y0085595D01*
X0155779Y0085506D01*
X0155615Y0085421D01*
X0155448Y0085340D01*
X0155280Y0085263D01*
X0155110Y0085190D01*
X0154938Y0085121D01*
X0154765Y0085057D01*
X0154590Y0084997D01*
X0154413Y0084941D01*
X0154236Y0084889D01*
X0154057Y0084842D01*
X0153877Y0084799D01*
X0153696Y0084761D01*
X0153514Y0084727D01*
X0153331Y0084698D01*
X0153148Y0084673D01*
X0152964Y0084652D01*
X0152780Y0084636D01*
X0152595Y0084625D01*
X0152410Y0084618D01*
X0152225Y0084616D01*
X0152040Y0084618D01*
X0151855Y0084625D01*
X0151670Y0084636D01*
X0151486Y0084652D01*
X0151302Y0084673D01*
X0151119Y0084698D01*
X0150936Y0084727D01*
X0150754Y0084761D01*
X0150573Y0084799D01*
X0150393Y0084842D01*
X0150214Y0084889D01*
X0150037Y0084941D01*
X0149860Y0084997D01*
X0149685Y0085057D01*
X0149512Y0085121D01*
X0149340Y0085190D01*
X0149170Y0085263D01*
X0149002Y0085340D01*
X0148835Y0085421D01*
X0148671Y0085506D01*
X0148509Y0085595D01*
X0148349Y0085689D01*
X0148192Y0085786D01*
X0148037Y0085887D01*
X0147884Y0085991D01*
X0147734Y0086100D01*
X0147587Y0086212D01*
X0147442Y0086327D01*
X0147301Y0086446D01*
X0147162Y0086569D01*
X0147027Y0086695D01*
X0146894Y0086824D01*
X0146765Y0086957D01*
X0146639Y0087092D01*
X0146516Y0087231D01*
X0146397Y0087372D01*
X0146282Y0087517D01*
X0146170Y0087664D01*
X0146061Y0087814D01*
X0145957Y0087967D01*
X0145856Y0088122D01*
X0145759Y0088279D01*
X0145665Y0088439D01*
X0145576Y0088601D01*
X0145491Y0088765D01*
X0145410Y0088932D01*
X0145333Y0089100D01*
X0145260Y0089270D01*
X0145191Y0089442D01*
X0145127Y0089615D01*
X0145067Y0089790D01*
X0145011Y0089967D01*
X0144959Y0090144D01*
X0144912Y0090323D01*
X0144869Y0090503D01*
X0144831Y0090684D01*
X0144797Y0090866D01*
X0144768Y0091049D01*
X0144743Y0091232D01*
X0144722Y0091416D01*
X0144706Y0091600D01*
X0144695Y0091785D01*
X0144688Y0091970D01*
X0144686Y0092155D01*
X0102438Y0084698D02*
X0078050Y0084700D01*
X0078129Y0075925D02*
X0102516Y0075927D01*
X0102516Y0050123D01*
X0078129Y0050125D01*
X0064965Y0040875D02*
X0064965Y0034869D01*
X0064965Y0032967D01*
X0064965Y0017232D01*
X0064965Y0015293D01*
X0104965Y0015293D01*
X0104965Y0012616D01*
X0104965Y0010167D01*
X0104965Y0008986D01*
X0064965Y0008986D01*
X0064965Y0010167D01*
X0104965Y0010167D01*
X0104965Y0012616D02*
X0064965Y0012616D01*
X0064965Y0011832D01*
X0064965Y0010167D01*
X0063756Y0011242D02*
X0064458Y0011832D01*
X0064965Y0011832D01*
X0064965Y0012616D02*
X0064965Y0013462D01*
X0064965Y0015293D01*
X0063756Y0014053D02*
X0064458Y0013462D01*
X0064965Y0013462D01*
X0063756Y0014053D02*
X0062721Y0014053D01*
X0062721Y0011242D01*
X0063756Y0011242D01*
X0067426Y0025029D02*
X0067428Y0025214D01*
X0067435Y0025399D01*
X0067446Y0025584D01*
X0067462Y0025768D01*
X0067483Y0025952D01*
X0067508Y0026135D01*
X0067537Y0026318D01*
X0067571Y0026500D01*
X0067609Y0026681D01*
X0067652Y0026861D01*
X0067699Y0027040D01*
X0067751Y0027217D01*
X0067807Y0027394D01*
X0067867Y0027569D01*
X0067931Y0027742D01*
X0068000Y0027914D01*
X0068073Y0028084D01*
X0068150Y0028252D01*
X0068231Y0028419D01*
X0068316Y0028583D01*
X0068405Y0028745D01*
X0068499Y0028905D01*
X0068596Y0029062D01*
X0068697Y0029217D01*
X0068801Y0029370D01*
X0068910Y0029520D01*
X0069022Y0029667D01*
X0069137Y0029812D01*
X0069256Y0029953D01*
X0069379Y0030092D01*
X0069505Y0030227D01*
X0069634Y0030360D01*
X0069767Y0030489D01*
X0069902Y0030615D01*
X0070041Y0030738D01*
X0070182Y0030857D01*
X0070327Y0030972D01*
X0070474Y0031084D01*
X0070624Y0031193D01*
X0070777Y0031297D01*
X0070932Y0031398D01*
X0071089Y0031495D01*
X0071249Y0031589D01*
X0071411Y0031678D01*
X0071575Y0031763D01*
X0071742Y0031844D01*
X0071910Y0031921D01*
X0072080Y0031994D01*
X0072252Y0032063D01*
X0072425Y0032127D01*
X0072600Y0032187D01*
X0072777Y0032243D01*
X0072954Y0032295D01*
X0073133Y0032342D01*
X0073313Y0032385D01*
X0073494Y0032423D01*
X0073676Y0032457D01*
X0073859Y0032486D01*
X0074042Y0032511D01*
X0074226Y0032532D01*
X0074410Y0032548D01*
X0074595Y0032559D01*
X0074780Y0032566D01*
X0074965Y0032568D01*
X0075150Y0032566D01*
X0075335Y0032559D01*
X0075520Y0032548D01*
X0075704Y0032532D01*
X0075888Y0032511D01*
X0076071Y0032486D01*
X0076254Y0032457D01*
X0076436Y0032423D01*
X0076617Y0032385D01*
X0076797Y0032342D01*
X0076976Y0032295D01*
X0077153Y0032243D01*
X0077330Y0032187D01*
X0077505Y0032127D01*
X0077678Y0032063D01*
X0077850Y0031994D01*
X0078020Y0031921D01*
X0078188Y0031844D01*
X0078355Y0031763D01*
X0078519Y0031678D01*
X0078681Y0031589D01*
X0078841Y0031495D01*
X0078998Y0031398D01*
X0079153Y0031297D01*
X0079306Y0031193D01*
X0079456Y0031084D01*
X0079603Y0030972D01*
X0079748Y0030857D01*
X0079889Y0030738D01*
X0080028Y0030615D01*
X0080163Y0030489D01*
X0080296Y0030360D01*
X0080425Y0030227D01*
X0080551Y0030092D01*
X0080674Y0029953D01*
X0080793Y0029812D01*
X0080908Y0029667D01*
X0081020Y0029520D01*
X0081129Y0029370D01*
X0081233Y0029217D01*
X0081334Y0029062D01*
X0081431Y0028905D01*
X0081525Y0028745D01*
X0081614Y0028583D01*
X0081699Y0028419D01*
X0081780Y0028252D01*
X0081857Y0028084D01*
X0081930Y0027914D01*
X0081999Y0027742D01*
X0082063Y0027569D01*
X0082123Y0027394D01*
X0082179Y0027217D01*
X0082231Y0027040D01*
X0082278Y0026861D01*
X0082321Y0026681D01*
X0082359Y0026500D01*
X0082393Y0026318D01*
X0082422Y0026135D01*
X0082447Y0025952D01*
X0082468Y0025768D01*
X0082484Y0025584D01*
X0082495Y0025399D01*
X0082502Y0025214D01*
X0082504Y0025029D01*
X0082502Y0024844D01*
X0082495Y0024659D01*
X0082484Y0024474D01*
X0082468Y0024290D01*
X0082447Y0024106D01*
X0082422Y0023923D01*
X0082393Y0023740D01*
X0082359Y0023558D01*
X0082321Y0023377D01*
X0082278Y0023197D01*
X0082231Y0023018D01*
X0082179Y0022841D01*
X0082123Y0022664D01*
X0082063Y0022489D01*
X0081999Y0022316D01*
X0081930Y0022144D01*
X0081857Y0021974D01*
X0081780Y0021806D01*
X0081699Y0021639D01*
X0081614Y0021475D01*
X0081525Y0021313D01*
X0081431Y0021153D01*
X0081334Y0020996D01*
X0081233Y0020841D01*
X0081129Y0020688D01*
X0081020Y0020538D01*
X0080908Y0020391D01*
X0080793Y0020246D01*
X0080674Y0020105D01*
X0080551Y0019966D01*
X0080425Y0019831D01*
X0080296Y0019698D01*
X0080163Y0019569D01*
X0080028Y0019443D01*
X0079889Y0019320D01*
X0079748Y0019201D01*
X0079603Y0019086D01*
X0079456Y0018974D01*
X0079306Y0018865D01*
X0079153Y0018761D01*
X0078998Y0018660D01*
X0078841Y0018563D01*
X0078681Y0018469D01*
X0078519Y0018380D01*
X0078355Y0018295D01*
X0078188Y0018214D01*
X0078020Y0018137D01*
X0077850Y0018064D01*
X0077678Y0017995D01*
X0077505Y0017931D01*
X0077330Y0017871D01*
X0077153Y0017815D01*
X0076976Y0017763D01*
X0076797Y0017716D01*
X0076617Y0017673D01*
X0076436Y0017635D01*
X0076254Y0017601D01*
X0076071Y0017572D01*
X0075888Y0017547D01*
X0075704Y0017526D01*
X0075520Y0017510D01*
X0075335Y0017499D01*
X0075150Y0017492D01*
X0074965Y0017490D01*
X0074780Y0017492D01*
X0074595Y0017499D01*
X0074410Y0017510D01*
X0074226Y0017526D01*
X0074042Y0017547D01*
X0073859Y0017572D01*
X0073676Y0017601D01*
X0073494Y0017635D01*
X0073313Y0017673D01*
X0073133Y0017716D01*
X0072954Y0017763D01*
X0072777Y0017815D01*
X0072600Y0017871D01*
X0072425Y0017931D01*
X0072252Y0017995D01*
X0072080Y0018064D01*
X0071910Y0018137D01*
X0071742Y0018214D01*
X0071575Y0018295D01*
X0071411Y0018380D01*
X0071249Y0018469D01*
X0071089Y0018563D01*
X0070932Y0018660D01*
X0070777Y0018761D01*
X0070624Y0018865D01*
X0070474Y0018974D01*
X0070327Y0019086D01*
X0070182Y0019201D01*
X0070041Y0019320D01*
X0069902Y0019443D01*
X0069767Y0019569D01*
X0069634Y0019698D01*
X0069505Y0019831D01*
X0069379Y0019966D01*
X0069256Y0020105D01*
X0069137Y0020246D01*
X0069022Y0020391D01*
X0068910Y0020538D01*
X0068801Y0020688D01*
X0068697Y0020841D01*
X0068596Y0020996D01*
X0068499Y0021153D01*
X0068405Y0021313D01*
X0068316Y0021475D01*
X0068231Y0021639D01*
X0068150Y0021806D01*
X0068073Y0021974D01*
X0068000Y0022144D01*
X0067931Y0022316D01*
X0067867Y0022489D01*
X0067807Y0022664D01*
X0067751Y0022841D01*
X0067699Y0023018D01*
X0067652Y0023197D01*
X0067609Y0023377D01*
X0067571Y0023558D01*
X0067537Y0023740D01*
X0067508Y0023923D01*
X0067483Y0024106D01*
X0067462Y0024290D01*
X0067446Y0024474D01*
X0067435Y0024659D01*
X0067428Y0024844D01*
X0067426Y0025029D01*
X0064965Y0034869D02*
X0104965Y0034869D01*
X0104965Y0040875D01*
X0064965Y0040875D01*
X0087426Y0025029D02*
X0087428Y0025214D01*
X0087435Y0025399D01*
X0087446Y0025584D01*
X0087462Y0025768D01*
X0087483Y0025952D01*
X0087508Y0026135D01*
X0087537Y0026318D01*
X0087571Y0026500D01*
X0087609Y0026681D01*
X0087652Y0026861D01*
X0087699Y0027040D01*
X0087751Y0027217D01*
X0087807Y0027394D01*
X0087867Y0027569D01*
X0087931Y0027742D01*
X0088000Y0027914D01*
X0088073Y0028084D01*
X0088150Y0028252D01*
X0088231Y0028419D01*
X0088316Y0028583D01*
X0088405Y0028745D01*
X0088499Y0028905D01*
X0088596Y0029062D01*
X0088697Y0029217D01*
X0088801Y0029370D01*
X0088910Y0029520D01*
X0089022Y0029667D01*
X0089137Y0029812D01*
X0089256Y0029953D01*
X0089379Y0030092D01*
X0089505Y0030227D01*
X0089634Y0030360D01*
X0089767Y0030489D01*
X0089902Y0030615D01*
X0090041Y0030738D01*
X0090182Y0030857D01*
X0090327Y0030972D01*
X0090474Y0031084D01*
X0090624Y0031193D01*
X0090777Y0031297D01*
X0090932Y0031398D01*
X0091089Y0031495D01*
X0091249Y0031589D01*
X0091411Y0031678D01*
X0091575Y0031763D01*
X0091742Y0031844D01*
X0091910Y0031921D01*
X0092080Y0031994D01*
X0092252Y0032063D01*
X0092425Y0032127D01*
X0092600Y0032187D01*
X0092777Y0032243D01*
X0092954Y0032295D01*
X0093133Y0032342D01*
X0093313Y0032385D01*
X0093494Y0032423D01*
X0093676Y0032457D01*
X0093859Y0032486D01*
X0094042Y0032511D01*
X0094226Y0032532D01*
X0094410Y0032548D01*
X0094595Y0032559D01*
X0094780Y0032566D01*
X0094965Y0032568D01*
X0095150Y0032566D01*
X0095335Y0032559D01*
X0095520Y0032548D01*
X0095704Y0032532D01*
X0095888Y0032511D01*
X0096071Y0032486D01*
X0096254Y0032457D01*
X0096436Y0032423D01*
X0096617Y0032385D01*
X0096797Y0032342D01*
X0096976Y0032295D01*
X0097153Y0032243D01*
X0097330Y0032187D01*
X0097505Y0032127D01*
X0097678Y0032063D01*
X0097850Y0031994D01*
X0098020Y0031921D01*
X0098188Y0031844D01*
X0098355Y0031763D01*
X0098519Y0031678D01*
X0098681Y0031589D01*
X0098841Y0031495D01*
X0098998Y0031398D01*
X0099153Y0031297D01*
X0099306Y0031193D01*
X0099456Y0031084D01*
X0099603Y0030972D01*
X0099748Y0030857D01*
X0099889Y0030738D01*
X0100028Y0030615D01*
X0100163Y0030489D01*
X0100296Y0030360D01*
X0100425Y0030227D01*
X0100551Y0030092D01*
X0100674Y0029953D01*
X0100793Y0029812D01*
X0100908Y0029667D01*
X0101020Y0029520D01*
X0101129Y0029370D01*
X0101233Y0029217D01*
X0101334Y0029062D01*
X0101431Y0028905D01*
X0101525Y0028745D01*
X0101614Y0028583D01*
X0101699Y0028419D01*
X0101780Y0028252D01*
X0101857Y0028084D01*
X0101930Y0027914D01*
X0101999Y0027742D01*
X0102063Y0027569D01*
X0102123Y0027394D01*
X0102179Y0027217D01*
X0102231Y0027040D01*
X0102278Y0026861D01*
X0102321Y0026681D01*
X0102359Y0026500D01*
X0102393Y0026318D01*
X0102422Y0026135D01*
X0102447Y0025952D01*
X0102468Y0025768D01*
X0102484Y0025584D01*
X0102495Y0025399D01*
X0102502Y0025214D01*
X0102504Y0025029D01*
X0102502Y0024844D01*
X0102495Y0024659D01*
X0102484Y0024474D01*
X0102468Y0024290D01*
X0102447Y0024106D01*
X0102422Y0023923D01*
X0102393Y0023740D01*
X0102359Y0023558D01*
X0102321Y0023377D01*
X0102278Y0023197D01*
X0102231Y0023018D01*
X0102179Y0022841D01*
X0102123Y0022664D01*
X0102063Y0022489D01*
X0101999Y0022316D01*
X0101930Y0022144D01*
X0101857Y0021974D01*
X0101780Y0021806D01*
X0101699Y0021639D01*
X0101614Y0021475D01*
X0101525Y0021313D01*
X0101431Y0021153D01*
X0101334Y0020996D01*
X0101233Y0020841D01*
X0101129Y0020688D01*
X0101020Y0020538D01*
X0100908Y0020391D01*
X0100793Y0020246D01*
X0100674Y0020105D01*
X0100551Y0019966D01*
X0100425Y0019831D01*
X0100296Y0019698D01*
X0100163Y0019569D01*
X0100028Y0019443D01*
X0099889Y0019320D01*
X0099748Y0019201D01*
X0099603Y0019086D01*
X0099456Y0018974D01*
X0099306Y0018865D01*
X0099153Y0018761D01*
X0098998Y0018660D01*
X0098841Y0018563D01*
X0098681Y0018469D01*
X0098519Y0018380D01*
X0098355Y0018295D01*
X0098188Y0018214D01*
X0098020Y0018137D01*
X0097850Y0018064D01*
X0097678Y0017995D01*
X0097505Y0017931D01*
X0097330Y0017871D01*
X0097153Y0017815D01*
X0096976Y0017763D01*
X0096797Y0017716D01*
X0096617Y0017673D01*
X0096436Y0017635D01*
X0096254Y0017601D01*
X0096071Y0017572D01*
X0095888Y0017547D01*
X0095704Y0017526D01*
X0095520Y0017510D01*
X0095335Y0017499D01*
X0095150Y0017492D01*
X0094965Y0017490D01*
X0094780Y0017492D01*
X0094595Y0017499D01*
X0094410Y0017510D01*
X0094226Y0017526D01*
X0094042Y0017547D01*
X0093859Y0017572D01*
X0093676Y0017601D01*
X0093494Y0017635D01*
X0093313Y0017673D01*
X0093133Y0017716D01*
X0092954Y0017763D01*
X0092777Y0017815D01*
X0092600Y0017871D01*
X0092425Y0017931D01*
X0092252Y0017995D01*
X0092080Y0018064D01*
X0091910Y0018137D01*
X0091742Y0018214D01*
X0091575Y0018295D01*
X0091411Y0018380D01*
X0091249Y0018469D01*
X0091089Y0018563D01*
X0090932Y0018660D01*
X0090777Y0018761D01*
X0090624Y0018865D01*
X0090474Y0018974D01*
X0090327Y0019086D01*
X0090182Y0019201D01*
X0090041Y0019320D01*
X0089902Y0019443D01*
X0089767Y0019569D01*
X0089634Y0019698D01*
X0089505Y0019831D01*
X0089379Y0019966D01*
X0089256Y0020105D01*
X0089137Y0020246D01*
X0089022Y0020391D01*
X0088910Y0020538D01*
X0088801Y0020688D01*
X0088697Y0020841D01*
X0088596Y0020996D01*
X0088499Y0021153D01*
X0088405Y0021313D01*
X0088316Y0021475D01*
X0088231Y0021639D01*
X0088150Y0021806D01*
X0088073Y0021974D01*
X0088000Y0022144D01*
X0087931Y0022316D01*
X0087867Y0022489D01*
X0087807Y0022664D01*
X0087751Y0022841D01*
X0087699Y0023018D01*
X0087652Y0023197D01*
X0087609Y0023377D01*
X0087571Y0023558D01*
X0087537Y0023740D01*
X0087508Y0023923D01*
X0087483Y0024106D01*
X0087462Y0024290D01*
X0087446Y0024474D01*
X0087435Y0024659D01*
X0087428Y0024844D01*
X0087426Y0025029D01*
X0104965Y0017232D02*
X0104965Y0015293D01*
X0104965Y0017232D02*
X0104965Y0032967D01*
X0104965Y0034869D01*
X0102438Y0084698D02*
X0102438Y0110501D01*
X0078050Y0110500D01*
X0077050Y0119944D02*
X0101438Y0119942D01*
X0101438Y0145745D01*
X0077050Y0145744D01*
X0030467Y0138141D02*
X0030467Y0135672D01*
X0029232Y0134438D01*
X0029232Y0131825D02*
X0023060Y0131825D01*
X0024295Y0134438D02*
X0023060Y0135672D01*
X0023060Y0138141D01*
X0024295Y0139375D01*
X0025529Y0139375D01*
X0026763Y0138141D01*
X0027998Y0139375D01*
X0029232Y0139375D01*
X0030467Y0138141D01*
X0026763Y0138141D02*
X0026763Y0136906D01*
X0029232Y0131825D02*
X0030467Y0130590D01*
X0030467Y0128122D01*
X0029232Y0126887D01*
X0023060Y0126887D01*
X0017367Y0141387D02*
X0012367Y0141387D01*
X0009867Y0143887D01*
X0009867Y0148887D01*
X0012367Y0151387D01*
X0009867Y0153887D01*
X0009867Y0158887D01*
X0012367Y0161387D01*
X0017367Y0161387D01*
X0019867Y0158887D01*
X0019867Y0153887D01*
X0017367Y0151387D01*
X0019867Y0148887D01*
X0019867Y0143887D01*
X0017367Y0141387D01*
X0024367Y0031387D02*
X0029367Y0031387D01*
X0031867Y0028887D01*
X0031867Y0023887D01*
X0029367Y0021387D01*
X0031867Y0018887D01*
X0031867Y0013887D01*
X0029367Y0011387D01*
X0024367Y0011387D01*
X0021867Y0013887D01*
X0021867Y0018887D01*
X0024367Y0021387D01*
X0021867Y0023887D01*
X0021867Y0028887D01*
X0024367Y0031387D01*
X0158867Y0028887D02*
X0158867Y0023887D01*
X0161367Y0021387D01*
X0158867Y0018887D01*
X0158867Y0013887D01*
X0161367Y0011387D01*
X0166367Y0011387D01*
X0168867Y0013887D01*
X0168867Y0018887D01*
X0166367Y0021387D01*
X0168867Y0023887D01*
X0168867Y0028887D01*
X0166367Y0031387D01*
X0161367Y0031387D01*
X0158867Y0028887D01*
D13*
X0101988Y0046975D02*
X0100987Y0046975D01*
X0100514Y0046975D02*
X0100014Y0047475D01*
X0100264Y0046975D02*
X0099764Y0046975D01*
X0099513Y0047225D01*
X0099513Y0048226D01*
X0099764Y0048476D01*
X0100264Y0048476D01*
X0100514Y0048226D01*
X0100514Y0047225D01*
X0100264Y0046975D01*
X0101487Y0046975D02*
X0101487Y0048476D01*
X0100987Y0047976D01*
X0100436Y0081550D02*
X0099935Y0082050D01*
X0100185Y0081550D02*
X0099685Y0081550D01*
X0099435Y0081800D01*
X0099435Y0082801D01*
X0099685Y0083051D01*
X0100185Y0083051D01*
X0100436Y0082801D01*
X0100436Y0081800D01*
X0100185Y0081550D01*
X0100908Y0082300D02*
X0101909Y0082300D01*
X0101659Y0081550D02*
X0101659Y0083051D01*
X0100908Y0082300D01*
X0100659Y0116794D02*
X0100909Y0117044D01*
X0100909Y0117294D01*
X0100659Y0117545D01*
X0099908Y0117545D01*
X0099908Y0117044D01*
X0100158Y0116794D01*
X0100659Y0116794D01*
X0099908Y0117545D02*
X0100408Y0118045D01*
X0100909Y0118295D01*
X0099436Y0118045D02*
X0099436Y0117044D01*
X0099185Y0116794D01*
X0098685Y0116794D01*
X0098435Y0117044D01*
X0098435Y0118045D01*
X0098685Y0118295D01*
X0099185Y0118295D01*
X0099436Y0118045D01*
X0098935Y0117294D02*
X0099436Y0116794D01*
D14*
X0103338Y0132844D03*
X0104338Y0097600D03*
X0104416Y0063025D03*
D15*
X0130019Y0063732D02*
X0134623Y0066802D01*
X0134623Y0068336D02*
X0131554Y0071406D01*
X0130787Y0071406D01*
X0130019Y0070638D01*
X0130019Y0069104D01*
X0130787Y0068336D01*
X0130019Y0066802D02*
X0134623Y0063732D01*
X0134623Y0068336D02*
X0134623Y0071406D01*
X0074216Y0042631D02*
X0071147Y0042631D01*
X0072681Y0042631D02*
X0072681Y0047234D01*
X0071147Y0045700D01*
X0069612Y0047234D02*
X0066543Y0042631D01*
X0069612Y0042631D02*
X0066543Y0047234D01*
X0056344Y0034691D02*
X0053275Y0034691D01*
X0053275Y0032389D01*
X0054809Y0033156D01*
X0055576Y0033156D01*
X0056344Y0032389D01*
X0056344Y0030855D01*
X0055576Y0030087D01*
X0054042Y0030087D01*
X0053275Y0030855D01*
X0051740Y0030087D02*
X0048671Y0030087D01*
X0051740Y0033156D01*
X0051740Y0033924D01*
X0050973Y0034691D01*
X0049438Y0034691D01*
X0048671Y0033924D01*
X0047136Y0033924D02*
X0046369Y0034691D01*
X0044834Y0034691D01*
X0044067Y0033924D01*
X0044067Y0030855D01*
X0044834Y0030087D01*
X0046369Y0030087D01*
X0047136Y0030855D01*
X0029650Y0058087D02*
X0030167Y0058604D01*
X0030167Y0059121D01*
X0029650Y0059639D01*
X0027064Y0059639D01*
X0027064Y0060156D02*
X0027064Y0059121D01*
X0028098Y0061310D02*
X0027064Y0062344D01*
X0030167Y0062344D01*
X0030167Y0061310D02*
X0030167Y0063378D01*
X0038834Y0103087D02*
X0040369Y0103087D01*
X0041136Y0103855D01*
X0042671Y0103087D02*
X0045740Y0106156D01*
X0045740Y0106924D01*
X0044973Y0107691D01*
X0043438Y0107691D01*
X0042671Y0106924D01*
X0041136Y0106924D02*
X0040369Y0107691D01*
X0038834Y0107691D01*
X0038067Y0106924D01*
X0038067Y0103855D01*
X0038834Y0103087D01*
X0042671Y0103087D02*
X0045740Y0103087D01*
X0047275Y0105389D02*
X0050344Y0105389D01*
X0049576Y0103087D02*
X0049576Y0107691D01*
X0047275Y0105389D01*
X0048032Y0110087D02*
X0044963Y0110087D01*
X0048032Y0113156D01*
X0048032Y0113924D01*
X0047265Y0114691D01*
X0045730Y0114691D01*
X0044963Y0113924D01*
X0043428Y0113924D02*
X0043428Y0113156D01*
X0042661Y0112389D01*
X0043428Y0111622D01*
X0043428Y0110855D01*
X0042661Y0110087D01*
X0041126Y0110087D01*
X0040359Y0110855D01*
X0038824Y0110087D02*
X0037289Y0111622D01*
X0038057Y0111622D02*
X0038824Y0112389D01*
X0038824Y0113924D01*
X0038057Y0114691D01*
X0035755Y0114691D01*
X0035755Y0110087D01*
X0035755Y0111622D02*
X0038057Y0111622D01*
X0040359Y0113924D02*
X0041126Y0114691D01*
X0042661Y0114691D01*
X0043428Y0113924D01*
X0042661Y0112389D02*
X0041893Y0112389D01*
X0022032Y0111622D02*
X0022032Y0110855D01*
X0021265Y0110087D01*
X0019730Y0110087D01*
X0018963Y0110855D01*
X0017428Y0110855D02*
X0016661Y0110087D01*
X0015126Y0110087D01*
X0014359Y0110855D01*
X0012824Y0110087D02*
X0011289Y0111622D01*
X0012057Y0111622D02*
X0009755Y0111622D01*
X0009755Y0110087D02*
X0009755Y0114691D01*
X0012057Y0114691D01*
X0012824Y0113924D01*
X0012824Y0112389D01*
X0012057Y0111622D01*
X0014359Y0113924D02*
X0015126Y0114691D01*
X0016661Y0114691D01*
X0017428Y0113924D01*
X0017428Y0113156D01*
X0016661Y0112389D01*
X0017428Y0111622D01*
X0017428Y0110855D01*
X0016661Y0112389D02*
X0015893Y0112389D01*
X0018963Y0113924D02*
X0019730Y0114691D01*
X0021265Y0114691D01*
X0022032Y0113924D01*
X0022032Y0113156D01*
X0021265Y0112389D01*
X0022032Y0111622D01*
X0021265Y0112389D02*
X0020497Y0112389D01*
D16*
X0031397Y0129737D02*
X0034533Y0132873D01*
X0034533Y0131305D02*
X0031397Y0131305D01*
X0031397Y0132873D02*
X0034533Y0129737D01*
X0032965Y0129737D02*
X0032965Y0132873D01*
D17*
X0007417Y0142088D02*
X0007417Y0142838D01*
X0006666Y0143589D01*
X0002913Y0143589D01*
X0002913Y0142838D02*
X0002913Y0144340D01*
X0002913Y0145941D02*
X0005165Y0145941D01*
X0004414Y0147442D01*
X0004414Y0148193D01*
X0005165Y0148944D01*
X0006666Y0148944D01*
X0007417Y0148193D01*
X0007417Y0146692D01*
X0006666Y0145941D01*
X0002913Y0145941D02*
X0002913Y0148944D01*
X0007417Y0142088D02*
X0006666Y0141337D01*
X0032867Y0090387D02*
X0032867Y0040387D01*
X0052867Y0040387D01*
X0052867Y0090387D01*
X0032867Y0090387D01*
X0019417Y0018944D02*
X0019417Y0015941D01*
X0016414Y0018944D01*
X0015663Y0018944D01*
X0014913Y0018193D01*
X0014913Y0016692D01*
X0015663Y0015941D01*
X0014913Y0014340D02*
X0014913Y0012838D01*
X0014913Y0013589D02*
X0018666Y0013589D01*
X0019417Y0012838D01*
X0019417Y0012088D01*
X0018666Y0011337D01*
X0151913Y0012838D02*
X0151913Y0014340D01*
X0151913Y0013589D02*
X0155666Y0013589D01*
X0156417Y0012838D01*
X0156417Y0012088D01*
X0155666Y0011337D01*
X0155666Y0015941D02*
X0156417Y0016692D01*
X0156417Y0018193D01*
X0155666Y0018944D01*
X0154915Y0018944D01*
X0154165Y0018193D01*
X0154165Y0017442D01*
X0154165Y0018193D02*
X0153414Y0018944D01*
X0152663Y0018944D01*
X0151913Y0018193D01*
X0151913Y0016692D01*
X0152663Y0015941D01*
X0173066Y0149729D02*
X0173817Y0150480D01*
X0173817Y0151231D01*
X0173066Y0151981D01*
X0169313Y0151981D01*
X0169313Y0151231D02*
X0169313Y0152732D01*
X0171565Y0154333D02*
X0169313Y0156585D01*
X0173817Y0156585D01*
X0171565Y0157336D02*
X0171565Y0154333D01*
M02*
