G75*
%MOIN*%
%OFA0B0*%
%FSLAX25Y25*%
%IPPOS*%
%LPD*%
%AMOC8*
5,1,8,0,0,1.08239X$1,22.5*
%
%ADD10C,0.00000*%
%ADD11C,0.00600*%
%ADD12C,0.00800*%
%ADD13C,0.00100*%
%ADD14R,0.03000X0.03400*%
%ADD15C,0.00400*%
D10*
X0005867Y0006387D02*
X0005867Y0164387D01*
X0173867Y0164387D01*
X0186867Y0155387D01*
X0186867Y0026387D01*
X0173867Y0017387D01*
X0173867Y0006387D01*
X0005867Y0006387D01*
D11*
X0014167Y0006836D02*
X0015234Y0007904D01*
X0018437Y0007904D01*
X0018437Y0010079D02*
X0015234Y0010079D01*
X0014167Y0011146D01*
X0015234Y0012214D01*
X0014167Y0013282D01*
X0015234Y0014349D01*
X0018437Y0014349D01*
X0018437Y0016524D02*
X0015234Y0016524D01*
X0014167Y0017592D01*
X0015234Y0018659D01*
X0014167Y0019727D01*
X0015234Y0020795D01*
X0018437Y0020795D01*
X0015234Y0022970D02*
X0015234Y0024037D01*
X0014167Y0024037D01*
X0014167Y0022970D01*
X0015234Y0022970D01*
X0015234Y0026193D02*
X0014167Y0027260D01*
X0014167Y0029395D01*
X0015234Y0030463D01*
X0019505Y0030463D01*
X0020572Y0029395D01*
X0020572Y0027260D01*
X0019505Y0026193D01*
X0015234Y0026193D01*
X0014167Y0032638D02*
X0014167Y0035841D01*
X0015234Y0036908D01*
X0017369Y0036908D01*
X0018437Y0035841D01*
X0018437Y0032638D01*
X0012032Y0032638D01*
X0015234Y0039084D02*
X0017369Y0039084D01*
X0018437Y0040151D01*
X0018437Y0042286D01*
X0017369Y0043354D01*
X0016302Y0043354D01*
X0016302Y0039084D01*
X0015234Y0039084D02*
X0014167Y0040151D01*
X0014167Y0042286D01*
X0014167Y0045529D02*
X0018437Y0045529D01*
X0018437Y0048732D01*
X0017369Y0049799D01*
X0014167Y0049799D01*
X0014167Y0051975D02*
X0020572Y0051975D01*
X0020572Y0055177D01*
X0019505Y0056245D01*
X0017369Y0056245D01*
X0016302Y0055177D01*
X0016302Y0051975D01*
X0016302Y0054110D02*
X0014167Y0056245D01*
X0015234Y0058420D02*
X0014167Y0059488D01*
X0014167Y0061623D01*
X0015234Y0062690D01*
X0017369Y0062690D01*
X0018437Y0061623D01*
X0018437Y0059488D01*
X0017369Y0058420D01*
X0015234Y0058420D01*
X0018437Y0064866D02*
X0014167Y0067001D01*
X0018437Y0069136D01*
X0017369Y0071311D02*
X0015234Y0071311D01*
X0014167Y0072379D01*
X0014167Y0074514D01*
X0016302Y0075581D02*
X0016302Y0071311D01*
X0017369Y0071311D02*
X0018437Y0072379D01*
X0018437Y0074514D01*
X0017369Y0075581D01*
X0016302Y0075581D01*
X0016302Y0077757D02*
X0018437Y0079892D01*
X0018437Y0080959D01*
X0015234Y0083128D02*
X0015234Y0084195D01*
X0014167Y0084195D01*
X0014167Y0083128D01*
X0015234Y0083128D01*
X0015234Y0086351D02*
X0014167Y0087418D01*
X0014167Y0090621D01*
X0015234Y0092796D02*
X0014167Y0093864D01*
X0014167Y0095999D01*
X0015234Y0097066D01*
X0017369Y0097066D01*
X0018437Y0095999D01*
X0018437Y0093864D01*
X0017369Y0092796D01*
X0015234Y0092796D01*
X0018437Y0090621D02*
X0018437Y0087418D01*
X0017369Y0086351D01*
X0015234Y0086351D01*
X0014167Y0077757D02*
X0018437Y0077757D01*
X0018437Y0099242D02*
X0014167Y0099242D01*
X0014167Y0101377D02*
X0017369Y0101377D01*
X0018437Y0102444D01*
X0017369Y0103512D01*
X0014167Y0103512D01*
X0017369Y0101377D02*
X0018437Y0100309D01*
X0018437Y0099242D01*
X0109256Y0038419D02*
X0109256Y0026722D01*
X0120855Y0026722D02*
X0120855Y0038419D01*
X0176032Y0074638D02*
X0182437Y0074638D01*
X0182437Y0077841D01*
X0181369Y0078908D01*
X0179234Y0078908D01*
X0178167Y0077841D01*
X0178167Y0074638D01*
X0179234Y0072463D02*
X0178167Y0071395D01*
X0178167Y0069260D01*
X0179234Y0068193D01*
X0183505Y0068193D01*
X0184572Y0069260D01*
X0184572Y0071395D01*
X0183505Y0072463D01*
X0179234Y0072463D01*
X0179234Y0066037D02*
X0178167Y0066037D01*
X0178167Y0064970D01*
X0179234Y0064970D01*
X0179234Y0066037D01*
X0179234Y0062795D02*
X0178167Y0061727D01*
X0179234Y0060659D01*
X0178167Y0059592D01*
X0179234Y0058524D01*
X0182437Y0058524D01*
X0182437Y0056349D02*
X0179234Y0056349D01*
X0178167Y0055282D01*
X0179234Y0054214D01*
X0178167Y0053146D01*
X0179234Y0052079D01*
X0182437Y0052079D01*
X0182437Y0049904D02*
X0179234Y0049904D01*
X0178167Y0048836D01*
X0179234Y0047768D01*
X0178167Y0046701D01*
X0179234Y0045633D01*
X0182437Y0045633D01*
X0182437Y0062795D02*
X0179234Y0062795D01*
X0179234Y0081084D02*
X0178167Y0082151D01*
X0178167Y0084286D01*
X0180302Y0085354D02*
X0180302Y0081084D01*
X0181369Y0081084D02*
X0179234Y0081084D01*
X0181369Y0081084D02*
X0182437Y0082151D01*
X0182437Y0084286D01*
X0181369Y0085354D01*
X0180302Y0085354D01*
X0178167Y0087529D02*
X0182437Y0087529D01*
X0182437Y0090732D01*
X0181369Y0091799D01*
X0178167Y0091799D01*
X0178167Y0093975D02*
X0184572Y0093975D01*
X0184572Y0097177D01*
X0183505Y0098245D01*
X0181369Y0098245D01*
X0180302Y0097177D01*
X0180302Y0093975D01*
X0180302Y0096110D02*
X0178167Y0098245D01*
X0179234Y0100420D02*
X0178167Y0101488D01*
X0178167Y0103623D01*
X0179234Y0104690D01*
X0181369Y0104690D01*
X0182437Y0103623D01*
X0182437Y0101488D01*
X0181369Y0100420D01*
X0179234Y0100420D01*
X0182437Y0106866D02*
X0178167Y0109001D01*
X0182437Y0111136D01*
X0181369Y0113311D02*
X0179234Y0113311D01*
X0178167Y0114379D01*
X0178167Y0116514D01*
X0180302Y0117581D02*
X0180302Y0113311D01*
X0181369Y0113311D02*
X0182437Y0114379D01*
X0182437Y0116514D01*
X0181369Y0117581D01*
X0180302Y0117581D01*
X0180302Y0119757D02*
X0182437Y0121892D01*
X0182437Y0122959D01*
X0182437Y0119757D02*
X0178167Y0119757D01*
X0178167Y0125128D02*
X0178167Y0126195D01*
X0179234Y0126195D01*
X0179234Y0125128D01*
X0178167Y0125128D01*
X0179234Y0128351D02*
X0178167Y0129418D01*
X0178167Y0132621D01*
X0179234Y0134796D02*
X0178167Y0135864D01*
X0178167Y0137999D01*
X0179234Y0139066D01*
X0181369Y0139066D01*
X0182437Y0137999D01*
X0182437Y0135864D01*
X0181369Y0134796D01*
X0179234Y0134796D01*
X0182437Y0132621D02*
X0182437Y0129418D01*
X0181369Y0128351D01*
X0179234Y0128351D01*
X0178167Y0141242D02*
X0182437Y0141242D01*
X0182437Y0142309D01*
X0181369Y0143377D01*
X0182437Y0144444D01*
X0181369Y0145512D01*
X0178167Y0145512D01*
X0178167Y0143377D02*
X0181369Y0143377D01*
X0018437Y0003633D02*
X0015234Y0003633D01*
X0014167Y0004701D01*
X0015234Y0005768D01*
X0014167Y0006836D01*
D12*
X0090209Y0049769D02*
X0114597Y0049771D01*
X0090209Y0049769D02*
X0090209Y0075572D01*
X0114597Y0075571D01*
X0113872Y0084235D02*
X0089485Y0084234D01*
X0089485Y0110037D01*
X0113872Y0110035D01*
X0113675Y0120031D02*
X0089288Y0120029D01*
X0089288Y0145832D01*
X0113675Y0145831D01*
D13*
X0092041Y0118382D02*
X0091540Y0118382D01*
X0091290Y0118132D01*
X0091290Y0117131D01*
X0091540Y0116881D01*
X0092041Y0116881D01*
X0092291Y0117131D01*
X0092291Y0118132D01*
X0092041Y0118382D01*
X0091790Y0117381D02*
X0091290Y0116881D01*
X0090817Y0116881D02*
X0090817Y0117131D01*
X0089817Y0118132D01*
X0089817Y0118382D01*
X0090817Y0118382D01*
X0091014Y0082587D02*
X0090013Y0082587D01*
X0090264Y0082086D02*
X0090013Y0081836D01*
X0090013Y0081335D01*
X0090264Y0081085D01*
X0090764Y0081085D01*
X0091014Y0081335D01*
X0091487Y0081335D02*
X0091737Y0081085D01*
X0092237Y0081085D01*
X0092488Y0081335D01*
X0092488Y0082336D01*
X0092237Y0082587D01*
X0091737Y0082587D01*
X0091487Y0082336D01*
X0091487Y0081335D01*
X0091487Y0081085D02*
X0091987Y0081586D01*
X0091014Y0081836D02*
X0090514Y0082086D01*
X0090264Y0082086D01*
X0091014Y0081836D02*
X0091014Y0082587D01*
X0090988Y0048122D02*
X0091489Y0048122D01*
X0091739Y0047872D01*
X0092211Y0047872D02*
X0092211Y0046871D01*
X0092461Y0046621D01*
X0092962Y0046621D01*
X0093212Y0046871D01*
X0093212Y0047872D01*
X0092962Y0048122D01*
X0092461Y0048122D01*
X0092211Y0047872D01*
X0092712Y0047121D02*
X0092211Y0046621D01*
X0091739Y0046621D02*
X0090738Y0047622D01*
X0090738Y0047872D01*
X0090988Y0048122D01*
X0090738Y0046621D02*
X0091739Y0046621D01*
D14*
X0088309Y0062671D03*
X0087585Y0097135D03*
X0087388Y0132931D03*
D15*
X0129220Y0053211D02*
X0129220Y0052444D01*
X0132290Y0049374D01*
X0132290Y0048607D01*
X0133824Y0048607D02*
X0136893Y0048607D01*
X0133824Y0051676D01*
X0133824Y0052444D01*
X0134591Y0053211D01*
X0136126Y0053211D01*
X0136893Y0052444D01*
X0138428Y0052444D02*
X0138428Y0050909D01*
X0139195Y0050142D01*
X0141497Y0050142D01*
X0139963Y0050142D02*
X0138428Y0048607D01*
X0141497Y0048607D02*
X0141497Y0053211D01*
X0139195Y0053211D01*
X0138428Y0052444D01*
X0132290Y0053211D02*
X0129220Y0053211D01*
X0126592Y0034498D02*
X0125825Y0034498D01*
X0125058Y0033731D01*
X0125058Y0032196D01*
X0125825Y0031429D01*
X0126592Y0031429D01*
X0127360Y0032196D01*
X0127360Y0033731D01*
X0126592Y0034498D01*
X0125058Y0033731D02*
X0124290Y0034498D01*
X0123523Y0034498D01*
X0122756Y0033731D01*
X0122756Y0032196D01*
X0123523Y0031429D01*
X0124290Y0031429D01*
X0125058Y0032196D01*
X0125825Y0029894D02*
X0126592Y0029894D01*
X0127360Y0029127D01*
X0127360Y0027592D01*
X0126592Y0026825D01*
X0126592Y0025290D02*
X0125058Y0025290D01*
X0124290Y0024523D01*
X0124290Y0022221D01*
X0122756Y0022221D02*
X0127360Y0022221D01*
X0127360Y0024523D01*
X0126592Y0025290D01*
X0124290Y0023756D02*
X0122756Y0025290D01*
X0122756Y0026825D02*
X0125825Y0029894D01*
X0122756Y0029894D02*
X0122756Y0026825D01*
X0146496Y0026078D02*
X0147263Y0026845D01*
X0146496Y0026078D02*
X0146496Y0024544D01*
X0147263Y0023776D01*
X0150332Y0023776D01*
X0151100Y0024544D01*
X0151100Y0026078D01*
X0150332Y0026845D01*
X0150332Y0028380D02*
X0149565Y0028380D01*
X0148798Y0029147D01*
X0148798Y0030682D01*
X0148030Y0031449D01*
X0147263Y0031449D01*
X0146496Y0030682D01*
X0146496Y0029147D01*
X0147263Y0028380D01*
X0148030Y0028380D01*
X0148798Y0029147D01*
X0148798Y0030682D02*
X0149565Y0031449D01*
X0150332Y0031449D01*
X0151100Y0030682D01*
X0151100Y0029147D01*
X0150332Y0028380D01*
M02*
