G75*
%MOIN*%
%OFA0B0*%
%FSLAX25Y25*%
%IPPOS*%
%LPD*%
%AMOC8*
5,1,8,0,0,1.08239X$1,22.5*
%
%ADD10C,0.00000*%
%ADD11R,0.11811X0.06299*%
%ADD12R,0.22500X0.19000*%
%ADD13C,0.07874*%
%ADD14R,0.03500X0.06400*%
%ADD15R,0.12500X0.06400*%
%ADD16R,0.06299X0.07098*%
%ADD17R,0.06299X0.07087*%
%ADD18R,0.06500X0.06500*%
%ADD19C,0.06500*%
%ADD20C,0.07400*%
%ADD21C,0.04134*%
%ADD22C,0.01600*%
%ADD23C,0.05600*%
D10*
X0005867Y0006387D02*
X0005867Y0164387D01*
X0173867Y0164387D01*
X0186867Y0155387D01*
X0186867Y0026387D01*
X0173867Y0017387D01*
X0173867Y0006387D01*
X0005867Y0006387D01*
D11*
X0108741Y0054049D03*
X0108741Y0072001D03*
X0108662Y0088623D03*
X0108662Y0106576D03*
X0107662Y0123868D03*
X0107662Y0141820D03*
D12*
X0080504Y0132844D03*
X0081504Y0097600D03*
X0081583Y0063025D03*
D13*
X0074965Y0025029D03*
X0094965Y0025029D03*
X0152225Y0072155D03*
X0152225Y0092155D03*
X0152225Y0112155D03*
D14*
X0053967Y0132787D03*
X0044867Y0132787D03*
X0035767Y0132787D03*
D15*
X0044867Y0157987D03*
D16*
X0049465Y0119387D03*
X0038268Y0119387D03*
X0023465Y0119387D03*
X0012268Y0119387D03*
D17*
X0037355Y0098387D03*
X0048378Y0098387D03*
X0043355Y0025387D03*
X0054378Y0025387D03*
D18*
X0037867Y0085387D03*
D19*
X0047867Y0085387D03*
X0047867Y0075387D03*
X0037867Y0075387D03*
X0037867Y0065387D03*
X0047867Y0065387D03*
X0047867Y0055387D03*
X0047867Y0045387D03*
X0037867Y0045387D03*
X0037867Y0055387D03*
D20*
X0026867Y0026387D03*
X0026867Y0016387D03*
X0014867Y0146387D03*
X0014867Y0156387D03*
X0161867Y0153387D03*
X0161867Y0143387D03*
X0163867Y0026387D03*
X0163867Y0016387D03*
D21*
X0127867Y0058387D03*
X0127867Y0063387D03*
X0122867Y0063387D03*
X0122867Y0058387D03*
X0122867Y0068387D03*
X0127867Y0068387D03*
X0127867Y0092387D03*
X0122867Y0092387D03*
X0122867Y0097387D03*
X0127867Y0097387D03*
X0127867Y0102387D03*
X0122867Y0102387D03*
X0122867Y0130387D03*
X0127867Y0130387D03*
X0127867Y0135387D03*
X0122867Y0135387D03*
X0122867Y0140387D03*
X0127867Y0140387D03*
X0097867Y0158387D03*
X0089867Y0153387D03*
X0064867Y0138387D03*
X0064867Y0133387D03*
X0064867Y0128387D03*
X0064867Y0116387D03*
X0064867Y0111387D03*
X0064867Y0106387D03*
X0064867Y0080387D03*
X0064867Y0075387D03*
X0064867Y0070387D03*
X0085867Y0013387D03*
X0107867Y0013387D03*
X0113867Y0013387D03*
X0119867Y0013387D03*
D22*
X0100339Y0033183D02*
X0101071Y0033914D01*
X0101467Y0034870D01*
X0101467Y0041787D01*
X0165384Y0041787D01*
X0166339Y0042183D01*
X0167071Y0042914D01*
X0167467Y0043870D01*
X0167467Y0129904D01*
X0167071Y0130860D01*
X0166339Y0131591D01*
X0165384Y0131987D01*
X0133467Y0131987D01*
X0133467Y0147904D01*
X0133071Y0148860D01*
X0132339Y0149591D01*
X0131384Y0149987D01*
X0100467Y0149987D01*
X0100467Y0155519D01*
X0101145Y0156197D01*
X0101734Y0157618D01*
X0101734Y0159156D01*
X0101145Y0160578D01*
X0100057Y0161665D01*
X0098636Y0162254D01*
X0097097Y0162254D01*
X0095676Y0161665D01*
X0094588Y0160578D01*
X0094000Y0159156D01*
X0094000Y0157618D01*
X0094588Y0156197D01*
X0095267Y0155519D01*
X0095267Y0151664D01*
X0093734Y0153197D01*
X0093734Y0154156D01*
X0093145Y0155578D01*
X0092057Y0156665D01*
X0090636Y0157254D01*
X0089097Y0157254D01*
X0087676Y0156665D01*
X0086588Y0155578D01*
X0086000Y0154156D01*
X0086000Y0152618D01*
X0086588Y0151197D01*
X0087676Y0150109D01*
X0087970Y0149987D01*
X0053349Y0149987D01*
X0052394Y0149591D01*
X0051662Y0148860D01*
X0051267Y0147904D01*
X0051267Y0137583D01*
X0050417Y0136733D01*
X0050417Y0128842D01*
X0051471Y0127787D01*
X0056267Y0127787D01*
X0056267Y0037870D01*
X0056662Y0036914D01*
X0057394Y0036183D01*
X0058349Y0035787D01*
X0059267Y0035787D01*
X0059267Y0029737D01*
X0058274Y0030731D01*
X0050483Y0030731D01*
X0049429Y0029676D01*
X0049429Y0021098D01*
X0050483Y0020044D01*
X0058274Y0020044D01*
X0059267Y0021037D01*
X0059267Y0013870D01*
X0059662Y0012914D01*
X0060394Y0012183D01*
X0061349Y0011787D01*
X0082344Y0011787D01*
X0082588Y0011197D01*
X0083676Y0010109D01*
X0085097Y0009520D01*
X0086636Y0009520D01*
X0088057Y0010109D01*
X0089145Y0011197D01*
X0089734Y0012618D01*
X0089734Y0014156D01*
X0089145Y0015578D01*
X0088467Y0016256D01*
X0088467Y0032787D01*
X0099384Y0032787D01*
X0100339Y0033183D01*
X0101133Y0034064D02*
X0171042Y0034064D01*
X0171052Y0035662D02*
X0101467Y0035662D01*
X0101467Y0037261D02*
X0171062Y0037261D01*
X0171072Y0038859D02*
X0101467Y0038859D01*
X0101467Y0040458D02*
X0171082Y0040458D01*
X0171092Y0042056D02*
X0166033Y0042056D01*
X0167377Y0043655D02*
X0171103Y0043655D01*
X0171113Y0045253D02*
X0167467Y0045253D01*
X0167467Y0046852D02*
X0171123Y0046852D01*
X0171133Y0048450D02*
X0167467Y0048450D01*
X0167467Y0050049D02*
X0171143Y0050049D01*
X0171153Y0051647D02*
X0167467Y0051647D01*
X0167467Y0053246D02*
X0171163Y0053246D01*
X0171173Y0054844D02*
X0167467Y0054844D01*
X0167467Y0056443D02*
X0171183Y0056443D01*
X0171194Y0058041D02*
X0167467Y0058041D01*
X0167467Y0059640D02*
X0171204Y0059640D01*
X0171214Y0061238D02*
X0167467Y0061238D01*
X0167467Y0062837D02*
X0171224Y0062837D01*
X0171234Y0064435D02*
X0167467Y0064435D01*
X0167467Y0066034D02*
X0171244Y0066034D01*
X0171254Y0067632D02*
X0167467Y0067632D01*
X0167467Y0069231D02*
X0171264Y0069231D01*
X0171275Y0070829D02*
X0167467Y0070829D01*
X0167467Y0072428D02*
X0171285Y0072428D01*
X0171295Y0074026D02*
X0167467Y0074026D01*
X0167467Y0075625D02*
X0171305Y0075625D01*
X0171315Y0077223D02*
X0167467Y0077223D01*
X0167467Y0078822D02*
X0171325Y0078822D01*
X0171335Y0080420D02*
X0167467Y0080420D01*
X0167467Y0082019D02*
X0171345Y0082019D01*
X0171355Y0083618D02*
X0167467Y0083618D01*
X0167467Y0085216D02*
X0171366Y0085216D01*
X0171376Y0086815D02*
X0167467Y0086815D01*
X0167467Y0088413D02*
X0171386Y0088413D01*
X0171396Y0090012D02*
X0167467Y0090012D01*
X0167467Y0091610D02*
X0171406Y0091610D01*
X0171416Y0093209D02*
X0167467Y0093209D01*
X0167467Y0094807D02*
X0171426Y0094807D01*
X0171436Y0096406D02*
X0167467Y0096406D01*
X0167467Y0098004D02*
X0171447Y0098004D01*
X0171457Y0099603D02*
X0167467Y0099603D01*
X0167467Y0101201D02*
X0171467Y0101201D01*
X0171477Y0102800D02*
X0167467Y0102800D01*
X0167467Y0104398D02*
X0171487Y0104398D01*
X0171497Y0105997D02*
X0167467Y0105997D01*
X0167467Y0107595D02*
X0171507Y0107595D01*
X0171517Y0109194D02*
X0167467Y0109194D01*
X0167467Y0110792D02*
X0171527Y0110792D01*
X0171538Y0112391D02*
X0167467Y0112391D01*
X0167467Y0113989D02*
X0171548Y0113989D01*
X0171558Y0115588D02*
X0167467Y0115588D01*
X0167467Y0117186D02*
X0171568Y0117186D01*
X0171578Y0118785D02*
X0167467Y0118785D01*
X0167467Y0120383D02*
X0171588Y0120383D01*
X0171598Y0121982D02*
X0167467Y0121982D01*
X0167467Y0123580D02*
X0171608Y0123580D01*
X0171619Y0125179D02*
X0167467Y0125179D01*
X0167467Y0126777D02*
X0171629Y0126777D01*
X0171639Y0128376D02*
X0167467Y0128376D01*
X0167438Y0129974D02*
X0171649Y0129974D01*
X0171659Y0131573D02*
X0166358Y0131573D01*
X0164867Y0129387D02*
X0164867Y0104787D01*
X0132267Y0104787D01*
X0132267Y0112865D01*
X0131901Y0113747D01*
X0131226Y0114422D01*
X0130344Y0114787D01*
X0097389Y0114787D01*
X0097267Y0114736D01*
X0097267Y0124875D01*
X0100156Y0122840D01*
X0100156Y0120055D01*
X0101094Y0119118D01*
X0114230Y0119118D01*
X0115167Y0120055D01*
X0115167Y0127680D01*
X0114230Y0128617D01*
X0101094Y0128617D01*
X0100761Y0128285D01*
X0100267Y0128633D01*
X0100267Y0147387D01*
X0130867Y0147387D01*
X0130867Y0129387D01*
X0164867Y0129387D01*
X0164867Y0128376D02*
X0114471Y0128376D01*
X0115167Y0126777D02*
X0164867Y0126777D01*
X0164867Y0125179D02*
X0115167Y0125179D01*
X0115167Y0123580D02*
X0164867Y0123580D01*
X0164867Y0121982D02*
X0115167Y0121982D01*
X0115167Y0120383D02*
X0164867Y0120383D01*
X0164867Y0118785D02*
X0097267Y0118785D01*
X0097267Y0120383D02*
X0100156Y0120383D01*
X0100156Y0121982D02*
X0097267Y0121982D01*
X0097267Y0123580D02*
X0099105Y0123580D01*
X0102867Y0123868D02*
X0097867Y0127387D01*
X0097867Y0158387D01*
X0100499Y0155551D02*
X0171811Y0155551D01*
X0171821Y0157149D02*
X0101539Y0157149D01*
X0101734Y0158748D02*
X0171831Y0158748D01*
X0171841Y0160346D02*
X0101241Y0160346D01*
X0099383Y0161945D02*
X0171851Y0161945D01*
X0171855Y0162587D02*
X0170878Y0008187D01*
X0007667Y0008187D01*
X0007667Y0162587D01*
X0037471Y0162587D01*
X0036817Y0161933D01*
X0036817Y0154042D01*
X0037871Y0152987D01*
X0042267Y0152987D01*
X0042267Y0137683D01*
X0041317Y0136733D01*
X0041317Y0128842D01*
X0042371Y0127787D01*
X0043267Y0127787D01*
X0043267Y0125870D01*
X0043662Y0124914D01*
X0044705Y0123872D01*
X0044515Y0123682D01*
X0044515Y0115092D01*
X0045570Y0114038D01*
X0046865Y0114038D01*
X0046865Y0103731D01*
X0044483Y0103731D01*
X0043429Y0102676D01*
X0043429Y0094098D01*
X0043540Y0093987D01*
X0040349Y0093987D01*
X0039394Y0093591D01*
X0036394Y0090591D01*
X0036240Y0090437D01*
X0033871Y0090437D01*
X0032817Y0089383D01*
X0032817Y0081392D01*
X0033871Y0080337D01*
X0036621Y0080337D01*
X0035006Y0079668D01*
X0033585Y0078248D01*
X0032817Y0076392D01*
X0032817Y0074383D01*
X0033585Y0072527D01*
X0035006Y0071106D01*
X0036741Y0070387D01*
X0035006Y0069668D01*
X0033585Y0068248D01*
X0032817Y0066392D01*
X0032817Y0064383D01*
X0033585Y0062527D01*
X0035006Y0061106D01*
X0036741Y0060387D01*
X0035006Y0059668D01*
X0033585Y0058248D01*
X0032817Y0056392D01*
X0032817Y0054383D01*
X0033585Y0052527D01*
X0035006Y0051106D01*
X0036741Y0050387D01*
X0035006Y0049668D01*
X0033585Y0048248D01*
X0032817Y0046392D01*
X0032817Y0044383D01*
X0033585Y0042527D01*
X0035006Y0041106D01*
X0036862Y0040337D01*
X0038871Y0040337D01*
X0040727Y0041106D01*
X0042148Y0042527D01*
X0042867Y0044262D01*
X0043585Y0042527D01*
X0045006Y0041106D01*
X0046862Y0040337D01*
X0048871Y0040337D01*
X0050727Y0041106D01*
X0052148Y0042527D01*
X0052917Y0044383D01*
X0052917Y0046392D01*
X0052148Y0048248D01*
X0050727Y0049668D01*
X0048992Y0050387D01*
X0050727Y0051106D01*
X0052148Y0052527D01*
X0052917Y0054383D01*
X0052917Y0056392D01*
X0052148Y0058248D01*
X0050727Y0059668D01*
X0048992Y0060387D01*
X0050727Y0061106D01*
X0052148Y0062527D01*
X0052917Y0064383D01*
X0052917Y0066392D01*
X0052148Y0068248D01*
X0050727Y0069668D01*
X0048992Y0070387D01*
X0050727Y0071106D01*
X0052148Y0072527D01*
X0052917Y0074383D01*
X0052917Y0076392D01*
X0052148Y0078248D01*
X0050727Y0079668D01*
X0048871Y0080437D01*
X0046862Y0080437D01*
X0045006Y0079668D01*
X0043585Y0078248D01*
X0042867Y0076512D01*
X0042148Y0078248D01*
X0040727Y0079668D01*
X0039113Y0080337D01*
X0041862Y0080337D01*
X0042917Y0081392D01*
X0042917Y0088787D01*
X0045821Y0088787D01*
X0046293Y0088771D01*
X0046337Y0088787D01*
X0046384Y0088787D01*
X0046820Y0088968D01*
X0047262Y0089133D01*
X0047296Y0089165D01*
X0047339Y0089183D01*
X0047673Y0089516D01*
X0048018Y0089838D01*
X0048038Y0089881D01*
X0048071Y0089914D01*
X0048251Y0090350D01*
X0049479Y0093044D01*
X0052274Y0093044D01*
X0053328Y0094098D01*
X0053328Y0102676D01*
X0052274Y0103731D01*
X0052065Y0103731D01*
X0052065Y0114038D01*
X0053360Y0114038D01*
X0054415Y0115092D01*
X0054415Y0123682D01*
X0053360Y0124736D01*
X0051122Y0124736D01*
X0051071Y0124860D01*
X0050339Y0125591D01*
X0048467Y0127464D01*
X0048467Y0133304D01*
X0048417Y0133425D01*
X0048417Y0136733D01*
X0047467Y0137683D01*
X0047467Y0152987D01*
X0051862Y0152987D01*
X0052917Y0154042D01*
X0052917Y0161933D01*
X0052262Y0162587D01*
X0171855Y0162587D01*
X0171801Y0153952D02*
X0100467Y0153952D01*
X0100467Y0152353D02*
X0171791Y0152353D01*
X0171780Y0150755D02*
X0100467Y0150755D01*
X0100267Y0145959D02*
X0130867Y0145959D01*
X0130867Y0144361D02*
X0100267Y0144361D01*
X0100267Y0142762D02*
X0130867Y0142762D01*
X0130867Y0141164D02*
X0100267Y0141164D01*
X0100267Y0139565D02*
X0130867Y0139565D01*
X0130867Y0137967D02*
X0100267Y0137967D01*
X0100267Y0136368D02*
X0130867Y0136368D01*
X0130867Y0134770D02*
X0100267Y0134770D01*
X0100267Y0133171D02*
X0130867Y0133171D01*
X0130867Y0131573D02*
X0100267Y0131573D01*
X0100267Y0129974D02*
X0130867Y0129974D01*
X0133467Y0133171D02*
X0171669Y0133171D01*
X0171679Y0134770D02*
X0133467Y0134770D01*
X0133467Y0136368D02*
X0171689Y0136368D01*
X0171699Y0137967D02*
X0133467Y0137967D01*
X0133467Y0139565D02*
X0171710Y0139565D01*
X0171720Y0141164D02*
X0133467Y0141164D01*
X0133467Y0142762D02*
X0171730Y0142762D01*
X0171740Y0144361D02*
X0133467Y0144361D01*
X0133467Y0145959D02*
X0171750Y0145959D01*
X0171760Y0147558D02*
X0133467Y0147558D01*
X0132774Y0149156D02*
X0171770Y0149156D01*
X0164867Y0117186D02*
X0097267Y0117186D01*
X0097267Y0115588D02*
X0164867Y0115588D01*
X0164867Y0113989D02*
X0131659Y0113989D01*
X0132267Y0112391D02*
X0164867Y0112391D01*
X0164867Y0110792D02*
X0132267Y0110792D01*
X0132267Y0109194D02*
X0164867Y0109194D01*
X0164867Y0107595D02*
X0132267Y0107595D01*
X0132267Y0105997D02*
X0164867Y0105997D01*
X0164867Y0102387D02*
X0164867Y0081387D01*
X0097867Y0081387D01*
X0097867Y0086958D01*
X0098033Y0086827D01*
X0098271Y0086589D01*
X0098404Y0086534D01*
X0098517Y0086444D01*
X0098842Y0086352D01*
X0099153Y0086223D01*
X0099297Y0086223D01*
X0099436Y0086184D01*
X0099771Y0086223D01*
X0101156Y0086223D01*
X0101156Y0084811D01*
X0102094Y0083874D01*
X0115230Y0083874D01*
X0116167Y0084811D01*
X0116167Y0092436D01*
X0115230Y0093373D01*
X0102094Y0093373D01*
X0101156Y0092436D01*
X0101156Y0091023D01*
X0100464Y0091023D01*
X0097867Y0093076D01*
X0097867Y0112387D01*
X0129867Y0112387D01*
X0129867Y0102387D01*
X0164867Y0102387D01*
X0164867Y0101201D02*
X0097867Y0101201D01*
X0097867Y0099603D02*
X0164867Y0099603D01*
X0164867Y0098004D02*
X0097867Y0098004D01*
X0097867Y0096406D02*
X0164867Y0096406D01*
X0164867Y0094807D02*
X0097867Y0094807D01*
X0097867Y0093209D02*
X0101929Y0093209D01*
X0101156Y0091610D02*
X0099722Y0091610D01*
X0099630Y0088623D02*
X0094867Y0092387D01*
X0094867Y0148387D01*
X0089867Y0153387D01*
X0086577Y0155551D02*
X0052917Y0155551D01*
X0052917Y0157149D02*
X0088844Y0157149D01*
X0090890Y0157149D02*
X0094194Y0157149D01*
X0094000Y0158748D02*
X0052917Y0158748D01*
X0052917Y0160346D02*
X0094493Y0160346D01*
X0096350Y0161945D02*
X0052905Y0161945D01*
X0052827Y0153952D02*
X0086000Y0153952D01*
X0086109Y0152353D02*
X0047467Y0152353D01*
X0047467Y0150755D02*
X0087030Y0150755D01*
X0092467Y0147387D02*
X0092467Y0092720D01*
X0092427Y0092582D01*
X0092467Y0092247D01*
X0092467Y0091910D01*
X0092522Y0091777D01*
X0092539Y0091634D01*
X0092703Y0091339D01*
X0092832Y0091028D01*
X0092934Y0090926D01*
X0093004Y0090800D01*
X0093269Y0090591D01*
X0093507Y0090353D01*
X0093640Y0090297D01*
X0095467Y0088854D01*
X0095467Y0043910D01*
X0095832Y0043028D01*
X0096467Y0042393D01*
X0096467Y0037787D01*
X0085389Y0037787D01*
X0084507Y0037422D01*
X0083832Y0036747D01*
X0083467Y0035865D01*
X0083467Y0016173D01*
X0082758Y0015464D01*
X0082312Y0014387D01*
X0061867Y0014387D01*
X0061867Y0035987D01*
X0068344Y0035987D01*
X0069226Y0036353D01*
X0069901Y0037028D01*
X0070267Y0037910D01*
X0070267Y0141865D01*
X0069901Y0142747D01*
X0069226Y0143422D01*
X0068344Y0143787D01*
X0061867Y0143787D01*
X0061867Y0147387D01*
X0092467Y0147387D01*
X0092467Y0145959D02*
X0061867Y0145959D01*
X0061867Y0144361D02*
X0092467Y0144361D01*
X0092467Y0142762D02*
X0069886Y0142762D01*
X0070267Y0141164D02*
X0092467Y0141164D01*
X0092467Y0139565D02*
X0070267Y0139565D01*
X0070267Y0137967D02*
X0092467Y0137967D01*
X0092467Y0136368D02*
X0070267Y0136368D01*
X0070267Y0134770D02*
X0092467Y0134770D01*
X0092467Y0133171D02*
X0070267Y0133171D01*
X0070267Y0131573D02*
X0092467Y0131573D01*
X0092467Y0129974D02*
X0070267Y0129974D01*
X0070267Y0128376D02*
X0092467Y0128376D01*
X0092467Y0126777D02*
X0070267Y0126777D01*
X0070267Y0125179D02*
X0092467Y0125179D01*
X0092467Y0123580D02*
X0070267Y0123580D01*
X0070267Y0121982D02*
X0092467Y0121982D01*
X0092467Y0120383D02*
X0070267Y0120383D01*
X0070267Y0118785D02*
X0092467Y0118785D01*
X0092467Y0117186D02*
X0070267Y0117186D01*
X0070267Y0115588D02*
X0092467Y0115588D01*
X0092467Y0113989D02*
X0070267Y0113989D01*
X0070267Y0112391D02*
X0092467Y0112391D01*
X0092467Y0110792D02*
X0070267Y0110792D01*
X0070267Y0109194D02*
X0092467Y0109194D01*
X0092467Y0107595D02*
X0070267Y0107595D01*
X0070267Y0105997D02*
X0092467Y0105997D01*
X0092467Y0104398D02*
X0070267Y0104398D01*
X0070267Y0102800D02*
X0092467Y0102800D01*
X0092467Y0101201D02*
X0070267Y0101201D01*
X0070267Y0099603D02*
X0092467Y0099603D01*
X0092467Y0098004D02*
X0070267Y0098004D01*
X0070267Y0096406D02*
X0092467Y0096406D01*
X0092467Y0094807D02*
X0070267Y0094807D01*
X0070267Y0093209D02*
X0092467Y0093209D01*
X0092552Y0091610D02*
X0070267Y0091610D01*
X0070267Y0090012D02*
X0094002Y0090012D01*
X0095467Y0088413D02*
X0070267Y0088413D01*
X0070267Y0086815D02*
X0095467Y0086815D01*
X0095467Y0085216D02*
X0070267Y0085216D01*
X0070267Y0083618D02*
X0095467Y0083618D01*
X0095467Y0082019D02*
X0070267Y0082019D01*
X0070267Y0080420D02*
X0095467Y0080420D01*
X0095467Y0078822D02*
X0070267Y0078822D01*
X0070267Y0077223D02*
X0095467Y0077223D01*
X0095467Y0075625D02*
X0070267Y0075625D01*
X0070267Y0074026D02*
X0095467Y0074026D01*
X0095467Y0072428D02*
X0070267Y0072428D01*
X0070267Y0070829D02*
X0095467Y0070829D01*
X0095467Y0069231D02*
X0070267Y0069231D01*
X0070267Y0067632D02*
X0095467Y0067632D01*
X0095467Y0066034D02*
X0070267Y0066034D01*
X0070267Y0064435D02*
X0095467Y0064435D01*
X0095467Y0062837D02*
X0070267Y0062837D01*
X0070267Y0061238D02*
X0095467Y0061238D01*
X0095467Y0059640D02*
X0070267Y0059640D01*
X0070267Y0058041D02*
X0095467Y0058041D01*
X0095467Y0056443D02*
X0070267Y0056443D01*
X0070267Y0054844D02*
X0095467Y0054844D01*
X0095467Y0053246D02*
X0070267Y0053246D01*
X0070267Y0051647D02*
X0095467Y0051647D01*
X0095467Y0050049D02*
X0070267Y0050049D01*
X0070267Y0048450D02*
X0095467Y0048450D01*
X0095467Y0046852D02*
X0070267Y0046852D01*
X0070267Y0045253D02*
X0095467Y0045253D01*
X0095572Y0043655D02*
X0070267Y0043655D01*
X0070267Y0042056D02*
X0096467Y0042056D01*
X0096467Y0040458D02*
X0070267Y0040458D01*
X0070267Y0038859D02*
X0096467Y0038859D01*
X0098867Y0035387D02*
X0085867Y0035387D01*
X0085867Y0013387D01*
X0083467Y0016480D02*
X0061867Y0016480D01*
X0061867Y0014882D02*
X0082517Y0014882D01*
X0082386Y0011684D02*
X0007667Y0011684D01*
X0007667Y0010086D02*
X0083732Y0010086D01*
X0088002Y0010086D02*
X0170890Y0010086D01*
X0170900Y0011684D02*
X0089347Y0011684D01*
X0089734Y0013283D02*
X0170910Y0013283D01*
X0170920Y0014882D02*
X0089433Y0014882D01*
X0088467Y0016480D02*
X0170931Y0016480D01*
X0170941Y0018079D02*
X0088467Y0018079D01*
X0088467Y0019677D02*
X0170951Y0019677D01*
X0170961Y0021276D02*
X0088467Y0021276D01*
X0088467Y0022874D02*
X0170971Y0022874D01*
X0170981Y0024473D02*
X0088467Y0024473D01*
X0088467Y0026071D02*
X0170991Y0026071D01*
X0171001Y0027670D02*
X0088467Y0027670D01*
X0088467Y0029268D02*
X0171011Y0029268D01*
X0171022Y0030867D02*
X0088467Y0030867D01*
X0088467Y0032465D02*
X0171032Y0032465D01*
X0164867Y0044387D02*
X0101267Y0044387D01*
X0101267Y0050205D01*
X0102172Y0049299D01*
X0115309Y0049299D01*
X0116246Y0050236D01*
X0116246Y0057861D01*
X0115309Y0058798D01*
X0102172Y0058798D01*
X0101235Y0057861D01*
X0101235Y0056787D01*
X0098389Y0056787D01*
X0097867Y0056571D01*
X0097867Y0078987D01*
X0164867Y0078987D01*
X0164867Y0044387D01*
X0164867Y0045253D02*
X0101267Y0045253D01*
X0101267Y0046852D02*
X0164867Y0046852D01*
X0164867Y0048450D02*
X0101267Y0048450D01*
X0101267Y0050049D02*
X0101423Y0050049D01*
X0103867Y0054049D02*
X0105867Y0054049D01*
X0105528Y0054387D01*
X0098867Y0054387D01*
X0098867Y0035387D01*
X0084346Y0037261D02*
X0069998Y0037261D01*
X0067867Y0038387D02*
X0067867Y0122469D01*
X0067654Y0122681D01*
X0067654Y0141387D01*
X0058867Y0141387D01*
X0058867Y0038387D01*
X0067867Y0038387D01*
X0067867Y0038859D02*
X0058867Y0038859D01*
X0058867Y0040458D02*
X0067867Y0040458D01*
X0067867Y0042056D02*
X0058867Y0042056D01*
X0058867Y0043655D02*
X0067867Y0043655D01*
X0067867Y0045253D02*
X0058867Y0045253D01*
X0058867Y0046852D02*
X0067867Y0046852D01*
X0067867Y0048450D02*
X0058867Y0048450D01*
X0058867Y0050049D02*
X0067867Y0050049D01*
X0067867Y0051647D02*
X0058867Y0051647D01*
X0058867Y0053246D02*
X0067867Y0053246D01*
X0067867Y0054844D02*
X0058867Y0054844D01*
X0058867Y0056443D02*
X0067867Y0056443D01*
X0067867Y0058041D02*
X0058867Y0058041D01*
X0058867Y0059640D02*
X0067867Y0059640D01*
X0067867Y0061238D02*
X0058867Y0061238D01*
X0058867Y0062837D02*
X0067867Y0062837D01*
X0067867Y0064435D02*
X0058867Y0064435D01*
X0058867Y0066034D02*
X0067867Y0066034D01*
X0067867Y0067632D02*
X0058867Y0067632D01*
X0058867Y0069231D02*
X0067867Y0069231D01*
X0067867Y0070829D02*
X0058867Y0070829D01*
X0058867Y0072428D02*
X0067867Y0072428D01*
X0067867Y0074026D02*
X0058867Y0074026D01*
X0058867Y0075625D02*
X0067867Y0075625D01*
X0067867Y0077223D02*
X0058867Y0077223D01*
X0058867Y0078822D02*
X0067867Y0078822D01*
X0067867Y0080420D02*
X0058867Y0080420D01*
X0058867Y0082019D02*
X0067867Y0082019D01*
X0067867Y0083618D02*
X0058867Y0083618D01*
X0058867Y0085216D02*
X0067867Y0085216D01*
X0067867Y0086815D02*
X0058867Y0086815D01*
X0058867Y0088413D02*
X0067867Y0088413D01*
X0067867Y0090012D02*
X0058867Y0090012D01*
X0058867Y0091610D02*
X0067867Y0091610D01*
X0067867Y0093209D02*
X0058867Y0093209D01*
X0058867Y0094807D02*
X0067867Y0094807D01*
X0067867Y0096406D02*
X0058867Y0096406D01*
X0058867Y0098004D02*
X0067867Y0098004D01*
X0067867Y0099603D02*
X0058867Y0099603D01*
X0058867Y0101201D02*
X0067867Y0101201D01*
X0067867Y0102800D02*
X0058867Y0102800D01*
X0058867Y0104398D02*
X0067867Y0104398D01*
X0067867Y0105997D02*
X0058867Y0105997D01*
X0058867Y0107595D02*
X0067867Y0107595D01*
X0067867Y0109194D02*
X0058867Y0109194D01*
X0058867Y0110792D02*
X0067867Y0110792D01*
X0067867Y0112391D02*
X0058867Y0112391D01*
X0058867Y0113989D02*
X0067867Y0113989D01*
X0067867Y0115588D02*
X0058867Y0115588D01*
X0058867Y0117186D02*
X0067867Y0117186D01*
X0067867Y0118785D02*
X0058867Y0118785D01*
X0058867Y0120383D02*
X0067867Y0120383D01*
X0067867Y0121982D02*
X0058867Y0121982D01*
X0058867Y0123580D02*
X0067654Y0123580D01*
X0067654Y0125179D02*
X0058867Y0125179D01*
X0058867Y0126777D02*
X0067654Y0126777D01*
X0067654Y0128376D02*
X0058867Y0128376D01*
X0058867Y0129974D02*
X0067654Y0129974D01*
X0067654Y0131573D02*
X0058867Y0131573D01*
X0058867Y0133171D02*
X0067654Y0133171D01*
X0067654Y0134770D02*
X0058867Y0134770D01*
X0058867Y0136368D02*
X0067654Y0136368D01*
X0067654Y0137967D02*
X0058867Y0137967D01*
X0058867Y0139565D02*
X0067654Y0139565D01*
X0067654Y0141164D02*
X0058867Y0141164D01*
X0053867Y0147387D02*
X0066867Y0147387D01*
X0066867Y0146387D01*
X0053867Y0147387D02*
X0053867Y0132787D01*
X0053967Y0132787D01*
X0050417Y0133171D02*
X0048467Y0133171D01*
X0048467Y0131573D02*
X0050417Y0131573D01*
X0050417Y0129974D02*
X0048467Y0129974D01*
X0048467Y0128376D02*
X0050882Y0128376D01*
X0049153Y0126777D02*
X0056267Y0126777D01*
X0056267Y0125179D02*
X0050752Y0125179D01*
X0048867Y0123387D02*
X0048867Y0119986D01*
X0049465Y0119387D01*
X0049465Y0099474D01*
X0048378Y0098387D01*
X0048378Y0096899D01*
X0045867Y0091387D01*
X0040867Y0091387D01*
X0037867Y0088387D01*
X0037867Y0085387D01*
X0042917Y0085216D02*
X0056267Y0085216D01*
X0056267Y0083618D02*
X0042917Y0083618D01*
X0042917Y0082019D02*
X0056267Y0082019D01*
X0056267Y0080420D02*
X0048912Y0080420D01*
X0046822Y0080420D02*
X0041946Y0080420D01*
X0041574Y0078822D02*
X0044160Y0078822D01*
X0043161Y0077223D02*
X0042572Y0077223D01*
X0034160Y0078822D02*
X0007667Y0078822D01*
X0007667Y0080420D02*
X0033788Y0080420D01*
X0032817Y0082019D02*
X0007667Y0082019D01*
X0007667Y0083618D02*
X0032817Y0083618D01*
X0032817Y0085216D02*
X0007667Y0085216D01*
X0007667Y0086815D02*
X0032817Y0086815D01*
X0032817Y0088413D02*
X0007667Y0088413D01*
X0007667Y0090012D02*
X0033445Y0090012D01*
X0037413Y0091610D02*
X0007667Y0091610D01*
X0007667Y0093209D02*
X0039011Y0093209D01*
X0042917Y0088413D02*
X0056267Y0088413D01*
X0056267Y0086815D02*
X0042917Y0086815D01*
X0048111Y0090012D02*
X0056267Y0090012D01*
X0056267Y0091610D02*
X0048825Y0091610D01*
X0052438Y0093209D02*
X0056267Y0093209D01*
X0056267Y0094807D02*
X0053328Y0094807D01*
X0053328Y0096406D02*
X0056267Y0096406D01*
X0056267Y0098004D02*
X0053328Y0098004D01*
X0053328Y0099603D02*
X0056267Y0099603D01*
X0056267Y0101201D02*
X0053328Y0101201D01*
X0053205Y0102800D02*
X0056267Y0102800D01*
X0056267Y0104398D02*
X0052065Y0104398D01*
X0052065Y0105997D02*
X0056267Y0105997D01*
X0056267Y0107595D02*
X0052065Y0107595D01*
X0052065Y0109194D02*
X0056267Y0109194D01*
X0056267Y0110792D02*
X0052065Y0110792D01*
X0052065Y0112391D02*
X0056267Y0112391D01*
X0056267Y0113989D02*
X0052065Y0113989D01*
X0054415Y0115588D02*
X0056267Y0115588D01*
X0056267Y0117186D02*
X0054415Y0117186D01*
X0054415Y0118785D02*
X0056267Y0118785D01*
X0056267Y0120383D02*
X0054415Y0120383D01*
X0054415Y0121982D02*
X0056267Y0121982D01*
X0056267Y0123580D02*
X0054415Y0123580D01*
X0048867Y0123387D02*
X0045867Y0126387D01*
X0045867Y0132787D01*
X0044867Y0132787D01*
X0044867Y0157987D01*
X0042267Y0152353D02*
X0007667Y0152353D01*
X0007667Y0150755D02*
X0042267Y0150755D01*
X0042267Y0149156D02*
X0007667Y0149156D01*
X0007667Y0147558D02*
X0042267Y0147558D01*
X0042267Y0145959D02*
X0007667Y0145959D01*
X0007667Y0144361D02*
X0042267Y0144361D01*
X0042267Y0142762D02*
X0007667Y0142762D01*
X0007667Y0141164D02*
X0042267Y0141164D01*
X0042267Y0139565D02*
X0007667Y0139565D01*
X0007667Y0137967D02*
X0042267Y0137967D01*
X0041317Y0136368D02*
X0039317Y0136368D01*
X0039317Y0136733D02*
X0038262Y0137787D01*
X0033271Y0137787D01*
X0032217Y0136733D01*
X0032217Y0128842D01*
X0033167Y0127892D01*
X0033167Y0124970D01*
X0033562Y0124014D01*
X0033607Y0123970D01*
X0033319Y0123682D01*
X0033319Y0121987D01*
X0028415Y0121987D01*
X0028415Y0123682D01*
X0027360Y0124736D01*
X0019570Y0124736D01*
X0018515Y0123682D01*
X0018515Y0115092D01*
X0019570Y0114038D01*
X0027360Y0114038D01*
X0028415Y0115092D01*
X0028415Y0116787D01*
X0033319Y0116787D01*
X0033319Y0115092D01*
X0034373Y0114038D01*
X0042163Y0114038D01*
X0043218Y0115092D01*
X0043218Y0123682D01*
X0042163Y0124736D01*
X0041122Y0124736D01*
X0041071Y0124860D01*
X0040339Y0125591D01*
X0038367Y0127564D01*
X0038367Y0127892D01*
X0039317Y0128842D01*
X0039317Y0136733D01*
X0039317Y0134770D02*
X0041317Y0134770D01*
X0041317Y0133171D02*
X0039317Y0133171D01*
X0039317Y0131573D02*
X0041317Y0131573D01*
X0041317Y0129974D02*
X0039317Y0129974D01*
X0038851Y0128376D02*
X0041782Y0128376D01*
X0043267Y0126777D02*
X0039153Y0126777D01*
X0040752Y0125179D02*
X0043553Y0125179D01*
X0043218Y0123580D02*
X0044515Y0123580D01*
X0044515Y0121982D02*
X0043218Y0121982D01*
X0043218Y0120383D02*
X0044515Y0120383D01*
X0044515Y0118785D02*
X0043218Y0118785D01*
X0043218Y0117186D02*
X0044515Y0117186D01*
X0044515Y0115588D02*
X0043218Y0115588D01*
X0046865Y0113989D02*
X0007667Y0113989D01*
X0007667Y0112391D02*
X0046865Y0112391D01*
X0046865Y0110792D02*
X0007667Y0110792D01*
X0007667Y0109194D02*
X0046865Y0109194D01*
X0046865Y0107595D02*
X0007667Y0107595D01*
X0007667Y0105997D02*
X0046865Y0105997D01*
X0046865Y0104398D02*
X0007667Y0104398D01*
X0007667Y0102800D02*
X0043552Y0102800D01*
X0043429Y0101201D02*
X0007667Y0101201D01*
X0007667Y0099603D02*
X0043429Y0099603D01*
X0043429Y0098004D02*
X0007667Y0098004D01*
X0007667Y0096406D02*
X0043429Y0096406D01*
X0043429Y0094807D02*
X0007667Y0094807D01*
X0007667Y0077223D02*
X0033161Y0077223D01*
X0032817Y0075625D02*
X0007667Y0075625D01*
X0007667Y0074026D02*
X0032964Y0074026D01*
X0033684Y0072428D02*
X0007667Y0072428D01*
X0007667Y0070829D02*
X0035674Y0070829D01*
X0034569Y0069231D02*
X0007667Y0069231D01*
X0007667Y0067632D02*
X0033331Y0067632D01*
X0032817Y0066034D02*
X0007667Y0066034D01*
X0007667Y0064435D02*
X0032817Y0064435D01*
X0033457Y0062837D02*
X0007667Y0062837D01*
X0007667Y0061238D02*
X0034874Y0061238D01*
X0034977Y0059640D02*
X0007667Y0059640D01*
X0007667Y0058041D02*
X0033500Y0058041D01*
X0032838Y0056443D02*
X0007667Y0056443D01*
X0007667Y0054844D02*
X0032817Y0054844D01*
X0033288Y0053246D02*
X0007667Y0053246D01*
X0007667Y0051647D02*
X0034465Y0051647D01*
X0035924Y0050049D02*
X0007667Y0050049D01*
X0007667Y0048450D02*
X0033788Y0048450D01*
X0033007Y0046852D02*
X0007667Y0046852D01*
X0007667Y0045253D02*
X0032817Y0045253D01*
X0033118Y0043655D02*
X0007667Y0043655D01*
X0007667Y0042056D02*
X0034056Y0042056D01*
X0036571Y0040458D02*
X0007667Y0040458D01*
X0007667Y0038859D02*
X0056267Y0038859D01*
X0056267Y0040458D02*
X0049162Y0040458D01*
X0051677Y0042056D02*
X0056267Y0042056D01*
X0056267Y0043655D02*
X0052615Y0043655D01*
X0052917Y0045253D02*
X0056267Y0045253D01*
X0056267Y0046852D02*
X0052726Y0046852D01*
X0051945Y0048450D02*
X0056267Y0048450D01*
X0056267Y0050049D02*
X0049809Y0050049D01*
X0051269Y0051647D02*
X0056267Y0051647D01*
X0056267Y0053246D02*
X0052446Y0053246D01*
X0052917Y0054844D02*
X0056267Y0054844D01*
X0056267Y0056443D02*
X0052895Y0056443D01*
X0052233Y0058041D02*
X0056267Y0058041D01*
X0056267Y0059640D02*
X0050756Y0059640D01*
X0050860Y0061238D02*
X0056267Y0061238D01*
X0056267Y0062837D02*
X0052276Y0062837D01*
X0052917Y0064435D02*
X0056267Y0064435D01*
X0056267Y0066034D02*
X0052917Y0066034D01*
X0052403Y0067632D02*
X0056267Y0067632D01*
X0056267Y0069231D02*
X0051165Y0069231D01*
X0050059Y0070829D02*
X0056267Y0070829D01*
X0056267Y0072428D02*
X0052049Y0072428D01*
X0052769Y0074026D02*
X0056267Y0074026D01*
X0056267Y0075625D02*
X0052917Y0075625D01*
X0052572Y0077223D02*
X0056267Y0077223D01*
X0056267Y0078822D02*
X0051574Y0078822D01*
X0043118Y0043655D02*
X0042615Y0043655D01*
X0041677Y0042056D02*
X0044056Y0042056D01*
X0046571Y0040458D02*
X0039162Y0040458D01*
X0049429Y0029268D02*
X0007667Y0029268D01*
X0007667Y0027670D02*
X0049429Y0027670D01*
X0049429Y0026071D02*
X0007667Y0026071D01*
X0007667Y0024473D02*
X0049429Y0024473D01*
X0049429Y0022874D02*
X0007667Y0022874D01*
X0007667Y0021276D02*
X0049429Y0021276D01*
X0054378Y0025387D02*
X0054737Y0025029D01*
X0074965Y0025029D01*
X0083467Y0024473D02*
X0061867Y0024473D01*
X0061867Y0026071D02*
X0083467Y0026071D01*
X0083467Y0027670D02*
X0061867Y0027670D01*
X0061867Y0029268D02*
X0083467Y0029268D01*
X0083467Y0030867D02*
X0061867Y0030867D01*
X0061867Y0032465D02*
X0083467Y0032465D01*
X0083467Y0034064D02*
X0061867Y0034064D01*
X0061867Y0035662D02*
X0083467Y0035662D01*
X0083467Y0022874D02*
X0061867Y0022874D01*
X0061867Y0021276D02*
X0083467Y0021276D01*
X0083467Y0019677D02*
X0061867Y0019677D01*
X0061867Y0018079D02*
X0083467Y0018079D01*
X0059267Y0018079D02*
X0007667Y0018079D01*
X0007667Y0019677D02*
X0059267Y0019677D01*
X0059267Y0016480D02*
X0007667Y0016480D01*
X0007667Y0014882D02*
X0059267Y0014882D01*
X0059510Y0013283D02*
X0007667Y0013283D01*
X0007667Y0008487D02*
X0170880Y0008487D01*
X0164867Y0050049D02*
X0116059Y0050049D01*
X0116246Y0051647D02*
X0164867Y0051647D01*
X0164867Y0053246D02*
X0116246Y0053246D01*
X0116246Y0054844D02*
X0164867Y0054844D01*
X0164867Y0056443D02*
X0116246Y0056443D01*
X0116066Y0058041D02*
X0164867Y0058041D01*
X0164867Y0059640D02*
X0097867Y0059640D01*
X0097867Y0061238D02*
X0164867Y0061238D01*
X0164867Y0062837D02*
X0097867Y0062837D01*
X0097867Y0064435D02*
X0164867Y0064435D01*
X0164867Y0066034D02*
X0097867Y0066034D01*
X0097867Y0067632D02*
X0164867Y0067632D01*
X0164867Y0069231D02*
X0097867Y0069231D01*
X0097867Y0070829D02*
X0164867Y0070829D01*
X0164867Y0072428D02*
X0097867Y0072428D01*
X0097867Y0074026D02*
X0164867Y0074026D01*
X0164867Y0075625D02*
X0097867Y0075625D01*
X0097867Y0077223D02*
X0164867Y0077223D01*
X0164867Y0078822D02*
X0097867Y0078822D01*
X0097867Y0082019D02*
X0164867Y0082019D01*
X0164867Y0083618D02*
X0097867Y0083618D01*
X0097867Y0085216D02*
X0101156Y0085216D01*
X0098045Y0086815D02*
X0097867Y0086815D01*
X0099630Y0088623D02*
X0108662Y0088623D01*
X0116167Y0088413D02*
X0164867Y0088413D01*
X0164867Y0086815D02*
X0116167Y0086815D01*
X0116167Y0085216D02*
X0164867Y0085216D01*
X0164867Y0090012D02*
X0116167Y0090012D01*
X0116167Y0091610D02*
X0164867Y0091610D01*
X0164867Y0093209D02*
X0115395Y0093209D01*
X0129867Y0102800D02*
X0097867Y0102800D01*
X0097867Y0104398D02*
X0129867Y0104398D01*
X0129867Y0105997D02*
X0097867Y0105997D01*
X0097867Y0107595D02*
X0129867Y0107595D01*
X0129867Y0109194D02*
X0097867Y0109194D01*
X0097867Y0110792D02*
X0129867Y0110792D01*
X0107662Y0123868D02*
X0102867Y0123868D01*
X0100852Y0128376D02*
X0100632Y0128376D01*
X0080504Y0132844D02*
X0080448Y0132787D01*
X0094577Y0152353D02*
X0095267Y0152353D01*
X0095267Y0153952D02*
X0093734Y0153952D01*
X0093156Y0155551D02*
X0095235Y0155551D01*
X0051959Y0149156D02*
X0047467Y0149156D01*
X0047467Y0147558D02*
X0051267Y0147558D01*
X0051267Y0145959D02*
X0047467Y0145959D01*
X0047467Y0144361D02*
X0051267Y0144361D01*
X0051267Y0142762D02*
X0047467Y0142762D01*
X0047467Y0141164D02*
X0051267Y0141164D01*
X0051267Y0139565D02*
X0047467Y0139565D01*
X0047467Y0137967D02*
X0051267Y0137967D01*
X0050417Y0136368D02*
X0048417Y0136368D01*
X0048417Y0134770D02*
X0050417Y0134770D01*
X0035767Y0132787D02*
X0035767Y0125487D01*
X0035867Y0125387D01*
X0036867Y0125387D01*
X0038867Y0123387D01*
X0038867Y0119986D01*
X0038268Y0119387D01*
X0023465Y0119387D01*
X0018515Y0118785D02*
X0007667Y0118785D01*
X0007667Y0120383D02*
X0018515Y0120383D01*
X0018515Y0121982D02*
X0007667Y0121982D01*
X0007667Y0123580D02*
X0018515Y0123580D01*
X0018515Y0117186D02*
X0007667Y0117186D01*
X0007667Y0115588D02*
X0018515Y0115588D01*
X0007667Y0125179D02*
X0033167Y0125179D01*
X0033167Y0126777D02*
X0007667Y0126777D01*
X0007667Y0128376D02*
X0032682Y0128376D01*
X0032217Y0129974D02*
X0007667Y0129974D01*
X0007667Y0131573D02*
X0032217Y0131573D01*
X0032217Y0133171D02*
X0007667Y0133171D01*
X0007667Y0134770D02*
X0032217Y0134770D01*
X0032217Y0136368D02*
X0007667Y0136368D01*
X0007667Y0153952D02*
X0036906Y0153952D01*
X0036817Y0155551D02*
X0007667Y0155551D01*
X0007667Y0157149D02*
X0036817Y0157149D01*
X0036817Y0158748D02*
X0007667Y0158748D01*
X0007667Y0160346D02*
X0036817Y0160346D01*
X0036828Y0161945D02*
X0007667Y0161945D01*
X0028415Y0123580D02*
X0033319Y0123580D01*
X0033319Y0115588D02*
X0028415Y0115588D01*
X0097867Y0058041D02*
X0101416Y0058041D01*
X0105867Y0054049D02*
X0108741Y0054049D01*
X0059267Y0035662D02*
X0007667Y0035662D01*
X0007667Y0034064D02*
X0059267Y0034064D01*
X0059267Y0032465D02*
X0007667Y0032465D01*
X0007667Y0030867D02*
X0059267Y0030867D01*
X0056519Y0037261D02*
X0007667Y0037261D01*
D23*
X0064867Y0040387D03*
X0064867Y0046387D03*
M02*
