%
M48
M72
T01C0.02756
T02C0.03150
T03C0.03500
T04C0.04000
T05C0.05118
%
T01
X64867Y138387
X64867Y133387
X64867Y128387
X64867Y116387
X64867Y111387
X64867Y106387
X64867Y80387
X64867Y75387
X64867Y70387
X85867Y13387
X107867Y13387
X113867Y13387
X119867Y13387
X122867Y58387
X127867Y58387
X127867Y63387
X122867Y63387
X122867Y68387
X127867Y68387
X127867Y92387
X122867Y92387
X122867Y97387
X127867Y97387
X127867Y102387
X122867Y102387
X122867Y130387
X127867Y130387
X127867Y135387
X122867Y135387
X122867Y140387
X127867Y140387
X97867Y158387
X89867Y153387
T02
X64867Y46387
X64867Y40387
T03
X37867Y45387
X47867Y45387
X47867Y55387
X47867Y65387
X37867Y65387
X37867Y55387
X37867Y75387
X47867Y75387
X47867Y85387
X37867Y85387
T04
X14867Y156387
X14867Y146387
X26867Y26387
X26867Y16387
X161867Y143387
X161867Y153387
X163867Y26387
X163867Y16387
T05
X74965Y25029
X94965Y25029
X152225Y72155
X152225Y92155
X152225Y112155
M30
