G75*
%MOIN*%
%OFA0B0*%
%FSLAX25Y25*%
%IPPOS*%
%LPD*%
%AMOC8*
5,1,8,0,0,1.08239X$1,22.5*
%
%ADD10C,0.00000*%
%ADD11R,0.02362X0.08661*%
%ADD12R,0.07098X0.06299*%
%ADD13R,0.07087X0.06299*%
%ADD14R,0.05512X0.05512*%
%ADD15R,0.06299X0.07087*%
%ADD16OC8,0.06600*%
%ADD17C,0.06600*%
%ADD18R,0.06500X0.06500*%
%ADD19R,0.06299X0.07098*%
%ADD20R,0.07400X0.07400*%
%ADD21C,0.07400*%
%ADD22OC8,0.15000*%
%ADD23C,0.06000*%
%ADD24C,0.01600*%
%ADD25C,0.01000*%
%ADD26C,0.04134*%
D10*
X0005000Y0005000D02*
X0005000Y0215000D01*
X0330921Y0214701D01*
X0370000Y0215000D01*
X0377000Y0209000D01*
X0377000Y0163000D01*
X0387000Y0154000D01*
X0387000Y0025000D01*
X0377000Y0015000D01*
X0377000Y0005000D01*
X0005000Y0005000D01*
D11*
X0072185Y0154748D03*
X0077185Y0154748D03*
X0082185Y0154748D03*
X0087185Y0154748D03*
X0087185Y0175220D03*
X0082185Y0175220D03*
X0077185Y0175220D03*
X0072185Y0175220D03*
X0128500Y0176299D03*
X0133500Y0176299D03*
X0138500Y0176299D03*
X0143500Y0176299D03*
X0143500Y0155827D03*
X0138500Y0155827D03*
X0133500Y0155827D03*
X0128500Y0155827D03*
X0180106Y0156787D03*
X0185106Y0156787D03*
X0190106Y0156787D03*
X0195106Y0156787D03*
X0195106Y0177260D03*
X0190106Y0177260D03*
X0185106Y0177260D03*
X0180106Y0177260D03*
D12*
X0231000Y0174402D03*
X0245000Y0174402D03*
X0259000Y0174402D03*
X0259000Y0185598D03*
X0245000Y0185598D03*
X0231000Y0185598D03*
X0195244Y0127425D03*
X0179890Y0127268D03*
X0179890Y0116071D03*
X0195244Y0116228D03*
X0143362Y0115071D03*
X0127614Y0115307D03*
X0127614Y0126504D03*
X0143362Y0126268D03*
X0087677Y0125031D03*
X0071929Y0125268D03*
X0071929Y0114071D03*
X0087677Y0113835D03*
X0193898Y0034244D03*
X0209102Y0034535D03*
X0209102Y0023339D03*
X0193898Y0023047D03*
D13*
X0211268Y0146213D03*
X0211268Y0157236D03*
X0159386Y0157795D03*
X0159386Y0146772D03*
X0103937Y0145811D03*
X0103937Y0156835D03*
X0058000Y0175488D03*
X0058000Y0186512D03*
D14*
X0106000Y0185291D03*
X0106000Y0170331D03*
X0160000Y0173205D03*
X0160000Y0188165D03*
X0212063Y0186102D03*
X0212063Y0171142D03*
D15*
X0028512Y0114000D03*
X0017488Y0114000D03*
X0171472Y0023150D03*
X0182496Y0023150D03*
D16*
X0185000Y0015000D03*
X0175000Y0015000D03*
X0165000Y0015000D03*
X0155000Y0015000D03*
X0145000Y0015000D03*
X0135000Y0015000D03*
X0205000Y0015000D03*
X0215000Y0015000D03*
X0225000Y0015000D03*
X0235000Y0015000D03*
X0245000Y0015000D03*
X0255000Y0015000D03*
X0255000Y0205000D03*
X0245000Y0205000D03*
X0235000Y0205000D03*
X0225000Y0205000D03*
X0215000Y0205000D03*
X0205000Y0205000D03*
X0195000Y0205000D03*
X0185000Y0205000D03*
X0169000Y0205000D03*
X0159000Y0205000D03*
X0149000Y0205000D03*
X0139000Y0205000D03*
X0129000Y0205000D03*
X0119000Y0205000D03*
X0109000Y0205000D03*
X0099000Y0205000D03*
X0089000Y0205000D03*
X0079000Y0205000D03*
D17*
X0311000Y0061000D03*
D18*
X0311000Y0031000D03*
D19*
X0036598Y0182000D03*
X0025402Y0182000D03*
X0023402Y0168000D03*
X0034598Y0168000D03*
D20*
X0029000Y0150000D03*
D21*
X0029000Y0140000D03*
X0029000Y0130000D03*
X0265000Y0205000D03*
X0275000Y0205000D03*
D22*
X0233000Y0065000D03*
X0142000Y0065000D03*
X0050000Y0065000D03*
X0354000Y0062000D03*
X0355000Y0031000D03*
D23*
X0265000Y0044000D02*
X0265000Y0050000D01*
X0255000Y0050000D02*
X0255000Y0044000D01*
X0245000Y0044000D02*
X0245000Y0050000D01*
X0221000Y0050000D02*
X0221000Y0044000D01*
X0211000Y0044000D02*
X0211000Y0050000D01*
X0201000Y0050000D02*
X0201000Y0044000D01*
X0174000Y0044000D02*
X0174000Y0050000D01*
X0164000Y0050000D02*
X0164000Y0044000D01*
X0154000Y0044000D02*
X0154000Y0050000D01*
X0130000Y0050000D02*
X0130000Y0044000D01*
X0120000Y0044000D02*
X0120000Y0050000D01*
X0110000Y0050000D02*
X0110000Y0044000D01*
X0082000Y0044000D02*
X0082000Y0050000D01*
X0072000Y0050000D02*
X0072000Y0044000D01*
X0062000Y0044000D02*
X0062000Y0050000D01*
X0038000Y0050000D02*
X0038000Y0044000D01*
X0028000Y0044000D02*
X0028000Y0050000D01*
X0018000Y0050000D02*
X0018000Y0044000D01*
D24*
X0022478Y0042268D02*
X0023522Y0042268D01*
X0023200Y0043045D02*
X0023931Y0041281D01*
X0025281Y0039931D01*
X0027045Y0039200D01*
X0028955Y0039200D01*
X0030719Y0039931D01*
X0032069Y0041281D01*
X0032800Y0043045D01*
X0032800Y0050955D01*
X0032069Y0052719D01*
X0030719Y0054069D01*
X0028955Y0054800D01*
X0028600Y0054800D01*
X0028600Y0086923D01*
X0031204Y0089527D01*
X0031600Y0090483D01*
X0031600Y0108657D01*
X0032407Y0108657D01*
X0033461Y0109711D01*
X0033461Y0118289D01*
X0032407Y0119343D01*
X0031600Y0119343D01*
X0031600Y0125124D01*
X0032115Y0125337D01*
X0033663Y0126884D01*
X0034500Y0128906D01*
X0034500Y0131094D01*
X0033663Y0133115D01*
X0032115Y0134663D01*
X0031301Y0135000D01*
X0032115Y0135337D01*
X0033178Y0136400D01*
X0047400Y0136400D01*
X0047400Y0074300D01*
X0046148Y0074300D01*
X0040700Y0068852D01*
X0040700Y0061148D01*
X0046148Y0055700D01*
X0053852Y0055700D01*
X0059300Y0061148D01*
X0059300Y0068852D01*
X0053852Y0074300D01*
X0052600Y0074300D01*
X0052600Y0153923D01*
X0060077Y0161400D01*
X0074435Y0161400D01*
X0074455Y0160536D01*
X0074112Y0160879D01*
X0070258Y0160879D01*
X0069204Y0159824D01*
X0069204Y0149672D01*
X0069400Y0149476D01*
X0069400Y0130217D01*
X0067634Y0130217D01*
X0066580Y0129163D01*
X0066580Y0121373D01*
X0067634Y0120318D01*
X0076224Y0120318D01*
X0077278Y0121373D01*
X0077278Y0129163D01*
X0076224Y0130217D01*
X0074600Y0130217D01*
X0074600Y0149106D01*
X0074685Y0149191D01*
X0075258Y0148617D01*
X0079112Y0148617D01*
X0079400Y0148906D01*
X0079400Y0142483D01*
X0079796Y0141527D01*
X0084400Y0136923D01*
X0084400Y0129981D01*
X0083382Y0129981D01*
X0082328Y0128927D01*
X0082328Y0121136D01*
X0083382Y0120082D01*
X0091972Y0120082D01*
X0093026Y0121136D01*
X0093026Y0128927D01*
X0091972Y0129981D01*
X0089600Y0129981D01*
X0089600Y0138517D01*
X0089204Y0139473D01*
X0088473Y0140204D01*
X0084600Y0144077D01*
X0084600Y0149106D01*
X0084685Y0149191D01*
X0085258Y0148617D01*
X0086706Y0148617D01*
X0092796Y0142527D01*
X0093527Y0141796D01*
X0094483Y0141400D01*
X0099110Y0141400D01*
X0099648Y0140861D01*
X0108226Y0140861D01*
X0109280Y0141916D01*
X0109280Y0143311D01*
X0114024Y0143400D01*
X0114517Y0143400D01*
X0114541Y0143410D01*
X0114566Y0143410D01*
X0115017Y0143607D01*
X0115473Y0143796D01*
X0115491Y0143814D01*
X0115514Y0143824D01*
X0115856Y0144179D01*
X0116204Y0144527D01*
X0116214Y0144551D01*
X0116231Y0144569D01*
X0116411Y0145027D01*
X0116600Y0145483D01*
X0116600Y0145508D01*
X0116609Y0145532D01*
X0116600Y0146024D01*
X0116600Y0166999D01*
X0116601Y0167512D01*
X0116600Y0167515D01*
X0116600Y0167517D01*
X0116403Y0167993D01*
X0116207Y0168469D01*
X0116205Y0168471D01*
X0116204Y0168473D01*
X0115842Y0168835D01*
X0115477Y0169201D01*
X0115474Y0169202D01*
X0115473Y0169204D01*
X0114998Y0169401D01*
X0110556Y0171250D01*
X0110556Y0173832D01*
X0109501Y0174887D01*
X0102498Y0174887D01*
X0101444Y0173832D01*
X0101444Y0166829D01*
X0102498Y0165775D01*
X0109501Y0165775D01*
X0109700Y0165974D01*
X0111400Y0165266D01*
X0111400Y0148552D01*
X0109280Y0148512D01*
X0109280Y0149706D01*
X0108226Y0150761D01*
X0099648Y0150761D01*
X0098594Y0149706D01*
X0098594Y0146600D01*
X0096077Y0146600D01*
X0090166Y0152511D01*
X0090166Y0159824D01*
X0089590Y0160400D01*
X0090412Y0160400D01*
X0098594Y0156501D01*
X0098594Y0152939D01*
X0099648Y0151885D01*
X0108226Y0151885D01*
X0109280Y0152939D01*
X0109280Y0160730D01*
X0108226Y0161784D01*
X0099648Y0161784D01*
X0099631Y0161767D01*
X0092522Y0165155D01*
X0092473Y0165204D01*
X0092057Y0165376D01*
X0091652Y0165570D01*
X0091582Y0165573D01*
X0091517Y0165600D01*
X0091068Y0165600D01*
X0090619Y0165623D01*
X0090553Y0165600D01*
X0087000Y0165600D01*
X0087473Y0165796D01*
X0088204Y0166527D01*
X0089389Y0167712D01*
X0089785Y0168668D01*
X0089785Y0169763D01*
X0090166Y0170144D01*
X0090166Y0180297D01*
X0090070Y0180393D01*
X0094077Y0184400D01*
X0101444Y0184400D01*
X0101444Y0181790D01*
X0102498Y0180735D01*
X0109501Y0180735D01*
X0110556Y0181790D01*
X0110556Y0182400D01*
X0116923Y0182400D01*
X0119400Y0179923D01*
X0119400Y0170483D01*
X0119796Y0169527D01*
X0120527Y0168796D01*
X0123527Y0165796D01*
X0124483Y0165400D01*
X0133723Y0165400D01*
X0132527Y0164204D01*
X0131796Y0163473D01*
X0131400Y0162517D01*
X0131400Y0161784D01*
X0131000Y0161384D01*
X0130427Y0161957D01*
X0126573Y0161957D01*
X0125519Y0160903D01*
X0125519Y0150750D01*
X0125900Y0150369D01*
X0125900Y0131454D01*
X0123319Y0131454D01*
X0122265Y0130399D01*
X0122265Y0122609D01*
X0123319Y0121554D01*
X0130550Y0121554D01*
X0130550Y0120257D01*
X0123319Y0120257D01*
X0122265Y0119202D01*
X0122265Y0111412D01*
X0123319Y0110357D01*
X0125014Y0110357D01*
X0125014Y0108363D01*
X0124810Y0108278D01*
X0123722Y0107190D01*
X0123133Y0105769D01*
X0123133Y0104231D01*
X0123722Y0102810D01*
X0124810Y0101722D01*
X0126231Y0101133D01*
X0127769Y0101133D01*
X0129190Y0101722D01*
X0130278Y0102810D01*
X0130550Y0103466D01*
X0130550Y0098333D01*
X0130946Y0097377D01*
X0138400Y0089923D01*
X0138400Y0074300D01*
X0138148Y0074300D01*
X0132700Y0068852D01*
X0132700Y0061148D01*
X0138148Y0055700D01*
X0145852Y0055700D01*
X0151300Y0061148D01*
X0151300Y0068852D01*
X0145852Y0074300D01*
X0143600Y0074300D01*
X0143600Y0091517D01*
X0143204Y0092473D01*
X0142473Y0093204D01*
X0135750Y0099927D01*
X0135750Y0139638D01*
X0135796Y0139527D01*
X0140400Y0134923D01*
X0140400Y0131217D01*
X0139067Y0131217D01*
X0138013Y0130163D01*
X0138013Y0122373D01*
X0139067Y0121318D01*
X0147657Y0121318D01*
X0148711Y0122373D01*
X0148711Y0130163D01*
X0147657Y0131217D01*
X0145600Y0131217D01*
X0145600Y0136517D01*
X0145204Y0137473D01*
X0140600Y0142077D01*
X0140600Y0149869D01*
X0141000Y0150269D01*
X0141573Y0149696D01*
X0141627Y0149696D01*
X0147796Y0143527D01*
X0148527Y0142796D01*
X0149483Y0142400D01*
X0154519Y0142400D01*
X0155097Y0141822D01*
X0163675Y0141822D01*
X0164729Y0142876D01*
X0164729Y0143400D01*
X0167517Y0143400D01*
X0168473Y0143796D01*
X0169204Y0144527D01*
X0169600Y0145483D01*
X0169600Y0171517D01*
X0169204Y0172473D01*
X0168473Y0173204D01*
X0166268Y0175409D01*
X0165312Y0175805D01*
X0164556Y0175805D01*
X0164556Y0176706D01*
X0163501Y0177761D01*
X0156498Y0177761D01*
X0155444Y0176706D01*
X0155444Y0169703D01*
X0156498Y0168649D01*
X0163501Y0168649D01*
X0164400Y0169547D01*
X0164400Y0162020D01*
X0163675Y0162745D01*
X0158932Y0162745D01*
X0156204Y0165473D01*
X0155473Y0166204D01*
X0154517Y0166600D01*
X0143277Y0166600D01*
X0145704Y0169027D01*
X0146100Y0169983D01*
X0146100Y0170842D01*
X0146481Y0171223D01*
X0146481Y0181376D01*
X0146100Y0181757D01*
X0146100Y0183423D01*
X0148077Y0185400D01*
X0155444Y0185400D01*
X0155444Y0184664D01*
X0156498Y0183609D01*
X0163501Y0183609D01*
X0164556Y0184664D01*
X0164556Y0185400D01*
X0168923Y0185400D01*
X0171400Y0182923D01*
X0171400Y0170483D01*
X0171796Y0169527D01*
X0172527Y0168796D01*
X0175527Y0165796D01*
X0176483Y0165400D01*
X0182766Y0165400D01*
X0182400Y0164517D01*
X0182400Y0162551D01*
X0182033Y0162918D01*
X0178180Y0162918D01*
X0177125Y0161864D01*
X0177125Y0151711D01*
X0177506Y0151330D01*
X0177506Y0132217D01*
X0175595Y0132217D01*
X0174541Y0131163D01*
X0174541Y0123373D01*
X0175595Y0122318D01*
X0184185Y0122318D01*
X0185239Y0123373D01*
X0185239Y0131163D01*
X0184185Y0132217D01*
X0182706Y0132217D01*
X0182706Y0138894D01*
X0182902Y0138421D01*
X0183133Y0138190D01*
X0183133Y0137231D01*
X0183722Y0135810D01*
X0184810Y0134722D01*
X0186231Y0134133D01*
X0187769Y0134133D01*
X0189190Y0134722D01*
X0190278Y0135810D01*
X0190867Y0137231D01*
X0190867Y0138769D01*
X0190278Y0140190D01*
X0189190Y0141278D01*
X0187769Y0141867D01*
X0187706Y0141867D01*
X0187706Y0145894D01*
X0187902Y0145421D01*
X0193400Y0139923D01*
X0193400Y0132375D01*
X0190949Y0132375D01*
X0189895Y0131320D01*
X0189895Y0123530D01*
X0190043Y0123382D01*
X0189559Y0123182D01*
X0188828Y0122451D01*
X0185239Y0118862D01*
X0185239Y0119966D01*
X0184185Y0121020D01*
X0175595Y0121020D01*
X0174541Y0119966D01*
X0174541Y0112176D01*
X0175595Y0111121D01*
X0184185Y0111121D01*
X0185239Y0112176D01*
X0185239Y0113471D01*
X0186642Y0113471D01*
X0187598Y0113867D01*
X0189895Y0116164D01*
X0189895Y0112333D01*
X0190949Y0111279D01*
X0192200Y0111279D01*
X0192200Y0064683D01*
X0192596Y0063727D01*
X0198400Y0057923D01*
X0198400Y0054119D01*
X0198281Y0054069D01*
X0196931Y0052719D01*
X0196200Y0050955D01*
X0196200Y0043045D01*
X0196931Y0041281D01*
X0198281Y0039931D01*
X0200045Y0039200D01*
X0201955Y0039200D01*
X0203719Y0039931D01*
X0205069Y0041281D01*
X0205800Y0043045D01*
X0205800Y0050955D01*
X0205069Y0052719D01*
X0203719Y0054069D01*
X0203600Y0054119D01*
X0203600Y0059517D01*
X0203204Y0060473D01*
X0202473Y0061204D01*
X0197400Y0066277D01*
X0197400Y0111279D01*
X0199539Y0111279D01*
X0200593Y0112333D01*
X0200593Y0118378D01*
X0233945Y0118378D01*
X0242400Y0109923D01*
X0242400Y0054119D01*
X0242281Y0054069D01*
X0240931Y0052719D01*
X0240200Y0050955D01*
X0240200Y0043045D01*
X0240931Y0041281D01*
X0242281Y0039931D01*
X0244045Y0039200D01*
X0245955Y0039200D01*
X0247719Y0039931D01*
X0249069Y0041281D01*
X0249800Y0043045D01*
X0249800Y0050955D01*
X0249069Y0052719D01*
X0247719Y0054069D01*
X0247600Y0054119D01*
X0247600Y0111517D01*
X0247204Y0112473D01*
X0247058Y0112619D01*
X0248231Y0112133D01*
X0249769Y0112133D01*
X0251190Y0112722D01*
X0252278Y0113810D01*
X0252867Y0115231D01*
X0252867Y0116769D01*
X0252278Y0118190D01*
X0251600Y0118869D01*
X0251600Y0160517D01*
X0251204Y0161473D01*
X0247600Y0165077D01*
X0247600Y0169452D01*
X0249295Y0169452D01*
X0250349Y0170506D01*
X0250349Y0172400D01*
X0253651Y0172400D01*
X0253651Y0170506D01*
X0254705Y0169452D01*
X0263295Y0169452D01*
X0264349Y0170506D01*
X0264349Y0171802D01*
X0265919Y0171802D01*
X0266874Y0172197D01*
X0271204Y0176527D01*
X0271600Y0177483D01*
X0271600Y0201517D01*
X0271204Y0202473D01*
X0270286Y0203390D01*
X0270500Y0203906D01*
X0270500Y0206094D01*
X0269663Y0208115D01*
X0268115Y0209663D01*
X0266094Y0210500D01*
X0263906Y0210500D01*
X0261884Y0209663D01*
X0260337Y0208115D01*
X0259974Y0207238D01*
X0257112Y0210100D01*
X0252888Y0210100D01*
X0250000Y0207212D01*
X0247112Y0210100D01*
X0242888Y0210100D01*
X0240000Y0207212D01*
X0237112Y0210100D01*
X0232888Y0210100D01*
X0230000Y0207212D01*
X0227112Y0210100D01*
X0222888Y0210100D01*
X0220000Y0207212D01*
X0217112Y0210100D01*
X0212888Y0210100D01*
X0210000Y0207212D01*
X0207112Y0210100D01*
X0202888Y0210100D01*
X0200000Y0207212D01*
X0197112Y0210100D01*
X0192888Y0210100D01*
X0190000Y0207212D01*
X0187112Y0210100D01*
X0182888Y0210100D01*
X0179900Y0207112D01*
X0179900Y0202888D01*
X0182888Y0199900D01*
X0187112Y0199900D01*
X0190000Y0202788D01*
X0192888Y0199900D01*
X0195223Y0199900D01*
X0187796Y0192473D01*
X0187400Y0191517D01*
X0187400Y0189150D01*
X0187310Y0189366D01*
X0185838Y0190839D01*
X0185278Y0192190D01*
X0184190Y0193278D01*
X0182769Y0193867D01*
X0181231Y0193867D01*
X0179810Y0193278D01*
X0178722Y0192190D01*
X0178133Y0190769D01*
X0178133Y0189231D01*
X0178722Y0187810D01*
X0179810Y0186722D01*
X0181231Y0186133D01*
X0182506Y0186133D01*
X0182506Y0182717D01*
X0182125Y0182336D01*
X0182125Y0172184D01*
X0183180Y0171129D01*
X0187033Y0171129D01*
X0187606Y0171702D01*
X0188180Y0171129D01*
X0192033Y0171129D01*
X0192506Y0171602D01*
X0192506Y0170600D01*
X0178077Y0170600D01*
X0176600Y0172077D01*
X0176600Y0184517D01*
X0176204Y0185473D01*
X0172204Y0189473D01*
X0171473Y0190204D01*
X0170517Y0190600D01*
X0164556Y0190600D01*
X0164556Y0191667D01*
X0163501Y0192721D01*
X0156498Y0192721D01*
X0155444Y0191667D01*
X0155444Y0190600D01*
X0146483Y0190600D01*
X0145527Y0190204D01*
X0144796Y0189473D01*
X0141600Y0186277D01*
X0141600Y0187923D01*
X0146077Y0192400D01*
X0155517Y0192400D01*
X0156473Y0192796D01*
X0157204Y0193527D01*
X0161204Y0197527D01*
X0161600Y0198483D01*
X0161600Y0200388D01*
X0164000Y0202788D01*
X0166888Y0199900D01*
X0171112Y0199900D01*
X0174100Y0202888D01*
X0174100Y0207112D01*
X0171112Y0210100D01*
X0166888Y0210100D01*
X0164000Y0207212D01*
X0161112Y0210100D01*
X0156888Y0210100D01*
X0154000Y0207212D01*
X0151112Y0210100D01*
X0146888Y0210100D01*
X0144000Y0207212D01*
X0141112Y0210100D01*
X0136888Y0210100D01*
X0134000Y0207212D01*
X0131112Y0210100D01*
X0130577Y0210100D01*
X0129204Y0211473D01*
X0128473Y0212204D01*
X0127517Y0212600D01*
X0111871Y0212600D01*
X0111630Y0212700D01*
X0072583Y0212700D01*
X0071627Y0212304D01*
X0070527Y0211204D01*
X0069796Y0210473D01*
X0069400Y0209517D01*
X0069400Y0193853D01*
X0069796Y0192897D01*
X0074585Y0188108D01*
X0074585Y0180678D01*
X0074204Y0180297D01*
X0074204Y0170600D01*
X0062350Y0170600D01*
X0063343Y0171593D01*
X0063343Y0179383D01*
X0062289Y0180438D01*
X0053711Y0180438D01*
X0052657Y0179383D01*
X0052657Y0171593D01*
X0053711Y0170539D01*
X0055335Y0170539D01*
X0054527Y0170204D01*
X0051000Y0166677D01*
X0047473Y0170204D01*
X0046517Y0170600D01*
X0039548Y0170600D01*
X0039548Y0172295D01*
X0038494Y0173349D01*
X0030703Y0173349D01*
X0029649Y0172295D01*
X0029649Y0163705D01*
X0030703Y0162651D01*
X0038494Y0162651D01*
X0039548Y0163705D01*
X0039548Y0165400D01*
X0044923Y0165400D01*
X0047323Y0163000D01*
X0044796Y0160473D01*
X0044400Y0159517D01*
X0044400Y0141600D01*
X0034290Y0141600D01*
X0033663Y0143115D01*
X0032278Y0144500D01*
X0033446Y0144500D01*
X0034500Y0145554D01*
X0034500Y0154446D01*
X0033446Y0155500D01*
X0027177Y0155500D01*
X0026002Y0156675D01*
X0026002Y0162651D01*
X0027297Y0162651D01*
X0028351Y0163705D01*
X0028351Y0172295D01*
X0027297Y0173349D01*
X0025600Y0173349D01*
X0025600Y0173923D01*
X0027606Y0175929D01*
X0027905Y0176651D01*
X0029297Y0176651D01*
X0030351Y0177705D01*
X0030351Y0186295D01*
X0029297Y0187349D01*
X0021506Y0187349D01*
X0020452Y0186295D01*
X0020452Y0177705D01*
X0021240Y0176917D01*
X0020796Y0176473D01*
X0020400Y0175517D01*
X0020400Y0173349D01*
X0019506Y0173349D01*
X0018452Y0172295D01*
X0018452Y0163705D01*
X0019506Y0162651D01*
X0020802Y0162651D01*
X0020802Y0155081D01*
X0021197Y0154126D01*
X0023500Y0151823D01*
X0023500Y0145554D01*
X0024554Y0144500D01*
X0025722Y0144500D01*
X0024337Y0143115D01*
X0023500Y0141094D01*
X0023500Y0138906D01*
X0024337Y0136884D01*
X0025884Y0135337D01*
X0026699Y0135000D01*
X0025884Y0134663D01*
X0024337Y0133115D01*
X0023500Y0131094D01*
X0023500Y0128906D01*
X0024337Y0126884D01*
X0025884Y0125337D01*
X0026400Y0125124D01*
X0026400Y0119343D01*
X0024617Y0119343D01*
X0023562Y0118289D01*
X0023562Y0109711D01*
X0024617Y0108657D01*
X0026400Y0108657D01*
X0026400Y0092077D01*
X0023796Y0089473D01*
X0023400Y0088517D01*
X0023400Y0051438D01*
X0023200Y0050955D01*
X0023200Y0043045D01*
X0022800Y0043045D02*
X0022800Y0050955D01*
X0022069Y0052719D01*
X0020719Y0054069D01*
X0018955Y0054800D01*
X0017045Y0054800D01*
X0015281Y0054069D01*
X0013931Y0052719D01*
X0013200Y0050955D01*
X0013200Y0043045D01*
X0013931Y0041281D01*
X0015281Y0039931D01*
X0017045Y0039200D01*
X0018955Y0039200D01*
X0020719Y0039931D01*
X0022069Y0041281D01*
X0022800Y0043045D01*
X0022800Y0043866D02*
X0023200Y0043866D01*
X0023200Y0045465D02*
X0022800Y0045465D01*
X0022800Y0047063D02*
X0023200Y0047063D01*
X0023200Y0048662D02*
X0022800Y0048662D01*
X0022800Y0050260D02*
X0023200Y0050260D01*
X0023400Y0051859D02*
X0022426Y0051859D01*
X0023400Y0053457D02*
X0021331Y0053457D01*
X0023400Y0055056D02*
X0006800Y0055056D01*
X0006800Y0056654D02*
X0023400Y0056654D01*
X0023400Y0058253D02*
X0006800Y0058253D01*
X0006800Y0059851D02*
X0023400Y0059851D01*
X0023400Y0061450D02*
X0006800Y0061450D01*
X0006800Y0063048D02*
X0023400Y0063048D01*
X0023400Y0064647D02*
X0006800Y0064647D01*
X0006800Y0066245D02*
X0023400Y0066245D01*
X0023400Y0067844D02*
X0006800Y0067844D01*
X0006800Y0069442D02*
X0023400Y0069442D01*
X0023400Y0071041D02*
X0006800Y0071041D01*
X0006800Y0072639D02*
X0023400Y0072639D01*
X0023400Y0074238D02*
X0006800Y0074238D01*
X0006800Y0075836D02*
X0023400Y0075836D01*
X0023400Y0077435D02*
X0006800Y0077435D01*
X0006800Y0079033D02*
X0023400Y0079033D01*
X0023400Y0080632D02*
X0006800Y0080632D01*
X0006800Y0082230D02*
X0023400Y0082230D01*
X0023400Y0083829D02*
X0006800Y0083829D01*
X0006800Y0085427D02*
X0023400Y0085427D01*
X0023400Y0087026D02*
X0006800Y0087026D01*
X0006800Y0088624D02*
X0023444Y0088624D01*
X0024546Y0090223D02*
X0006800Y0090223D01*
X0006800Y0091821D02*
X0026144Y0091821D01*
X0026400Y0093420D02*
X0006800Y0093420D01*
X0006800Y0095018D02*
X0026400Y0095018D01*
X0026400Y0096617D02*
X0006800Y0096617D01*
X0006800Y0098215D02*
X0026400Y0098215D01*
X0026400Y0099814D02*
X0006800Y0099814D01*
X0006800Y0101412D02*
X0026400Y0101412D01*
X0026400Y0103011D02*
X0006800Y0103011D01*
X0006800Y0104609D02*
X0026400Y0104609D01*
X0026400Y0106208D02*
X0006800Y0106208D01*
X0006800Y0107806D02*
X0026400Y0107806D01*
X0023868Y0109405D02*
X0006800Y0109405D01*
X0006800Y0111003D02*
X0023562Y0111003D01*
X0023562Y0112602D02*
X0006800Y0112602D01*
X0006800Y0114201D02*
X0023562Y0114201D01*
X0023562Y0115799D02*
X0006800Y0115799D01*
X0006800Y0117398D02*
X0023562Y0117398D01*
X0024269Y0118996D02*
X0006800Y0118996D01*
X0006800Y0120595D02*
X0026400Y0120595D01*
X0026400Y0122193D02*
X0006800Y0122193D01*
X0006800Y0123792D02*
X0026400Y0123792D01*
X0025832Y0125390D02*
X0006800Y0125390D01*
X0006800Y0126989D02*
X0024294Y0126989D01*
X0023632Y0128587D02*
X0006800Y0128587D01*
X0006800Y0130186D02*
X0023500Y0130186D01*
X0023786Y0131784D02*
X0006800Y0131784D01*
X0006800Y0133383D02*
X0024604Y0133383D01*
X0026653Y0134981D02*
X0006800Y0134981D01*
X0006800Y0136580D02*
X0024642Y0136580D01*
X0023801Y0138178D02*
X0006800Y0138178D01*
X0006800Y0139777D02*
X0023500Y0139777D01*
X0023616Y0141375D02*
X0006800Y0141375D01*
X0006800Y0142974D02*
X0024279Y0142974D01*
X0024482Y0144572D02*
X0006800Y0144572D01*
X0006800Y0146171D02*
X0023500Y0146171D01*
X0023500Y0147769D02*
X0006800Y0147769D01*
X0006800Y0149368D02*
X0023500Y0149368D01*
X0023500Y0150966D02*
X0006800Y0150966D01*
X0006800Y0152565D02*
X0022758Y0152565D01*
X0021182Y0154163D02*
X0006800Y0154163D01*
X0006800Y0155762D02*
X0020802Y0155762D01*
X0020802Y0157360D02*
X0006800Y0157360D01*
X0006800Y0158959D02*
X0020802Y0158959D01*
X0020802Y0160557D02*
X0006800Y0160557D01*
X0006800Y0162156D02*
X0020802Y0162156D01*
X0018452Y0163754D02*
X0006800Y0163754D01*
X0006800Y0165353D02*
X0018452Y0165353D01*
X0018452Y0166951D02*
X0006800Y0166951D01*
X0006800Y0168550D02*
X0018452Y0168550D01*
X0018452Y0170148D02*
X0006800Y0170148D01*
X0006800Y0171747D02*
X0018452Y0171747D01*
X0019503Y0173345D02*
X0006800Y0173345D01*
X0006800Y0174944D02*
X0020400Y0174944D01*
X0020866Y0176542D02*
X0006800Y0176542D01*
X0006800Y0178141D02*
X0020452Y0178141D01*
X0020452Y0179739D02*
X0006800Y0179739D01*
X0006800Y0181338D02*
X0020452Y0181338D01*
X0020452Y0182937D02*
X0006800Y0182937D01*
X0006800Y0184535D02*
X0020452Y0184535D01*
X0020452Y0186134D02*
X0006800Y0186134D01*
X0006800Y0187732D02*
X0074585Y0187732D01*
X0074585Y0186134D02*
X0030351Y0186134D01*
X0030351Y0184535D02*
X0074585Y0184535D01*
X0074585Y0182937D02*
X0030351Y0182937D01*
X0030351Y0181338D02*
X0074585Y0181338D01*
X0074204Y0179739D02*
X0062987Y0179739D01*
X0063343Y0178141D02*
X0074204Y0178141D01*
X0074204Y0176542D02*
X0063343Y0176542D01*
X0063343Y0174944D02*
X0074204Y0174944D01*
X0074204Y0173345D02*
X0063343Y0173345D01*
X0063343Y0171747D02*
X0074204Y0171747D01*
X0077185Y0175220D02*
X0077185Y0189185D01*
X0072000Y0194370D01*
X0072000Y0209000D01*
X0073100Y0210100D01*
X0111112Y0210100D01*
X0111212Y0210000D01*
X0127000Y0210000D01*
X0129000Y0208000D01*
X0129000Y0205000D01*
X0133331Y0202119D02*
X0134669Y0202119D01*
X0134000Y0202788D02*
X0136888Y0199900D01*
X0141112Y0199900D01*
X0144000Y0202788D01*
X0146888Y0199900D01*
X0151112Y0199900D01*
X0154000Y0202788D01*
X0156400Y0200388D01*
X0156400Y0200077D01*
X0153923Y0197600D01*
X0144483Y0197600D01*
X0143527Y0197204D01*
X0141867Y0195544D01*
X0141867Y0195769D01*
X0141278Y0197190D01*
X0140190Y0198278D01*
X0138769Y0198867D01*
X0137231Y0198867D01*
X0135810Y0198278D01*
X0134722Y0197190D01*
X0134133Y0195769D01*
X0134133Y0194810D01*
X0132027Y0192704D01*
X0131296Y0191973D01*
X0130900Y0191017D01*
X0130900Y0181757D01*
X0130519Y0181376D01*
X0130519Y0177603D01*
X0130400Y0177316D01*
X0130400Y0176282D01*
X0130519Y0175995D01*
X0130519Y0171223D01*
X0131142Y0170600D01*
X0126077Y0170600D01*
X0124600Y0172077D01*
X0124600Y0181517D01*
X0124204Y0182473D01*
X0120204Y0186473D01*
X0119473Y0187204D01*
X0118517Y0187600D01*
X0110556Y0187600D01*
X0110556Y0188793D01*
X0109501Y0189847D01*
X0102498Y0189847D01*
X0102251Y0189600D01*
X0092483Y0189600D01*
X0091527Y0189204D01*
X0090796Y0188473D01*
X0087881Y0185558D01*
X0088367Y0186731D01*
X0088367Y0188269D01*
X0087778Y0189690D01*
X0086690Y0190778D01*
X0085269Y0191367D01*
X0083731Y0191367D01*
X0082310Y0190778D01*
X0081222Y0189690D01*
X0080633Y0188269D01*
X0080633Y0187310D01*
X0079981Y0186658D01*
X0079785Y0186185D01*
X0079785Y0189702D01*
X0079389Y0190658D01*
X0074600Y0195447D01*
X0074600Y0202188D01*
X0076888Y0199900D01*
X0081112Y0199900D01*
X0084000Y0202788D01*
X0086888Y0199900D01*
X0091112Y0199900D01*
X0094000Y0202788D01*
X0096888Y0199900D01*
X0101112Y0199900D01*
X0104100Y0202888D01*
X0104100Y0207112D01*
X0103712Y0207500D01*
X0110454Y0207500D01*
X0110695Y0207400D01*
X0114188Y0207400D01*
X0113900Y0207112D01*
X0113900Y0202888D01*
X0116888Y0199900D01*
X0121112Y0199900D01*
X0124000Y0202788D01*
X0126888Y0199900D01*
X0131112Y0199900D01*
X0134000Y0202788D01*
X0131733Y0200520D02*
X0136267Y0200520D01*
X0134854Y0197323D02*
X0074600Y0197323D01*
X0074600Y0195725D02*
X0134133Y0195725D01*
X0133449Y0194126D02*
X0075921Y0194126D01*
X0077519Y0192528D02*
X0131851Y0192528D01*
X0132027Y0192704D02*
X0132027Y0192704D01*
X0130900Y0190929D02*
X0086326Y0190929D01*
X0087927Y0189331D02*
X0091832Y0189331D01*
X0090055Y0187732D02*
X0088367Y0187732D01*
X0088457Y0186134D02*
X0088120Y0186134D01*
X0084500Y0187500D02*
X0082185Y0185185D01*
X0082185Y0175220D01*
X0087185Y0175220D02*
X0087185Y0169185D01*
X0086000Y0168000D01*
X0057000Y0168000D01*
X0058000Y0169000D01*
X0058000Y0175488D01*
X0052657Y0174944D02*
X0026621Y0174944D01*
X0027301Y0173345D02*
X0030699Y0173345D01*
X0029649Y0171747D02*
X0028351Y0171747D01*
X0028351Y0170148D02*
X0029649Y0170148D01*
X0029649Y0168550D02*
X0028351Y0168550D01*
X0028351Y0166951D02*
X0029649Y0166951D01*
X0029649Y0165353D02*
X0028351Y0165353D01*
X0028351Y0163754D02*
X0029649Y0163754D01*
X0026002Y0162156D02*
X0046479Y0162156D01*
X0046569Y0163754D02*
X0039548Y0163754D01*
X0039548Y0165353D02*
X0044970Y0165353D01*
X0046000Y0168000D02*
X0051000Y0163000D01*
X0047000Y0159000D01*
X0047000Y0139000D01*
X0030000Y0139000D01*
X0029000Y0140000D01*
X0033721Y0142974D02*
X0044400Y0142974D01*
X0044400Y0144572D02*
X0033518Y0144572D01*
X0034500Y0146171D02*
X0044400Y0146171D01*
X0044400Y0147769D02*
X0034500Y0147769D01*
X0034500Y0149368D02*
X0044400Y0149368D01*
X0044400Y0150966D02*
X0034500Y0150966D01*
X0034500Y0152565D02*
X0044400Y0152565D01*
X0044400Y0154163D02*
X0034500Y0154163D01*
X0029000Y0150000D02*
X0023402Y0155598D01*
X0023402Y0168000D01*
X0023000Y0168402D01*
X0023000Y0175000D01*
X0025402Y0177402D01*
X0025402Y0182000D01*
X0030351Y0179739D02*
X0053013Y0179739D01*
X0052657Y0178141D02*
X0030351Y0178141D01*
X0027860Y0176542D02*
X0052657Y0176542D01*
X0052657Y0173345D02*
X0038497Y0173345D01*
X0039548Y0171747D02*
X0052657Y0171747D01*
X0054471Y0170148D02*
X0047529Y0170148D01*
X0049127Y0168550D02*
X0052873Y0168550D01*
X0051274Y0166951D02*
X0050726Y0166951D01*
X0051000Y0163000D02*
X0056000Y0168000D01*
X0057000Y0168000D01*
X0059000Y0164000D02*
X0076000Y0164000D01*
X0077000Y0163000D01*
X0077185Y0154748D01*
X0072000Y0152000D02*
X0072000Y0125339D01*
X0071929Y0125268D01*
X0066580Y0125390D02*
X0052600Y0125390D01*
X0052600Y0123792D02*
X0066580Y0123792D01*
X0066580Y0122193D02*
X0052600Y0122193D01*
X0052600Y0120595D02*
X0067358Y0120595D01*
X0067634Y0119020D02*
X0066580Y0117966D01*
X0066580Y0110176D01*
X0067634Y0109121D01*
X0068900Y0109121D01*
X0068900Y0089577D01*
X0061796Y0082473D01*
X0061400Y0081517D01*
X0061400Y0054800D01*
X0061045Y0054800D01*
X0059281Y0054069D01*
X0057931Y0052719D01*
X0057200Y0050955D01*
X0057200Y0043045D01*
X0057931Y0041281D01*
X0059281Y0039931D01*
X0061045Y0039200D01*
X0062955Y0039200D01*
X0064719Y0039931D01*
X0066069Y0041281D01*
X0066800Y0043045D01*
X0066800Y0050955D01*
X0066600Y0051438D01*
X0066600Y0079923D01*
X0073704Y0087027D01*
X0074100Y0087983D01*
X0074100Y0109121D01*
X0076224Y0109121D01*
X0077278Y0110176D01*
X0077278Y0117966D01*
X0076224Y0119020D01*
X0067634Y0119020D01*
X0067610Y0118996D02*
X0052600Y0118996D01*
X0052600Y0117398D02*
X0066580Y0117398D01*
X0066580Y0115799D02*
X0052600Y0115799D01*
X0052600Y0114201D02*
X0066580Y0114201D01*
X0066580Y0112602D02*
X0052600Y0112602D01*
X0052600Y0111003D02*
X0066580Y0111003D01*
X0067351Y0109405D02*
X0052600Y0109405D01*
X0052600Y0107806D02*
X0068900Y0107806D01*
X0068900Y0106208D02*
X0052600Y0106208D01*
X0052600Y0104609D02*
X0068900Y0104609D01*
X0068900Y0103011D02*
X0052600Y0103011D01*
X0052600Y0101412D02*
X0068900Y0101412D01*
X0068900Y0099814D02*
X0052600Y0099814D01*
X0052600Y0098215D02*
X0068900Y0098215D01*
X0068900Y0096617D02*
X0052600Y0096617D01*
X0052600Y0095018D02*
X0068900Y0095018D01*
X0068900Y0093420D02*
X0052600Y0093420D01*
X0052600Y0091821D02*
X0068900Y0091821D01*
X0068900Y0090223D02*
X0052600Y0090223D01*
X0052600Y0088624D02*
X0067947Y0088624D01*
X0066349Y0087026D02*
X0052600Y0087026D01*
X0052600Y0085427D02*
X0064750Y0085427D01*
X0063152Y0083829D02*
X0052600Y0083829D01*
X0052600Y0082230D02*
X0061695Y0082230D01*
X0061400Y0080632D02*
X0052600Y0080632D01*
X0052600Y0079033D02*
X0061400Y0079033D01*
X0061400Y0077435D02*
X0052600Y0077435D01*
X0052600Y0075836D02*
X0061400Y0075836D01*
X0061400Y0074238D02*
X0053914Y0074238D01*
X0055513Y0072639D02*
X0061400Y0072639D01*
X0061400Y0071041D02*
X0057111Y0071041D01*
X0058710Y0069442D02*
X0061400Y0069442D01*
X0061400Y0067844D02*
X0059300Y0067844D01*
X0059300Y0066245D02*
X0061400Y0066245D01*
X0061400Y0064647D02*
X0059300Y0064647D01*
X0059300Y0063048D02*
X0061400Y0063048D01*
X0061400Y0061450D02*
X0059300Y0061450D01*
X0058003Y0059851D02*
X0061400Y0059851D01*
X0061400Y0058253D02*
X0056405Y0058253D01*
X0054806Y0056654D02*
X0061400Y0056654D01*
X0061400Y0055056D02*
X0028600Y0055056D01*
X0028600Y0056654D02*
X0045194Y0056654D01*
X0043595Y0058253D02*
X0028600Y0058253D01*
X0028600Y0059851D02*
X0041997Y0059851D01*
X0040700Y0061450D02*
X0028600Y0061450D01*
X0028600Y0063048D02*
X0040700Y0063048D01*
X0040700Y0064647D02*
X0028600Y0064647D01*
X0028600Y0066245D02*
X0040700Y0066245D01*
X0040700Y0067844D02*
X0028600Y0067844D01*
X0028600Y0069442D02*
X0041290Y0069442D01*
X0042889Y0071041D02*
X0028600Y0071041D01*
X0028600Y0072639D02*
X0044487Y0072639D01*
X0046086Y0074238D02*
X0028600Y0074238D01*
X0028600Y0075836D02*
X0047400Y0075836D01*
X0047400Y0077435D02*
X0028600Y0077435D01*
X0028600Y0079033D02*
X0047400Y0079033D01*
X0047400Y0080632D02*
X0028600Y0080632D01*
X0028600Y0082230D02*
X0047400Y0082230D01*
X0047400Y0083829D02*
X0028600Y0083829D01*
X0028600Y0085427D02*
X0047400Y0085427D01*
X0047400Y0087026D02*
X0028703Y0087026D01*
X0030301Y0088624D02*
X0047400Y0088624D01*
X0047400Y0090223D02*
X0031492Y0090223D01*
X0031600Y0091821D02*
X0047400Y0091821D01*
X0047400Y0093420D02*
X0031600Y0093420D01*
X0031600Y0095018D02*
X0047400Y0095018D01*
X0047400Y0096617D02*
X0031600Y0096617D01*
X0031600Y0098215D02*
X0047400Y0098215D01*
X0047400Y0099814D02*
X0031600Y0099814D01*
X0031600Y0101412D02*
X0047400Y0101412D01*
X0047400Y0103011D02*
X0031600Y0103011D01*
X0031600Y0104609D02*
X0047400Y0104609D01*
X0047400Y0106208D02*
X0031600Y0106208D01*
X0031600Y0107806D02*
X0047400Y0107806D01*
X0047400Y0109405D02*
X0033155Y0109405D01*
X0033461Y0111003D02*
X0047400Y0111003D01*
X0047400Y0112602D02*
X0033461Y0112602D01*
X0033461Y0114201D02*
X0047400Y0114201D01*
X0047400Y0115799D02*
X0033461Y0115799D01*
X0033461Y0117398D02*
X0047400Y0117398D01*
X0047400Y0118996D02*
X0032754Y0118996D01*
X0031600Y0120595D02*
X0047400Y0120595D01*
X0047400Y0122193D02*
X0031600Y0122193D01*
X0031600Y0123792D02*
X0047400Y0123792D01*
X0047400Y0125390D02*
X0032168Y0125390D01*
X0033706Y0126989D02*
X0047400Y0126989D01*
X0047400Y0128587D02*
X0034368Y0128587D01*
X0034500Y0130186D02*
X0047400Y0130186D01*
X0047400Y0131784D02*
X0034214Y0131784D01*
X0033395Y0133383D02*
X0047400Y0133383D01*
X0047400Y0134981D02*
X0031347Y0134981D01*
X0029000Y0130000D02*
X0029000Y0114488D01*
X0028512Y0114000D01*
X0029000Y0113512D01*
X0029000Y0091000D01*
X0026000Y0088000D01*
X0026000Y0049000D01*
X0028000Y0047000D01*
X0032800Y0047063D02*
X0033200Y0047063D01*
X0033200Y0045465D02*
X0032800Y0045465D01*
X0032800Y0043866D02*
X0033200Y0043866D01*
X0033200Y0043045D02*
X0033931Y0041281D01*
X0035281Y0039931D01*
X0037045Y0039200D01*
X0038955Y0039200D01*
X0040719Y0039931D01*
X0042069Y0041281D01*
X0042800Y0043045D01*
X0042800Y0050955D01*
X0042069Y0052719D01*
X0040719Y0054069D01*
X0038955Y0054800D01*
X0037045Y0054800D01*
X0035281Y0054069D01*
X0033931Y0052719D01*
X0033200Y0050955D01*
X0033200Y0043045D01*
X0033522Y0042268D02*
X0032478Y0042268D01*
X0031457Y0040669D02*
X0034543Y0040669D01*
X0041457Y0040669D02*
X0058543Y0040669D01*
X0057522Y0042268D02*
X0042478Y0042268D01*
X0042800Y0043866D02*
X0057200Y0043866D01*
X0057200Y0045465D02*
X0042800Y0045465D01*
X0042800Y0047063D02*
X0057200Y0047063D01*
X0057200Y0048662D02*
X0042800Y0048662D01*
X0042800Y0050260D02*
X0057200Y0050260D01*
X0057574Y0051859D02*
X0042426Y0051859D01*
X0041331Y0053457D02*
X0058669Y0053457D01*
X0064000Y0049000D02*
X0062000Y0047000D01*
X0064000Y0049000D02*
X0064000Y0081000D01*
X0071500Y0088500D01*
X0071500Y0113900D01*
X0077278Y0114201D02*
X0082328Y0114201D01*
X0082328Y0115799D02*
X0077278Y0115799D01*
X0077278Y0117398D02*
X0082328Y0117398D01*
X0082328Y0117730D02*
X0082328Y0109939D01*
X0083382Y0108885D01*
X0084650Y0108885D01*
X0084650Y0106327D01*
X0083190Y0104867D01*
X0082231Y0104867D01*
X0080810Y0104278D01*
X0079722Y0103190D01*
X0079133Y0101769D01*
X0079133Y0100231D01*
X0079722Y0098810D01*
X0080810Y0097722D01*
X0082231Y0097133D01*
X0083769Y0097133D01*
X0085190Y0097722D01*
X0086278Y0098810D01*
X0086867Y0100231D01*
X0086867Y0101190D01*
X0089454Y0103777D01*
X0089850Y0104733D01*
X0089850Y0108885D01*
X0091972Y0108885D01*
X0093026Y0109939D01*
X0093026Y0117730D01*
X0091972Y0118784D01*
X0083382Y0118784D01*
X0082328Y0117730D01*
X0082870Y0120595D02*
X0076500Y0120595D01*
X0076248Y0118996D02*
X0122265Y0118996D01*
X0122265Y0117398D02*
X0093026Y0117398D01*
X0093026Y0115799D02*
X0122265Y0115799D01*
X0122265Y0114201D02*
X0093026Y0114201D01*
X0093026Y0112602D02*
X0122265Y0112602D01*
X0122673Y0111003D02*
X0093026Y0111003D01*
X0092492Y0109405D02*
X0125014Y0109405D01*
X0124338Y0107806D02*
X0089850Y0107806D01*
X0089850Y0106208D02*
X0123315Y0106208D01*
X0123133Y0104609D02*
X0089799Y0104609D01*
X0088688Y0103011D02*
X0107542Y0103011D01*
X0107810Y0103278D02*
X0106722Y0102190D01*
X0106133Y0100769D01*
X0106133Y0099231D01*
X0106722Y0097810D01*
X0107400Y0097131D01*
X0107400Y0054119D01*
X0107281Y0054069D01*
X0105931Y0052719D01*
X0105200Y0050955D01*
X0105200Y0043045D01*
X0105931Y0041281D01*
X0107281Y0039931D01*
X0109045Y0039200D01*
X0110955Y0039200D01*
X0112719Y0039931D01*
X0114069Y0041281D01*
X0114800Y0043045D01*
X0114800Y0050955D01*
X0114069Y0052719D01*
X0112719Y0054069D01*
X0112600Y0054119D01*
X0112600Y0097131D01*
X0113278Y0097810D01*
X0113867Y0099231D01*
X0113867Y0100769D01*
X0113278Y0102190D01*
X0112190Y0103278D01*
X0110769Y0103867D01*
X0109231Y0103867D01*
X0107810Y0103278D01*
X0106400Y0101412D02*
X0087089Y0101412D01*
X0086694Y0099814D02*
X0106133Y0099814D01*
X0106554Y0098215D02*
X0085684Y0098215D01*
X0083000Y0101000D02*
X0087250Y0105250D01*
X0087250Y0113900D01*
X0082328Y0112602D02*
X0077278Y0112602D01*
X0077278Y0111003D02*
X0082328Y0111003D01*
X0082862Y0109405D02*
X0076508Y0109405D01*
X0074100Y0107806D02*
X0084650Y0107806D01*
X0084531Y0106208D02*
X0074100Y0106208D01*
X0074100Y0104609D02*
X0081609Y0104609D01*
X0079647Y0103011D02*
X0074100Y0103011D01*
X0074100Y0101412D02*
X0079133Y0101412D01*
X0079306Y0099814D02*
X0074100Y0099814D01*
X0074100Y0098215D02*
X0080316Y0098215D01*
X0074100Y0096617D02*
X0107400Y0096617D01*
X0107400Y0095018D02*
X0074100Y0095018D01*
X0074100Y0093420D02*
X0107400Y0093420D01*
X0107400Y0091821D02*
X0074100Y0091821D01*
X0074100Y0090223D02*
X0107400Y0090223D01*
X0107400Y0088624D02*
X0074100Y0088624D01*
X0073703Y0087026D02*
X0107400Y0087026D01*
X0107400Y0085427D02*
X0072104Y0085427D01*
X0070506Y0083829D02*
X0107400Y0083829D01*
X0107400Y0082230D02*
X0068907Y0082230D01*
X0067309Y0080632D02*
X0107400Y0080632D01*
X0107400Y0079033D02*
X0066600Y0079033D01*
X0066600Y0077435D02*
X0107400Y0077435D01*
X0107400Y0075836D02*
X0066600Y0075836D01*
X0066600Y0074238D02*
X0107400Y0074238D01*
X0107400Y0072639D02*
X0066600Y0072639D01*
X0066600Y0071041D02*
X0107400Y0071041D01*
X0107400Y0069442D02*
X0066600Y0069442D01*
X0066600Y0067844D02*
X0107400Y0067844D01*
X0107400Y0066245D02*
X0066600Y0066245D01*
X0066600Y0064647D02*
X0107400Y0064647D01*
X0107400Y0063048D02*
X0066600Y0063048D01*
X0066600Y0061450D02*
X0107400Y0061450D01*
X0107400Y0059851D02*
X0066600Y0059851D01*
X0066600Y0058253D02*
X0107400Y0058253D01*
X0107400Y0056654D02*
X0066600Y0056654D01*
X0066600Y0055056D02*
X0107400Y0055056D01*
X0106669Y0053457D02*
X0085331Y0053457D01*
X0084719Y0054069D02*
X0082955Y0054800D01*
X0081045Y0054800D01*
X0079281Y0054069D01*
X0077931Y0052719D01*
X0077200Y0050955D01*
X0077200Y0043045D01*
X0077931Y0041281D01*
X0079281Y0039931D01*
X0081045Y0039200D01*
X0082955Y0039200D01*
X0084719Y0039931D01*
X0086069Y0041281D01*
X0086800Y0043045D01*
X0086800Y0050955D01*
X0086069Y0052719D01*
X0084719Y0054069D01*
X0086426Y0051859D02*
X0105574Y0051859D01*
X0105200Y0050260D02*
X0086800Y0050260D01*
X0086800Y0048662D02*
X0105200Y0048662D01*
X0105200Y0047063D02*
X0086800Y0047063D01*
X0086800Y0045465D02*
X0105200Y0045465D01*
X0105200Y0043866D02*
X0086800Y0043866D01*
X0086478Y0042268D02*
X0105522Y0042268D01*
X0106543Y0040669D02*
X0085457Y0040669D01*
X0078543Y0040669D02*
X0075457Y0040669D01*
X0076069Y0041281D02*
X0074719Y0039931D01*
X0072955Y0039200D01*
X0071045Y0039200D01*
X0069281Y0039931D01*
X0067931Y0041281D01*
X0067200Y0043045D01*
X0067200Y0050955D01*
X0067931Y0052719D01*
X0069281Y0054069D01*
X0071045Y0054800D01*
X0072955Y0054800D01*
X0074719Y0054069D01*
X0076069Y0052719D01*
X0076800Y0050955D01*
X0076800Y0043045D01*
X0076069Y0041281D01*
X0076478Y0042268D02*
X0077522Y0042268D01*
X0077200Y0043866D02*
X0076800Y0043866D01*
X0076800Y0045465D02*
X0077200Y0045465D01*
X0077200Y0047063D02*
X0076800Y0047063D01*
X0076800Y0048662D02*
X0077200Y0048662D01*
X0077200Y0050260D02*
X0076800Y0050260D01*
X0076426Y0051859D02*
X0077574Y0051859D01*
X0078669Y0053457D02*
X0075331Y0053457D01*
X0068669Y0053457D02*
X0066600Y0053457D01*
X0066600Y0051859D02*
X0067574Y0051859D01*
X0067200Y0050260D02*
X0066800Y0050260D01*
X0066800Y0048662D02*
X0067200Y0048662D01*
X0067200Y0047063D02*
X0066800Y0047063D01*
X0066800Y0045465D02*
X0067200Y0045465D01*
X0067200Y0043866D02*
X0066800Y0043866D01*
X0066478Y0042268D02*
X0067522Y0042268D01*
X0068543Y0040669D02*
X0065457Y0040669D01*
X0033200Y0048662D02*
X0032800Y0048662D01*
X0032800Y0050260D02*
X0033200Y0050260D01*
X0033574Y0051859D02*
X0032426Y0051859D01*
X0031331Y0053457D02*
X0034669Y0053457D01*
X0050000Y0065000D02*
X0050000Y0155000D01*
X0059000Y0164000D01*
X0059234Y0160557D02*
X0069937Y0160557D01*
X0069204Y0158959D02*
X0057636Y0158959D01*
X0056037Y0157360D02*
X0069204Y0157360D01*
X0069204Y0155762D02*
X0054439Y0155762D01*
X0052840Y0154163D02*
X0069204Y0154163D01*
X0069204Y0152565D02*
X0052600Y0152565D01*
X0052600Y0150966D02*
X0069204Y0150966D01*
X0069400Y0149368D02*
X0052600Y0149368D01*
X0052600Y0147769D02*
X0069400Y0147769D01*
X0069400Y0146171D02*
X0052600Y0146171D01*
X0052600Y0144572D02*
X0069400Y0144572D01*
X0069400Y0142974D02*
X0052600Y0142974D01*
X0052600Y0141375D02*
X0069400Y0141375D01*
X0069400Y0139777D02*
X0052600Y0139777D01*
X0052600Y0138178D02*
X0069400Y0138178D01*
X0069400Y0136580D02*
X0052600Y0136580D01*
X0052600Y0134981D02*
X0069400Y0134981D01*
X0069400Y0133383D02*
X0052600Y0133383D01*
X0052600Y0131784D02*
X0069400Y0131784D01*
X0067603Y0130186D02*
X0052600Y0130186D01*
X0052600Y0128587D02*
X0066580Y0128587D01*
X0066580Y0126989D02*
X0052600Y0126989D01*
X0074600Y0131784D02*
X0084400Y0131784D01*
X0084400Y0130186D02*
X0076256Y0130186D01*
X0077278Y0128587D02*
X0082328Y0128587D01*
X0082328Y0126989D02*
X0077278Y0126989D01*
X0077278Y0125390D02*
X0082328Y0125390D01*
X0082328Y0123792D02*
X0077278Y0123792D01*
X0077278Y0122193D02*
X0082328Y0122193D01*
X0087000Y0125709D02*
X0087677Y0125031D01*
X0087000Y0125709D02*
X0087000Y0138000D01*
X0082000Y0143000D01*
X0082000Y0151000D01*
X0084600Y0147769D02*
X0087554Y0147769D01*
X0089152Y0146171D02*
X0084600Y0146171D01*
X0084600Y0144572D02*
X0090751Y0144572D01*
X0092349Y0142974D02*
X0085703Y0142974D01*
X0087302Y0141375D02*
X0099134Y0141375D01*
X0102126Y0144000D02*
X0095000Y0144000D01*
X0087185Y0151815D01*
X0087185Y0154748D01*
X0090166Y0154163D02*
X0098594Y0154163D01*
X0098594Y0155762D02*
X0090166Y0155762D01*
X0090166Y0157360D02*
X0096790Y0157360D01*
X0093436Y0158959D02*
X0090166Y0158959D01*
X0091000Y0163000D02*
X0077000Y0163000D01*
X0074454Y0160557D02*
X0074433Y0160557D01*
X0088628Y0166951D02*
X0101444Y0166951D01*
X0101444Y0168550D02*
X0089736Y0168550D01*
X0090166Y0170148D02*
X0101444Y0170148D01*
X0101444Y0171747D02*
X0090166Y0171747D01*
X0090166Y0173345D02*
X0101444Y0173345D01*
X0106000Y0170331D02*
X0114000Y0167000D01*
X0114000Y0146000D01*
X0103937Y0145811D01*
X0102126Y0144000D01*
X0108740Y0141375D02*
X0125900Y0141375D01*
X0125900Y0139777D02*
X0088900Y0139777D01*
X0089600Y0138178D02*
X0125900Y0138178D01*
X0125900Y0136580D02*
X0089600Y0136580D01*
X0089600Y0134981D02*
X0125900Y0134981D01*
X0125900Y0133383D02*
X0089600Y0133383D01*
X0089600Y0131784D02*
X0125900Y0131784D01*
X0122265Y0130186D02*
X0089600Y0130186D01*
X0093026Y0128587D02*
X0122265Y0128587D01*
X0122265Y0126989D02*
X0093026Y0126989D01*
X0093026Y0125390D02*
X0122265Y0125390D01*
X0122265Y0123792D02*
X0093026Y0123792D01*
X0093026Y0122193D02*
X0122681Y0122193D01*
X0127614Y0126504D02*
X0128500Y0127390D01*
X0128500Y0155827D01*
X0125519Y0155762D02*
X0116600Y0155762D01*
X0116600Y0157360D02*
X0125519Y0157360D01*
X0125519Y0158959D02*
X0116600Y0158959D01*
X0116600Y0160557D02*
X0125519Y0160557D01*
X0131400Y0162156D02*
X0116600Y0162156D01*
X0116600Y0163754D02*
X0132077Y0163754D01*
X0133676Y0165353D02*
X0116600Y0165353D01*
X0116600Y0166951D02*
X0122372Y0166951D01*
X0120773Y0168550D02*
X0116127Y0168550D01*
X0113202Y0170148D02*
X0119539Y0170148D01*
X0119400Y0171747D02*
X0110556Y0171747D01*
X0110556Y0173345D02*
X0119400Y0173345D01*
X0119400Y0174944D02*
X0090166Y0174944D01*
X0090166Y0176542D02*
X0119400Y0176542D01*
X0119400Y0178141D02*
X0090166Y0178141D01*
X0090166Y0179739D02*
X0119400Y0179739D01*
X0117985Y0181338D02*
X0110104Y0181338D01*
X0106291Y0185000D02*
X0106000Y0185291D01*
X0104291Y0187000D01*
X0093000Y0187000D01*
X0087185Y0181185D01*
X0087185Y0175220D01*
X0091015Y0181338D02*
X0101896Y0181338D01*
X0101444Y0182937D02*
X0092613Y0182937D01*
X0080633Y0187732D02*
X0079785Y0187732D01*
X0079785Y0189331D02*
X0081073Y0189331D01*
X0082674Y0190929D02*
X0079118Y0190929D01*
X0073363Y0189331D02*
X0006800Y0189331D01*
X0006800Y0190929D02*
X0071764Y0190929D01*
X0070166Y0192528D02*
X0006800Y0192528D01*
X0006800Y0194126D02*
X0069400Y0194126D01*
X0069400Y0195725D02*
X0006800Y0195725D01*
X0006800Y0197323D02*
X0069400Y0197323D01*
X0069400Y0198922D02*
X0006800Y0198922D01*
X0006800Y0200520D02*
X0069400Y0200520D01*
X0069400Y0202119D02*
X0006800Y0202119D01*
X0006800Y0203717D02*
X0069400Y0203717D01*
X0069400Y0205316D02*
X0006800Y0205316D01*
X0006800Y0206914D02*
X0069400Y0206914D01*
X0069400Y0208513D02*
X0006800Y0208513D01*
X0006800Y0210111D02*
X0069646Y0210111D01*
X0071033Y0211710D02*
X0006800Y0211710D01*
X0006800Y0213198D02*
X0330183Y0212901D01*
X0330189Y0212895D01*
X0330927Y0212901D01*
X0331665Y0212900D01*
X0331672Y0212906D01*
X0369340Y0213195D01*
X0375200Y0208172D01*
X0375200Y0163691D01*
X0375163Y0163650D01*
X0375200Y0162953D01*
X0375200Y0162254D01*
X0375239Y0162216D01*
X0375242Y0162161D01*
X0375761Y0161694D01*
X0376254Y0161200D01*
X0376309Y0161200D01*
X0385200Y0153198D01*
X0385200Y0025746D01*
X0375200Y0015746D01*
X0375200Y0006800D01*
X0006800Y0006800D01*
X0006800Y0213198D01*
X0074600Y0202119D02*
X0074669Y0202119D01*
X0074600Y0200520D02*
X0076267Y0200520D01*
X0074600Y0198922D02*
X0155245Y0198922D01*
X0156267Y0200520D02*
X0151733Y0200520D01*
X0153331Y0202119D02*
X0154669Y0202119D01*
X0159000Y0205000D02*
X0159000Y0199000D01*
X0155000Y0195000D01*
X0145000Y0195000D01*
X0139000Y0189000D01*
X0139000Y0176799D01*
X0138500Y0176299D01*
X0133500Y0176299D02*
X0133500Y0190500D01*
X0138000Y0195000D01*
X0141867Y0195725D02*
X0142048Y0195725D01*
X0141146Y0197323D02*
X0143814Y0197323D01*
X0141733Y0200520D02*
X0146267Y0200520D01*
X0144669Y0202119D02*
X0143331Y0202119D01*
X0142700Y0208513D02*
X0145300Y0208513D01*
X0152700Y0208513D02*
X0155300Y0208513D01*
X0162700Y0208513D02*
X0165300Y0208513D01*
X0172700Y0208513D02*
X0181300Y0208513D01*
X0179900Y0206914D02*
X0174100Y0206914D01*
X0174100Y0205316D02*
X0179900Y0205316D01*
X0179900Y0203717D02*
X0174100Y0203717D01*
X0173331Y0202119D02*
X0180669Y0202119D01*
X0182267Y0200520D02*
X0171733Y0200520D01*
X0166267Y0200520D02*
X0161733Y0200520D01*
X0161600Y0198922D02*
X0194245Y0198922D01*
X0192646Y0197323D02*
X0161000Y0197323D01*
X0159402Y0195725D02*
X0191048Y0195725D01*
X0189449Y0194126D02*
X0157803Y0194126D01*
X0156305Y0192528D02*
X0155825Y0192528D01*
X0155444Y0190929D02*
X0144606Y0190929D01*
X0144654Y0189331D02*
X0143007Y0189331D01*
X0143055Y0187732D02*
X0141600Y0187732D01*
X0143500Y0184500D02*
X0147000Y0188000D01*
X0159835Y0188000D01*
X0160000Y0188165D01*
X0160165Y0188000D01*
X0170000Y0188000D01*
X0174000Y0184000D01*
X0174000Y0171000D01*
X0177000Y0168000D01*
X0194000Y0168000D01*
X0195106Y0169106D01*
X0195106Y0177260D01*
X0195106Y0173106D01*
X0197706Y0171802D02*
X0198087Y0172184D01*
X0198087Y0182336D01*
X0197600Y0182824D01*
X0197600Y0183502D01*
X0207507Y0183502D01*
X0207507Y0182601D01*
X0208561Y0181546D01*
X0215564Y0181546D01*
X0216619Y0182601D01*
X0216619Y0189604D01*
X0215564Y0190658D01*
X0208561Y0190658D01*
X0207507Y0189604D01*
X0207507Y0188702D01*
X0195585Y0188702D01*
X0194630Y0188307D01*
X0193527Y0187204D01*
X0192796Y0186473D01*
X0192600Y0186000D01*
X0192600Y0189923D01*
X0202732Y0200055D01*
X0202888Y0199900D01*
X0207112Y0199900D01*
X0210000Y0202788D01*
X0212888Y0199900D01*
X0217112Y0199900D01*
X0220000Y0202788D01*
X0222888Y0199900D01*
X0227112Y0199900D01*
X0230000Y0202788D01*
X0231055Y0201732D01*
X0227796Y0198473D01*
X0227400Y0197517D01*
X0227400Y0190548D01*
X0226705Y0190548D01*
X0225651Y0189494D01*
X0225651Y0181703D01*
X0226705Y0180649D01*
X0235295Y0180649D01*
X0236349Y0181703D01*
X0236349Y0189494D01*
X0235295Y0190548D01*
X0232600Y0190548D01*
X0232600Y0195923D01*
X0236577Y0199900D01*
X0237112Y0199900D01*
X0240000Y0202788D01*
X0242400Y0200388D01*
X0242400Y0190548D01*
X0240705Y0190548D01*
X0239651Y0189494D01*
X0239651Y0181703D01*
X0240705Y0180649D01*
X0249295Y0180649D01*
X0250349Y0181703D01*
X0250349Y0189494D01*
X0249295Y0190548D01*
X0247600Y0190548D01*
X0247600Y0200388D01*
X0250000Y0202788D01*
X0252400Y0200388D01*
X0252400Y0196483D01*
X0252796Y0195527D01*
X0255400Y0192923D01*
X0255400Y0190548D01*
X0254705Y0190548D01*
X0253651Y0189494D01*
X0253651Y0181703D01*
X0254705Y0180649D01*
X0263295Y0180649D01*
X0264349Y0181703D01*
X0264349Y0189494D01*
X0263295Y0190548D01*
X0260600Y0190548D01*
X0260600Y0194517D01*
X0260204Y0195473D01*
X0259473Y0196204D01*
X0257600Y0198077D01*
X0257600Y0200388D01*
X0259974Y0202762D01*
X0260337Y0201884D01*
X0261884Y0200337D01*
X0263906Y0199500D01*
X0266094Y0199500D01*
X0266400Y0199627D01*
X0266400Y0179077D01*
X0264349Y0177026D01*
X0264349Y0178297D01*
X0263295Y0179351D01*
X0254705Y0179351D01*
X0253651Y0178297D01*
X0253651Y0177600D01*
X0250349Y0177600D01*
X0250349Y0178297D01*
X0249295Y0179351D01*
X0240705Y0179351D01*
X0239651Y0178297D01*
X0239651Y0177002D01*
X0236349Y0177002D01*
X0236349Y0178297D01*
X0235295Y0179351D01*
X0226705Y0179351D01*
X0225651Y0178297D01*
X0225651Y0170506D01*
X0226705Y0169452D01*
X0235295Y0169452D01*
X0236349Y0170506D01*
X0236349Y0171802D01*
X0239651Y0171802D01*
X0239651Y0170506D01*
X0240705Y0169452D01*
X0242400Y0169452D01*
X0242400Y0163483D01*
X0242796Y0162527D01*
X0243527Y0161796D01*
X0246400Y0158923D01*
X0246400Y0118869D01*
X0245722Y0118190D01*
X0245133Y0116769D01*
X0245133Y0115231D01*
X0245619Y0114058D01*
X0236495Y0123182D01*
X0235539Y0123578D01*
X0200593Y0123578D01*
X0200593Y0131320D01*
X0199539Y0132375D01*
X0198600Y0132375D01*
X0198600Y0141517D01*
X0198204Y0142473D01*
X0197473Y0143204D01*
X0192706Y0147971D01*
X0192706Y0148743D01*
X0192796Y0148527D01*
X0193527Y0147796D01*
X0197315Y0144008D01*
X0198270Y0143613D01*
X0205924Y0143613D01*
X0205924Y0142317D01*
X0206979Y0141263D01*
X0215557Y0141263D01*
X0216611Y0142317D01*
X0216611Y0143400D01*
X0219517Y0143400D01*
X0220473Y0143796D01*
X0221204Y0144527D01*
X0223204Y0146527D01*
X0223600Y0147483D01*
X0223600Y0168517D01*
X0223204Y0169473D01*
X0222473Y0170204D01*
X0219331Y0173346D01*
X0218375Y0173742D01*
X0216619Y0173742D01*
X0216619Y0174643D01*
X0215564Y0175698D01*
X0208561Y0175698D01*
X0207507Y0174643D01*
X0207507Y0167640D01*
X0208561Y0166586D01*
X0215564Y0166586D01*
X0216619Y0167640D01*
X0216619Y0168542D01*
X0216781Y0168542D01*
X0218400Y0166923D01*
X0218400Y0149077D01*
X0217923Y0148600D01*
X0216611Y0148600D01*
X0216611Y0150108D01*
X0215557Y0151162D01*
X0206979Y0151162D01*
X0205924Y0150108D01*
X0205924Y0148813D01*
X0199864Y0148813D01*
X0197600Y0151077D01*
X0197600Y0151224D01*
X0198087Y0151711D01*
X0198087Y0161864D01*
X0197551Y0162400D01*
X0198923Y0162400D01*
X0205924Y0155399D01*
X0205924Y0153341D01*
X0206979Y0152287D01*
X0215557Y0152287D01*
X0216611Y0153341D01*
X0216611Y0161131D01*
X0215557Y0162186D01*
X0206979Y0162186D01*
X0206735Y0161942D01*
X0202204Y0166473D01*
X0201473Y0167204D01*
X0200517Y0167600D01*
X0197277Y0167600D01*
X0197310Y0167634D01*
X0197706Y0168589D01*
X0197706Y0171802D01*
X0197706Y0171747D02*
X0207507Y0171747D01*
X0207507Y0173345D02*
X0198087Y0173345D01*
X0198087Y0174944D02*
X0207808Y0174944D01*
X0207507Y0170148D02*
X0197706Y0170148D01*
X0197690Y0168550D02*
X0207507Y0168550D01*
X0208196Y0166951D02*
X0201726Y0166951D01*
X0203324Y0165353D02*
X0218400Y0165353D01*
X0218372Y0166951D02*
X0215930Y0166951D01*
X0217858Y0171142D02*
X0212063Y0171142D01*
X0216318Y0174944D02*
X0225651Y0174944D01*
X0225651Y0176542D02*
X0198087Y0176542D01*
X0198087Y0178141D02*
X0225651Y0178141D01*
X0226016Y0181338D02*
X0198087Y0181338D01*
X0198087Y0179739D02*
X0266400Y0179739D01*
X0266400Y0181338D02*
X0263984Y0181338D01*
X0264349Y0182937D02*
X0266400Y0182937D01*
X0266400Y0184535D02*
X0264349Y0184535D01*
X0264349Y0186134D02*
X0266400Y0186134D01*
X0266400Y0187732D02*
X0264349Y0187732D01*
X0264349Y0189331D02*
X0266400Y0189331D01*
X0266400Y0190929D02*
X0260600Y0190929D01*
X0260600Y0192528D02*
X0266400Y0192528D01*
X0266400Y0194126D02*
X0260600Y0194126D01*
X0259952Y0195725D02*
X0266400Y0195725D01*
X0266400Y0197323D02*
X0258354Y0197323D01*
X0257600Y0198922D02*
X0266400Y0198922D01*
X0269000Y0201000D02*
X0269000Y0178000D01*
X0265402Y0174402D01*
X0259000Y0174402D01*
X0259000Y0175000D01*
X0245200Y0175000D01*
X0243000Y0175000D01*
X0243000Y0174402D01*
X0231000Y0174402D01*
X0225651Y0173345D02*
X0219331Y0173345D01*
X0220930Y0171747D02*
X0225651Y0171747D01*
X0226009Y0170148D02*
X0222529Y0170148D01*
X0223586Y0168550D02*
X0242400Y0168550D01*
X0242400Y0166951D02*
X0223600Y0166951D01*
X0223600Y0165353D02*
X0242400Y0165353D01*
X0242400Y0163754D02*
X0223600Y0163754D01*
X0223600Y0162156D02*
X0243167Y0162156D01*
X0244766Y0160557D02*
X0223600Y0160557D01*
X0223600Y0158959D02*
X0246364Y0158959D01*
X0246400Y0157360D02*
X0223600Y0157360D01*
X0223600Y0155762D02*
X0246400Y0155762D01*
X0246400Y0154163D02*
X0223600Y0154163D01*
X0223600Y0152565D02*
X0246400Y0152565D01*
X0246400Y0150966D02*
X0223600Y0150966D01*
X0223600Y0149368D02*
X0246400Y0149368D01*
X0246400Y0147769D02*
X0223600Y0147769D01*
X0222848Y0146171D02*
X0246400Y0146171D01*
X0246400Y0144572D02*
X0221249Y0144572D01*
X0219000Y0146000D02*
X0211480Y0146000D01*
X0211268Y0146213D01*
X0198787Y0146213D01*
X0195000Y0150000D01*
X0195000Y0156681D01*
X0195106Y0156787D01*
X0198087Y0157360D02*
X0203963Y0157360D01*
X0205561Y0155762D02*
X0198087Y0155762D01*
X0198087Y0154163D02*
X0205924Y0154163D01*
X0206701Y0152565D02*
X0198087Y0152565D01*
X0197711Y0150966D02*
X0206783Y0150966D01*
X0205924Y0149368D02*
X0199309Y0149368D01*
X0195152Y0146171D02*
X0194506Y0146171D01*
X0193554Y0147769D02*
X0192908Y0147769D01*
X0190106Y0146894D02*
X0196000Y0141000D01*
X0196000Y0127400D01*
X0196000Y0126000D01*
X0195000Y0125000D01*
X0200593Y0125390D02*
X0246400Y0125390D01*
X0246400Y0123792D02*
X0200593Y0123792D01*
X0200593Y0126989D02*
X0246400Y0126989D01*
X0246400Y0128587D02*
X0200593Y0128587D01*
X0200593Y0130186D02*
X0246400Y0130186D01*
X0246400Y0131784D02*
X0200130Y0131784D01*
X0198600Y0133383D02*
X0246400Y0133383D01*
X0246400Y0134981D02*
X0198600Y0134981D01*
X0198600Y0136580D02*
X0246400Y0136580D01*
X0246400Y0138178D02*
X0198600Y0138178D01*
X0198600Y0139777D02*
X0246400Y0139777D01*
X0246400Y0141375D02*
X0215669Y0141375D01*
X0216611Y0142974D02*
X0246400Y0142974D01*
X0251600Y0142974D02*
X0385200Y0142974D01*
X0385200Y0144572D02*
X0251600Y0144572D01*
X0251600Y0146171D02*
X0385200Y0146171D01*
X0385200Y0147769D02*
X0251600Y0147769D01*
X0251600Y0149368D02*
X0385200Y0149368D01*
X0385200Y0150966D02*
X0251600Y0150966D01*
X0251600Y0152565D02*
X0385200Y0152565D01*
X0384128Y0154163D02*
X0251600Y0154163D01*
X0251600Y0155762D02*
X0382352Y0155762D01*
X0380576Y0157360D02*
X0251600Y0157360D01*
X0251600Y0158959D02*
X0378799Y0158959D01*
X0377023Y0160557D02*
X0251583Y0160557D01*
X0250521Y0162156D02*
X0375247Y0162156D01*
X0375200Y0163754D02*
X0248923Y0163754D01*
X0247600Y0165353D02*
X0375200Y0165353D01*
X0375200Y0166951D02*
X0247600Y0166951D01*
X0247600Y0168550D02*
X0375200Y0168550D01*
X0375200Y0170148D02*
X0263991Y0170148D01*
X0264349Y0171747D02*
X0375200Y0171747D01*
X0375200Y0173345D02*
X0268022Y0173345D01*
X0269621Y0174944D02*
X0375200Y0174944D01*
X0375200Y0176542D02*
X0271210Y0176542D01*
X0271600Y0178141D02*
X0375200Y0178141D01*
X0375200Y0179739D02*
X0271600Y0179739D01*
X0271600Y0181338D02*
X0375200Y0181338D01*
X0375200Y0182937D02*
X0271600Y0182937D01*
X0271600Y0184535D02*
X0375200Y0184535D01*
X0375200Y0186134D02*
X0271600Y0186134D01*
X0271600Y0187732D02*
X0375200Y0187732D01*
X0375200Y0189331D02*
X0271600Y0189331D01*
X0271600Y0190929D02*
X0375200Y0190929D01*
X0375200Y0192528D02*
X0271600Y0192528D01*
X0271600Y0194126D02*
X0375200Y0194126D01*
X0375200Y0195725D02*
X0271600Y0195725D01*
X0271600Y0197323D02*
X0375200Y0197323D01*
X0375200Y0198922D02*
X0271600Y0198922D01*
X0271600Y0200520D02*
X0375200Y0200520D01*
X0375200Y0202119D02*
X0271351Y0202119D01*
X0270422Y0203717D02*
X0375200Y0203717D01*
X0375200Y0205316D02*
X0270500Y0205316D01*
X0270160Y0206914D02*
X0375200Y0206914D01*
X0374803Y0208513D02*
X0269265Y0208513D01*
X0267033Y0210111D02*
X0372938Y0210111D01*
X0371073Y0211710D02*
X0128967Y0211710D01*
X0130566Y0210111D02*
X0262967Y0210111D01*
X0260735Y0208513D02*
X0258700Y0208513D01*
X0255000Y0205000D02*
X0255000Y0197000D01*
X0258000Y0194000D01*
X0258000Y0186598D01*
X0259000Y0185598D01*
X0253651Y0186134D02*
X0250349Y0186134D01*
X0250349Y0187732D02*
X0253651Y0187732D01*
X0253651Y0189331D02*
X0250349Y0189331D01*
X0247600Y0190929D02*
X0255400Y0190929D01*
X0255400Y0192528D02*
X0247600Y0192528D01*
X0247600Y0194126D02*
X0254197Y0194126D01*
X0252714Y0195725D02*
X0247600Y0195725D01*
X0247600Y0197323D02*
X0252400Y0197323D01*
X0252400Y0198922D02*
X0247600Y0198922D01*
X0247733Y0200520D02*
X0252267Y0200520D01*
X0250669Y0202119D02*
X0249331Y0202119D01*
X0245000Y0205000D02*
X0245000Y0185598D01*
X0246000Y0186598D01*
X0250349Y0184535D02*
X0253651Y0184535D01*
X0253651Y0182937D02*
X0250349Y0182937D01*
X0249984Y0181338D02*
X0254016Y0181338D01*
X0253651Y0178141D02*
X0250349Y0178141D01*
X0245000Y0174402D02*
X0245000Y0164000D01*
X0249000Y0160000D01*
X0249000Y0116000D01*
X0245393Y0117398D02*
X0242279Y0117398D01*
X0240681Y0118996D02*
X0246400Y0118996D01*
X0246400Y0120595D02*
X0239082Y0120595D01*
X0237484Y0122193D02*
X0246400Y0122193D01*
X0251600Y0122193D02*
X0385200Y0122193D01*
X0385200Y0120595D02*
X0251600Y0120595D01*
X0251600Y0118996D02*
X0385200Y0118996D01*
X0385200Y0117398D02*
X0252607Y0117398D01*
X0252867Y0115799D02*
X0385200Y0115799D01*
X0385200Y0114201D02*
X0252440Y0114201D01*
X0250901Y0112602D02*
X0385200Y0112602D01*
X0385200Y0111003D02*
X0247600Y0111003D01*
X0247600Y0109405D02*
X0385200Y0109405D01*
X0385200Y0107806D02*
X0247600Y0107806D01*
X0247600Y0106208D02*
X0385200Y0106208D01*
X0385200Y0104609D02*
X0247600Y0104609D01*
X0247600Y0103011D02*
X0385200Y0103011D01*
X0385200Y0101412D02*
X0247600Y0101412D01*
X0247600Y0099814D02*
X0385200Y0099814D01*
X0385200Y0098215D02*
X0247600Y0098215D01*
X0247600Y0096617D02*
X0385200Y0096617D01*
X0385200Y0095018D02*
X0247600Y0095018D01*
X0247600Y0093420D02*
X0385200Y0093420D01*
X0385200Y0091821D02*
X0247600Y0091821D01*
X0247600Y0090223D02*
X0385200Y0090223D01*
X0385200Y0088624D02*
X0247600Y0088624D01*
X0247600Y0087026D02*
X0385200Y0087026D01*
X0385200Y0085427D02*
X0247600Y0085427D01*
X0247600Y0083829D02*
X0385200Y0083829D01*
X0385200Y0082230D02*
X0247600Y0082230D01*
X0247600Y0080632D02*
X0385200Y0080632D01*
X0385200Y0079033D02*
X0247600Y0079033D01*
X0247600Y0077435D02*
X0385200Y0077435D01*
X0385200Y0075836D02*
X0247600Y0075836D01*
X0247600Y0074238D02*
X0385200Y0074238D01*
X0385200Y0072639D02*
X0247600Y0072639D01*
X0247600Y0071041D02*
X0385200Y0071041D01*
X0385200Y0069442D02*
X0247600Y0069442D01*
X0247600Y0067844D02*
X0385200Y0067844D01*
X0385200Y0066245D02*
X0247600Y0066245D01*
X0247600Y0064647D02*
X0385200Y0064647D01*
X0385200Y0063048D02*
X0247600Y0063048D01*
X0247600Y0061450D02*
X0385200Y0061450D01*
X0385200Y0059851D02*
X0247600Y0059851D01*
X0247600Y0058253D02*
X0385200Y0058253D01*
X0385200Y0056654D02*
X0247600Y0056654D01*
X0247600Y0055056D02*
X0385200Y0055056D01*
X0385200Y0053457D02*
X0268331Y0053457D01*
X0267719Y0054069D02*
X0269069Y0052719D01*
X0269800Y0050955D01*
X0269800Y0043045D01*
X0269069Y0041281D01*
X0267719Y0039931D01*
X0267600Y0039881D01*
X0267600Y0035483D01*
X0267204Y0034527D01*
X0266473Y0033796D01*
X0258473Y0025796D01*
X0257517Y0025400D01*
X0228077Y0025400D01*
X0219945Y0017268D01*
X0220000Y0017212D01*
X0222888Y0020100D01*
X0227112Y0020100D01*
X0230000Y0017212D01*
X0232888Y0020100D01*
X0237112Y0020100D01*
X0240000Y0017212D01*
X0242888Y0020100D01*
X0247112Y0020100D01*
X0250000Y0017212D01*
X0252888Y0020100D01*
X0257112Y0020100D01*
X0260100Y0017112D01*
X0260100Y0012888D01*
X0257112Y0009900D01*
X0252888Y0009900D01*
X0250000Y0012788D01*
X0247112Y0009900D01*
X0242888Y0009900D01*
X0240000Y0012788D01*
X0237112Y0009900D01*
X0232888Y0009900D01*
X0230000Y0012788D01*
X0227112Y0009900D01*
X0222888Y0009900D01*
X0220000Y0012788D01*
X0217112Y0009900D01*
X0212888Y0009900D01*
X0210000Y0012788D01*
X0207112Y0009900D01*
X0202888Y0009900D01*
X0199900Y0012888D01*
X0199900Y0017112D01*
X0202888Y0020100D01*
X0203753Y0020100D01*
X0203753Y0020447D01*
X0199247Y0020447D01*
X0199247Y0019152D01*
X0198192Y0018098D01*
X0189603Y0018098D01*
X0188548Y0019152D01*
X0188548Y0020550D01*
X0187446Y0020550D01*
X0187446Y0019767D01*
X0190100Y0017112D01*
X0190100Y0012888D01*
X0187112Y0009900D01*
X0182888Y0009900D01*
X0179900Y0012888D01*
X0179900Y0017112D01*
X0180594Y0017806D01*
X0178601Y0017806D01*
X0177546Y0018861D01*
X0177546Y0027438D01*
X0178601Y0028493D01*
X0186391Y0028493D01*
X0187446Y0027438D01*
X0187446Y0025750D01*
X0188548Y0025750D01*
X0188548Y0026942D01*
X0189603Y0027997D01*
X0198192Y0027997D01*
X0199247Y0026942D01*
X0199247Y0025647D01*
X0203753Y0025647D01*
X0203753Y0027234D01*
X0204808Y0028288D01*
X0213397Y0028288D01*
X0214452Y0027234D01*
X0214452Y0020100D01*
X0215423Y0020100D01*
X0224796Y0029473D01*
X0225527Y0030204D01*
X0226483Y0030600D01*
X0255923Y0030600D01*
X0262400Y0037077D01*
X0262400Y0039881D01*
X0262281Y0039931D01*
X0260931Y0041281D01*
X0260200Y0043045D01*
X0260200Y0050955D01*
X0260931Y0052719D01*
X0262281Y0054069D01*
X0264045Y0054800D01*
X0265955Y0054800D01*
X0267719Y0054069D01*
X0269426Y0051859D02*
X0385200Y0051859D01*
X0385200Y0050260D02*
X0269800Y0050260D01*
X0269800Y0048662D02*
X0385200Y0048662D01*
X0385200Y0047063D02*
X0269800Y0047063D01*
X0269800Y0045465D02*
X0385200Y0045465D01*
X0385200Y0043866D02*
X0269800Y0043866D01*
X0269478Y0042268D02*
X0385200Y0042268D01*
X0385200Y0040669D02*
X0268457Y0040669D01*
X0267600Y0039070D02*
X0349918Y0039070D01*
X0351148Y0040300D02*
X0345700Y0034852D01*
X0345700Y0027148D01*
X0351148Y0021700D01*
X0358852Y0021700D01*
X0364300Y0027148D01*
X0364300Y0034852D01*
X0358852Y0040300D01*
X0351148Y0040300D01*
X0348320Y0037472D02*
X0267600Y0037472D01*
X0267600Y0035873D02*
X0306828Y0035873D01*
X0307004Y0036050D02*
X0305950Y0034996D01*
X0305950Y0027004D01*
X0307004Y0025950D01*
X0314996Y0025950D01*
X0316050Y0027004D01*
X0316050Y0034996D01*
X0314996Y0036050D01*
X0307004Y0036050D01*
X0305950Y0034275D02*
X0266952Y0034275D01*
X0265353Y0032676D02*
X0305950Y0032676D01*
X0305950Y0031078D02*
X0263755Y0031078D01*
X0262156Y0029479D02*
X0305950Y0029479D01*
X0305950Y0027881D02*
X0260558Y0027881D01*
X0258959Y0026282D02*
X0306672Y0026282D01*
X0315328Y0026282D02*
X0346565Y0026282D01*
X0345700Y0027881D02*
X0316050Y0027881D01*
X0316050Y0029479D02*
X0345700Y0029479D01*
X0345700Y0031078D02*
X0316050Y0031078D01*
X0316050Y0032676D02*
X0345700Y0032676D01*
X0345700Y0034275D02*
X0316050Y0034275D01*
X0315172Y0035873D02*
X0346721Y0035873D01*
X0360082Y0039070D02*
X0385200Y0039070D01*
X0385200Y0037472D02*
X0361680Y0037472D01*
X0363279Y0035873D02*
X0385200Y0035873D01*
X0385200Y0034275D02*
X0364300Y0034275D01*
X0364300Y0032676D02*
X0385200Y0032676D01*
X0385200Y0031078D02*
X0364300Y0031078D01*
X0364300Y0029479D02*
X0385200Y0029479D01*
X0385200Y0027881D02*
X0364300Y0027881D01*
X0363435Y0026282D02*
X0385200Y0026282D01*
X0384138Y0024684D02*
X0361836Y0024684D01*
X0360238Y0023085D02*
X0382540Y0023085D01*
X0380941Y0021487D02*
X0224164Y0021487D01*
X0222676Y0019888D02*
X0222565Y0019888D01*
X0221077Y0018290D02*
X0220967Y0018290D01*
X0216810Y0021487D02*
X0214452Y0021487D01*
X0214452Y0023085D02*
X0218408Y0023085D01*
X0220007Y0024684D02*
X0214452Y0024684D01*
X0214452Y0026282D02*
X0221605Y0026282D01*
X0223204Y0027881D02*
X0213804Y0027881D01*
X0213397Y0029586D02*
X0214452Y0030640D01*
X0214452Y0038431D01*
X0213600Y0039282D01*
X0213600Y0039881D01*
X0213719Y0039931D01*
X0215069Y0041281D01*
X0215800Y0043045D01*
X0215800Y0050955D01*
X0215069Y0052719D01*
X0213719Y0054069D01*
X0211955Y0054800D01*
X0210045Y0054800D01*
X0208281Y0054069D01*
X0206931Y0052719D01*
X0206200Y0050955D01*
X0206200Y0043045D01*
X0206931Y0041281D01*
X0208281Y0039931D01*
X0208400Y0039881D01*
X0208400Y0039485D01*
X0204808Y0039485D01*
X0203753Y0038431D01*
X0203753Y0030640D01*
X0204808Y0029586D01*
X0213397Y0029586D01*
X0214452Y0031078D02*
X0256401Y0031078D01*
X0257999Y0032676D02*
X0214452Y0032676D01*
X0214452Y0034275D02*
X0259598Y0034275D01*
X0261197Y0035873D02*
X0214452Y0035873D01*
X0214452Y0037472D02*
X0262400Y0037472D01*
X0262400Y0039070D02*
X0213812Y0039070D01*
X0214457Y0040669D02*
X0217543Y0040669D01*
X0216931Y0041281D02*
X0218281Y0039931D01*
X0220045Y0039200D01*
X0221955Y0039200D01*
X0223719Y0039931D01*
X0225069Y0041281D01*
X0225800Y0043045D01*
X0225800Y0050955D01*
X0225069Y0052719D01*
X0223719Y0054069D01*
X0221955Y0054800D01*
X0220045Y0054800D01*
X0218281Y0054069D01*
X0216931Y0052719D01*
X0216200Y0050955D01*
X0216200Y0043045D01*
X0216931Y0041281D01*
X0216522Y0042268D02*
X0215478Y0042268D01*
X0215800Y0043866D02*
X0216200Y0043866D01*
X0216200Y0045465D02*
X0215800Y0045465D01*
X0215800Y0047063D02*
X0216200Y0047063D01*
X0216200Y0048662D02*
X0215800Y0048662D01*
X0215800Y0050260D02*
X0216200Y0050260D01*
X0216574Y0051859D02*
X0215426Y0051859D01*
X0214331Y0053457D02*
X0217669Y0053457D01*
X0224331Y0053457D02*
X0241669Y0053457D01*
X0242400Y0055056D02*
X0203600Y0055056D01*
X0203600Y0056654D02*
X0228194Y0056654D01*
X0229148Y0055700D02*
X0236852Y0055700D01*
X0242300Y0061148D01*
X0242300Y0068852D01*
X0236852Y0074300D01*
X0234600Y0074300D01*
X0234600Y0110131D01*
X0235278Y0110810D01*
X0235867Y0112231D01*
X0235867Y0113769D01*
X0235278Y0115190D01*
X0234190Y0116278D01*
X0232769Y0116867D01*
X0231231Y0116867D01*
X0229810Y0116278D01*
X0228722Y0115190D01*
X0228133Y0113769D01*
X0228133Y0112231D01*
X0228722Y0110810D01*
X0229400Y0110131D01*
X0229400Y0074300D01*
X0229148Y0074300D01*
X0223700Y0068852D01*
X0223700Y0061148D01*
X0229148Y0055700D01*
X0226595Y0058253D02*
X0203600Y0058253D01*
X0203462Y0059851D02*
X0224997Y0059851D01*
X0223700Y0061450D02*
X0202227Y0061450D01*
X0200629Y0063048D02*
X0223700Y0063048D01*
X0223700Y0064647D02*
X0199030Y0064647D01*
X0197432Y0066245D02*
X0223700Y0066245D01*
X0223700Y0067844D02*
X0197400Y0067844D01*
X0197400Y0069442D02*
X0224290Y0069442D01*
X0225889Y0071041D02*
X0197400Y0071041D01*
X0197400Y0072639D02*
X0227487Y0072639D01*
X0229086Y0074238D02*
X0197400Y0074238D01*
X0197400Y0075836D02*
X0229400Y0075836D01*
X0229400Y0077435D02*
X0197400Y0077435D01*
X0197400Y0079033D02*
X0229400Y0079033D01*
X0229400Y0080632D02*
X0197400Y0080632D01*
X0197400Y0082230D02*
X0229400Y0082230D01*
X0229400Y0083829D02*
X0197400Y0083829D01*
X0197400Y0085427D02*
X0229400Y0085427D01*
X0229400Y0087026D02*
X0197400Y0087026D01*
X0197400Y0088624D02*
X0229400Y0088624D01*
X0229400Y0090223D02*
X0197400Y0090223D01*
X0197400Y0091821D02*
X0229400Y0091821D01*
X0229400Y0093420D02*
X0197400Y0093420D01*
X0197400Y0095018D02*
X0229400Y0095018D01*
X0229400Y0096617D02*
X0197400Y0096617D01*
X0197400Y0098215D02*
X0229400Y0098215D01*
X0229400Y0099814D02*
X0197400Y0099814D01*
X0197400Y0101412D02*
X0229400Y0101412D01*
X0229400Y0103011D02*
X0197400Y0103011D01*
X0197400Y0104609D02*
X0229400Y0104609D01*
X0229400Y0106208D02*
X0197400Y0106208D01*
X0197400Y0107806D02*
X0229400Y0107806D01*
X0229400Y0109405D02*
X0197400Y0109405D01*
X0197400Y0111003D02*
X0228641Y0111003D01*
X0228133Y0112602D02*
X0200593Y0112602D01*
X0200593Y0114201D02*
X0228312Y0114201D01*
X0229330Y0115799D02*
X0200593Y0115799D01*
X0200593Y0117398D02*
X0234926Y0117398D01*
X0234670Y0115799D02*
X0236524Y0115799D01*
X0235688Y0114201D02*
X0238123Y0114201D01*
X0239721Y0112602D02*
X0235867Y0112602D01*
X0235359Y0111003D02*
X0241320Y0111003D01*
X0242400Y0109405D02*
X0234600Y0109405D01*
X0234600Y0107806D02*
X0242400Y0107806D01*
X0242400Y0106208D02*
X0234600Y0106208D01*
X0234600Y0104609D02*
X0242400Y0104609D01*
X0242400Y0103011D02*
X0234600Y0103011D01*
X0234600Y0101412D02*
X0242400Y0101412D01*
X0242400Y0099814D02*
X0234600Y0099814D01*
X0234600Y0098215D02*
X0242400Y0098215D01*
X0242400Y0096617D02*
X0234600Y0096617D01*
X0234600Y0095018D02*
X0242400Y0095018D01*
X0242400Y0093420D02*
X0234600Y0093420D01*
X0234600Y0091821D02*
X0242400Y0091821D01*
X0242400Y0090223D02*
X0234600Y0090223D01*
X0234600Y0088624D02*
X0242400Y0088624D01*
X0242400Y0087026D02*
X0234600Y0087026D01*
X0234600Y0085427D02*
X0242400Y0085427D01*
X0242400Y0083829D02*
X0234600Y0083829D01*
X0234600Y0082230D02*
X0242400Y0082230D01*
X0242400Y0080632D02*
X0234600Y0080632D01*
X0234600Y0079033D02*
X0242400Y0079033D01*
X0242400Y0077435D02*
X0234600Y0077435D01*
X0234600Y0075836D02*
X0242400Y0075836D01*
X0242400Y0074238D02*
X0236914Y0074238D01*
X0238513Y0072639D02*
X0242400Y0072639D01*
X0242400Y0071041D02*
X0240111Y0071041D01*
X0241710Y0069442D02*
X0242400Y0069442D01*
X0242400Y0067844D02*
X0242300Y0067844D01*
X0242300Y0066245D02*
X0242400Y0066245D01*
X0242400Y0064647D02*
X0242300Y0064647D01*
X0242300Y0063048D02*
X0242400Y0063048D01*
X0242400Y0061450D02*
X0242300Y0061450D01*
X0242400Y0059851D02*
X0241003Y0059851D01*
X0242400Y0058253D02*
X0239405Y0058253D01*
X0237806Y0056654D02*
X0242400Y0056654D01*
X0248331Y0053457D02*
X0251669Y0053457D01*
X0252281Y0054069D02*
X0250931Y0052719D01*
X0250200Y0050955D01*
X0250200Y0043045D01*
X0250931Y0041281D01*
X0252281Y0039931D01*
X0254045Y0039200D01*
X0255955Y0039200D01*
X0257719Y0039931D01*
X0259069Y0041281D01*
X0259800Y0043045D01*
X0259800Y0050955D01*
X0259069Y0052719D01*
X0257719Y0054069D01*
X0255955Y0054800D01*
X0254045Y0054800D01*
X0252281Y0054069D01*
X0250574Y0051859D02*
X0249426Y0051859D01*
X0249800Y0050260D02*
X0250200Y0050260D01*
X0250200Y0048662D02*
X0249800Y0048662D01*
X0249800Y0047063D02*
X0250200Y0047063D01*
X0250200Y0045465D02*
X0249800Y0045465D01*
X0249800Y0043866D02*
X0250200Y0043866D01*
X0250522Y0042268D02*
X0249478Y0042268D01*
X0248457Y0040669D02*
X0251543Y0040669D01*
X0258457Y0040669D02*
X0261543Y0040669D01*
X0260522Y0042268D02*
X0259478Y0042268D01*
X0259800Y0043866D02*
X0260200Y0043866D01*
X0260200Y0045465D02*
X0259800Y0045465D01*
X0259800Y0047063D02*
X0260200Y0047063D01*
X0260200Y0048662D02*
X0259800Y0048662D01*
X0259800Y0050260D02*
X0260200Y0050260D01*
X0260574Y0051859D02*
X0259426Y0051859D01*
X0258331Y0053457D02*
X0261669Y0053457D01*
X0265000Y0047000D02*
X0265000Y0036000D01*
X0257000Y0028000D01*
X0227000Y0028000D01*
X0215000Y0016000D01*
X0215000Y0015000D01*
X0219108Y0011896D02*
X0220892Y0011896D01*
X0222490Y0010297D02*
X0217510Y0010297D01*
X0212490Y0010297D02*
X0207510Y0010297D01*
X0209108Y0011896D02*
X0210892Y0011896D01*
X0205000Y0015000D02*
X0205000Y0016000D01*
X0209000Y0020000D01*
X0209000Y0023236D01*
X0209102Y0023339D01*
X0208811Y0023047D01*
X0193898Y0023047D01*
X0193795Y0023150D01*
X0182496Y0023150D01*
X0177546Y0023085D02*
X0157600Y0023085D01*
X0157600Y0021487D02*
X0177546Y0021487D01*
X0177546Y0019888D02*
X0157600Y0019888D01*
X0157600Y0019612D02*
X0157600Y0025923D01*
X0163077Y0031400D01*
X0178517Y0031400D01*
X0179473Y0031796D01*
X0188473Y0040796D01*
X0189204Y0041527D01*
X0189600Y0042483D01*
X0189600Y0100131D01*
X0190278Y0100810D01*
X0190867Y0102231D01*
X0190867Y0103769D01*
X0190278Y0105190D01*
X0189190Y0106278D01*
X0187769Y0106867D01*
X0186231Y0106867D01*
X0184810Y0106278D01*
X0183722Y0105190D01*
X0183133Y0103769D01*
X0183133Y0102231D01*
X0183722Y0100810D01*
X0184400Y0100131D01*
X0184400Y0044077D01*
X0176923Y0036600D01*
X0161483Y0036600D01*
X0160527Y0036204D01*
X0159796Y0035473D01*
X0152796Y0028473D01*
X0152400Y0027517D01*
X0152400Y0019612D01*
X0150000Y0017212D01*
X0147112Y0020100D01*
X0142888Y0020100D01*
X0140000Y0017212D01*
X0137112Y0020100D01*
X0132888Y0020100D01*
X0129900Y0017112D01*
X0129900Y0012888D01*
X0132888Y0009900D01*
X0137112Y0009900D01*
X0140000Y0012788D01*
X0142888Y0009900D01*
X0147112Y0009900D01*
X0150000Y0012788D01*
X0152888Y0009900D01*
X0157112Y0009900D01*
X0160100Y0012888D01*
X0160100Y0017112D01*
X0157600Y0019612D01*
X0158923Y0018290D02*
X0178117Y0018290D01*
X0179900Y0016691D02*
X0160100Y0016691D01*
X0160100Y0015093D02*
X0179900Y0015093D01*
X0179900Y0013494D02*
X0160100Y0013494D01*
X0159108Y0011896D02*
X0180892Y0011896D01*
X0182490Y0010297D02*
X0157510Y0010297D01*
X0152490Y0010297D02*
X0147510Y0010297D01*
X0149108Y0011896D02*
X0150892Y0011896D01*
X0155000Y0015000D02*
X0155000Y0027000D01*
X0162000Y0034000D01*
X0178000Y0034000D01*
X0187000Y0043000D01*
X0187000Y0102000D01*
X0188000Y0103000D01*
X0187000Y0103000D01*
X0190867Y0103011D02*
X0192200Y0103011D01*
X0192200Y0104609D02*
X0190519Y0104609D01*
X0189261Y0106208D02*
X0192200Y0106208D01*
X0192200Y0107806D02*
X0156662Y0107806D01*
X0156190Y0108278D02*
X0154769Y0108867D01*
X0153231Y0108867D01*
X0151810Y0108278D01*
X0150722Y0107190D01*
X0150133Y0105769D01*
X0150133Y0104231D01*
X0150722Y0102810D01*
X0151400Y0102131D01*
X0151400Y0054119D01*
X0151281Y0054069D01*
X0149931Y0052719D01*
X0149200Y0050955D01*
X0149200Y0043045D01*
X0149931Y0041281D01*
X0151281Y0039931D01*
X0153045Y0039200D01*
X0154955Y0039200D01*
X0156719Y0039931D01*
X0158069Y0041281D01*
X0158800Y0043045D01*
X0158800Y0050955D01*
X0158069Y0052719D01*
X0156719Y0054069D01*
X0156600Y0054119D01*
X0156600Y0102131D01*
X0157278Y0102810D01*
X0157867Y0104231D01*
X0157867Y0105769D01*
X0157278Y0107190D01*
X0156190Y0108278D01*
X0157685Y0106208D02*
X0184739Y0106208D01*
X0183481Y0104609D02*
X0157867Y0104609D01*
X0157362Y0103011D02*
X0183133Y0103011D01*
X0183472Y0101412D02*
X0156600Y0101412D01*
X0156600Y0099814D02*
X0184400Y0099814D01*
X0184400Y0098215D02*
X0156600Y0098215D01*
X0156600Y0096617D02*
X0184400Y0096617D01*
X0184400Y0095018D02*
X0156600Y0095018D01*
X0156600Y0093420D02*
X0184400Y0093420D01*
X0184400Y0091821D02*
X0156600Y0091821D01*
X0156600Y0090223D02*
X0184400Y0090223D01*
X0184400Y0088624D02*
X0156600Y0088624D01*
X0156600Y0087026D02*
X0184400Y0087026D01*
X0184400Y0085427D02*
X0156600Y0085427D01*
X0156600Y0083829D02*
X0184400Y0083829D01*
X0184400Y0082230D02*
X0156600Y0082230D01*
X0156600Y0080632D02*
X0184400Y0080632D01*
X0184400Y0079033D02*
X0156600Y0079033D01*
X0156600Y0077435D02*
X0184400Y0077435D01*
X0184400Y0075836D02*
X0156600Y0075836D01*
X0156600Y0074238D02*
X0184400Y0074238D01*
X0184400Y0072639D02*
X0156600Y0072639D01*
X0156600Y0071041D02*
X0184400Y0071041D01*
X0184400Y0069442D02*
X0156600Y0069442D01*
X0156600Y0067844D02*
X0184400Y0067844D01*
X0184400Y0066245D02*
X0156600Y0066245D01*
X0156600Y0064647D02*
X0184400Y0064647D01*
X0184400Y0063048D02*
X0156600Y0063048D01*
X0156600Y0061450D02*
X0184400Y0061450D01*
X0184400Y0059851D02*
X0156600Y0059851D01*
X0156600Y0058253D02*
X0184400Y0058253D01*
X0184400Y0056654D02*
X0156600Y0056654D01*
X0156600Y0055056D02*
X0184400Y0055056D01*
X0184400Y0053457D02*
X0177331Y0053457D01*
X0176719Y0054069D02*
X0174955Y0054800D01*
X0173045Y0054800D01*
X0171281Y0054069D01*
X0169931Y0052719D01*
X0169200Y0050955D01*
X0169200Y0043045D01*
X0169931Y0041281D01*
X0171281Y0039931D01*
X0173045Y0039200D01*
X0174955Y0039200D01*
X0176719Y0039931D01*
X0178069Y0041281D01*
X0178800Y0043045D01*
X0178800Y0050955D01*
X0178069Y0052719D01*
X0176719Y0054069D01*
X0178426Y0051859D02*
X0184400Y0051859D01*
X0184400Y0050260D02*
X0178800Y0050260D01*
X0178800Y0048662D02*
X0184400Y0048662D01*
X0184400Y0047063D02*
X0178800Y0047063D01*
X0178800Y0045465D02*
X0184400Y0045465D01*
X0184189Y0043866D02*
X0178800Y0043866D01*
X0178478Y0042268D02*
X0182591Y0042268D01*
X0180992Y0040669D02*
X0177457Y0040669D01*
X0179394Y0039070D02*
X0006800Y0039070D01*
X0006800Y0037472D02*
X0177795Y0037472D01*
X0181952Y0034275D02*
X0203753Y0034275D01*
X0203753Y0035873D02*
X0183550Y0035873D01*
X0185149Y0037472D02*
X0203753Y0037472D01*
X0204393Y0039070D02*
X0186747Y0039070D01*
X0188346Y0040669D02*
X0197543Y0040669D01*
X0196522Y0042268D02*
X0189511Y0042268D01*
X0189600Y0043866D02*
X0196200Y0043866D01*
X0196200Y0045465D02*
X0189600Y0045465D01*
X0189600Y0047063D02*
X0196200Y0047063D01*
X0196200Y0048662D02*
X0189600Y0048662D01*
X0189600Y0050260D02*
X0196200Y0050260D01*
X0196574Y0051859D02*
X0189600Y0051859D01*
X0189600Y0053457D02*
X0197669Y0053457D01*
X0198400Y0055056D02*
X0189600Y0055056D01*
X0189600Y0056654D02*
X0198400Y0056654D01*
X0198070Y0058253D02*
X0189600Y0058253D01*
X0189600Y0059851D02*
X0196472Y0059851D01*
X0194873Y0061450D02*
X0189600Y0061450D01*
X0189600Y0063048D02*
X0193275Y0063048D01*
X0192215Y0064647D02*
X0189600Y0064647D01*
X0189600Y0066245D02*
X0192200Y0066245D01*
X0192200Y0067844D02*
X0189600Y0067844D01*
X0189600Y0069442D02*
X0192200Y0069442D01*
X0192200Y0071041D02*
X0189600Y0071041D01*
X0189600Y0072639D02*
X0192200Y0072639D01*
X0192200Y0074238D02*
X0189600Y0074238D01*
X0189600Y0075836D02*
X0192200Y0075836D01*
X0192200Y0077435D02*
X0189600Y0077435D01*
X0189600Y0079033D02*
X0192200Y0079033D01*
X0192200Y0080632D02*
X0189600Y0080632D01*
X0189600Y0082230D02*
X0192200Y0082230D01*
X0192200Y0083829D02*
X0189600Y0083829D01*
X0189600Y0085427D02*
X0192200Y0085427D01*
X0192200Y0087026D02*
X0189600Y0087026D01*
X0189600Y0088624D02*
X0192200Y0088624D01*
X0192200Y0090223D02*
X0189600Y0090223D01*
X0189600Y0091821D02*
X0192200Y0091821D01*
X0192200Y0093420D02*
X0189600Y0093420D01*
X0189600Y0095018D02*
X0192200Y0095018D01*
X0192200Y0096617D02*
X0189600Y0096617D01*
X0189600Y0098215D02*
X0192200Y0098215D01*
X0192200Y0099814D02*
X0189600Y0099814D01*
X0190528Y0101412D02*
X0192200Y0101412D01*
X0192200Y0109405D02*
X0135750Y0109405D01*
X0135750Y0111003D02*
X0138185Y0111003D01*
X0138013Y0111176D02*
X0139067Y0110121D01*
X0147657Y0110121D01*
X0148711Y0111176D01*
X0148711Y0118966D01*
X0147657Y0120020D01*
X0139067Y0120020D01*
X0138013Y0118966D01*
X0138013Y0111176D01*
X0138013Y0112602D02*
X0135750Y0112602D01*
X0135750Y0114201D02*
X0138013Y0114201D01*
X0138013Y0115799D02*
X0135750Y0115799D01*
X0135750Y0117398D02*
X0138013Y0117398D01*
X0138043Y0118996D02*
X0135750Y0118996D01*
X0135750Y0120595D02*
X0175169Y0120595D01*
X0174541Y0118996D02*
X0148681Y0118996D01*
X0148711Y0117398D02*
X0174541Y0117398D01*
X0174541Y0115799D02*
X0148711Y0115799D01*
X0148711Y0114201D02*
X0174541Y0114201D01*
X0174541Y0112602D02*
X0148711Y0112602D01*
X0148539Y0111003D02*
X0192200Y0111003D01*
X0189895Y0112602D02*
X0185239Y0112602D01*
X0187932Y0114201D02*
X0189895Y0114201D01*
X0189895Y0115799D02*
X0189530Y0115799D01*
X0186125Y0116071D02*
X0191032Y0120978D01*
X0235022Y0120978D01*
X0245000Y0111000D01*
X0245000Y0047000D01*
X0240200Y0047063D02*
X0225800Y0047063D01*
X0225800Y0045465D02*
X0240200Y0045465D01*
X0240200Y0043866D02*
X0225800Y0043866D01*
X0225478Y0042268D02*
X0240522Y0042268D01*
X0241543Y0040669D02*
X0224457Y0040669D01*
X0211000Y0036433D02*
X0211000Y0047000D01*
X0206200Y0047063D02*
X0205800Y0047063D01*
X0205800Y0045465D02*
X0206200Y0045465D01*
X0206200Y0043866D02*
X0205800Y0043866D01*
X0205478Y0042268D02*
X0206522Y0042268D01*
X0207543Y0040669D02*
X0204457Y0040669D01*
X0209102Y0034535D02*
X0211000Y0036433D01*
X0203753Y0032676D02*
X0180353Y0032676D01*
X0177989Y0027881D02*
X0159558Y0027881D01*
X0161156Y0029479D02*
X0224802Y0029479D01*
X0227361Y0024684D02*
X0348164Y0024684D01*
X0349762Y0023085D02*
X0225762Y0023085D01*
X0227324Y0019888D02*
X0232676Y0019888D01*
X0231077Y0018290D02*
X0228923Y0018290D01*
X0229108Y0011896D02*
X0230892Y0011896D01*
X0232490Y0010297D02*
X0227510Y0010297D01*
X0237510Y0010297D02*
X0242490Y0010297D01*
X0240892Y0011896D02*
X0239108Y0011896D01*
X0247510Y0010297D02*
X0252490Y0010297D01*
X0250892Y0011896D02*
X0249108Y0011896D01*
X0257510Y0010297D02*
X0375200Y0010297D01*
X0375200Y0008699D02*
X0006800Y0008699D01*
X0006800Y0010297D02*
X0132490Y0010297D01*
X0130892Y0011896D02*
X0006800Y0011896D01*
X0006800Y0013494D02*
X0129900Y0013494D01*
X0129900Y0015093D02*
X0006800Y0015093D01*
X0006800Y0016691D02*
X0129900Y0016691D01*
X0131077Y0018290D02*
X0006800Y0018290D01*
X0006800Y0019888D02*
X0132676Y0019888D01*
X0137324Y0019888D02*
X0142676Y0019888D01*
X0141077Y0018290D02*
X0138923Y0018290D01*
X0147324Y0019888D02*
X0152400Y0019888D01*
X0152400Y0021487D02*
X0006800Y0021487D01*
X0006800Y0023085D02*
X0152400Y0023085D01*
X0152400Y0024684D02*
X0006800Y0024684D01*
X0006800Y0026282D02*
X0152400Y0026282D01*
X0152551Y0027881D02*
X0006800Y0027881D01*
X0006800Y0029479D02*
X0153802Y0029479D01*
X0155401Y0031078D02*
X0006800Y0031078D01*
X0006800Y0032676D02*
X0156999Y0032676D01*
X0158598Y0034275D02*
X0006800Y0034275D01*
X0006800Y0035873D02*
X0160197Y0035873D01*
X0161281Y0039931D02*
X0163045Y0039200D01*
X0164955Y0039200D01*
X0166719Y0039931D01*
X0168069Y0041281D01*
X0168800Y0043045D01*
X0168800Y0050955D01*
X0168069Y0052719D01*
X0166719Y0054069D01*
X0164955Y0054800D01*
X0163045Y0054800D01*
X0161281Y0054069D01*
X0159931Y0052719D01*
X0159200Y0050955D01*
X0159200Y0043045D01*
X0159931Y0041281D01*
X0161281Y0039931D01*
X0160543Y0040669D02*
X0157457Y0040669D01*
X0158478Y0042268D02*
X0159522Y0042268D01*
X0159200Y0043866D02*
X0158800Y0043866D01*
X0158800Y0045465D02*
X0159200Y0045465D01*
X0159200Y0047063D02*
X0158800Y0047063D01*
X0158800Y0048662D02*
X0159200Y0048662D01*
X0159200Y0050260D02*
X0158800Y0050260D01*
X0158426Y0051859D02*
X0159574Y0051859D01*
X0160669Y0053457D02*
X0157331Y0053457D01*
X0151400Y0055056D02*
X0112600Y0055056D01*
X0112600Y0056654D02*
X0137194Y0056654D01*
X0135595Y0058253D02*
X0112600Y0058253D01*
X0112600Y0059851D02*
X0133997Y0059851D01*
X0132700Y0061450D02*
X0112600Y0061450D01*
X0112600Y0063048D02*
X0132700Y0063048D01*
X0132700Y0064647D02*
X0112600Y0064647D01*
X0112600Y0066245D02*
X0132700Y0066245D01*
X0132700Y0067844D02*
X0112600Y0067844D01*
X0112600Y0069442D02*
X0133290Y0069442D01*
X0134889Y0071041D02*
X0112600Y0071041D01*
X0112600Y0072639D02*
X0136487Y0072639D01*
X0138086Y0074238D02*
X0112600Y0074238D01*
X0112600Y0075836D02*
X0138400Y0075836D01*
X0138400Y0077435D02*
X0112600Y0077435D01*
X0112600Y0079033D02*
X0138400Y0079033D01*
X0138400Y0080632D02*
X0112600Y0080632D01*
X0112600Y0082230D02*
X0138400Y0082230D01*
X0138400Y0083829D02*
X0112600Y0083829D01*
X0112600Y0085427D02*
X0138400Y0085427D01*
X0138400Y0087026D02*
X0112600Y0087026D01*
X0112600Y0088624D02*
X0138400Y0088624D01*
X0138100Y0090223D02*
X0112600Y0090223D01*
X0112600Y0091821D02*
X0136502Y0091821D01*
X0134903Y0093420D02*
X0112600Y0093420D01*
X0112600Y0095018D02*
X0133305Y0095018D01*
X0131706Y0096617D02*
X0112600Y0096617D01*
X0113446Y0098215D02*
X0130599Y0098215D01*
X0130550Y0099814D02*
X0113867Y0099814D01*
X0113600Y0101412D02*
X0125556Y0101412D01*
X0123638Y0103011D02*
X0112458Y0103011D01*
X0110000Y0100000D02*
X0110000Y0047000D01*
X0114800Y0047063D02*
X0115200Y0047063D01*
X0115200Y0045465D02*
X0114800Y0045465D01*
X0114800Y0043866D02*
X0115200Y0043866D01*
X0115200Y0043045D02*
X0115931Y0041281D01*
X0117281Y0039931D01*
X0119045Y0039200D01*
X0120955Y0039200D01*
X0122719Y0039931D01*
X0124069Y0041281D01*
X0124800Y0043045D01*
X0124800Y0050955D01*
X0124069Y0052719D01*
X0122719Y0054069D01*
X0120955Y0054800D01*
X0119045Y0054800D01*
X0117281Y0054069D01*
X0115931Y0052719D01*
X0115200Y0050955D01*
X0115200Y0043045D01*
X0115522Y0042268D02*
X0114478Y0042268D01*
X0113457Y0040669D02*
X0116543Y0040669D01*
X0123457Y0040669D02*
X0126543Y0040669D01*
X0125931Y0041281D02*
X0127281Y0039931D01*
X0129045Y0039200D01*
X0130955Y0039200D01*
X0132719Y0039931D01*
X0134069Y0041281D01*
X0134800Y0043045D01*
X0134800Y0050955D01*
X0134069Y0052719D01*
X0132719Y0054069D01*
X0130955Y0054800D01*
X0129045Y0054800D01*
X0127281Y0054069D01*
X0125931Y0052719D01*
X0125200Y0050955D01*
X0125200Y0043045D01*
X0125931Y0041281D01*
X0125522Y0042268D02*
X0124478Y0042268D01*
X0124800Y0043866D02*
X0125200Y0043866D01*
X0125200Y0045465D02*
X0124800Y0045465D01*
X0124800Y0047063D02*
X0125200Y0047063D01*
X0125200Y0048662D02*
X0124800Y0048662D01*
X0124800Y0050260D02*
X0125200Y0050260D01*
X0125574Y0051859D02*
X0124426Y0051859D01*
X0123331Y0053457D02*
X0126669Y0053457D01*
X0133331Y0053457D02*
X0150669Y0053457D01*
X0149574Y0051859D02*
X0134426Y0051859D01*
X0134800Y0050260D02*
X0149200Y0050260D01*
X0149200Y0048662D02*
X0134800Y0048662D01*
X0134800Y0047063D02*
X0149200Y0047063D01*
X0149200Y0045465D02*
X0134800Y0045465D01*
X0134800Y0043866D02*
X0149200Y0043866D01*
X0149522Y0042268D02*
X0134478Y0042268D01*
X0133457Y0040669D02*
X0150543Y0040669D01*
X0154000Y0047000D02*
X0154000Y0105000D01*
X0151338Y0107806D02*
X0135750Y0107806D01*
X0135750Y0106208D02*
X0150315Y0106208D01*
X0150133Y0104609D02*
X0135750Y0104609D01*
X0135750Y0103011D02*
X0141542Y0103011D01*
X0141810Y0103278D02*
X0140722Y0102190D01*
X0140133Y0100769D01*
X0140133Y0099231D01*
X0140722Y0097810D01*
X0141810Y0096722D01*
X0143231Y0096133D01*
X0144769Y0096133D01*
X0146190Y0096722D01*
X0147278Y0097810D01*
X0147867Y0099231D01*
X0147867Y0100769D01*
X0147278Y0102190D01*
X0146190Y0103278D01*
X0144769Y0103867D01*
X0143231Y0103867D01*
X0141810Y0103278D01*
X0140400Y0101412D02*
X0135750Y0101412D01*
X0135863Y0099814D02*
X0140133Y0099814D01*
X0140554Y0098215D02*
X0137462Y0098215D01*
X0139060Y0096617D02*
X0142063Y0096617D01*
X0140659Y0095018D02*
X0151400Y0095018D01*
X0151400Y0093420D02*
X0142257Y0093420D01*
X0143474Y0091821D02*
X0151400Y0091821D01*
X0151400Y0090223D02*
X0143600Y0090223D01*
X0143600Y0088624D02*
X0151400Y0088624D01*
X0151400Y0087026D02*
X0143600Y0087026D01*
X0143600Y0085427D02*
X0151400Y0085427D01*
X0151400Y0083829D02*
X0143600Y0083829D01*
X0143600Y0082230D02*
X0151400Y0082230D01*
X0151400Y0080632D02*
X0143600Y0080632D01*
X0143600Y0079033D02*
X0151400Y0079033D01*
X0151400Y0077435D02*
X0143600Y0077435D01*
X0143600Y0075836D02*
X0151400Y0075836D01*
X0151400Y0074238D02*
X0145914Y0074238D01*
X0147513Y0072639D02*
X0151400Y0072639D01*
X0151400Y0071041D02*
X0149111Y0071041D01*
X0150710Y0069442D02*
X0151400Y0069442D01*
X0151400Y0067844D02*
X0151300Y0067844D01*
X0151300Y0066245D02*
X0151400Y0066245D01*
X0151400Y0064647D02*
X0151300Y0064647D01*
X0151300Y0063048D02*
X0151400Y0063048D01*
X0151400Y0061450D02*
X0151300Y0061450D01*
X0151400Y0059851D02*
X0150003Y0059851D01*
X0151400Y0058253D02*
X0148405Y0058253D01*
X0146806Y0056654D02*
X0151400Y0056654D01*
X0142000Y0065000D02*
X0141000Y0066000D01*
X0141000Y0091000D01*
X0133150Y0098850D01*
X0133150Y0155300D01*
X0133500Y0155827D02*
X0134000Y0156327D01*
X0134000Y0162000D01*
X0136000Y0164000D01*
X0154000Y0164000D01*
X0159386Y0158614D01*
X0159386Y0157795D01*
X0164264Y0162156D02*
X0164400Y0162156D01*
X0164400Y0163754D02*
X0157923Y0163754D01*
X0156324Y0165353D02*
X0164400Y0165353D01*
X0164400Y0166951D02*
X0143628Y0166951D01*
X0145227Y0168550D02*
X0164400Y0168550D01*
X0167000Y0171000D02*
X0167000Y0146000D01*
X0160157Y0146000D01*
X0159386Y0146772D01*
X0157614Y0145000D01*
X0150000Y0145000D01*
X0143500Y0151500D01*
X0143500Y0155827D01*
X0138000Y0154000D02*
X0138000Y0141000D01*
X0143000Y0136000D01*
X0143000Y0126630D01*
X0143362Y0126268D01*
X0138013Y0126989D02*
X0135750Y0126989D01*
X0135750Y0128587D02*
X0138013Y0128587D01*
X0138036Y0130186D02*
X0135750Y0130186D01*
X0135750Y0131784D02*
X0140400Y0131784D01*
X0140400Y0133383D02*
X0135750Y0133383D01*
X0135750Y0134981D02*
X0140342Y0134981D01*
X0138743Y0136580D02*
X0135750Y0136580D01*
X0135750Y0138178D02*
X0137145Y0138178D01*
X0142900Y0139777D02*
X0177506Y0139777D01*
X0177506Y0141375D02*
X0141302Y0141375D01*
X0140600Y0142974D02*
X0148349Y0142974D01*
X0146751Y0144572D02*
X0140600Y0144572D01*
X0140600Y0146171D02*
X0145152Y0146171D01*
X0143554Y0147769D02*
X0140600Y0147769D01*
X0140600Y0149368D02*
X0141955Y0149368D01*
X0125900Y0149368D02*
X0116600Y0149368D01*
X0116600Y0150966D02*
X0125519Y0150966D01*
X0125519Y0152565D02*
X0116600Y0152565D01*
X0116600Y0154163D02*
X0125519Y0154163D01*
X0125900Y0147769D02*
X0116600Y0147769D01*
X0116600Y0146171D02*
X0125900Y0146171D01*
X0125900Y0144572D02*
X0116233Y0144572D01*
X0109280Y0142974D02*
X0125900Y0142974D01*
X0111400Y0149368D02*
X0109280Y0149368D01*
X0111400Y0150966D02*
X0091711Y0150966D01*
X0090166Y0152565D02*
X0098968Y0152565D01*
X0098594Y0149368D02*
X0093309Y0149368D01*
X0094908Y0147769D02*
X0098594Y0147769D01*
X0108906Y0152565D02*
X0111400Y0152565D01*
X0111400Y0154163D02*
X0109280Y0154163D01*
X0109280Y0155762D02*
X0111400Y0155762D01*
X0111400Y0157360D02*
X0109280Y0157360D01*
X0109280Y0158959D02*
X0111400Y0158959D01*
X0111400Y0160557D02*
X0109280Y0160557D01*
X0111400Y0162156D02*
X0098815Y0162156D01*
X0095461Y0163754D02*
X0111400Y0163754D01*
X0111192Y0165353D02*
X0092114Y0165353D01*
X0091000Y0163000D02*
X0103937Y0156835D01*
X0122000Y0171000D02*
X0122000Y0181000D01*
X0118000Y0185000D01*
X0106291Y0185000D01*
X0110556Y0187732D02*
X0130900Y0187732D01*
X0130900Y0186134D02*
X0120543Y0186134D01*
X0122142Y0184535D02*
X0130900Y0184535D01*
X0130900Y0182937D02*
X0123740Y0182937D01*
X0124600Y0181338D02*
X0130519Y0181338D01*
X0130519Y0179739D02*
X0124600Y0179739D01*
X0124600Y0178141D02*
X0130519Y0178141D01*
X0130400Y0176542D02*
X0124600Y0176542D01*
X0124600Y0174944D02*
X0130519Y0174944D01*
X0130519Y0173345D02*
X0124600Y0173345D01*
X0124930Y0171747D02*
X0130519Y0171747D01*
X0133500Y0176299D02*
X0133000Y0176799D01*
X0143500Y0176299D02*
X0143500Y0170500D01*
X0141000Y0168000D01*
X0125000Y0168000D01*
X0122000Y0171000D01*
X0143500Y0176299D02*
X0143500Y0184500D01*
X0146100Y0182937D02*
X0171387Y0182937D01*
X0171400Y0181338D02*
X0146481Y0181338D01*
X0146481Y0179739D02*
X0171400Y0179739D01*
X0171400Y0178141D02*
X0146481Y0178141D01*
X0146481Y0176542D02*
X0155444Y0176542D01*
X0155444Y0174944D02*
X0146481Y0174944D01*
X0146481Y0173345D02*
X0155444Y0173345D01*
X0155444Y0171747D02*
X0146481Y0171747D01*
X0146100Y0170148D02*
X0155444Y0170148D01*
X0160000Y0173205D02*
X0164795Y0173205D01*
X0167000Y0171000D01*
X0169505Y0171747D02*
X0171400Y0171747D01*
X0171400Y0173345D02*
X0168331Y0173345D01*
X0166733Y0174944D02*
X0171400Y0174944D01*
X0171400Y0176542D02*
X0164556Y0176542D01*
X0169600Y0170148D02*
X0171539Y0170148D01*
X0172773Y0168550D02*
X0169600Y0168550D01*
X0169600Y0166951D02*
X0174372Y0166951D01*
X0169600Y0165353D02*
X0182746Y0165353D01*
X0182400Y0163754D02*
X0169600Y0163754D01*
X0169600Y0162156D02*
X0177417Y0162156D01*
X0177125Y0160557D02*
X0169600Y0160557D01*
X0169600Y0158959D02*
X0177125Y0158959D01*
X0177125Y0157360D02*
X0169600Y0157360D01*
X0169600Y0155762D02*
X0177125Y0155762D01*
X0177125Y0154163D02*
X0169600Y0154163D01*
X0169600Y0152565D02*
X0177125Y0152565D01*
X0177506Y0150966D02*
X0169600Y0150966D01*
X0169600Y0149368D02*
X0177506Y0149368D01*
X0177506Y0147769D02*
X0169600Y0147769D01*
X0169600Y0146171D02*
X0177506Y0146171D01*
X0177506Y0144572D02*
X0169223Y0144572D01*
X0164729Y0142974D02*
X0177506Y0142974D01*
X0177506Y0138178D02*
X0144499Y0138178D01*
X0145574Y0136580D02*
X0177506Y0136580D01*
X0177506Y0134981D02*
X0145600Y0134981D01*
X0145600Y0133383D02*
X0177506Y0133383D01*
X0175162Y0131784D02*
X0145600Y0131784D01*
X0148689Y0130186D02*
X0174541Y0130186D01*
X0174541Y0128587D02*
X0148711Y0128587D01*
X0148711Y0126989D02*
X0174541Y0126989D01*
X0174541Y0125390D02*
X0148711Y0125390D01*
X0148711Y0123792D02*
X0174541Y0123792D01*
X0179890Y0127268D02*
X0180106Y0127484D01*
X0180106Y0156787D01*
X0185000Y0156894D02*
X0185106Y0156787D01*
X0185106Y0139894D01*
X0187000Y0138000D01*
X0190597Y0136580D02*
X0193400Y0136580D01*
X0193400Y0138178D02*
X0190867Y0138178D01*
X0190450Y0139777D02*
X0193400Y0139777D01*
X0191948Y0141375D02*
X0188956Y0141375D01*
X0187706Y0142974D02*
X0190349Y0142974D01*
X0188751Y0144572D02*
X0187706Y0144572D01*
X0190106Y0146894D02*
X0190106Y0156787D01*
X0185000Y0156894D02*
X0185000Y0164000D01*
X0186000Y0165000D01*
X0200000Y0165000D01*
X0207764Y0157236D01*
X0211268Y0157236D01*
X0216611Y0157360D02*
X0218400Y0157360D01*
X0218400Y0155762D02*
X0216611Y0155762D01*
X0216611Y0154163D02*
X0218400Y0154163D01*
X0218400Y0152565D02*
X0215835Y0152565D01*
X0215753Y0150966D02*
X0218400Y0150966D01*
X0218400Y0149368D02*
X0216611Y0149368D01*
X0219000Y0146000D02*
X0221000Y0148000D01*
X0221000Y0168000D01*
X0217858Y0171142D01*
X0218400Y0163754D02*
X0204923Y0163754D01*
X0206521Y0162156D02*
X0206949Y0162156D01*
X0202364Y0158959D02*
X0198087Y0158959D01*
X0198087Y0160557D02*
X0200766Y0160557D01*
X0199167Y0162156D02*
X0197795Y0162156D01*
X0215587Y0162156D02*
X0218400Y0162156D01*
X0218400Y0160557D02*
X0216611Y0160557D01*
X0216611Y0158959D02*
X0218400Y0158959D01*
X0235991Y0170148D02*
X0240009Y0170148D01*
X0239651Y0171747D02*
X0236349Y0171747D01*
X0236349Y0178141D02*
X0239651Y0178141D01*
X0240016Y0181338D02*
X0235984Y0181338D01*
X0236349Y0182937D02*
X0239651Y0182937D01*
X0239651Y0184535D02*
X0236349Y0184535D01*
X0236349Y0186134D02*
X0239651Y0186134D01*
X0239651Y0187732D02*
X0236349Y0187732D01*
X0236349Y0189331D02*
X0239651Y0189331D01*
X0242400Y0190929D02*
X0232600Y0190929D01*
X0232600Y0192528D02*
X0242400Y0192528D01*
X0242400Y0194126D02*
X0232600Y0194126D01*
X0232600Y0195725D02*
X0242400Y0195725D01*
X0242400Y0197323D02*
X0234000Y0197323D01*
X0235599Y0198922D02*
X0242400Y0198922D01*
X0242267Y0200520D02*
X0237733Y0200520D01*
X0239331Y0202119D02*
X0240669Y0202119D01*
X0235000Y0202000D02*
X0235000Y0205000D01*
X0235000Y0202000D02*
X0230000Y0197000D01*
X0230000Y0186598D01*
X0231000Y0185598D01*
X0225651Y0186134D02*
X0216619Y0186134D01*
X0216619Y0187732D02*
X0225651Y0187732D01*
X0225651Y0189331D02*
X0216619Y0189331D01*
X0216619Y0184535D02*
X0225651Y0184535D01*
X0225651Y0182937D02*
X0216619Y0182937D01*
X0212063Y0186102D02*
X0196102Y0186102D01*
X0195000Y0185000D01*
X0195000Y0177366D01*
X0195106Y0177260D01*
X0190000Y0179000D02*
X0190000Y0191000D01*
X0204000Y0205000D01*
X0205000Y0205000D01*
X0209331Y0202119D02*
X0210669Y0202119D01*
X0212267Y0200520D02*
X0207733Y0200520D01*
X0201599Y0198922D02*
X0228245Y0198922D01*
X0227733Y0200520D02*
X0229843Y0200520D01*
X0229331Y0202119D02*
X0230669Y0202119D01*
X0227400Y0197323D02*
X0200000Y0197323D01*
X0198402Y0195725D02*
X0227400Y0195725D01*
X0227400Y0194126D02*
X0196803Y0194126D01*
X0195205Y0192528D02*
X0227400Y0192528D01*
X0227400Y0190929D02*
X0193606Y0190929D01*
X0192600Y0189331D02*
X0207507Y0189331D01*
X0207507Y0182937D02*
X0197600Y0182937D01*
X0192655Y0186134D02*
X0192600Y0186134D01*
X0192600Y0187732D02*
X0194055Y0187732D01*
X0187400Y0189331D02*
X0187325Y0189331D01*
X0187400Y0190929D02*
X0185801Y0190929D01*
X0184941Y0192528D02*
X0187851Y0192528D01*
X0185106Y0187894D02*
X0183000Y0190000D01*
X0182000Y0190000D01*
X0185106Y0187894D02*
X0185106Y0177260D01*
X0182125Y0176542D02*
X0176600Y0176542D01*
X0176600Y0174944D02*
X0182125Y0174944D01*
X0182125Y0173345D02*
X0176600Y0173345D01*
X0176930Y0171747D02*
X0182562Y0171747D01*
X0182125Y0178141D02*
X0176600Y0178141D01*
X0176600Y0179739D02*
X0182125Y0179739D01*
X0182125Y0181338D02*
X0176600Y0181338D01*
X0176600Y0182937D02*
X0182506Y0182937D01*
X0182506Y0184535D02*
X0176593Y0184535D01*
X0175543Y0186134D02*
X0181230Y0186134D01*
X0178799Y0187732D02*
X0173945Y0187732D01*
X0172346Y0189331D02*
X0178133Y0189331D01*
X0178199Y0190929D02*
X0164556Y0190929D01*
X0163695Y0192528D02*
X0179059Y0192528D01*
X0169788Y0184535D02*
X0164427Y0184535D01*
X0155573Y0184535D02*
X0147212Y0184535D01*
X0130900Y0189331D02*
X0110018Y0189331D01*
X0116267Y0200520D02*
X0101733Y0200520D01*
X0103331Y0202119D02*
X0114669Y0202119D01*
X0113900Y0203717D02*
X0104100Y0203717D01*
X0104100Y0205316D02*
X0113900Y0205316D01*
X0113900Y0206914D02*
X0104100Y0206914D01*
X0094669Y0202119D02*
X0093331Y0202119D01*
X0091733Y0200520D02*
X0096267Y0200520D01*
X0086267Y0200520D02*
X0081733Y0200520D01*
X0083331Y0202119D02*
X0084669Y0202119D01*
X0121733Y0200520D02*
X0126267Y0200520D01*
X0124669Y0202119D02*
X0123331Y0202119D01*
X0132700Y0208513D02*
X0135300Y0208513D01*
X0163331Y0202119D02*
X0164669Y0202119D01*
X0187733Y0200520D02*
X0192267Y0200520D01*
X0190669Y0202119D02*
X0189331Y0202119D01*
X0188700Y0208513D02*
X0191300Y0208513D01*
X0198700Y0208513D02*
X0201300Y0208513D01*
X0208700Y0208513D02*
X0211300Y0208513D01*
X0218700Y0208513D02*
X0221300Y0208513D01*
X0228700Y0208513D02*
X0231300Y0208513D01*
X0238700Y0208513D02*
X0241300Y0208513D01*
X0248700Y0208513D02*
X0251300Y0208513D01*
X0259331Y0202119D02*
X0260240Y0202119D01*
X0261702Y0200520D02*
X0257733Y0200520D01*
X0265000Y0205000D02*
X0269000Y0201000D01*
X0265464Y0178141D02*
X0264349Y0178141D01*
X0253651Y0171747D02*
X0250349Y0171747D01*
X0249991Y0170148D02*
X0254009Y0170148D01*
X0251600Y0141375D02*
X0385200Y0141375D01*
X0385200Y0139777D02*
X0251600Y0139777D01*
X0251600Y0138178D02*
X0385200Y0138178D01*
X0385200Y0136580D02*
X0251600Y0136580D01*
X0251600Y0134981D02*
X0385200Y0134981D01*
X0385200Y0133383D02*
X0251600Y0133383D01*
X0251600Y0131784D02*
X0385200Y0131784D01*
X0385200Y0130186D02*
X0251600Y0130186D01*
X0251600Y0128587D02*
X0385200Y0128587D01*
X0385200Y0126989D02*
X0251600Y0126989D01*
X0251600Y0125390D02*
X0385200Y0125390D01*
X0385200Y0123792D02*
X0251600Y0123792D01*
X0245133Y0115799D02*
X0243878Y0115799D01*
X0245476Y0114201D02*
X0245560Y0114201D01*
X0247075Y0112602D02*
X0247099Y0112602D01*
X0232000Y0113000D02*
X0232000Y0066000D01*
X0233000Y0065000D01*
X0225426Y0051859D02*
X0240574Y0051859D01*
X0240200Y0050260D02*
X0225800Y0050260D01*
X0225800Y0048662D02*
X0240200Y0048662D01*
X0207669Y0053457D02*
X0204331Y0053457D01*
X0205426Y0051859D02*
X0206574Y0051859D01*
X0206200Y0050260D02*
X0205800Y0050260D01*
X0205800Y0048662D02*
X0206200Y0048662D01*
X0201000Y0047000D02*
X0201000Y0059000D01*
X0194800Y0065200D01*
X0194800Y0116150D01*
X0186972Y0120595D02*
X0184610Y0120595D01*
X0185239Y0118996D02*
X0185373Y0118996D01*
X0186125Y0116071D02*
X0179890Y0116071D01*
X0188570Y0122193D02*
X0148532Y0122193D01*
X0138192Y0122193D02*
X0135750Y0122193D01*
X0135750Y0123792D02*
X0138013Y0123792D01*
X0138013Y0125390D02*
X0135750Y0125390D01*
X0130550Y0120595D02*
X0092485Y0120595D01*
X0084400Y0133383D02*
X0074600Y0133383D01*
X0074600Y0134981D02*
X0084400Y0134981D01*
X0084400Y0136580D02*
X0074600Y0136580D01*
X0074600Y0138178D02*
X0083145Y0138178D01*
X0081546Y0139777D02*
X0074600Y0139777D01*
X0074600Y0141375D02*
X0079948Y0141375D01*
X0079400Y0142974D02*
X0074600Y0142974D01*
X0074600Y0144572D02*
X0079400Y0144572D01*
X0079400Y0146171D02*
X0074600Y0146171D01*
X0074600Y0147769D02*
X0079400Y0147769D01*
X0072000Y0152000D02*
X0071929Y0151929D01*
X0044400Y0155762D02*
X0026915Y0155762D01*
X0026002Y0157360D02*
X0044400Y0157360D01*
X0044400Y0158959D02*
X0026002Y0158959D01*
X0026002Y0160557D02*
X0044880Y0160557D01*
X0046000Y0168000D02*
X0034598Y0168000D01*
X0127614Y0115307D02*
X0127614Y0105614D01*
X0127000Y0105000D01*
X0130362Y0103011D02*
X0130550Y0103011D01*
X0130550Y0101412D02*
X0128444Y0101412D01*
X0146458Y0103011D02*
X0150638Y0103011D01*
X0151400Y0101412D02*
X0147600Y0101412D01*
X0147867Y0099814D02*
X0151400Y0099814D01*
X0151400Y0098215D02*
X0147446Y0098215D01*
X0145937Y0096617D02*
X0151400Y0096617D01*
X0185239Y0123792D02*
X0189895Y0123792D01*
X0189895Y0125390D02*
X0185239Y0125390D01*
X0185239Y0126989D02*
X0189895Y0126989D01*
X0189895Y0128587D02*
X0185239Y0128587D01*
X0185239Y0130186D02*
X0189895Y0130186D01*
X0190359Y0131784D02*
X0184618Y0131784D01*
X0182706Y0133383D02*
X0193400Y0133383D01*
X0193400Y0134981D02*
X0189450Y0134981D01*
X0184550Y0134981D02*
X0182706Y0134981D01*
X0182706Y0136580D02*
X0183403Y0136580D01*
X0183133Y0138178D02*
X0182706Y0138178D01*
X0196105Y0144572D02*
X0196751Y0144572D01*
X0197703Y0142974D02*
X0205924Y0142974D01*
X0206867Y0141375D02*
X0198600Y0141375D01*
X0217733Y0200520D02*
X0222267Y0200520D01*
X0220669Y0202119D02*
X0219331Y0202119D01*
X0170669Y0053457D02*
X0167331Y0053457D01*
X0168426Y0051859D02*
X0169574Y0051859D01*
X0169200Y0050260D02*
X0168800Y0050260D01*
X0168800Y0048662D02*
X0169200Y0048662D01*
X0169200Y0047063D02*
X0168800Y0047063D01*
X0168800Y0045465D02*
X0169200Y0045465D01*
X0169200Y0043866D02*
X0168800Y0043866D01*
X0168478Y0042268D02*
X0169522Y0042268D01*
X0170543Y0040669D02*
X0167457Y0040669D01*
X0162755Y0031078D02*
X0203753Y0031078D01*
X0204400Y0027881D02*
X0198308Y0027881D01*
X0199247Y0026282D02*
X0203753Y0026282D01*
X0202676Y0019888D02*
X0199247Y0019888D01*
X0198385Y0018290D02*
X0201077Y0018290D01*
X0199900Y0016691D02*
X0190100Y0016691D01*
X0190100Y0015093D02*
X0199900Y0015093D01*
X0199900Y0013494D02*
X0190100Y0013494D01*
X0189108Y0011896D02*
X0200892Y0011896D01*
X0202490Y0010297D02*
X0187510Y0010297D01*
X0188923Y0018290D02*
X0189411Y0018290D01*
X0188548Y0019888D02*
X0187446Y0019888D01*
X0187446Y0026282D02*
X0188548Y0026282D01*
X0189487Y0027881D02*
X0187003Y0027881D01*
X0177546Y0026282D02*
X0157959Y0026282D01*
X0157600Y0024684D02*
X0177546Y0024684D01*
X0151077Y0018290D02*
X0148923Y0018290D01*
X0140892Y0011896D02*
X0139108Y0011896D01*
X0137510Y0010297D02*
X0142490Y0010297D01*
X0115200Y0048662D02*
X0114800Y0048662D01*
X0114800Y0050260D02*
X0115200Y0050260D01*
X0115574Y0051859D02*
X0114426Y0051859D01*
X0113331Y0053457D02*
X0116669Y0053457D01*
X0024543Y0040669D02*
X0021457Y0040669D01*
X0014543Y0040669D02*
X0006800Y0040669D01*
X0006800Y0042268D02*
X0013522Y0042268D01*
X0013200Y0043866D02*
X0006800Y0043866D01*
X0006800Y0045465D02*
X0013200Y0045465D01*
X0013200Y0047063D02*
X0006800Y0047063D01*
X0006800Y0048662D02*
X0013200Y0048662D01*
X0013200Y0050260D02*
X0006800Y0050260D01*
X0006800Y0051859D02*
X0013574Y0051859D01*
X0014669Y0053457D02*
X0006800Y0053457D01*
X0006800Y0007100D02*
X0375200Y0007100D01*
X0375200Y0011896D02*
X0259108Y0011896D01*
X0260100Y0013494D02*
X0375200Y0013494D01*
X0375200Y0015093D02*
X0260100Y0015093D01*
X0260100Y0016691D02*
X0376146Y0016691D01*
X0377744Y0018290D02*
X0258923Y0018290D01*
X0257324Y0019888D02*
X0379343Y0019888D01*
X0252676Y0019888D02*
X0247324Y0019888D01*
X0248923Y0018290D02*
X0251077Y0018290D01*
X0242676Y0019888D02*
X0237324Y0019888D01*
X0238923Y0018290D02*
X0241077Y0018290D01*
D25*
X0172650Y0015200D02*
X0172650Y0015184D01*
X0143050Y0114800D02*
X0143362Y0115071D01*
X0127614Y0115307D02*
X0127300Y0115250D01*
X0087677Y0113835D02*
X0087250Y0113900D01*
X0071929Y0114071D02*
X0071500Y0113900D01*
X0082000Y0151000D02*
X0082300Y0151700D01*
X0082300Y0154400D01*
X0082185Y0154748D01*
X0072400Y0154400D02*
X0072400Y0152600D01*
X0072000Y0152000D01*
X0072400Y0154400D02*
X0072185Y0154748D01*
X0133150Y0155300D02*
X0133500Y0155827D01*
X0138000Y0154000D02*
X0138550Y0154400D01*
X0138550Y0155750D01*
X0138500Y0155827D01*
X0185106Y0156787D02*
X0185350Y0156200D01*
X0190106Y0177260D02*
X0190300Y0177350D01*
X0190300Y0178250D01*
X0190000Y0179000D01*
X0245000Y0174402D02*
X0245200Y0174650D01*
X0245200Y0175000D01*
X0196000Y0127400D02*
X0195250Y0127400D01*
X0195244Y0127425D01*
X0195244Y0116228D02*
X0194800Y0116150D01*
D26*
X0187000Y0103000D03*
X0154000Y0105000D03*
X0144000Y0100000D03*
X0127000Y0105000D03*
X0110000Y0100000D03*
X0083000Y0101000D03*
X0187000Y0138000D03*
X0233000Y0139000D03*
X0249000Y0116000D03*
X0232000Y0113000D03*
X0182000Y0190000D03*
X0138000Y0195000D03*
X0084500Y0187500D03*
M02*
