G75*
%MOIN*%
%OFA0B0*%
%FSLAX25Y25*%
%IPPOS*%
%LPD*%
%AMOC8*
5,1,8,0,0,1.08239X$1,22.5*
%
%ADD10C,0.00000*%
%ADD11C,0.00600*%
%ADD12C,0.00400*%
D10*
X0005000Y0005000D02*
X0005000Y0215000D01*
X0344000Y0215000D01*
X0350000Y0209000D01*
X0350000Y0164000D01*
X0360000Y0154000D01*
X0360000Y0025000D01*
X0350000Y0015000D01*
X0350000Y0005000D01*
X0005000Y0005000D01*
X0005000Y0215000D01*
X0330921Y0214701D01*
X0370000Y0215000D01*
X0377000Y0209000D01*
X0377000Y0163000D01*
X0387000Y0154000D01*
X0387000Y0025000D01*
X0377000Y0015000D01*
X0377000Y0005000D01*
X0005000Y0005000D01*
D11*
X0010368Y0044246D02*
X0009300Y0045314D01*
X0010368Y0046381D01*
X0009300Y0047449D01*
X0010368Y0048516D01*
X0013570Y0048516D01*
X0013570Y0050692D02*
X0010368Y0050692D01*
X0009300Y0051759D01*
X0010368Y0052827D01*
X0009300Y0053894D01*
X0010368Y0054962D01*
X0013570Y0054962D01*
X0013570Y0057137D02*
X0010368Y0057137D01*
X0009300Y0058205D01*
X0010368Y0059272D01*
X0009300Y0060340D01*
X0010368Y0061407D01*
X0013570Y0061407D01*
X0010368Y0063583D02*
X0010368Y0064650D01*
X0009300Y0064650D01*
X0009300Y0063583D01*
X0010368Y0063583D01*
X0010368Y0066805D02*
X0009300Y0067873D01*
X0009300Y0070008D01*
X0010368Y0071076D01*
X0014638Y0071076D01*
X0015705Y0070008D01*
X0015705Y0067873D01*
X0014638Y0066805D01*
X0010368Y0066805D01*
X0009300Y0073251D02*
X0009300Y0076454D01*
X0010368Y0077521D01*
X0012503Y0077521D01*
X0013570Y0076454D01*
X0013570Y0073251D01*
X0007165Y0073251D01*
X0010368Y0079696D02*
X0012503Y0079696D01*
X0013570Y0080764D01*
X0013570Y0082899D01*
X0012503Y0083967D01*
X0011435Y0083967D01*
X0011435Y0079696D01*
X0010368Y0079696D02*
X0009300Y0080764D01*
X0009300Y0082899D01*
X0009300Y0086142D02*
X0013570Y0086142D01*
X0013570Y0089345D01*
X0012503Y0090412D01*
X0009300Y0090412D01*
X0009300Y0092587D02*
X0015705Y0092587D01*
X0015705Y0095790D01*
X0014638Y0096858D01*
X0012503Y0096858D01*
X0011435Y0095790D01*
X0011435Y0092587D01*
X0011435Y0094722D02*
X0009300Y0096858D01*
X0010368Y0099033D02*
X0009300Y0100100D01*
X0009300Y0102236D01*
X0010368Y0103303D01*
X0012503Y0103303D01*
X0013570Y0102236D01*
X0013570Y0100100D01*
X0012503Y0099033D01*
X0010368Y0099033D01*
X0013570Y0105478D02*
X0009300Y0107613D01*
X0013570Y0109749D01*
X0012503Y0111924D02*
X0010368Y0111924D01*
X0009300Y0112991D01*
X0009300Y0115127D01*
X0011435Y0116194D02*
X0011435Y0111924D01*
X0012503Y0111924D02*
X0013570Y0112991D01*
X0013570Y0115127D01*
X0012503Y0116194D01*
X0011435Y0116194D01*
X0011435Y0118369D02*
X0013570Y0120504D01*
X0013570Y0121572D01*
X0010368Y0123741D02*
X0010368Y0124808D01*
X0009300Y0124808D01*
X0009300Y0123741D01*
X0010368Y0123741D01*
X0010368Y0126963D02*
X0009300Y0128031D01*
X0009300Y0131234D01*
X0010368Y0133409D02*
X0009300Y0134476D01*
X0009300Y0136612D01*
X0010368Y0137679D01*
X0012503Y0137679D01*
X0013570Y0136612D01*
X0013570Y0134476D01*
X0012503Y0133409D01*
X0010368Y0133409D01*
X0013570Y0131234D02*
X0013570Y0128031D01*
X0012503Y0126963D01*
X0010368Y0126963D01*
X0009300Y0118369D02*
X0013570Y0118369D01*
X0013570Y0139854D02*
X0009300Y0139854D01*
X0009300Y0141989D02*
X0012503Y0141989D01*
X0013570Y0143057D01*
X0012503Y0144125D01*
X0009300Y0144125D01*
X0012503Y0141989D02*
X0013570Y0140922D01*
X0013570Y0139854D01*
X0013570Y0044246D02*
X0010368Y0044246D01*
X0373165Y0078251D02*
X0379570Y0078251D01*
X0379570Y0081454D01*
X0378503Y0082521D01*
X0376368Y0082521D01*
X0375300Y0081454D01*
X0375300Y0078251D01*
X0376368Y0076076D02*
X0380638Y0076076D01*
X0381705Y0075008D01*
X0381705Y0072873D01*
X0380638Y0071805D01*
X0376368Y0071805D01*
X0375300Y0072873D01*
X0375300Y0075008D01*
X0376368Y0076076D01*
X0376368Y0069650D02*
X0375300Y0069650D01*
X0375300Y0068583D01*
X0376368Y0068583D01*
X0376368Y0069650D01*
X0376368Y0066407D02*
X0379570Y0066407D01*
X0376368Y0066407D02*
X0375300Y0065340D01*
X0376368Y0064272D01*
X0375300Y0063205D01*
X0376368Y0062137D01*
X0379570Y0062137D01*
X0379570Y0059962D02*
X0376368Y0059962D01*
X0375300Y0058894D01*
X0376368Y0057827D01*
X0375300Y0056759D01*
X0376368Y0055692D01*
X0379570Y0055692D01*
X0379570Y0053516D02*
X0376368Y0053516D01*
X0375300Y0052449D01*
X0376368Y0051381D01*
X0375300Y0050314D01*
X0376368Y0049246D01*
X0379570Y0049246D01*
X0378503Y0084696D02*
X0376368Y0084696D01*
X0375300Y0085764D01*
X0375300Y0087899D01*
X0377435Y0088967D02*
X0377435Y0084696D01*
X0378503Y0084696D02*
X0379570Y0085764D01*
X0379570Y0087899D01*
X0378503Y0088967D01*
X0377435Y0088967D01*
X0375300Y0091142D02*
X0379570Y0091142D01*
X0379570Y0094345D01*
X0378503Y0095412D01*
X0375300Y0095412D01*
X0375300Y0097587D02*
X0381705Y0097587D01*
X0381705Y0100790D01*
X0380638Y0101858D01*
X0378503Y0101858D01*
X0377435Y0100790D01*
X0377435Y0097587D01*
X0377435Y0099722D02*
X0375300Y0101858D01*
X0376368Y0104033D02*
X0375300Y0105100D01*
X0375300Y0107236D01*
X0376368Y0108303D01*
X0378503Y0108303D01*
X0379570Y0107236D01*
X0379570Y0105100D01*
X0378503Y0104033D01*
X0376368Y0104033D01*
X0379570Y0110478D02*
X0375300Y0112613D01*
X0379570Y0114749D01*
X0378503Y0116924D02*
X0376368Y0116924D01*
X0375300Y0117991D01*
X0375300Y0120127D01*
X0377435Y0121194D02*
X0377435Y0116924D01*
X0378503Y0116924D02*
X0379570Y0117991D01*
X0379570Y0120127D01*
X0378503Y0121194D01*
X0377435Y0121194D01*
X0377435Y0123369D02*
X0379570Y0125504D01*
X0379570Y0126572D01*
X0376368Y0128741D02*
X0376368Y0129808D01*
X0375300Y0129808D01*
X0375300Y0128741D01*
X0376368Y0128741D01*
X0376368Y0131963D02*
X0375300Y0133031D01*
X0375300Y0136234D01*
X0376368Y0138409D02*
X0375300Y0139476D01*
X0375300Y0141612D01*
X0376368Y0142679D01*
X0378503Y0142679D01*
X0379570Y0141612D01*
X0379570Y0139476D01*
X0378503Y0138409D01*
X0376368Y0138409D01*
X0379570Y0136234D02*
X0379570Y0133031D01*
X0378503Y0131963D01*
X0376368Y0131963D01*
X0375300Y0123369D02*
X0379570Y0123369D01*
X0379570Y0144854D02*
X0375300Y0144854D01*
X0375300Y0146989D02*
X0378503Y0146989D01*
X0379570Y0148057D01*
X0378503Y0149125D01*
X0375300Y0149125D01*
X0378503Y0146989D02*
X0379570Y0145922D01*
X0379570Y0144854D01*
D12*
X0288197Y0111607D02*
X0288197Y0108538D01*
X0287430Y0107771D01*
X0285895Y0107771D01*
X0285128Y0108538D01*
X0283593Y0108538D02*
X0282826Y0107771D01*
X0281291Y0107771D01*
X0280524Y0108538D01*
X0280524Y0109305D01*
X0281291Y0110073D01*
X0282826Y0110073D01*
X0283593Y0110840D01*
X0283593Y0111607D01*
X0282826Y0112375D01*
X0281291Y0112375D01*
X0280524Y0111607D01*
X0280524Y0110840D01*
X0281291Y0110073D01*
X0282826Y0110073D02*
X0283593Y0109305D01*
X0283593Y0108538D01*
X0284259Y0106824D02*
X0282725Y0106824D01*
X0281958Y0106056D01*
X0281958Y0105289D01*
X0285027Y0102220D01*
X0281958Y0102220D01*
X0280423Y0102220D02*
X0280423Y0102987D01*
X0277354Y0106056D01*
X0277354Y0106824D01*
X0280423Y0106824D01*
X0284259Y0106824D02*
X0285027Y0106056D01*
X0286561Y0106056D02*
X0286561Y0104522D01*
X0287329Y0103754D01*
X0289631Y0103754D01*
X0289631Y0102220D02*
X0289631Y0106824D01*
X0287329Y0106824D01*
X0286561Y0106056D01*
X0288096Y0103754D02*
X0286561Y0102220D01*
X0285691Y0093493D02*
X0284156Y0093493D01*
X0283389Y0092726D01*
X0283389Y0091958D01*
X0284156Y0091191D01*
X0285691Y0091191D01*
X0286458Y0091958D01*
X0286458Y0092726D01*
X0285691Y0093493D01*
X0285691Y0091191D02*
X0286458Y0090424D01*
X0286458Y0089656D01*
X0285691Y0088889D01*
X0284156Y0088889D01*
X0283389Y0089656D01*
X0283389Y0090424D01*
X0284156Y0091191D01*
X0287993Y0091958D02*
X0291062Y0088889D01*
X0287993Y0088889D01*
X0287993Y0091958D02*
X0287993Y0092726D01*
X0288760Y0093493D01*
X0290295Y0093493D01*
X0291062Y0092726D01*
X0292597Y0092726D02*
X0293364Y0093493D01*
X0295666Y0093493D01*
X0295666Y0088889D01*
X0295666Y0090424D02*
X0293364Y0090424D01*
X0292597Y0091191D01*
X0292597Y0092726D01*
X0294132Y0090424D02*
X0292597Y0088889D01*
X0288197Y0111607D02*
X0287430Y0112375D01*
X0285895Y0112375D01*
X0285128Y0111607D01*
M02*
